M48
; DRILL file {KiCad (6.0.7)} date Mon Sep 26 20:42:48 2022
; FORMAT={-:-/ absolute / inch / decimal}
; #@! TF.CreationDate,2022-09-26T20:42:48+09:00
; #@! TF.GenerationSoftware,Kicad,Pcbnew,(6.0.7)
; #@! TF.FileFunction,MixedPlating,1,2
FMAT,2
INCH
; #@! TA.AperFunction,Plated,PTH,ViaDrill
T1C0.0157
; #@! TA.AperFunction,Plated,PTH,ComponentDrill
T2C0.0295
; #@! TA.AperFunction,Plated,PTH,ComponentDrill
T3C0.0315
; #@! TA.AperFunction,Plated,PTH,ComponentDrill
T4C0.0374
; #@! TA.AperFunction,Plated,PTH,ComponentDrill
T5C0.0390
; #@! TA.AperFunction,Plated,PTH,ComponentDrill
T6C0.0430
%
G90
G05
T1
X3.4688Y-3.3125
X3.625Y-3.2188
T2
X1.4919Y-4.374
X1.4919Y-4.6553
X1.4919Y-4.9365
X1.4919Y-5.2178
X1.5Y-1.8115
X1.5Y-2.0928
X1.5Y-2.374
X1.5Y-2.6553
X1.5706Y-4.374
X1.5706Y-4.6553
X1.5706Y-4.9365
X1.5706Y-5.2178
X1.5787Y-1.8115
X1.5787Y-2.0928
X1.5787Y-2.374
X1.5787Y-2.6553
X1.7731Y-4.374
X1.7731Y-4.6553
X1.7731Y-4.9365
X1.7731Y-5.2178
X1.7813Y-1.8115
X1.7813Y-2.0928
X1.7813Y-2.374
X1.7813Y-2.6553
X1.8519Y-4.374
X1.8519Y-4.6553
X1.8519Y-4.9365
X1.8519Y-5.2178
X1.86Y-1.8115
X1.86Y-2.0928
X1.86Y-2.374
X1.86Y-2.6553
X2.6481Y-1.8115
X2.6481Y-2.0928
X2.6481Y-2.375
X2.6481Y-2.6553
X2.6528Y-4.3846
X2.6528Y-4.6658
X2.6528Y-4.9471
X2.6528Y-5.2283
X2.7269Y-1.8115
X2.7269Y-2.0928
X2.7269Y-2.375
X2.7269Y-2.6553
X2.7315Y-4.3846
X2.7315Y-4.6658
X2.7315Y-4.9471
X2.7315Y-5.2283
X2.9294Y-1.8115
X2.9294Y-2.0928
X2.9294Y-2.374
X2.9294Y-2.6553
X2.9341Y-4.3846
X2.9341Y-4.6658
X2.9341Y-4.9471
X2.9341Y-5.2283
X3.0081Y-1.8115
X3.0081Y-2.0928
X3.0081Y-2.374
X3.0081Y-2.6553
X3.0128Y-4.3846
X3.0128Y-4.6658
X3.0128Y-4.9471
X3.0128Y-5.2283
X3.125Y-3.0
X3.125Y-3.0937
X3.125Y-3.25
X3.125Y-3.3437
X3.125Y-3.5937
X3.125Y-3.6875
X3.125Y-3.8437
X3.125Y-3.9375
X3.375Y-3.0
X3.375Y-3.0937
X3.375Y-3.25
X3.375Y-3.3437
X3.375Y-3.5937
X3.375Y-3.6875
X3.375Y-3.8437
X3.375Y-3.9375
X3.4606Y-4.3846
X3.4606Y-4.6658
X3.4606Y-4.9471
X3.4606Y-5.2283
X3.5394Y-4.3846
X3.5394Y-4.6658
X3.5394Y-4.9471
X3.5394Y-5.2283
X3.7419Y-4.3846
X3.7419Y-4.6658
X3.7419Y-4.9471
X3.7419Y-5.2283
X3.8206Y-4.3846
X3.8206Y-4.6658
X3.8206Y-4.9471
X3.8206Y-5.2283
X4.2106Y-3.1658
X4.2894Y-3.1658
X4.515Y-3.1658
X4.5938Y-3.1658
X4.5938Y-4.3846
X4.5938Y-4.6658
X4.5938Y-4.9471
X4.5938Y-5.2283
X4.6725Y-4.3846
X4.6725Y-4.6658
X4.6725Y-4.9471
X4.6725Y-5.2283
X4.8044Y-3.1658
X4.8831Y-3.1658
X4.8981Y-4.3846
X4.8981Y-4.6658
X4.8981Y-4.9471
X4.8981Y-5.2283
X4.9769Y-4.3846
X4.9769Y-4.6658
X4.9769Y-4.9471
X4.9769Y-5.2283
T3
X1.5392Y-2.9744
X1.5392Y-3.0744
X1.5392Y-3.1744
X1.5392Y-3.2744
X1.5471Y-3.6508
X1.5471Y-3.7508
X1.5471Y-3.8508
X1.5471Y-3.9508
X1.8392Y-2.9744
X1.8392Y-3.0744
X1.8392Y-3.1744
X1.8392Y-3.2744
X1.8471Y-3.6508
X1.8471Y-3.7508
X1.8471Y-3.8508
X1.8471Y-3.9508
X2.1004Y-1.6941
X2.1004Y-1.7941
X2.1004Y-1.8941
X2.1004Y-1.9941
X2.1004Y-2.0941
X2.1004Y-2.1941
X2.1004Y-2.2941
X2.1004Y-2.3941
X2.1004Y-2.4941
X2.1004Y-2.5941
X2.1004Y-2.6941
X2.1004Y-2.7941
X2.1004Y-2.8941
X2.1004Y-2.9941
X2.1004Y-3.9441
X2.1004Y-4.0441
X2.1004Y-4.1441
X2.1004Y-4.2441
X2.1004Y-4.3441
X2.1004Y-4.4441
X2.1004Y-4.5441
X2.1004Y-4.6441
X2.1004Y-4.7441
X2.1004Y-4.8441
X2.1004Y-4.9441
X2.1004Y-5.0441
X2.1004Y-5.1441
X2.1004Y-5.2441
X2.4004Y-1.6941
X2.4004Y-1.7941
X2.4004Y-1.8941
X2.4004Y-1.9941
X2.4004Y-2.0941
X2.4004Y-2.1941
X2.4004Y-2.2941
X2.4004Y-2.3941
X2.4004Y-2.4941
X2.4004Y-2.5941
X2.4004Y-2.6941
X2.4004Y-2.7941
X2.4004Y-2.8941
X2.4004Y-2.9941
X2.4004Y-3.9441
X2.4004Y-4.0441
X2.4004Y-4.1441
X2.4004Y-4.2441
X2.4004Y-4.3441
X2.4004Y-4.4441
X2.4004Y-4.5441
X2.4004Y-4.6441
X2.4004Y-4.7441
X2.4004Y-4.8441
X2.4004Y-4.9441
X2.4004Y-5.0441
X2.4004Y-5.1441
X2.4004Y-5.2441
X4.0691Y-3.9441
X4.0691Y-4.0441
X4.0691Y-4.1441
X4.0691Y-4.2441
X4.0691Y-4.3441
X4.0691Y-4.4441
X4.0691Y-4.5441
X4.0691Y-4.6441
X4.0691Y-4.7441
X4.0691Y-4.8441
X4.0691Y-4.9441
X4.0691Y-5.0441
X4.0691Y-5.1441
X4.0691Y-5.2441
X4.3691Y-3.9441
X4.3691Y-4.0441
X4.3691Y-4.1441
X4.3691Y-4.2441
X4.3691Y-4.3441
X4.3691Y-4.4441
X4.3691Y-4.5441
X4.3691Y-4.6441
X4.3691Y-4.7441
X4.3691Y-4.8441
X4.3691Y-4.9441
X4.3691Y-5.0441
X4.3691Y-5.1441
X4.3691Y-5.2441
X4.6017Y-3.6629
X4.6017Y-3.7629
X4.6017Y-3.8629
X4.6017Y-3.9629
X4.9017Y-3.6629
X4.9017Y-3.7629
X4.9017Y-3.8629
X4.9017Y-3.9629
T4
X1.6203Y-4.25
X1.6203Y-4.5312
X1.6203Y-4.8125
X1.6203Y-5.0937
X1.6284Y-1.6875
X1.6284Y-1.9687
X1.6284Y-2.25
X1.6284Y-2.5312
X1.7188Y-4.25
X1.7188Y-4.5312
X1.7188Y-4.8125
X1.7188Y-5.0937
X1.7269Y-1.6875
X1.7269Y-1.9687
X1.7269Y-2.25
X1.7269Y-2.5312
X1.8172Y-4.25
X1.8172Y-4.5312
X1.8172Y-4.8125
X1.8172Y-5.0937
X1.8253Y-1.6875
X1.8253Y-1.9687
X1.8253Y-2.25
X1.8253Y-2.5312
X2.6828Y-1.6875
X2.6828Y-1.9687
X2.6828Y-2.25
X2.6828Y-2.5312
X2.6875Y-4.2606
X2.6875Y-4.5418
X2.6875Y-4.8231
X2.6875Y-5.1043
X2.7813Y-1.6875
X2.7813Y-1.9687
X2.7813Y-2.25
X2.7813Y-2.5312
X2.7859Y-4.2606
X2.7859Y-4.5418
X2.7859Y-4.8231
X2.7859Y-5.1043
X2.8797Y-1.6875
X2.8797Y-1.9687
X2.8797Y-2.25
X2.8797Y-2.5312
X2.8844Y-4.2606
X2.8844Y-4.5418
X2.8844Y-4.8231
X2.8844Y-5.1043
X3.5266Y-1.6981
X3.5266Y-1.9793
X3.5266Y-2.2606
X3.5266Y-2.5418
X3.5266Y-2.8231
X3.5891Y-4.2606
X3.5891Y-4.5418
X3.5891Y-4.8231
X3.5891Y-5.1043
X3.625Y-1.6981
X3.625Y-1.9793
X3.625Y-2.2606
X3.625Y-2.5418
X3.625Y-2.8231
X3.6875Y-4.2606
X3.6875Y-4.5418
X3.6875Y-4.8231
X3.6875Y-5.1043
X3.7234Y-1.6981
X3.7234Y-1.9793
X3.7234Y-2.2606
X3.7234Y-2.5418
X3.7234Y-2.8231
X3.7859Y-4.2606
X3.7859Y-4.5418
X3.7859Y-4.8231
X3.7859Y-5.1043
X4.6435Y-4.2606
X4.6435Y-4.5418
X4.6435Y-4.8231
X4.6435Y-5.1043
X4.7419Y-4.2606
X4.7419Y-4.5418
X4.7419Y-4.8231
X4.7419Y-5.1043
X4.8403Y-4.2606
X4.8403Y-4.5418
X4.8403Y-4.8231
X4.8403Y-5.1043
X4.8644Y-1.7094
X4.8644Y-1.8078
X4.8644Y-1.9062
X4.8644Y-2.0047
X4.8644Y-2.1031
X4.8644Y-2.3438
X4.8644Y-2.4422
X4.8644Y-2.5406
X4.8644Y-2.639
X4.8644Y-2.7375
T5
X2.5813Y-2.9687
X2.5813Y-3.0937
X2.5813Y-3.2187
X2.5813Y-3.625
X2.5813Y-3.75
X2.5813Y-3.875
X2.9813Y-2.9687
X2.9813Y-3.0937
X2.9813Y-3.2187
X2.9813Y-3.625
X2.9813Y-3.75
X2.9813Y-3.875
X3.5188Y-3.625
X3.5188Y-3.75
X3.5188Y-3.875
X3.9188Y-3.625
X3.9188Y-3.75
X3.9188Y-3.875
T6
X3.941Y-1.7625
X3.941Y-1.9625
X3.941Y-2.1625
X3.941Y-2.3625
X3.941Y-2.5625
X3.941Y-2.7625
X3.959Y-1.8625
X3.959Y-2.0625
X3.959Y-2.2625
X3.959Y-2.4625
X3.959Y-2.6625
X3.959Y-2.8625
X4.541Y-1.8625
X4.541Y-2.0625
X4.541Y-2.2625
X4.541Y-2.4625
X4.541Y-2.6625
X4.541Y-2.8625
X4.559Y-1.7625
X4.559Y-1.9625
X4.559Y-2.1625
X4.559Y-2.3625
X4.559Y-2.5625
X4.559Y-2.7625
T0
M30
