%TF.GenerationSoftware,KiCad,Pcbnew,(6.0.7)*%
%TF.CreationDate,2022-09-26T20:42:48+09:00*%
%TF.ProjectId,xi_cont,78695f63-6f6e-4742-9e6b-696361645f70,rev?*%
%TF.SameCoordinates,Original*%
%TF.FileFunction,Drillmap*%
%TF.FilePolarity,Positive*%
%FSLAX45Y45*%
G04 Gerber Fmt 4.5, Leading zero omitted, Abs format (unit mm)*
G04 Created by KiCad (PCBNEW (6.0.7)) date 2022-09-26 20:42:48*
%MOMM*%
%LPD*%
G01*
G04 APERTURE LIST*
%ADD10C,0.150000*%
%ADD11C,0.100000*%
%ADD12C,0.200000*%
%ADD13C,0.040000*%
%ADD14C,0.075000*%
%ADD15C,0.080000*%
%ADD16C,0.095000*%
%ADD17C,0.099060*%
%ADD18C,0.109220*%
G04 APERTURE END LIST*
D10*
X8215312Y-9366250D02*
G75*
G03*
X8334375Y-9366250I59531J39688D01*
G01*
X8215312Y-7032515D02*
X8215312Y-6461235D01*
X8334375Y-9366250D02*
X8334375Y-8683735D01*
X8334375Y-13255625D02*
X8334375Y-13128735D01*
D11*
X12700000Y-13731875D02*
X3492500Y-13731875D01*
D10*
X8215312Y-10445640D02*
G75*
G03*
X8334375Y-10445640I59531J39688D01*
G01*
X10445640Y-8850321D02*
X9874360Y-8850321D01*
X8334375Y-8175625D02*
X8334375Y-7572485D01*
X5524390Y-8850311D02*
G75*
G03*
X5524391Y-8731250I-39687J59531D01*
G01*
X8215312Y-8175625D02*
G75*
G03*
X8334375Y-8175625I59531J39688D01*
G01*
X7667514Y-8731250D02*
X7175609Y-8731250D01*
X7667513Y-8850311D02*
G75*
G03*
X7667514Y-8731250I-39682J59531D01*
G01*
X8334375Y-7572485D02*
G75*
G03*
X8215312Y-7572485I-59531J-39688D01*
G01*
X8334375Y-4365625D02*
G75*
G03*
X8215312Y-4365625I-59531J-39688D01*
G01*
D11*
X3492500Y-3889375D02*
G75*
G03*
X3175000Y-4206875I0J-317500D01*
G01*
D10*
X7175608Y-8731248D02*
G75*
G03*
X7175609Y-8850313I39693J-59532D01*
G01*
X8334375Y-12005468D02*
G75*
G03*
X8215312Y-12005468I-59531J-39688D01*
G01*
X3651249Y-8731248D02*
G75*
G03*
X3651250Y-8850313I39686J-59532D01*
G01*
X8215312Y-13255625D02*
X8215312Y-13128735D01*
X12517225Y-8850319D02*
G75*
G03*
X12517220Y-8731250I-39694J59533D01*
G01*
X10445635Y-8850314D02*
G75*
G03*
X10445640Y-8731258I-39680J59529D01*
G01*
X10985614Y-8731261D02*
G75*
G03*
X10985610Y-8850316I39681J-59529D01*
G01*
X8215312Y-9366250D02*
X8215312Y-8683735D01*
X5524391Y-8731250D02*
X4953112Y-8731250D01*
X8215312Y-4889390D02*
G75*
G03*
X8334375Y-4889390I59531J39688D01*
G01*
X8215312Y-5921265D02*
G75*
G03*
X8334375Y-5921265I59531J39688D01*
G01*
X8334375Y-11477515D02*
X8334375Y-10985610D01*
D11*
X13017500Y-4206875D02*
X13017500Y-13414375D01*
D10*
X9874356Y-8731251D02*
G75*
G03*
X9874360Y-8850321I39694J-59533D01*
G01*
X5524391Y-8850312D02*
X4953112Y-8850313D01*
X8215312Y-11477515D02*
X8215312Y-10985610D01*
X8215312Y-12588765D02*
X8215312Y-12005468D01*
X11556890Y-8850315D02*
G75*
G03*
X11556895Y-8731259I-39685J59529D01*
G01*
X8334375Y-7032515D02*
X8334375Y-6461235D01*
X4413141Y-8731250D02*
X3651250Y-8731250D01*
X9334394Y-8850323D02*
G75*
G03*
X9334390Y-8731254I-39694J59533D01*
G01*
X8215312Y-4889390D02*
X8215312Y-4365625D01*
X6064358Y-8731248D02*
G75*
G03*
X6064359Y-8850313I39694J-59532D01*
G01*
X8215312Y-10445640D02*
X8215312Y-9874360D01*
X8334375Y-8683735D02*
G75*
G03*
X8215312Y-8683735I-59531J-39688D01*
G01*
X8334375Y-13128735D02*
G75*
G03*
X8215312Y-13128735I-59531J-39688D01*
G01*
D11*
X3492500Y-3889375D02*
X12700000Y-3889375D01*
D10*
X8215312Y-11477515D02*
G75*
G03*
X8334375Y-11477515I59531J39688D01*
G01*
X12517220Y-8731250D02*
X12104690Y-8731250D01*
X10445640Y-8731258D02*
X9874360Y-8731258D01*
X8334375Y-4889390D02*
X8334375Y-4365625D01*
X6635639Y-8731250D02*
X6064359Y-8731250D01*
X12104695Y-8731257D02*
G75*
G03*
X12104690Y-8850313I39680J-59529D01*
G01*
X12517220Y-8850313D02*
X12104690Y-8850313D01*
X8334375Y-5429360D02*
G75*
G03*
X8215312Y-5429360I-59531J-39688D01*
G01*
X8334375Y-12588765D02*
X8334375Y-12005468D01*
D11*
X13017505Y-4206875D02*
G75*
G03*
X12700000Y-3889375I-317505J-5D01*
G01*
D10*
X8334375Y-6461235D02*
G75*
G03*
X8215312Y-6461235I-59531J-39688D01*
G01*
X4413140Y-8850311D02*
G75*
G03*
X4413141Y-8731250I-39687J59531D01*
G01*
D11*
X12700000Y-13731870D02*
G75*
G03*
X13017500Y-13414375I0J317500D01*
G01*
D10*
X8215312Y-7032515D02*
G75*
G03*
X8334375Y-7032515I59531J39688D01*
G01*
X8215312Y-13255625D02*
G75*
G03*
X8334375Y-13255625I59531J39688D01*
G01*
X11556895Y-8731259D02*
X10985610Y-8731254D01*
D11*
X3175000Y-13414375D02*
X3175000Y-4206875D01*
D10*
X9334390Y-8850316D02*
X8810625Y-8850316D01*
X4413141Y-8850313D02*
X3651250Y-8850313D01*
X8334375Y-5921265D02*
X8334375Y-5429360D01*
X6635639Y-8850313D02*
X6064359Y-8850313D01*
X9334390Y-8731254D02*
X8810625Y-8731254D01*
X8334375Y-9874360D02*
G75*
G03*
X8215312Y-9874360I-59531J-39688D01*
G01*
X8334375Y-10445640D02*
X8334375Y-9874360D01*
X8334375Y-10985610D02*
G75*
G03*
X8215312Y-10985610I-59531J-39688D01*
G01*
X8215312Y-8175625D02*
X8215312Y-7572485D01*
X8215312Y-5921265D02*
X8215312Y-5429360D01*
X11556895Y-8850321D02*
X10985610Y-8850316D01*
X8810621Y-8731247D02*
G75*
G03*
X8810625Y-8850316I39698J-59533D01*
G01*
D11*
X3174995Y-13414375D02*
G75*
G03*
X3492500Y-13731875I317505J5D01*
G01*
D10*
X7667514Y-8850313D02*
X7175609Y-8850313D01*
X4953110Y-8731248D02*
G75*
G03*
X4953112Y-8850313I39688J-59532D01*
G01*
X8215312Y-12588765D02*
G75*
G03*
X8334375Y-12588765I59531J39688D01*
G01*
X6635637Y-8850311D02*
G75*
G03*
X6635639Y-8731250I-39681J59531D01*
G01*
D12*
D13*
X8790625Y-8393750D02*
X8830625Y-8433750D01*
X8830625Y-8393750D02*
X8790625Y-8433750D01*
X9187500Y-8155625D02*
X9227500Y-8195625D01*
X9227500Y-8155625D02*
X9187500Y-8195625D01*
D14*
X3826880Y-11110000D02*
G75*
G03*
X3826880Y-11110000I-37500J0D01*
G01*
X3826880Y-11824370D02*
G75*
G03*
X3826880Y-11824370I-37500J0D01*
G01*
X3826880Y-12538750D02*
G75*
G03*
X3826880Y-12538750I-37500J0D01*
G01*
X3826880Y-13253120D02*
G75*
G03*
X3826880Y-13253120I-37500J0D01*
G01*
X3847500Y-4601250D02*
G75*
G03*
X3847500Y-4601250I-37500J0D01*
G01*
X3847500Y-5315620D02*
G75*
G03*
X3847500Y-5315620I-37500J0D01*
G01*
X3847500Y-6030000D02*
G75*
G03*
X3847500Y-6030000I-37500J0D01*
G01*
X3847500Y-6744370D02*
G75*
G03*
X3847500Y-6744370I-37500J0D01*
G01*
X4026880Y-11110000D02*
G75*
G03*
X4026880Y-11110000I-37500J0D01*
G01*
X4026880Y-11824370D02*
G75*
G03*
X4026880Y-11824370I-37500J0D01*
G01*
X4026880Y-12538750D02*
G75*
G03*
X4026880Y-12538750I-37500J0D01*
G01*
X4026880Y-13253120D02*
G75*
G03*
X4026880Y-13253120I-37500J0D01*
G01*
X4047500Y-4601250D02*
G75*
G03*
X4047500Y-4601250I-37500J0D01*
G01*
X4047500Y-5315620D02*
G75*
G03*
X4047500Y-5315620I-37500J0D01*
G01*
X4047500Y-6030000D02*
G75*
G03*
X4047500Y-6030000I-37500J0D01*
G01*
X4047500Y-6744370D02*
G75*
G03*
X4047500Y-6744370I-37500J0D01*
G01*
X4541250Y-11110000D02*
G75*
G03*
X4541250Y-11110000I-37500J0D01*
G01*
X4541250Y-11824370D02*
G75*
G03*
X4541250Y-11824370I-37500J0D01*
G01*
X4541250Y-12538750D02*
G75*
G03*
X4541250Y-12538750I-37500J0D01*
G01*
X4541250Y-13253120D02*
G75*
G03*
X4541250Y-13253120I-37500J0D01*
G01*
X4561880Y-4601250D02*
G75*
G03*
X4561880Y-4601250I-37500J0D01*
G01*
X4561880Y-5315620D02*
G75*
G03*
X4561880Y-5315620I-37500J0D01*
G01*
X4561880Y-6030000D02*
G75*
G03*
X4561880Y-6030000I-37500J0D01*
G01*
X4561880Y-6744370D02*
G75*
G03*
X4561880Y-6744370I-37500J0D01*
G01*
X4741250Y-11110000D02*
G75*
G03*
X4741250Y-11110000I-37500J0D01*
G01*
X4741250Y-11824370D02*
G75*
G03*
X4741250Y-11824370I-37500J0D01*
G01*
X4741250Y-12538750D02*
G75*
G03*
X4741250Y-12538750I-37500J0D01*
G01*
X4741250Y-13253120D02*
G75*
G03*
X4741250Y-13253120I-37500J0D01*
G01*
X4761880Y-4601250D02*
G75*
G03*
X4761880Y-4601250I-37500J0D01*
G01*
X4761880Y-5315620D02*
G75*
G03*
X4761880Y-5315620I-37500J0D01*
G01*
X4761880Y-6030000D02*
G75*
G03*
X4761880Y-6030000I-37500J0D01*
G01*
X4761880Y-6744370D02*
G75*
G03*
X4761880Y-6744370I-37500J0D01*
G01*
X6763750Y-4601250D02*
G75*
G03*
X6763750Y-4601250I-37500J0D01*
G01*
X6763750Y-5315620D02*
G75*
G03*
X6763750Y-5315620I-37500J0D01*
G01*
X6763750Y-6032500D02*
G75*
G03*
X6763750Y-6032500I-37500J0D01*
G01*
X6763750Y-6744370D02*
G75*
G03*
X6763750Y-6744370I-37500J0D01*
G01*
X6775630Y-11136870D02*
G75*
G03*
X6775630Y-11136870I-37500J0D01*
G01*
X6775630Y-11851250D02*
G75*
G03*
X6775630Y-11851250I-37500J0D01*
G01*
X6775630Y-12565620D02*
G75*
G03*
X6775630Y-12565620I-37500J0D01*
G01*
X6775630Y-13280000D02*
G75*
G03*
X6775630Y-13280000I-37500J0D01*
G01*
X6963750Y-4601250D02*
G75*
G03*
X6963750Y-4601250I-37500J0D01*
G01*
X6963750Y-5315620D02*
G75*
G03*
X6963750Y-5315620I-37500J0D01*
G01*
X6963750Y-6032500D02*
G75*
G03*
X6963750Y-6032500I-37500J0D01*
G01*
X6963750Y-6744370D02*
G75*
G03*
X6963750Y-6744370I-37500J0D01*
G01*
X6975630Y-11136870D02*
G75*
G03*
X6975630Y-11136870I-37500J0D01*
G01*
X6975630Y-11851250D02*
G75*
G03*
X6975630Y-11851250I-37500J0D01*
G01*
X6975630Y-12565620D02*
G75*
G03*
X6975630Y-12565620I-37500J0D01*
G01*
X6975630Y-13280000D02*
G75*
G03*
X6975630Y-13280000I-37500J0D01*
G01*
X7478130Y-4601250D02*
G75*
G03*
X7478130Y-4601250I-37500J0D01*
G01*
X7478130Y-5315620D02*
G75*
G03*
X7478130Y-5315620I-37500J0D01*
G01*
X7478130Y-6030000D02*
G75*
G03*
X7478130Y-6030000I-37500J0D01*
G01*
X7478130Y-6744370D02*
G75*
G03*
X7478130Y-6744370I-37500J0D01*
G01*
X7490000Y-11136870D02*
G75*
G03*
X7490000Y-11136870I-37500J0D01*
G01*
X7490000Y-11851250D02*
G75*
G03*
X7490000Y-11851250I-37500J0D01*
G01*
X7490000Y-12565620D02*
G75*
G03*
X7490000Y-12565620I-37500J0D01*
G01*
X7490000Y-13280000D02*
G75*
G03*
X7490000Y-13280000I-37500J0D01*
G01*
X7678130Y-4601250D02*
G75*
G03*
X7678130Y-4601250I-37500J0D01*
G01*
X7678130Y-5315620D02*
G75*
G03*
X7678130Y-5315620I-37500J0D01*
G01*
X7678130Y-6030000D02*
G75*
G03*
X7678130Y-6030000I-37500J0D01*
G01*
X7678130Y-6744370D02*
G75*
G03*
X7678130Y-6744370I-37500J0D01*
G01*
X7690000Y-11136870D02*
G75*
G03*
X7690000Y-11136870I-37500J0D01*
G01*
X7690000Y-11851250D02*
G75*
G03*
X7690000Y-11851250I-37500J0D01*
G01*
X7690000Y-12565620D02*
G75*
G03*
X7690000Y-12565620I-37500J0D01*
G01*
X7690000Y-13280000D02*
G75*
G03*
X7690000Y-13280000I-37500J0D01*
G01*
X7975000Y-7620000D02*
G75*
G03*
X7975000Y-7620000I-37500J0D01*
G01*
X7975000Y-7858120D02*
G75*
G03*
X7975000Y-7858120I-37500J0D01*
G01*
X7975000Y-8255000D02*
G75*
G03*
X7975000Y-8255000I-37500J0D01*
G01*
X7975000Y-8493120D02*
G75*
G03*
X7975000Y-8493120I-37500J0D01*
G01*
X7975000Y-9128120D02*
G75*
G03*
X7975000Y-9128120I-37500J0D01*
G01*
X7975000Y-9366250D02*
G75*
G03*
X7975000Y-9366250I-37500J0D01*
G01*
X7975000Y-9763120D02*
G75*
G03*
X7975000Y-9763120I-37500J0D01*
G01*
X7975000Y-10001250D02*
G75*
G03*
X7975000Y-10001250I-37500J0D01*
G01*
X8610000Y-7620000D02*
G75*
G03*
X8610000Y-7620000I-37500J0D01*
G01*
X8610000Y-7858120D02*
G75*
G03*
X8610000Y-7858120I-37500J0D01*
G01*
X8610000Y-8255000D02*
G75*
G03*
X8610000Y-8255000I-37500J0D01*
G01*
X8610000Y-8493120D02*
G75*
G03*
X8610000Y-8493120I-37500J0D01*
G01*
X8610000Y-9128120D02*
G75*
G03*
X8610000Y-9128120I-37500J0D01*
G01*
X8610000Y-9366250D02*
G75*
G03*
X8610000Y-9366250I-37500J0D01*
G01*
X8610000Y-9763120D02*
G75*
G03*
X8610000Y-9763120I-37500J0D01*
G01*
X8610000Y-10001250D02*
G75*
G03*
X8610000Y-10001250I-37500J0D01*
G01*
X8827500Y-11136870D02*
G75*
G03*
X8827500Y-11136870I-37500J0D01*
G01*
X8827500Y-11851250D02*
G75*
G03*
X8827500Y-11851250I-37500J0D01*
G01*
X8827500Y-12565620D02*
G75*
G03*
X8827500Y-12565620I-37500J0D01*
G01*
X8827500Y-13280000D02*
G75*
G03*
X8827500Y-13280000I-37500J0D01*
G01*
X9027500Y-11136870D02*
G75*
G03*
X9027500Y-11136870I-37500J0D01*
G01*
X9027500Y-11851250D02*
G75*
G03*
X9027500Y-11851250I-37500J0D01*
G01*
X9027500Y-12565620D02*
G75*
G03*
X9027500Y-12565620I-37500J0D01*
G01*
X9027500Y-13280000D02*
G75*
G03*
X9027500Y-13280000I-37500J0D01*
G01*
X9541880Y-11136870D02*
G75*
G03*
X9541880Y-11136870I-37500J0D01*
G01*
X9541880Y-11851250D02*
G75*
G03*
X9541880Y-11851250I-37500J0D01*
G01*
X9541880Y-12565620D02*
G75*
G03*
X9541880Y-12565620I-37500J0D01*
G01*
X9541880Y-13280000D02*
G75*
G03*
X9541880Y-13280000I-37500J0D01*
G01*
X9741880Y-11136870D02*
G75*
G03*
X9741880Y-11136870I-37500J0D01*
G01*
X9741880Y-11851250D02*
G75*
G03*
X9741880Y-11851250I-37500J0D01*
G01*
X9741880Y-12565620D02*
G75*
G03*
X9741880Y-12565620I-37500J0D01*
G01*
X9741880Y-13280000D02*
G75*
G03*
X9741880Y-13280000I-37500J0D01*
G01*
X10732500Y-8041250D02*
G75*
G03*
X10732500Y-8041250I-37500J0D01*
G01*
X10932500Y-8041250D02*
G75*
G03*
X10932500Y-8041250I-37500J0D01*
G01*
X11505630Y-8041250D02*
G75*
G03*
X11505630Y-8041250I-37500J0D01*
G01*
X11705630Y-8041250D02*
G75*
G03*
X11705630Y-8041250I-37500J0D01*
G01*
X11705630Y-11136870D02*
G75*
G03*
X11705630Y-11136870I-37500J0D01*
G01*
X11705630Y-11851250D02*
G75*
G03*
X11705630Y-11851250I-37500J0D01*
G01*
X11705630Y-12565620D02*
G75*
G03*
X11705630Y-12565620I-37500J0D01*
G01*
X11705630Y-13280000D02*
G75*
G03*
X11705630Y-13280000I-37500J0D01*
G01*
X11905630Y-11136870D02*
G75*
G03*
X11905630Y-11136870I-37500J0D01*
G01*
X11905630Y-11851250D02*
G75*
G03*
X11905630Y-11851250I-37500J0D01*
G01*
X11905630Y-12565620D02*
G75*
G03*
X11905630Y-12565620I-37500J0D01*
G01*
X11905630Y-13280000D02*
G75*
G03*
X11905630Y-13280000I-37500J0D01*
G01*
X12240630Y-8041250D02*
G75*
G03*
X12240630Y-8041250I-37500J0D01*
G01*
X12440630Y-8041250D02*
G75*
G03*
X12440630Y-8041250I-37500J0D01*
G01*
X12478750Y-11136870D02*
G75*
G03*
X12478750Y-11136870I-37500J0D01*
G01*
X12478750Y-11851250D02*
G75*
G03*
X12478750Y-11851250I-37500J0D01*
G01*
X12478750Y-12565620D02*
G75*
G03*
X12478750Y-12565620I-37500J0D01*
G01*
X12478750Y-13280000D02*
G75*
G03*
X12478750Y-13280000I-37500J0D01*
G01*
X12678750Y-11136870D02*
G75*
G03*
X12678750Y-11136870I-37500J0D01*
G01*
X12678750Y-11851250D02*
G75*
G03*
X12678750Y-11851250I-37500J0D01*
G01*
X12678750Y-12565620D02*
G75*
G03*
X12678750Y-12565620I-37500J0D01*
G01*
X12678750Y-13280000D02*
G75*
G03*
X12678750Y-13280000I-37500J0D01*
G01*
D15*
X3909500Y-7514870D02*
X3909500Y-7594870D01*
X3869500Y-7554870D02*
X3949500Y-7554870D01*
X3909500Y-7768870D02*
X3909500Y-7848870D01*
X3869500Y-7808870D02*
X3949500Y-7808870D01*
X3909500Y-8022870D02*
X3909500Y-8102870D01*
X3869500Y-8062870D02*
X3949500Y-8062870D01*
X3909500Y-8276870D02*
X3909500Y-8356870D01*
X3869500Y-8316870D02*
X3949500Y-8316870D01*
X3929630Y-9233000D02*
X3929630Y-9313000D01*
X3889630Y-9273000D02*
X3969630Y-9273000D01*
X3929630Y-9487000D02*
X3929630Y-9567000D01*
X3889630Y-9527000D02*
X3969630Y-9527000D01*
X3929630Y-9741000D02*
X3929630Y-9821000D01*
X3889630Y-9781000D02*
X3969630Y-9781000D01*
X3929630Y-9995000D02*
X3929630Y-10075000D01*
X3889630Y-10035000D02*
X3969630Y-10035000D01*
X4671500Y-7514870D02*
X4671500Y-7594870D01*
X4631500Y-7554870D02*
X4711500Y-7554870D01*
X4671500Y-7768870D02*
X4671500Y-7848870D01*
X4631500Y-7808870D02*
X4711500Y-7808870D01*
X4671500Y-8022870D02*
X4671500Y-8102870D01*
X4631500Y-8062870D02*
X4711500Y-8062870D01*
X4671500Y-8276870D02*
X4671500Y-8356870D01*
X4631500Y-8316870D02*
X4711500Y-8316870D01*
X4691630Y-9233000D02*
X4691630Y-9313000D01*
X4651630Y-9273000D02*
X4731630Y-9273000D01*
X4691630Y-9487000D02*
X4691630Y-9567000D01*
X4651630Y-9527000D02*
X4731630Y-9527000D01*
X4691630Y-9741000D02*
X4691630Y-9821000D01*
X4651630Y-9781000D02*
X4731630Y-9781000D01*
X4691630Y-9995000D02*
X4691630Y-10075000D01*
X4651630Y-10035000D02*
X4731630Y-10035000D01*
X5335000Y-4263120D02*
X5335000Y-4343120D01*
X5295000Y-4303120D02*
X5375000Y-4303120D01*
X5335000Y-4517120D02*
X5335000Y-4597120D01*
X5295000Y-4557120D02*
X5375000Y-4557120D01*
X5335000Y-4771120D02*
X5335000Y-4851120D01*
X5295000Y-4811120D02*
X5375000Y-4811120D01*
X5335000Y-5025120D02*
X5335000Y-5105120D01*
X5295000Y-5065120D02*
X5375000Y-5065120D01*
X5335000Y-5279120D02*
X5335000Y-5359120D01*
X5295000Y-5319120D02*
X5375000Y-5319120D01*
X5335000Y-5533120D02*
X5335000Y-5613120D01*
X5295000Y-5573120D02*
X5375000Y-5573120D01*
X5335000Y-5787120D02*
X5335000Y-5867120D01*
X5295000Y-5827120D02*
X5375000Y-5827120D01*
X5335000Y-6041120D02*
X5335000Y-6121120D01*
X5295000Y-6081120D02*
X5375000Y-6081120D01*
X5335000Y-6295120D02*
X5335000Y-6375120D01*
X5295000Y-6335120D02*
X5375000Y-6335120D01*
X5335000Y-6549120D02*
X5335000Y-6629120D01*
X5295000Y-6589120D02*
X5375000Y-6589120D01*
X5335000Y-6803120D02*
X5335000Y-6883120D01*
X5295000Y-6843120D02*
X5375000Y-6843120D01*
X5335000Y-7057120D02*
X5335000Y-7137120D01*
X5295000Y-7097120D02*
X5375000Y-7097120D01*
X5335000Y-7311120D02*
X5335000Y-7391120D01*
X5295000Y-7351120D02*
X5375000Y-7351120D01*
X5335000Y-7565120D02*
X5335000Y-7645120D01*
X5295000Y-7605120D02*
X5375000Y-7605120D01*
X5335000Y-9978120D02*
X5335000Y-10058120D01*
X5295000Y-10018120D02*
X5375000Y-10018120D01*
X5335000Y-10232120D02*
X5335000Y-10312120D01*
X5295000Y-10272120D02*
X5375000Y-10272120D01*
X5335000Y-10486120D02*
X5335000Y-10566120D01*
X5295000Y-10526120D02*
X5375000Y-10526120D01*
X5335000Y-10740120D02*
X5335000Y-10820120D01*
X5295000Y-10780120D02*
X5375000Y-10780120D01*
X5335000Y-10994120D02*
X5335000Y-11074120D01*
X5295000Y-11034120D02*
X5375000Y-11034120D01*
X5335000Y-11248120D02*
X5335000Y-11328120D01*
X5295000Y-11288120D02*
X5375000Y-11288120D01*
X5335000Y-11502120D02*
X5335000Y-11582120D01*
X5295000Y-11542120D02*
X5375000Y-11542120D01*
X5335000Y-11756120D02*
X5335000Y-11836120D01*
X5295000Y-11796120D02*
X5375000Y-11796120D01*
X5335000Y-12010120D02*
X5335000Y-12090120D01*
X5295000Y-12050120D02*
X5375000Y-12050120D01*
X5335000Y-12264120D02*
X5335000Y-12344120D01*
X5295000Y-12304120D02*
X5375000Y-12304120D01*
X5335000Y-12518120D02*
X5335000Y-12598120D01*
X5295000Y-12558120D02*
X5375000Y-12558120D01*
X5335000Y-12772120D02*
X5335000Y-12852120D01*
X5295000Y-12812120D02*
X5375000Y-12812120D01*
X5335000Y-13026120D02*
X5335000Y-13106120D01*
X5295000Y-13066120D02*
X5375000Y-13066120D01*
X5335000Y-13280120D02*
X5335000Y-13360120D01*
X5295000Y-13320120D02*
X5375000Y-13320120D01*
X6097000Y-4263120D02*
X6097000Y-4343120D01*
X6057000Y-4303120D02*
X6137000Y-4303120D01*
X6097000Y-4517120D02*
X6097000Y-4597120D01*
X6057000Y-4557120D02*
X6137000Y-4557120D01*
X6097000Y-4771120D02*
X6097000Y-4851120D01*
X6057000Y-4811120D02*
X6137000Y-4811120D01*
X6097000Y-5025120D02*
X6097000Y-5105120D01*
X6057000Y-5065120D02*
X6137000Y-5065120D01*
X6097000Y-5279120D02*
X6097000Y-5359120D01*
X6057000Y-5319120D02*
X6137000Y-5319120D01*
X6097000Y-5533120D02*
X6097000Y-5613120D01*
X6057000Y-5573120D02*
X6137000Y-5573120D01*
X6097000Y-5787120D02*
X6097000Y-5867120D01*
X6057000Y-5827120D02*
X6137000Y-5827120D01*
X6097000Y-6041120D02*
X6097000Y-6121120D01*
X6057000Y-6081120D02*
X6137000Y-6081120D01*
X6097000Y-6295120D02*
X6097000Y-6375120D01*
X6057000Y-6335120D02*
X6137000Y-6335120D01*
X6097000Y-6549120D02*
X6097000Y-6629120D01*
X6057000Y-6589120D02*
X6137000Y-6589120D01*
X6097000Y-6803120D02*
X6097000Y-6883120D01*
X6057000Y-6843120D02*
X6137000Y-6843120D01*
X6097000Y-7057120D02*
X6097000Y-7137120D01*
X6057000Y-7097120D02*
X6137000Y-7097120D01*
X6097000Y-7311120D02*
X6097000Y-7391120D01*
X6057000Y-7351120D02*
X6137000Y-7351120D01*
X6097000Y-7565120D02*
X6097000Y-7645120D01*
X6057000Y-7605120D02*
X6137000Y-7605120D01*
X6097000Y-9978120D02*
X6097000Y-10058120D01*
X6057000Y-10018120D02*
X6137000Y-10018120D01*
X6097000Y-10232120D02*
X6097000Y-10312120D01*
X6057000Y-10272120D02*
X6137000Y-10272120D01*
X6097000Y-10486120D02*
X6097000Y-10566120D01*
X6057000Y-10526120D02*
X6137000Y-10526120D01*
X6097000Y-10740120D02*
X6097000Y-10820120D01*
X6057000Y-10780120D02*
X6137000Y-10780120D01*
X6097000Y-10994120D02*
X6097000Y-11074120D01*
X6057000Y-11034120D02*
X6137000Y-11034120D01*
X6097000Y-11248120D02*
X6097000Y-11328120D01*
X6057000Y-11288120D02*
X6137000Y-11288120D01*
X6097000Y-11502120D02*
X6097000Y-11582120D01*
X6057000Y-11542120D02*
X6137000Y-11542120D01*
X6097000Y-11756120D02*
X6097000Y-11836120D01*
X6057000Y-11796120D02*
X6137000Y-11796120D01*
X6097000Y-12010120D02*
X6097000Y-12090120D01*
X6057000Y-12050120D02*
X6137000Y-12050120D01*
X6097000Y-12264120D02*
X6097000Y-12344120D01*
X6057000Y-12304120D02*
X6137000Y-12304120D01*
X6097000Y-12518120D02*
X6097000Y-12598120D01*
X6057000Y-12558120D02*
X6137000Y-12558120D01*
X6097000Y-12772120D02*
X6097000Y-12852120D01*
X6057000Y-12812120D02*
X6137000Y-12812120D01*
X6097000Y-13026120D02*
X6097000Y-13106120D01*
X6057000Y-13066120D02*
X6137000Y-13066120D01*
X6097000Y-13280120D02*
X6097000Y-13360120D01*
X6057000Y-13320120D02*
X6137000Y-13320120D01*
X10335630Y-9978120D02*
X10335630Y-10058120D01*
X10295630Y-10018120D02*
X10375630Y-10018120D01*
X10335630Y-10232120D02*
X10335630Y-10312120D01*
X10295630Y-10272120D02*
X10375630Y-10272120D01*
X10335630Y-10486120D02*
X10335630Y-10566120D01*
X10295630Y-10526120D02*
X10375630Y-10526120D01*
X10335630Y-10740120D02*
X10335630Y-10820120D01*
X10295630Y-10780120D02*
X10375630Y-10780120D01*
X10335630Y-10994120D02*
X10335630Y-11074120D01*
X10295630Y-11034120D02*
X10375630Y-11034120D01*
X10335630Y-11248120D02*
X10335630Y-11328120D01*
X10295630Y-11288120D02*
X10375630Y-11288120D01*
X10335630Y-11502120D02*
X10335630Y-11582120D01*
X10295630Y-11542120D02*
X10375630Y-11542120D01*
X10335630Y-11756120D02*
X10335630Y-11836120D01*
X10295630Y-11796120D02*
X10375630Y-11796120D01*
X10335630Y-12010120D02*
X10335630Y-12090120D01*
X10295630Y-12050120D02*
X10375630Y-12050120D01*
X10335630Y-12264120D02*
X10335630Y-12344120D01*
X10295630Y-12304120D02*
X10375630Y-12304120D01*
X10335630Y-12518120D02*
X10335630Y-12598120D01*
X10295630Y-12558120D02*
X10375630Y-12558120D01*
X10335630Y-12772120D02*
X10335630Y-12852120D01*
X10295630Y-12812120D02*
X10375630Y-12812120D01*
X10335630Y-13026120D02*
X10335630Y-13106120D01*
X10295630Y-13066120D02*
X10375630Y-13066120D01*
X10335630Y-13280120D02*
X10335630Y-13360120D01*
X10295630Y-13320120D02*
X10375630Y-13320120D01*
X11097630Y-9978120D02*
X11097630Y-10058120D01*
X11057630Y-10018120D02*
X11137630Y-10018120D01*
X11097630Y-10232120D02*
X11097630Y-10312120D01*
X11057630Y-10272120D02*
X11137630Y-10272120D01*
X11097630Y-10486120D02*
X11097630Y-10566120D01*
X11057630Y-10526120D02*
X11137630Y-10526120D01*
X11097630Y-10740120D02*
X11097630Y-10820120D01*
X11057630Y-10780120D02*
X11137630Y-10780120D01*
X11097630Y-10994120D02*
X11097630Y-11074120D01*
X11057630Y-11034120D02*
X11137630Y-11034120D01*
X11097630Y-11248120D02*
X11097630Y-11328120D01*
X11057630Y-11288120D02*
X11137630Y-11288120D01*
X11097630Y-11502120D02*
X11097630Y-11582120D01*
X11057630Y-11542120D02*
X11137630Y-11542120D01*
X11097630Y-11756120D02*
X11097630Y-11836120D01*
X11057630Y-11796120D02*
X11137630Y-11796120D01*
X11097630Y-12010120D02*
X11097630Y-12090120D01*
X11057630Y-12050120D02*
X11137630Y-12050120D01*
X11097630Y-12264120D02*
X11097630Y-12344120D01*
X11057630Y-12304120D02*
X11137630Y-12304120D01*
X11097630Y-12518120D02*
X11097630Y-12598120D01*
X11057630Y-12558120D02*
X11137630Y-12558120D01*
X11097630Y-12772120D02*
X11097630Y-12852120D01*
X11057630Y-12812120D02*
X11137630Y-12812120D01*
X11097630Y-13026120D02*
X11097630Y-13106120D01*
X11057630Y-13066120D02*
X11137630Y-13066120D01*
X11097630Y-13280120D02*
X11097630Y-13360120D01*
X11057630Y-13320120D02*
X11137630Y-13320120D01*
X11688250Y-9263750D02*
X11688250Y-9343750D01*
X11648250Y-9303750D02*
X11728250Y-9303750D01*
X11688250Y-9517750D02*
X11688250Y-9597750D01*
X11648250Y-9557750D02*
X11728250Y-9557750D01*
X11688250Y-9771750D02*
X11688250Y-9851750D01*
X11648250Y-9811750D02*
X11728250Y-9811750D01*
X11688250Y-10025750D02*
X11688250Y-10105750D01*
X11648250Y-10065750D02*
X11728250Y-10065750D01*
X12450250Y-9263750D02*
X12450250Y-9343750D01*
X12410250Y-9303750D02*
X12490250Y-9303750D01*
X12450250Y-9517750D02*
X12450250Y-9597750D01*
X12410250Y-9557750D02*
X12490250Y-9557750D01*
X12450250Y-9771750D02*
X12450250Y-9851750D01*
X12410250Y-9811750D02*
X12490250Y-9811750D01*
X12450250Y-10025750D02*
X12450250Y-10105750D01*
X12410250Y-10065750D02*
X12490250Y-10065750D01*
D16*
X4149218Y-10828588D02*
X4149218Y-10761412D01*
X4082042Y-10761412D01*
X4082042Y-10828588D01*
X4149218Y-10828588D01*
X4149218Y-11542958D02*
X4149218Y-11475782D01*
X4082042Y-11475782D01*
X4082042Y-11542958D01*
X4149218Y-11542958D01*
X4149218Y-12257338D02*
X4149218Y-12190162D01*
X4082042Y-12190162D01*
X4082042Y-12257338D01*
X4149218Y-12257338D01*
X4149218Y-12971708D02*
X4149218Y-12904532D01*
X4082042Y-12904532D01*
X4082042Y-12971708D01*
X4149218Y-12971708D01*
X4169838Y-4319838D02*
X4169838Y-4252662D01*
X4102662Y-4252662D01*
X4102662Y-4319838D01*
X4169838Y-4319838D01*
X4169838Y-5034208D02*
X4169838Y-4967032D01*
X4102662Y-4967032D01*
X4102662Y-5034208D01*
X4169838Y-5034208D01*
X4169838Y-5748588D02*
X4169838Y-5681412D01*
X4102662Y-5681412D01*
X4102662Y-5748588D01*
X4169838Y-5748588D01*
X4169838Y-6462958D02*
X4169838Y-6395782D01*
X4102662Y-6395782D01*
X4102662Y-6462958D01*
X4169838Y-6462958D01*
X4399218Y-10828588D02*
X4399218Y-10761412D01*
X4332042Y-10761412D01*
X4332042Y-10828588D01*
X4399218Y-10828588D01*
X4399218Y-11542958D02*
X4399218Y-11475782D01*
X4332042Y-11475782D01*
X4332042Y-11542958D01*
X4399218Y-11542958D01*
X4399218Y-12257338D02*
X4399218Y-12190162D01*
X4332042Y-12190162D01*
X4332042Y-12257338D01*
X4399218Y-12257338D01*
X4399218Y-12971708D02*
X4399218Y-12904532D01*
X4332042Y-12904532D01*
X4332042Y-12971708D01*
X4399218Y-12971708D01*
X4419838Y-4319838D02*
X4419838Y-4252662D01*
X4352662Y-4252662D01*
X4352662Y-4319838D01*
X4419838Y-4319838D01*
X4419838Y-5034208D02*
X4419838Y-4967032D01*
X4352662Y-4967032D01*
X4352662Y-5034208D01*
X4419838Y-5034208D01*
X4419838Y-5748588D02*
X4419838Y-5681412D01*
X4352662Y-5681412D01*
X4352662Y-5748588D01*
X4419838Y-5748588D01*
X4419838Y-6462958D02*
X4419838Y-6395782D01*
X4352662Y-6395782D01*
X4352662Y-6462958D01*
X4419838Y-6462958D01*
X4649218Y-10828588D02*
X4649218Y-10761412D01*
X4582042Y-10761412D01*
X4582042Y-10828588D01*
X4649218Y-10828588D01*
X4649218Y-11542958D02*
X4649218Y-11475782D01*
X4582042Y-11475782D01*
X4582042Y-11542958D01*
X4649218Y-11542958D01*
X4649218Y-12257338D02*
X4649218Y-12190162D01*
X4582042Y-12190162D01*
X4582042Y-12257338D01*
X4649218Y-12257338D01*
X4649218Y-12971708D02*
X4649218Y-12904532D01*
X4582042Y-12904532D01*
X4582042Y-12971708D01*
X4649218Y-12971708D01*
X4669838Y-4319838D02*
X4669838Y-4252662D01*
X4602662Y-4252662D01*
X4602662Y-4319838D01*
X4669838Y-4319838D01*
X4669838Y-5034208D02*
X4669838Y-4967032D01*
X4602662Y-4967032D01*
X4602662Y-5034208D01*
X4669838Y-5034208D01*
X4669838Y-5748588D02*
X4669838Y-5681412D01*
X4602662Y-5681412D01*
X4602662Y-5748588D01*
X4669838Y-5748588D01*
X4669838Y-6462958D02*
X4669838Y-6395782D01*
X4602662Y-6395782D01*
X4602662Y-6462958D01*
X4669838Y-6462958D01*
X6847968Y-4319838D02*
X6847968Y-4252662D01*
X6780792Y-4252662D01*
X6780792Y-4319838D01*
X6847968Y-4319838D01*
X6847968Y-5034208D02*
X6847968Y-4967032D01*
X6780792Y-4967032D01*
X6780792Y-5034208D01*
X6847968Y-5034208D01*
X6847968Y-5748588D02*
X6847968Y-5681412D01*
X6780792Y-5681412D01*
X6780792Y-5748588D01*
X6847968Y-5748588D01*
X6847968Y-6462958D02*
X6847968Y-6395782D01*
X6780792Y-6395782D01*
X6780792Y-6462958D01*
X6847968Y-6462958D01*
X6859838Y-10855458D02*
X6859838Y-10788282D01*
X6792662Y-10788282D01*
X6792662Y-10855458D01*
X6859838Y-10855458D01*
X6859838Y-11569838D02*
X6859838Y-11502662D01*
X6792662Y-11502662D01*
X6792662Y-11569838D01*
X6859838Y-11569838D01*
X6859838Y-12284208D02*
X6859838Y-12217032D01*
X6792662Y-12217032D01*
X6792662Y-12284208D01*
X6859838Y-12284208D01*
X6859838Y-12998588D02*
X6859838Y-12931412D01*
X6792662Y-12931412D01*
X6792662Y-12998588D01*
X6859838Y-12998588D01*
X7097968Y-4319838D02*
X7097968Y-4252662D01*
X7030792Y-4252662D01*
X7030792Y-4319838D01*
X7097968Y-4319838D01*
X7097968Y-5034208D02*
X7097968Y-4967032D01*
X7030792Y-4967032D01*
X7030792Y-5034208D01*
X7097968Y-5034208D01*
X7097968Y-5748588D02*
X7097968Y-5681412D01*
X7030792Y-5681412D01*
X7030792Y-5748588D01*
X7097968Y-5748588D01*
X7097968Y-6462958D02*
X7097968Y-6395782D01*
X7030792Y-6395782D01*
X7030792Y-6462958D01*
X7097968Y-6462958D01*
X7109838Y-10855458D02*
X7109838Y-10788282D01*
X7042662Y-10788282D01*
X7042662Y-10855458D01*
X7109838Y-10855458D01*
X7109838Y-11569838D02*
X7109838Y-11502662D01*
X7042662Y-11502662D01*
X7042662Y-11569838D01*
X7109838Y-11569838D01*
X7109838Y-12284208D02*
X7109838Y-12217032D01*
X7042662Y-12217032D01*
X7042662Y-12284208D01*
X7109838Y-12284208D01*
X7109838Y-12998588D02*
X7109838Y-12931412D01*
X7042662Y-12931412D01*
X7042662Y-12998588D01*
X7109838Y-12998588D01*
X7347968Y-4319838D02*
X7347968Y-4252662D01*
X7280792Y-4252662D01*
X7280792Y-4319838D01*
X7347968Y-4319838D01*
X7347968Y-5034208D02*
X7347968Y-4967032D01*
X7280792Y-4967032D01*
X7280792Y-5034208D01*
X7347968Y-5034208D01*
X7347968Y-5748588D02*
X7347968Y-5681412D01*
X7280792Y-5681412D01*
X7280792Y-5748588D01*
X7347968Y-5748588D01*
X7347968Y-6462958D02*
X7347968Y-6395782D01*
X7280792Y-6395782D01*
X7280792Y-6462958D01*
X7347968Y-6462958D01*
X7359838Y-10855458D02*
X7359838Y-10788282D01*
X7292662Y-10788282D01*
X7292662Y-10855458D01*
X7359838Y-10855458D01*
X7359838Y-11569838D02*
X7359838Y-11502662D01*
X7292662Y-11502662D01*
X7292662Y-11569838D01*
X7359838Y-11569838D01*
X7359838Y-12284208D02*
X7359838Y-12217032D01*
X7292662Y-12217032D01*
X7292662Y-12284208D01*
X7359838Y-12284208D01*
X7359838Y-12998588D02*
X7359838Y-12931412D01*
X7292662Y-12931412D01*
X7292662Y-12998588D01*
X7359838Y-12998588D01*
X8991088Y-4346708D02*
X8991088Y-4279532D01*
X8923912Y-4279532D01*
X8923912Y-4346708D01*
X8991088Y-4346708D01*
X8991088Y-5061088D02*
X8991088Y-4993912D01*
X8923912Y-4993912D01*
X8923912Y-5061088D01*
X8991088Y-5061088D01*
X8991088Y-5775458D02*
X8991088Y-5708282D01*
X8923912Y-5708282D01*
X8923912Y-5775458D01*
X8991088Y-5775458D01*
X8991088Y-6489838D02*
X8991088Y-6422662D01*
X8923912Y-6422662D01*
X8923912Y-6489838D01*
X8991088Y-6489838D01*
X8991088Y-7204208D02*
X8991088Y-7137032D01*
X8923912Y-7137032D01*
X8923912Y-7204208D01*
X8991088Y-7204208D01*
X9149838Y-10855458D02*
X9149838Y-10788282D01*
X9082662Y-10788282D01*
X9082662Y-10855458D01*
X9149838Y-10855458D01*
X9149838Y-11569838D02*
X9149838Y-11502662D01*
X9082662Y-11502662D01*
X9082662Y-11569838D01*
X9149838Y-11569838D01*
X9149838Y-12284208D02*
X9149838Y-12217032D01*
X9082662Y-12217032D01*
X9082662Y-12284208D01*
X9149838Y-12284208D01*
X9149838Y-12998588D02*
X9149838Y-12931412D01*
X9082662Y-12931412D01*
X9082662Y-12998588D01*
X9149838Y-12998588D01*
X9241088Y-4346708D02*
X9241088Y-4279532D01*
X9173912Y-4279532D01*
X9173912Y-4346708D01*
X9241088Y-4346708D01*
X9241088Y-5061088D02*
X9241088Y-4993912D01*
X9173912Y-4993912D01*
X9173912Y-5061088D01*
X9241088Y-5061088D01*
X9241088Y-5775458D02*
X9241088Y-5708282D01*
X9173912Y-5708282D01*
X9173912Y-5775458D01*
X9241088Y-5775458D01*
X9241088Y-6489838D02*
X9241088Y-6422662D01*
X9173912Y-6422662D01*
X9173912Y-6489838D01*
X9241088Y-6489838D01*
X9241088Y-7204208D02*
X9241088Y-7137032D01*
X9173912Y-7137032D01*
X9173912Y-7204208D01*
X9241088Y-7204208D01*
X9399838Y-10855458D02*
X9399838Y-10788282D01*
X9332662Y-10788282D01*
X9332662Y-10855458D01*
X9399838Y-10855458D01*
X9399838Y-11569838D02*
X9399838Y-11502662D01*
X9332662Y-11502662D01*
X9332662Y-11569838D01*
X9399838Y-11569838D01*
X9399838Y-12284208D02*
X9399838Y-12217032D01*
X9332662Y-12217032D01*
X9332662Y-12284208D01*
X9399838Y-12284208D01*
X9399838Y-12998588D02*
X9399838Y-12931412D01*
X9332662Y-12931412D01*
X9332662Y-12998588D01*
X9399838Y-12998588D01*
X9491088Y-4346708D02*
X9491088Y-4279532D01*
X9423912Y-4279532D01*
X9423912Y-4346708D01*
X9491088Y-4346708D01*
X9491088Y-5061088D02*
X9491088Y-4993912D01*
X9423912Y-4993912D01*
X9423912Y-5061088D01*
X9491088Y-5061088D01*
X9491088Y-5775458D02*
X9491088Y-5708282D01*
X9423912Y-5708282D01*
X9423912Y-5775458D01*
X9491088Y-5775458D01*
X9491088Y-6489838D02*
X9491088Y-6422662D01*
X9423912Y-6422662D01*
X9423912Y-6489838D01*
X9491088Y-6489838D01*
X9491088Y-7204208D02*
X9491088Y-7137032D01*
X9423912Y-7137032D01*
X9423912Y-7204208D01*
X9491088Y-7204208D01*
X9649838Y-10855458D02*
X9649838Y-10788282D01*
X9582662Y-10788282D01*
X9582662Y-10855458D01*
X9649838Y-10855458D01*
X9649838Y-11569838D02*
X9649838Y-11502662D01*
X9582662Y-11502662D01*
X9582662Y-11569838D01*
X9649838Y-11569838D01*
X9649838Y-12284208D02*
X9649838Y-12217032D01*
X9582662Y-12217032D01*
X9582662Y-12284208D01*
X9649838Y-12284208D01*
X9649838Y-12998588D02*
X9649838Y-12931412D01*
X9582662Y-12931412D01*
X9582662Y-12998588D01*
X9649838Y-12998588D01*
X11827968Y-10855458D02*
X11827968Y-10788282D01*
X11760792Y-10788282D01*
X11760792Y-10855458D01*
X11827968Y-10855458D01*
X11827968Y-11569838D02*
X11827968Y-11502662D01*
X11760792Y-11502662D01*
X11760792Y-11569838D01*
X11827968Y-11569838D01*
X11827968Y-12284208D02*
X11827968Y-12217032D01*
X11760792Y-12217032D01*
X11760792Y-12284208D01*
X11827968Y-12284208D01*
X11827968Y-12998588D02*
X11827968Y-12931412D01*
X11760792Y-12931412D01*
X11760792Y-12998588D01*
X11827968Y-12998588D01*
X12077968Y-10855458D02*
X12077968Y-10788282D01*
X12010792Y-10788282D01*
X12010792Y-10855458D01*
X12077968Y-10855458D01*
X12077968Y-11569838D02*
X12077968Y-11502662D01*
X12010792Y-11502662D01*
X12010792Y-11569838D01*
X12077968Y-11569838D01*
X12077968Y-12284208D02*
X12077968Y-12217032D01*
X12010792Y-12217032D01*
X12010792Y-12284208D01*
X12077968Y-12284208D01*
X12077968Y-12998588D02*
X12077968Y-12931412D01*
X12010792Y-12931412D01*
X12010792Y-12998588D01*
X12077968Y-12998588D01*
X12327968Y-10855458D02*
X12327968Y-10788282D01*
X12260792Y-10788282D01*
X12260792Y-10855458D01*
X12327968Y-10855458D01*
X12327968Y-11569838D02*
X12327968Y-11502662D01*
X12260792Y-11502662D01*
X12260792Y-11569838D01*
X12327968Y-11569838D01*
X12327968Y-12284208D02*
X12327968Y-12217032D01*
X12260792Y-12217032D01*
X12260792Y-12284208D01*
X12327968Y-12284208D01*
X12327968Y-12998588D02*
X12327968Y-12931412D01*
X12260792Y-12931412D01*
X12260792Y-12998588D01*
X12327968Y-12998588D01*
X12389218Y-4375458D02*
X12389218Y-4308282D01*
X12322042Y-4308282D01*
X12322042Y-4375458D01*
X12389218Y-4375458D01*
X12389218Y-4625458D02*
X12389218Y-4558282D01*
X12322042Y-4558282D01*
X12322042Y-4625458D01*
X12389218Y-4625458D01*
X12389218Y-4875458D02*
X12389218Y-4808282D01*
X12322042Y-4808282D01*
X12322042Y-4875458D01*
X12389218Y-4875458D01*
X12389218Y-5125458D02*
X12389218Y-5058282D01*
X12322042Y-5058282D01*
X12322042Y-5125458D01*
X12389218Y-5125458D01*
X12389218Y-5375458D02*
X12389218Y-5308282D01*
X12322042Y-5308282D01*
X12322042Y-5375458D01*
X12389218Y-5375458D01*
X12389218Y-5986713D02*
X12389218Y-5919537D01*
X12322042Y-5919537D01*
X12322042Y-5986713D01*
X12389218Y-5986713D01*
X12389218Y-6236713D02*
X12389218Y-6169537D01*
X12322042Y-6169537D01*
X12322042Y-6236713D01*
X12389218Y-6236713D01*
X12389218Y-6486713D02*
X12389218Y-6419537D01*
X12322042Y-6419537D01*
X12322042Y-6486713D01*
X12389218Y-6486713D01*
X12389218Y-6736713D02*
X12389218Y-6669537D01*
X12322042Y-6669537D01*
X12322042Y-6736713D01*
X12389218Y-6736713D01*
X12389218Y-6986713D02*
X12389218Y-6919537D01*
X12322042Y-6919537D01*
X12322042Y-6986713D01*
X12389218Y-6986713D01*
D17*
X6556380Y-7590150D02*
X6605910Y-7540620D01*
X6556380Y-7491090D01*
X6506850Y-7540620D01*
X6556380Y-7590150D01*
X6556380Y-7907650D02*
X6605910Y-7858120D01*
X6556380Y-7808590D01*
X6506850Y-7858120D01*
X6556380Y-7907650D01*
X6556380Y-8225150D02*
X6605910Y-8175620D01*
X6556380Y-8126090D01*
X6506850Y-8175620D01*
X6556380Y-8225150D01*
X6556380Y-9257030D02*
X6605910Y-9207500D01*
X6556380Y-9157970D01*
X6506850Y-9207500D01*
X6556380Y-9257030D01*
X6556380Y-9574530D02*
X6605910Y-9525000D01*
X6556380Y-9475470D01*
X6506850Y-9525000D01*
X6556380Y-9574530D01*
X6556380Y-9892030D02*
X6605910Y-9842500D01*
X6556380Y-9792970D01*
X6506850Y-9842500D01*
X6556380Y-9892030D01*
X7572380Y-7590150D02*
X7621910Y-7540620D01*
X7572380Y-7491090D01*
X7522850Y-7540620D01*
X7572380Y-7590150D01*
X7572380Y-7907650D02*
X7621910Y-7858120D01*
X7572380Y-7808590D01*
X7522850Y-7858120D01*
X7572380Y-7907650D01*
X7572380Y-8225150D02*
X7621910Y-8175620D01*
X7572380Y-8126090D01*
X7522850Y-8175620D01*
X7572380Y-8225150D01*
X7572380Y-9257030D02*
X7621910Y-9207500D01*
X7572380Y-9157970D01*
X7522850Y-9207500D01*
X7572380Y-9257030D01*
X7572380Y-9574530D02*
X7621910Y-9525000D01*
X7572380Y-9475470D01*
X7522850Y-9525000D01*
X7572380Y-9574530D01*
X7572380Y-9892030D02*
X7621910Y-9842500D01*
X7572380Y-9792970D01*
X7522850Y-9842500D01*
X7572380Y-9892030D01*
X8937630Y-9257030D02*
X8987160Y-9207500D01*
X8937630Y-9157970D01*
X8888100Y-9207500D01*
X8937630Y-9257030D01*
X8937630Y-9574530D02*
X8987160Y-9525000D01*
X8937630Y-9475470D01*
X8888100Y-9525000D01*
X8937630Y-9574530D01*
X8937630Y-9892030D02*
X8987160Y-9842500D01*
X8937630Y-9792970D01*
X8888100Y-9842500D01*
X8937630Y-9892030D01*
X9953630Y-9257030D02*
X10003160Y-9207500D01*
X9953630Y-9157970D01*
X9904100Y-9207500D01*
X9953630Y-9257030D01*
X9953630Y-9574530D02*
X10003160Y-9525000D01*
X9953630Y-9475470D01*
X9904100Y-9525000D01*
X9953630Y-9574530D01*
X9953630Y-9892030D02*
X10003160Y-9842500D01*
X9953630Y-9792970D01*
X9904100Y-9842500D01*
X9953630Y-9892030D01*
D18*
X9955530Y-4422140D02*
X10064750Y-4531360D01*
X10064750Y-4422140D02*
X9955530Y-4531360D01*
X10064750Y-4476750D02*
G75*
G03*
X10064750Y-4476750I-54610J0D01*
G01*
X9955530Y-4930140D02*
X10064750Y-5039360D01*
X10064750Y-4930140D02*
X9955530Y-5039360D01*
X10064750Y-4984750D02*
G75*
G03*
X10064750Y-4984750I-54610J0D01*
G01*
X9955530Y-5438140D02*
X10064750Y-5547360D01*
X10064750Y-5438140D02*
X9955530Y-5547360D01*
X10064750Y-5492750D02*
G75*
G03*
X10064750Y-5492750I-54610J0D01*
G01*
X9955530Y-5946140D02*
X10064750Y-6055360D01*
X10064750Y-5946140D02*
X9955530Y-6055360D01*
X10064750Y-6000750D02*
G75*
G03*
X10064750Y-6000750I-54610J0D01*
G01*
X9955530Y-6454140D02*
X10064750Y-6563360D01*
X10064750Y-6454140D02*
X9955530Y-6563360D01*
X10064750Y-6508750D02*
G75*
G03*
X10064750Y-6508750I-54610J0D01*
G01*
X9955530Y-6962140D02*
X10064750Y-7071360D01*
X10064750Y-6962140D02*
X9955530Y-7071360D01*
X10064750Y-7016750D02*
G75*
G03*
X10064750Y-7016750I-54610J0D01*
G01*
X10001250Y-4676140D02*
X10110470Y-4785360D01*
X10110470Y-4676140D02*
X10001250Y-4785360D01*
X10110470Y-4730750D02*
G75*
G03*
X10110470Y-4730750I-54610J0D01*
G01*
X10001250Y-5184140D02*
X10110470Y-5293360D01*
X10110470Y-5184140D02*
X10001250Y-5293360D01*
X10110470Y-5238750D02*
G75*
G03*
X10110470Y-5238750I-54610J0D01*
G01*
X10001250Y-5692140D02*
X10110470Y-5801360D01*
X10110470Y-5692140D02*
X10001250Y-5801360D01*
X10110470Y-5746750D02*
G75*
G03*
X10110470Y-5746750I-54610J0D01*
G01*
X10001250Y-6200140D02*
X10110470Y-6309360D01*
X10110470Y-6200140D02*
X10001250Y-6309360D01*
X10110470Y-6254750D02*
G75*
G03*
X10110470Y-6254750I-54610J0D01*
G01*
X10001250Y-6708140D02*
X10110470Y-6817360D01*
X10110470Y-6708140D02*
X10001250Y-6817360D01*
X10110470Y-6762750D02*
G75*
G03*
X10110470Y-6762750I-54610J0D01*
G01*
X10001250Y-7216140D02*
X10110470Y-7325360D01*
X10110470Y-7216140D02*
X10001250Y-7325360D01*
X10110470Y-7270750D02*
G75*
G03*
X10110470Y-7270750I-54610J0D01*
G01*
X11479530Y-4676140D02*
X11588750Y-4785360D01*
X11588750Y-4676140D02*
X11479530Y-4785360D01*
X11588750Y-4730750D02*
G75*
G03*
X11588750Y-4730750I-54610J0D01*
G01*
X11479530Y-5184140D02*
X11588750Y-5293360D01*
X11588750Y-5184140D02*
X11479530Y-5293360D01*
X11588750Y-5238750D02*
G75*
G03*
X11588750Y-5238750I-54610J0D01*
G01*
X11479530Y-5692140D02*
X11588750Y-5801360D01*
X11588750Y-5692140D02*
X11479530Y-5801360D01*
X11588750Y-5746750D02*
G75*
G03*
X11588750Y-5746750I-54610J0D01*
G01*
X11479530Y-6200140D02*
X11588750Y-6309360D01*
X11588750Y-6200140D02*
X11479530Y-6309360D01*
X11588750Y-6254750D02*
G75*
G03*
X11588750Y-6254750I-54610J0D01*
G01*
X11479530Y-6708140D02*
X11588750Y-6817360D01*
X11588750Y-6708140D02*
X11479530Y-6817360D01*
X11588750Y-6762750D02*
G75*
G03*
X11588750Y-6762750I-54610J0D01*
G01*
X11479530Y-7216140D02*
X11588750Y-7325360D01*
X11588750Y-7216140D02*
X11479530Y-7325360D01*
X11588750Y-7270750D02*
G75*
G03*
X11588750Y-7270750I-54610J0D01*
G01*
X11525250Y-4422140D02*
X11634470Y-4531360D01*
X11634470Y-4422140D02*
X11525250Y-4531360D01*
X11634470Y-4476750D02*
G75*
G03*
X11634470Y-4476750I-54610J0D01*
G01*
X11525250Y-4930140D02*
X11634470Y-5039360D01*
X11634470Y-4930140D02*
X11525250Y-5039360D01*
X11634470Y-4984750D02*
G75*
G03*
X11634470Y-4984750I-54610J0D01*
G01*
X11525250Y-5438140D02*
X11634470Y-5547360D01*
X11634470Y-5438140D02*
X11525250Y-5547360D01*
X11634470Y-5492750D02*
G75*
G03*
X11634470Y-5492750I-54610J0D01*
G01*
X11525250Y-5946140D02*
X11634470Y-6055360D01*
X11634470Y-5946140D02*
X11525250Y-6055360D01*
X11634470Y-6000750D02*
G75*
G03*
X11634470Y-6000750I-54610J0D01*
G01*
X11525250Y-6454140D02*
X11634470Y-6563360D01*
X11634470Y-6454140D02*
X11525250Y-6563360D01*
X11634470Y-6508750D02*
G75*
G03*
X11634470Y-6508750I-54610J0D01*
G01*
X11525250Y-6962140D02*
X11634470Y-7071360D01*
X11634470Y-6962140D02*
X11525250Y-7071360D01*
X11634470Y-7016750D02*
G75*
G03*
X11634470Y-7016750I-54610J0D01*
G01*
D12*
X3427619Y-14047351D02*
X3427619Y-13847351D01*
X3475238Y-13847351D01*
X3503809Y-13856875D01*
X3522857Y-13875923D01*
X3532381Y-13894970D01*
X3541905Y-13933065D01*
X3541905Y-13961637D01*
X3532381Y-13999732D01*
X3522857Y-14018780D01*
X3503809Y-14037827D01*
X3475238Y-14047351D01*
X3427619Y-14047351D01*
X3627619Y-14047351D02*
X3627619Y-13914018D01*
X3627619Y-13952113D02*
X3637143Y-13933065D01*
X3646667Y-13923542D01*
X3665714Y-13914018D01*
X3684762Y-13914018D01*
X3751428Y-14047351D02*
X3751428Y-13914018D01*
X3751428Y-13847351D02*
X3741905Y-13856875D01*
X3751428Y-13866399D01*
X3760952Y-13856875D01*
X3751428Y-13847351D01*
X3751428Y-13866399D01*
X3875238Y-14047351D02*
X3856190Y-14037827D01*
X3846667Y-14018780D01*
X3846667Y-13847351D01*
X3980000Y-14047351D02*
X3960952Y-14037827D01*
X3951428Y-14018780D01*
X3951428Y-13847351D01*
X4208571Y-14047351D02*
X4208571Y-13847351D01*
X4275238Y-13990208D01*
X4341905Y-13847351D01*
X4341905Y-14047351D01*
X4522857Y-14047351D02*
X4522857Y-13942589D01*
X4513333Y-13923542D01*
X4494286Y-13914018D01*
X4456190Y-13914018D01*
X4437143Y-13923542D01*
X4522857Y-14037827D02*
X4503810Y-14047351D01*
X4456190Y-14047351D01*
X4437143Y-14037827D01*
X4427619Y-14018780D01*
X4427619Y-13999732D01*
X4437143Y-13980684D01*
X4456190Y-13971161D01*
X4503810Y-13971161D01*
X4522857Y-13961637D01*
X4618095Y-13914018D02*
X4618095Y-14114018D01*
X4618095Y-13923542D02*
X4637143Y-13914018D01*
X4675238Y-13914018D01*
X4694286Y-13923542D01*
X4703810Y-13933065D01*
X4713333Y-13952113D01*
X4713333Y-14009256D01*
X4703810Y-14028303D01*
X4694286Y-14037827D01*
X4675238Y-14047351D01*
X4637143Y-14047351D01*
X4618095Y-14037827D01*
X4799048Y-14028303D02*
X4808571Y-14037827D01*
X4799048Y-14047351D01*
X4789524Y-14037827D01*
X4799048Y-14028303D01*
X4799048Y-14047351D01*
X4799048Y-13923542D02*
X4808571Y-13933065D01*
X4799048Y-13942589D01*
X4789524Y-13933065D01*
X4799048Y-13923542D01*
X4799048Y-13942589D01*
D13*
X3130000Y-14356875D02*
X3170000Y-14396875D01*
X3170000Y-14356875D02*
X3130000Y-14396875D01*
D12*
X3465714Y-14267351D02*
X3484762Y-14267351D01*
X3503809Y-14276875D01*
X3513333Y-14286399D01*
X3522857Y-14305446D01*
X3532381Y-14343542D01*
X3532381Y-14391161D01*
X3522857Y-14429256D01*
X3513333Y-14448303D01*
X3503809Y-14457827D01*
X3484762Y-14467351D01*
X3465714Y-14467351D01*
X3446667Y-14457827D01*
X3437143Y-14448303D01*
X3427619Y-14429256D01*
X3418095Y-14391161D01*
X3418095Y-14343542D01*
X3427619Y-14305446D01*
X3437143Y-14286399D01*
X3446667Y-14276875D01*
X3465714Y-14267351D01*
X3618095Y-14448303D02*
X3627619Y-14457827D01*
X3618095Y-14467351D01*
X3608571Y-14457827D01*
X3618095Y-14448303D01*
X3618095Y-14467351D01*
X3799048Y-14334018D02*
X3799048Y-14467351D01*
X3751428Y-14257827D02*
X3703809Y-14400684D01*
X3827619Y-14400684D01*
X3941905Y-14267351D02*
X3960952Y-14267351D01*
X3980000Y-14276875D01*
X3989524Y-14286399D01*
X3999048Y-14305446D01*
X4008571Y-14343542D01*
X4008571Y-14391161D01*
X3999048Y-14429256D01*
X3989524Y-14448303D01*
X3980000Y-14457827D01*
X3960952Y-14467351D01*
X3941905Y-14467351D01*
X3922857Y-14457827D01*
X3913333Y-14448303D01*
X3903809Y-14429256D01*
X3894286Y-14391161D01*
X3894286Y-14343542D01*
X3903809Y-14305446D01*
X3913333Y-14286399D01*
X3922857Y-14276875D01*
X3941905Y-14267351D01*
X4132381Y-14267351D02*
X4151428Y-14267351D01*
X4170476Y-14276875D01*
X4180000Y-14286399D01*
X4189524Y-14305446D01*
X4199048Y-14343542D01*
X4199048Y-14391161D01*
X4189524Y-14429256D01*
X4180000Y-14448303D01*
X4170476Y-14457827D01*
X4151428Y-14467351D01*
X4132381Y-14467351D01*
X4113333Y-14457827D01*
X4103809Y-14448303D01*
X4094286Y-14429256D01*
X4084762Y-14391161D01*
X4084762Y-14343542D01*
X4094286Y-14305446D01*
X4103809Y-14286399D01*
X4113333Y-14276875D01*
X4132381Y-14267351D01*
X4284762Y-14467351D02*
X4284762Y-14334018D01*
X4284762Y-14353065D02*
X4294286Y-14343542D01*
X4313333Y-14334018D01*
X4341905Y-14334018D01*
X4360952Y-14343542D01*
X4370476Y-14362589D01*
X4370476Y-14467351D01*
X4370476Y-14362589D02*
X4380000Y-14343542D01*
X4399048Y-14334018D01*
X4427619Y-14334018D01*
X4446667Y-14343542D01*
X4456190Y-14362589D01*
X4456190Y-14467351D01*
X4551429Y-14467351D02*
X4551429Y-14334018D01*
X4551429Y-14353065D02*
X4560952Y-14343542D01*
X4580000Y-14334018D01*
X4608571Y-14334018D01*
X4627619Y-14343542D01*
X4637143Y-14362589D01*
X4637143Y-14467351D01*
X4637143Y-14362589D02*
X4646667Y-14343542D01*
X4665714Y-14334018D01*
X4694286Y-14334018D01*
X4713333Y-14343542D01*
X4722857Y-14362589D01*
X4722857Y-14467351D01*
X5113333Y-14257827D02*
X4941905Y-14514970D01*
X5370476Y-14267351D02*
X5389524Y-14267351D01*
X5408571Y-14276875D01*
X5418095Y-14286399D01*
X5427619Y-14305446D01*
X5437143Y-14343542D01*
X5437143Y-14391161D01*
X5427619Y-14429256D01*
X5418095Y-14448303D01*
X5408571Y-14457827D01*
X5389524Y-14467351D01*
X5370476Y-14467351D01*
X5351429Y-14457827D01*
X5341905Y-14448303D01*
X5332381Y-14429256D01*
X5322857Y-14391161D01*
X5322857Y-14343542D01*
X5332381Y-14305446D01*
X5341905Y-14286399D01*
X5351429Y-14276875D01*
X5370476Y-14267351D01*
X5522857Y-14448303D02*
X5532381Y-14457827D01*
X5522857Y-14467351D01*
X5513333Y-14457827D01*
X5522857Y-14448303D01*
X5522857Y-14467351D01*
X5656190Y-14267351D02*
X5675238Y-14267351D01*
X5694286Y-14276875D01*
X5703809Y-14286399D01*
X5713333Y-14305446D01*
X5722857Y-14343542D01*
X5722857Y-14391161D01*
X5713333Y-14429256D01*
X5703809Y-14448303D01*
X5694286Y-14457827D01*
X5675238Y-14467351D01*
X5656190Y-14467351D01*
X5637143Y-14457827D01*
X5627619Y-14448303D01*
X5618095Y-14429256D01*
X5608571Y-14391161D01*
X5608571Y-14343542D01*
X5618095Y-14305446D01*
X5627619Y-14286399D01*
X5637143Y-14276875D01*
X5656190Y-14267351D01*
X5913333Y-14467351D02*
X5799048Y-14467351D01*
X5856190Y-14467351D02*
X5856190Y-14267351D01*
X5837143Y-14295923D01*
X5818095Y-14314970D01*
X5799048Y-14324494D01*
X6094286Y-14267351D02*
X5999048Y-14267351D01*
X5989524Y-14362589D01*
X5999048Y-14353065D01*
X6018095Y-14343542D01*
X6065714Y-14343542D01*
X6084762Y-14353065D01*
X6094286Y-14362589D01*
X6103809Y-14381637D01*
X6103809Y-14429256D01*
X6094286Y-14448303D01*
X6084762Y-14457827D01*
X6065714Y-14467351D01*
X6018095Y-14467351D01*
X5999048Y-14457827D01*
X5989524Y-14448303D01*
X6170476Y-14267351D02*
X6303809Y-14267351D01*
X6218095Y-14467351D01*
X6370476Y-14267351D02*
X6370476Y-14305446D01*
X6446667Y-14267351D02*
X6446667Y-14305446D01*
X6741905Y-14543542D02*
X6732381Y-14534018D01*
X6713333Y-14505446D01*
X6703809Y-14486399D01*
X6694286Y-14457827D01*
X6684762Y-14410208D01*
X6684762Y-14372113D01*
X6694286Y-14324494D01*
X6703809Y-14295923D01*
X6713333Y-14276875D01*
X6732381Y-14248303D01*
X6741905Y-14238780D01*
X6808571Y-14286399D02*
X6818095Y-14276875D01*
X6837143Y-14267351D01*
X6884762Y-14267351D01*
X6903809Y-14276875D01*
X6913333Y-14286399D01*
X6922857Y-14305446D01*
X6922857Y-14324494D01*
X6913333Y-14353065D01*
X6799048Y-14467351D01*
X6922857Y-14467351D01*
X7160952Y-14467351D02*
X7160952Y-14267351D01*
X7246667Y-14467351D02*
X7246667Y-14362589D01*
X7237143Y-14343542D01*
X7218095Y-14334018D01*
X7189524Y-14334018D01*
X7170476Y-14343542D01*
X7160952Y-14353065D01*
X7370476Y-14467351D02*
X7351428Y-14457827D01*
X7341905Y-14448303D01*
X7332381Y-14429256D01*
X7332381Y-14372113D01*
X7341905Y-14353065D01*
X7351428Y-14343542D01*
X7370476Y-14334018D01*
X7399048Y-14334018D01*
X7418095Y-14343542D01*
X7427619Y-14353065D01*
X7437143Y-14372113D01*
X7437143Y-14429256D01*
X7427619Y-14448303D01*
X7418095Y-14457827D01*
X7399048Y-14467351D01*
X7370476Y-14467351D01*
X7551428Y-14467351D02*
X7532381Y-14457827D01*
X7522857Y-14438780D01*
X7522857Y-14267351D01*
X7703809Y-14457827D02*
X7684762Y-14467351D01*
X7646667Y-14467351D01*
X7627619Y-14457827D01*
X7618095Y-14438780D01*
X7618095Y-14362589D01*
X7627619Y-14343542D01*
X7646667Y-14334018D01*
X7684762Y-14334018D01*
X7703809Y-14343542D01*
X7713333Y-14362589D01*
X7713333Y-14381637D01*
X7618095Y-14400684D01*
X7789524Y-14457827D02*
X7808571Y-14467351D01*
X7846667Y-14467351D01*
X7865714Y-14457827D01*
X7875238Y-14438780D01*
X7875238Y-14429256D01*
X7865714Y-14410208D01*
X7846667Y-14400684D01*
X7818095Y-14400684D01*
X7799048Y-14391161D01*
X7789524Y-14372113D01*
X7789524Y-14362589D01*
X7799048Y-14343542D01*
X7818095Y-14334018D01*
X7846667Y-14334018D01*
X7865714Y-14343542D01*
X7941905Y-14543542D02*
X7951428Y-14534018D01*
X7970476Y-14505446D01*
X7980000Y-14486399D01*
X7989524Y-14457827D01*
X7999048Y-14410208D01*
X7999048Y-14372113D01*
X7989524Y-14324494D01*
X7980000Y-14295923D01*
X7970476Y-14276875D01*
X7951428Y-14248303D01*
X7941905Y-14238780D01*
D14*
X3170000Y-14640875D02*
G75*
G03*
X3170000Y-14640875I-37500J0D01*
G01*
D12*
X3465714Y-14531351D02*
X3484762Y-14531351D01*
X3503809Y-14540875D01*
X3513333Y-14550399D01*
X3522857Y-14569446D01*
X3532381Y-14607542D01*
X3532381Y-14655161D01*
X3522857Y-14693256D01*
X3513333Y-14712303D01*
X3503809Y-14721827D01*
X3484762Y-14731351D01*
X3465714Y-14731351D01*
X3446667Y-14721827D01*
X3437143Y-14712303D01*
X3427619Y-14693256D01*
X3418095Y-14655161D01*
X3418095Y-14607542D01*
X3427619Y-14569446D01*
X3437143Y-14550399D01*
X3446667Y-14540875D01*
X3465714Y-14531351D01*
X3618095Y-14712303D02*
X3627619Y-14721827D01*
X3618095Y-14731351D01*
X3608571Y-14721827D01*
X3618095Y-14712303D01*
X3618095Y-14731351D01*
X3694286Y-14531351D02*
X3827619Y-14531351D01*
X3741905Y-14731351D01*
X3999048Y-14531351D02*
X3903809Y-14531351D01*
X3894286Y-14626589D01*
X3903809Y-14617065D01*
X3922857Y-14607542D01*
X3970476Y-14607542D01*
X3989524Y-14617065D01*
X3999048Y-14626589D01*
X4008571Y-14645637D01*
X4008571Y-14693256D01*
X3999048Y-14712303D01*
X3989524Y-14721827D01*
X3970476Y-14731351D01*
X3922857Y-14731351D01*
X3903809Y-14721827D01*
X3894286Y-14712303D01*
X4132381Y-14531351D02*
X4151428Y-14531351D01*
X4170476Y-14540875D01*
X4180000Y-14550399D01*
X4189524Y-14569446D01*
X4199048Y-14607542D01*
X4199048Y-14655161D01*
X4189524Y-14693256D01*
X4180000Y-14712303D01*
X4170476Y-14721827D01*
X4151428Y-14731351D01*
X4132381Y-14731351D01*
X4113333Y-14721827D01*
X4103809Y-14712303D01*
X4094286Y-14693256D01*
X4084762Y-14655161D01*
X4084762Y-14607542D01*
X4094286Y-14569446D01*
X4103809Y-14550399D01*
X4113333Y-14540875D01*
X4132381Y-14531351D01*
X4284762Y-14731351D02*
X4284762Y-14598018D01*
X4284762Y-14617065D02*
X4294286Y-14607542D01*
X4313333Y-14598018D01*
X4341905Y-14598018D01*
X4360952Y-14607542D01*
X4370476Y-14626589D01*
X4370476Y-14731351D01*
X4370476Y-14626589D02*
X4380000Y-14607542D01*
X4399048Y-14598018D01*
X4427619Y-14598018D01*
X4446667Y-14607542D01*
X4456190Y-14626589D01*
X4456190Y-14731351D01*
X4551429Y-14731351D02*
X4551429Y-14598018D01*
X4551429Y-14617065D02*
X4560952Y-14607542D01*
X4580000Y-14598018D01*
X4608571Y-14598018D01*
X4627619Y-14607542D01*
X4637143Y-14626589D01*
X4637143Y-14731351D01*
X4637143Y-14626589D02*
X4646667Y-14607542D01*
X4665714Y-14598018D01*
X4694286Y-14598018D01*
X4713333Y-14607542D01*
X4722857Y-14626589D01*
X4722857Y-14731351D01*
X5113333Y-14521827D02*
X4941905Y-14778970D01*
X5370476Y-14531351D02*
X5389524Y-14531351D01*
X5408571Y-14540875D01*
X5418095Y-14550399D01*
X5427619Y-14569446D01*
X5437143Y-14607542D01*
X5437143Y-14655161D01*
X5427619Y-14693256D01*
X5418095Y-14712303D01*
X5408571Y-14721827D01*
X5389524Y-14731351D01*
X5370476Y-14731351D01*
X5351429Y-14721827D01*
X5341905Y-14712303D01*
X5332381Y-14693256D01*
X5322857Y-14655161D01*
X5322857Y-14607542D01*
X5332381Y-14569446D01*
X5341905Y-14550399D01*
X5351429Y-14540875D01*
X5370476Y-14531351D01*
X5522857Y-14712303D02*
X5532381Y-14721827D01*
X5522857Y-14731351D01*
X5513333Y-14721827D01*
X5522857Y-14712303D01*
X5522857Y-14731351D01*
X5656190Y-14531351D02*
X5675238Y-14531351D01*
X5694286Y-14540875D01*
X5703809Y-14550399D01*
X5713333Y-14569446D01*
X5722857Y-14607542D01*
X5722857Y-14655161D01*
X5713333Y-14693256D01*
X5703809Y-14712303D01*
X5694286Y-14721827D01*
X5675238Y-14731351D01*
X5656190Y-14731351D01*
X5637143Y-14721827D01*
X5627619Y-14712303D01*
X5618095Y-14693256D01*
X5608571Y-14655161D01*
X5608571Y-14607542D01*
X5618095Y-14569446D01*
X5627619Y-14550399D01*
X5637143Y-14540875D01*
X5656190Y-14531351D01*
X5799048Y-14550399D02*
X5808571Y-14540875D01*
X5827619Y-14531351D01*
X5875238Y-14531351D01*
X5894286Y-14540875D01*
X5903809Y-14550399D01*
X5913333Y-14569446D01*
X5913333Y-14588494D01*
X5903809Y-14617065D01*
X5789524Y-14731351D01*
X5913333Y-14731351D01*
X6008571Y-14731351D02*
X6046667Y-14731351D01*
X6065714Y-14721827D01*
X6075238Y-14712303D01*
X6094286Y-14683732D01*
X6103809Y-14645637D01*
X6103809Y-14569446D01*
X6094286Y-14550399D01*
X6084762Y-14540875D01*
X6065714Y-14531351D01*
X6027619Y-14531351D01*
X6008571Y-14540875D01*
X5999048Y-14550399D01*
X5989524Y-14569446D01*
X5989524Y-14617065D01*
X5999048Y-14636113D01*
X6008571Y-14645637D01*
X6027619Y-14655161D01*
X6065714Y-14655161D01*
X6084762Y-14645637D01*
X6094286Y-14636113D01*
X6103809Y-14617065D01*
X6284762Y-14531351D02*
X6189524Y-14531351D01*
X6180000Y-14626589D01*
X6189524Y-14617065D01*
X6208571Y-14607542D01*
X6256190Y-14607542D01*
X6275238Y-14617065D01*
X6284762Y-14626589D01*
X6294286Y-14645637D01*
X6294286Y-14693256D01*
X6284762Y-14712303D01*
X6275238Y-14721827D01*
X6256190Y-14731351D01*
X6208571Y-14731351D01*
X6189524Y-14721827D01*
X6180000Y-14712303D01*
X6370476Y-14531351D02*
X6370476Y-14569446D01*
X6446667Y-14531351D02*
X6446667Y-14569446D01*
X6741905Y-14807542D02*
X6732381Y-14798018D01*
X6713333Y-14769446D01*
X6703809Y-14750399D01*
X6694286Y-14721827D01*
X6684762Y-14674208D01*
X6684762Y-14636113D01*
X6694286Y-14588494D01*
X6703809Y-14559923D01*
X6713333Y-14540875D01*
X6732381Y-14512303D01*
X6741905Y-14502780D01*
X6922857Y-14731351D02*
X6808571Y-14731351D01*
X6865714Y-14731351D02*
X6865714Y-14531351D01*
X6846667Y-14559923D01*
X6827619Y-14578970D01*
X6808571Y-14588494D01*
X7113333Y-14731351D02*
X6999048Y-14731351D01*
X7056190Y-14731351D02*
X7056190Y-14531351D01*
X7037143Y-14559923D01*
X7018095Y-14578970D01*
X6999048Y-14588494D01*
X7227619Y-14617065D02*
X7208571Y-14607542D01*
X7199048Y-14598018D01*
X7189524Y-14578970D01*
X7189524Y-14569446D01*
X7199048Y-14550399D01*
X7208571Y-14540875D01*
X7227619Y-14531351D01*
X7265714Y-14531351D01*
X7284762Y-14540875D01*
X7294286Y-14550399D01*
X7303809Y-14569446D01*
X7303809Y-14578970D01*
X7294286Y-14598018D01*
X7284762Y-14607542D01*
X7265714Y-14617065D01*
X7227619Y-14617065D01*
X7208571Y-14626589D01*
X7199048Y-14636113D01*
X7189524Y-14655161D01*
X7189524Y-14693256D01*
X7199048Y-14712303D01*
X7208571Y-14721827D01*
X7227619Y-14731351D01*
X7265714Y-14731351D01*
X7284762Y-14721827D01*
X7294286Y-14712303D01*
X7303809Y-14693256D01*
X7303809Y-14655161D01*
X7294286Y-14636113D01*
X7284762Y-14626589D01*
X7265714Y-14617065D01*
X7541905Y-14731351D02*
X7541905Y-14531351D01*
X7627619Y-14731351D02*
X7627619Y-14626589D01*
X7618095Y-14607542D01*
X7599048Y-14598018D01*
X7570476Y-14598018D01*
X7551428Y-14607542D01*
X7541905Y-14617065D01*
X7751428Y-14731351D02*
X7732381Y-14721827D01*
X7722857Y-14712303D01*
X7713333Y-14693256D01*
X7713333Y-14636113D01*
X7722857Y-14617065D01*
X7732381Y-14607542D01*
X7751428Y-14598018D01*
X7780000Y-14598018D01*
X7799048Y-14607542D01*
X7808571Y-14617065D01*
X7818095Y-14636113D01*
X7818095Y-14693256D01*
X7808571Y-14712303D01*
X7799048Y-14721827D01*
X7780000Y-14731351D01*
X7751428Y-14731351D01*
X7932381Y-14731351D02*
X7913333Y-14721827D01*
X7903809Y-14702780D01*
X7903809Y-14531351D01*
X8084762Y-14721827D02*
X8065714Y-14731351D01*
X8027619Y-14731351D01*
X8008571Y-14721827D01*
X7999048Y-14702780D01*
X7999048Y-14626589D01*
X8008571Y-14607542D01*
X8027619Y-14598018D01*
X8065714Y-14598018D01*
X8084762Y-14607542D01*
X8094286Y-14626589D01*
X8094286Y-14645637D01*
X7999048Y-14664684D01*
X8170476Y-14721827D02*
X8189524Y-14731351D01*
X8227619Y-14731351D01*
X8246667Y-14721827D01*
X8256190Y-14702780D01*
X8256190Y-14693256D01*
X8246667Y-14674208D01*
X8227619Y-14664684D01*
X8199048Y-14664684D01*
X8180000Y-14655161D01*
X8170476Y-14636113D01*
X8170476Y-14626589D01*
X8180000Y-14607542D01*
X8199048Y-14598018D01*
X8227619Y-14598018D01*
X8246667Y-14607542D01*
X8322857Y-14807542D02*
X8332381Y-14798018D01*
X8351428Y-14769446D01*
X8360952Y-14750399D01*
X8370476Y-14721827D01*
X8380000Y-14674208D01*
X8380000Y-14636113D01*
X8370476Y-14588494D01*
X8360952Y-14559923D01*
X8351428Y-14540875D01*
X8332381Y-14512303D01*
X8322857Y-14502780D01*
D15*
X3130000Y-14864875D02*
X3130000Y-14944875D01*
X3090000Y-14904875D02*
X3170000Y-14904875D01*
D12*
X3465714Y-14795351D02*
X3484762Y-14795351D01*
X3503809Y-14804875D01*
X3513333Y-14814399D01*
X3522857Y-14833446D01*
X3532381Y-14871542D01*
X3532381Y-14919161D01*
X3522857Y-14957256D01*
X3513333Y-14976303D01*
X3503809Y-14985827D01*
X3484762Y-14995351D01*
X3465714Y-14995351D01*
X3446667Y-14985827D01*
X3437143Y-14976303D01*
X3427619Y-14957256D01*
X3418095Y-14919161D01*
X3418095Y-14871542D01*
X3427619Y-14833446D01*
X3437143Y-14814399D01*
X3446667Y-14804875D01*
X3465714Y-14795351D01*
X3618095Y-14976303D02*
X3627619Y-14985827D01*
X3618095Y-14995351D01*
X3608571Y-14985827D01*
X3618095Y-14976303D01*
X3618095Y-14995351D01*
X3741905Y-14881065D02*
X3722857Y-14871542D01*
X3713333Y-14862018D01*
X3703809Y-14842970D01*
X3703809Y-14833446D01*
X3713333Y-14814399D01*
X3722857Y-14804875D01*
X3741905Y-14795351D01*
X3780000Y-14795351D01*
X3799048Y-14804875D01*
X3808571Y-14814399D01*
X3818095Y-14833446D01*
X3818095Y-14842970D01*
X3808571Y-14862018D01*
X3799048Y-14871542D01*
X3780000Y-14881065D01*
X3741905Y-14881065D01*
X3722857Y-14890589D01*
X3713333Y-14900113D01*
X3703809Y-14919161D01*
X3703809Y-14957256D01*
X3713333Y-14976303D01*
X3722857Y-14985827D01*
X3741905Y-14995351D01*
X3780000Y-14995351D01*
X3799048Y-14985827D01*
X3808571Y-14976303D01*
X3818095Y-14957256D01*
X3818095Y-14919161D01*
X3808571Y-14900113D01*
X3799048Y-14890589D01*
X3780000Y-14881065D01*
X3941905Y-14795351D02*
X3960952Y-14795351D01*
X3980000Y-14804875D01*
X3989524Y-14814399D01*
X3999048Y-14833446D01*
X4008571Y-14871542D01*
X4008571Y-14919161D01*
X3999048Y-14957256D01*
X3989524Y-14976303D01*
X3980000Y-14985827D01*
X3960952Y-14995351D01*
X3941905Y-14995351D01*
X3922857Y-14985827D01*
X3913333Y-14976303D01*
X3903809Y-14957256D01*
X3894286Y-14919161D01*
X3894286Y-14871542D01*
X3903809Y-14833446D01*
X3913333Y-14814399D01*
X3922857Y-14804875D01*
X3941905Y-14795351D01*
X4132381Y-14795351D02*
X4151428Y-14795351D01*
X4170476Y-14804875D01*
X4180000Y-14814399D01*
X4189524Y-14833446D01*
X4199048Y-14871542D01*
X4199048Y-14919161D01*
X4189524Y-14957256D01*
X4180000Y-14976303D01*
X4170476Y-14985827D01*
X4151428Y-14995351D01*
X4132381Y-14995351D01*
X4113333Y-14985827D01*
X4103809Y-14976303D01*
X4094286Y-14957256D01*
X4084762Y-14919161D01*
X4084762Y-14871542D01*
X4094286Y-14833446D01*
X4103809Y-14814399D01*
X4113333Y-14804875D01*
X4132381Y-14795351D01*
X4284762Y-14995351D02*
X4284762Y-14862018D01*
X4284762Y-14881065D02*
X4294286Y-14871542D01*
X4313333Y-14862018D01*
X4341905Y-14862018D01*
X4360952Y-14871542D01*
X4370476Y-14890589D01*
X4370476Y-14995351D01*
X4370476Y-14890589D02*
X4380000Y-14871542D01*
X4399048Y-14862018D01*
X4427619Y-14862018D01*
X4446667Y-14871542D01*
X4456190Y-14890589D01*
X4456190Y-14995351D01*
X4551429Y-14995351D02*
X4551429Y-14862018D01*
X4551429Y-14881065D02*
X4560952Y-14871542D01*
X4580000Y-14862018D01*
X4608571Y-14862018D01*
X4627619Y-14871542D01*
X4637143Y-14890589D01*
X4637143Y-14995351D01*
X4637143Y-14890589D02*
X4646667Y-14871542D01*
X4665714Y-14862018D01*
X4694286Y-14862018D01*
X4713333Y-14871542D01*
X4722857Y-14890589D01*
X4722857Y-14995351D01*
X5113333Y-14785827D02*
X4941905Y-15042970D01*
X5370476Y-14795351D02*
X5389524Y-14795351D01*
X5408571Y-14804875D01*
X5418095Y-14814399D01*
X5427619Y-14833446D01*
X5437143Y-14871542D01*
X5437143Y-14919161D01*
X5427619Y-14957256D01*
X5418095Y-14976303D01*
X5408571Y-14985827D01*
X5389524Y-14995351D01*
X5370476Y-14995351D01*
X5351429Y-14985827D01*
X5341905Y-14976303D01*
X5332381Y-14957256D01*
X5322857Y-14919161D01*
X5322857Y-14871542D01*
X5332381Y-14833446D01*
X5341905Y-14814399D01*
X5351429Y-14804875D01*
X5370476Y-14795351D01*
X5522857Y-14976303D02*
X5532381Y-14985827D01*
X5522857Y-14995351D01*
X5513333Y-14985827D01*
X5522857Y-14976303D01*
X5522857Y-14995351D01*
X5656190Y-14795351D02*
X5675238Y-14795351D01*
X5694286Y-14804875D01*
X5703809Y-14814399D01*
X5713333Y-14833446D01*
X5722857Y-14871542D01*
X5722857Y-14919161D01*
X5713333Y-14957256D01*
X5703809Y-14976303D01*
X5694286Y-14985827D01*
X5675238Y-14995351D01*
X5656190Y-14995351D01*
X5637143Y-14985827D01*
X5627619Y-14976303D01*
X5618095Y-14957256D01*
X5608571Y-14919161D01*
X5608571Y-14871542D01*
X5618095Y-14833446D01*
X5627619Y-14814399D01*
X5637143Y-14804875D01*
X5656190Y-14795351D01*
X5789524Y-14795351D02*
X5913333Y-14795351D01*
X5846667Y-14871542D01*
X5875238Y-14871542D01*
X5894286Y-14881065D01*
X5903809Y-14890589D01*
X5913333Y-14909637D01*
X5913333Y-14957256D01*
X5903809Y-14976303D01*
X5894286Y-14985827D01*
X5875238Y-14995351D01*
X5818095Y-14995351D01*
X5799048Y-14985827D01*
X5789524Y-14976303D01*
X6103809Y-14995351D02*
X5989524Y-14995351D01*
X6046667Y-14995351D02*
X6046667Y-14795351D01*
X6027619Y-14823923D01*
X6008571Y-14842970D01*
X5989524Y-14852494D01*
X6284762Y-14795351D02*
X6189524Y-14795351D01*
X6180000Y-14890589D01*
X6189524Y-14881065D01*
X6208571Y-14871542D01*
X6256190Y-14871542D01*
X6275238Y-14881065D01*
X6284762Y-14890589D01*
X6294286Y-14909637D01*
X6294286Y-14957256D01*
X6284762Y-14976303D01*
X6275238Y-14985827D01*
X6256190Y-14995351D01*
X6208571Y-14995351D01*
X6189524Y-14985827D01*
X6180000Y-14976303D01*
X6370476Y-14795351D02*
X6370476Y-14833446D01*
X6446667Y-14795351D02*
X6446667Y-14833446D01*
X6741905Y-15071542D02*
X6732381Y-15062018D01*
X6713333Y-15033446D01*
X6703809Y-15014399D01*
X6694286Y-14985827D01*
X6684762Y-14938208D01*
X6684762Y-14900113D01*
X6694286Y-14852494D01*
X6703809Y-14823923D01*
X6713333Y-14804875D01*
X6732381Y-14776303D01*
X6741905Y-14766780D01*
X6922857Y-14995351D02*
X6808571Y-14995351D01*
X6865714Y-14995351D02*
X6865714Y-14795351D01*
X6846667Y-14823923D01*
X6827619Y-14842970D01*
X6808571Y-14852494D01*
X7046667Y-14795351D02*
X7065714Y-14795351D01*
X7084762Y-14804875D01*
X7094286Y-14814399D01*
X7103809Y-14833446D01*
X7113333Y-14871542D01*
X7113333Y-14919161D01*
X7103809Y-14957256D01*
X7094286Y-14976303D01*
X7084762Y-14985827D01*
X7065714Y-14995351D01*
X7046667Y-14995351D01*
X7027619Y-14985827D01*
X7018095Y-14976303D01*
X7008571Y-14957256D01*
X6999048Y-14919161D01*
X6999048Y-14871542D01*
X7008571Y-14833446D01*
X7018095Y-14814399D01*
X7027619Y-14804875D01*
X7046667Y-14795351D01*
X7227619Y-14881065D02*
X7208571Y-14871542D01*
X7199048Y-14862018D01*
X7189524Y-14842970D01*
X7189524Y-14833446D01*
X7199048Y-14814399D01*
X7208571Y-14804875D01*
X7227619Y-14795351D01*
X7265714Y-14795351D01*
X7284762Y-14804875D01*
X7294286Y-14814399D01*
X7303809Y-14833446D01*
X7303809Y-14842970D01*
X7294286Y-14862018D01*
X7284762Y-14871542D01*
X7265714Y-14881065D01*
X7227619Y-14881065D01*
X7208571Y-14890589D01*
X7199048Y-14900113D01*
X7189524Y-14919161D01*
X7189524Y-14957256D01*
X7199048Y-14976303D01*
X7208571Y-14985827D01*
X7227619Y-14995351D01*
X7265714Y-14995351D01*
X7284762Y-14985827D01*
X7294286Y-14976303D01*
X7303809Y-14957256D01*
X7303809Y-14919161D01*
X7294286Y-14900113D01*
X7284762Y-14890589D01*
X7265714Y-14881065D01*
X7541905Y-14995351D02*
X7541905Y-14795351D01*
X7627619Y-14995351D02*
X7627619Y-14890589D01*
X7618095Y-14871542D01*
X7599048Y-14862018D01*
X7570476Y-14862018D01*
X7551428Y-14871542D01*
X7541905Y-14881065D01*
X7751428Y-14995351D02*
X7732381Y-14985827D01*
X7722857Y-14976303D01*
X7713333Y-14957256D01*
X7713333Y-14900113D01*
X7722857Y-14881065D01*
X7732381Y-14871542D01*
X7751428Y-14862018D01*
X7780000Y-14862018D01*
X7799048Y-14871542D01*
X7808571Y-14881065D01*
X7818095Y-14900113D01*
X7818095Y-14957256D01*
X7808571Y-14976303D01*
X7799048Y-14985827D01*
X7780000Y-14995351D01*
X7751428Y-14995351D01*
X7932381Y-14995351D02*
X7913333Y-14985827D01*
X7903809Y-14966780D01*
X7903809Y-14795351D01*
X8084762Y-14985827D02*
X8065714Y-14995351D01*
X8027619Y-14995351D01*
X8008571Y-14985827D01*
X7999048Y-14966780D01*
X7999048Y-14890589D01*
X8008571Y-14871542D01*
X8027619Y-14862018D01*
X8065714Y-14862018D01*
X8084762Y-14871542D01*
X8094286Y-14890589D01*
X8094286Y-14909637D01*
X7999048Y-14928684D01*
X8170476Y-14985827D02*
X8189524Y-14995351D01*
X8227619Y-14995351D01*
X8246667Y-14985827D01*
X8256190Y-14966780D01*
X8256190Y-14957256D01*
X8246667Y-14938208D01*
X8227619Y-14928684D01*
X8199048Y-14928684D01*
X8180000Y-14919161D01*
X8170476Y-14900113D01*
X8170476Y-14890589D01*
X8180000Y-14871542D01*
X8199048Y-14862018D01*
X8227619Y-14862018D01*
X8246667Y-14871542D01*
X8322857Y-15071542D02*
X8332381Y-15062018D01*
X8351428Y-15033446D01*
X8360952Y-15014399D01*
X8370476Y-14985827D01*
X8380000Y-14938208D01*
X8380000Y-14900113D01*
X8370476Y-14852494D01*
X8360952Y-14823923D01*
X8351428Y-14804875D01*
X8332381Y-14776303D01*
X8322857Y-14766780D01*
D16*
X3156088Y-15202463D02*
X3156088Y-15135287D01*
X3088912Y-15135287D01*
X3088912Y-15202463D01*
X3156088Y-15202463D01*
D12*
X3465714Y-15059351D02*
X3484762Y-15059351D01*
X3503809Y-15068875D01*
X3513333Y-15078399D01*
X3522857Y-15097446D01*
X3532381Y-15135542D01*
X3532381Y-15183161D01*
X3522857Y-15221256D01*
X3513333Y-15240303D01*
X3503809Y-15249827D01*
X3484762Y-15259351D01*
X3465714Y-15259351D01*
X3446667Y-15249827D01*
X3437143Y-15240303D01*
X3427619Y-15221256D01*
X3418095Y-15183161D01*
X3418095Y-15135542D01*
X3427619Y-15097446D01*
X3437143Y-15078399D01*
X3446667Y-15068875D01*
X3465714Y-15059351D01*
X3618095Y-15240303D02*
X3627619Y-15249827D01*
X3618095Y-15259351D01*
X3608571Y-15249827D01*
X3618095Y-15240303D01*
X3618095Y-15259351D01*
X3722857Y-15259351D02*
X3760952Y-15259351D01*
X3780000Y-15249827D01*
X3789524Y-15240303D01*
X3808571Y-15211732D01*
X3818095Y-15173637D01*
X3818095Y-15097446D01*
X3808571Y-15078399D01*
X3799048Y-15068875D01*
X3780000Y-15059351D01*
X3741905Y-15059351D01*
X3722857Y-15068875D01*
X3713333Y-15078399D01*
X3703809Y-15097446D01*
X3703809Y-15145065D01*
X3713333Y-15164113D01*
X3722857Y-15173637D01*
X3741905Y-15183161D01*
X3780000Y-15183161D01*
X3799048Y-15173637D01*
X3808571Y-15164113D01*
X3818095Y-15145065D01*
X3999048Y-15059351D02*
X3903809Y-15059351D01*
X3894286Y-15154589D01*
X3903809Y-15145065D01*
X3922857Y-15135542D01*
X3970476Y-15135542D01*
X3989524Y-15145065D01*
X3999048Y-15154589D01*
X4008571Y-15173637D01*
X4008571Y-15221256D01*
X3999048Y-15240303D01*
X3989524Y-15249827D01*
X3970476Y-15259351D01*
X3922857Y-15259351D01*
X3903809Y-15249827D01*
X3894286Y-15240303D01*
X4132381Y-15059351D02*
X4151428Y-15059351D01*
X4170476Y-15068875D01*
X4180000Y-15078399D01*
X4189524Y-15097446D01*
X4199048Y-15135542D01*
X4199048Y-15183161D01*
X4189524Y-15221256D01*
X4180000Y-15240303D01*
X4170476Y-15249827D01*
X4151428Y-15259351D01*
X4132381Y-15259351D01*
X4113333Y-15249827D01*
X4103809Y-15240303D01*
X4094286Y-15221256D01*
X4084762Y-15183161D01*
X4084762Y-15135542D01*
X4094286Y-15097446D01*
X4103809Y-15078399D01*
X4113333Y-15068875D01*
X4132381Y-15059351D01*
X4284762Y-15259351D02*
X4284762Y-15126018D01*
X4284762Y-15145065D02*
X4294286Y-15135542D01*
X4313333Y-15126018D01*
X4341905Y-15126018D01*
X4360952Y-15135542D01*
X4370476Y-15154589D01*
X4370476Y-15259351D01*
X4370476Y-15154589D02*
X4380000Y-15135542D01*
X4399048Y-15126018D01*
X4427619Y-15126018D01*
X4446667Y-15135542D01*
X4456190Y-15154589D01*
X4456190Y-15259351D01*
X4551429Y-15259351D02*
X4551429Y-15126018D01*
X4551429Y-15145065D02*
X4560952Y-15135542D01*
X4580000Y-15126018D01*
X4608571Y-15126018D01*
X4627619Y-15135542D01*
X4637143Y-15154589D01*
X4637143Y-15259351D01*
X4637143Y-15154589D02*
X4646667Y-15135542D01*
X4665714Y-15126018D01*
X4694286Y-15126018D01*
X4713333Y-15135542D01*
X4722857Y-15154589D01*
X4722857Y-15259351D01*
X5113333Y-15049827D02*
X4941905Y-15306970D01*
X5370476Y-15059351D02*
X5389524Y-15059351D01*
X5408571Y-15068875D01*
X5418095Y-15078399D01*
X5427619Y-15097446D01*
X5437143Y-15135542D01*
X5437143Y-15183161D01*
X5427619Y-15221256D01*
X5418095Y-15240303D01*
X5408571Y-15249827D01*
X5389524Y-15259351D01*
X5370476Y-15259351D01*
X5351429Y-15249827D01*
X5341905Y-15240303D01*
X5332381Y-15221256D01*
X5322857Y-15183161D01*
X5322857Y-15135542D01*
X5332381Y-15097446D01*
X5341905Y-15078399D01*
X5351429Y-15068875D01*
X5370476Y-15059351D01*
X5522857Y-15240303D02*
X5532381Y-15249827D01*
X5522857Y-15259351D01*
X5513333Y-15249827D01*
X5522857Y-15240303D01*
X5522857Y-15259351D01*
X5656190Y-15059351D02*
X5675238Y-15059351D01*
X5694286Y-15068875D01*
X5703809Y-15078399D01*
X5713333Y-15097446D01*
X5722857Y-15135542D01*
X5722857Y-15183161D01*
X5713333Y-15221256D01*
X5703809Y-15240303D01*
X5694286Y-15249827D01*
X5675238Y-15259351D01*
X5656190Y-15259351D01*
X5637143Y-15249827D01*
X5627619Y-15240303D01*
X5618095Y-15221256D01*
X5608571Y-15183161D01*
X5608571Y-15135542D01*
X5618095Y-15097446D01*
X5627619Y-15078399D01*
X5637143Y-15068875D01*
X5656190Y-15059351D01*
X5789524Y-15059351D02*
X5913333Y-15059351D01*
X5846667Y-15135542D01*
X5875238Y-15135542D01*
X5894286Y-15145065D01*
X5903809Y-15154589D01*
X5913333Y-15173637D01*
X5913333Y-15221256D01*
X5903809Y-15240303D01*
X5894286Y-15249827D01*
X5875238Y-15259351D01*
X5818095Y-15259351D01*
X5799048Y-15249827D01*
X5789524Y-15240303D01*
X5980000Y-15059351D02*
X6113333Y-15059351D01*
X6027619Y-15259351D01*
X6275238Y-15126018D02*
X6275238Y-15259351D01*
X6227619Y-15049827D02*
X6180000Y-15192684D01*
X6303809Y-15192684D01*
X6370476Y-15059351D02*
X6370476Y-15097446D01*
X6446667Y-15059351D02*
X6446667Y-15097446D01*
X6741905Y-15335542D02*
X6732381Y-15326018D01*
X6713333Y-15297446D01*
X6703809Y-15278399D01*
X6694286Y-15249827D01*
X6684762Y-15202208D01*
X6684762Y-15164113D01*
X6694286Y-15116494D01*
X6703809Y-15087923D01*
X6713333Y-15068875D01*
X6732381Y-15040303D01*
X6741905Y-15030780D01*
X6827619Y-15259351D02*
X6865714Y-15259351D01*
X6884762Y-15249827D01*
X6894286Y-15240303D01*
X6913333Y-15211732D01*
X6922857Y-15173637D01*
X6922857Y-15097446D01*
X6913333Y-15078399D01*
X6903809Y-15068875D01*
X6884762Y-15059351D01*
X6846667Y-15059351D01*
X6827619Y-15068875D01*
X6818095Y-15078399D01*
X6808571Y-15097446D01*
X6808571Y-15145065D01*
X6818095Y-15164113D01*
X6827619Y-15173637D01*
X6846667Y-15183161D01*
X6884762Y-15183161D01*
X6903809Y-15173637D01*
X6913333Y-15164113D01*
X6922857Y-15145065D01*
X6989524Y-15059351D02*
X7122857Y-15059351D01*
X7037143Y-15259351D01*
X7351428Y-15259351D02*
X7351428Y-15059351D01*
X7437143Y-15259351D02*
X7437143Y-15154589D01*
X7427619Y-15135542D01*
X7408571Y-15126018D01*
X7380000Y-15126018D01*
X7360952Y-15135542D01*
X7351428Y-15145065D01*
X7560952Y-15259351D02*
X7541905Y-15249827D01*
X7532381Y-15240303D01*
X7522857Y-15221256D01*
X7522857Y-15164113D01*
X7532381Y-15145065D01*
X7541905Y-15135542D01*
X7560952Y-15126018D01*
X7589524Y-15126018D01*
X7608571Y-15135542D01*
X7618095Y-15145065D01*
X7627619Y-15164113D01*
X7627619Y-15221256D01*
X7618095Y-15240303D01*
X7608571Y-15249827D01*
X7589524Y-15259351D01*
X7560952Y-15259351D01*
X7741905Y-15259351D02*
X7722857Y-15249827D01*
X7713333Y-15230780D01*
X7713333Y-15059351D01*
X7894286Y-15249827D02*
X7875238Y-15259351D01*
X7837143Y-15259351D01*
X7818095Y-15249827D01*
X7808571Y-15230780D01*
X7808571Y-15154589D01*
X7818095Y-15135542D01*
X7837143Y-15126018D01*
X7875238Y-15126018D01*
X7894286Y-15135542D01*
X7903809Y-15154589D01*
X7903809Y-15173637D01*
X7808571Y-15192684D01*
X7980000Y-15249827D02*
X7999048Y-15259351D01*
X8037143Y-15259351D01*
X8056190Y-15249827D01*
X8065714Y-15230780D01*
X8065714Y-15221256D01*
X8056190Y-15202208D01*
X8037143Y-15192684D01*
X8008571Y-15192684D01*
X7989524Y-15183161D01*
X7980000Y-15164113D01*
X7980000Y-15154589D01*
X7989524Y-15135542D01*
X8008571Y-15126018D01*
X8037143Y-15126018D01*
X8056190Y-15135542D01*
X8132381Y-15335542D02*
X8141905Y-15326018D01*
X8160952Y-15297446D01*
X8170476Y-15278399D01*
X8180000Y-15249827D01*
X8189524Y-15202208D01*
X8189524Y-15164113D01*
X8180000Y-15116494D01*
X8170476Y-15087923D01*
X8160952Y-15068875D01*
X8141905Y-15040303D01*
X8132381Y-15030780D01*
D17*
X3120470Y-15482405D02*
X3170000Y-15432875D01*
X3120470Y-15383345D01*
X3070940Y-15432875D01*
X3120470Y-15482405D01*
D12*
X3465714Y-15323351D02*
X3484762Y-15323351D01*
X3503809Y-15332875D01*
X3513333Y-15342399D01*
X3522857Y-15361446D01*
X3532381Y-15399542D01*
X3532381Y-15447161D01*
X3522857Y-15485256D01*
X3513333Y-15504303D01*
X3503809Y-15513827D01*
X3484762Y-15523351D01*
X3465714Y-15523351D01*
X3446667Y-15513827D01*
X3437143Y-15504303D01*
X3427619Y-15485256D01*
X3418095Y-15447161D01*
X3418095Y-15399542D01*
X3427619Y-15361446D01*
X3437143Y-15342399D01*
X3446667Y-15332875D01*
X3465714Y-15323351D01*
X3618095Y-15504303D02*
X3627619Y-15513827D01*
X3618095Y-15523351D01*
X3608571Y-15513827D01*
X3618095Y-15504303D01*
X3618095Y-15523351D01*
X3722857Y-15523351D02*
X3760952Y-15523351D01*
X3780000Y-15513827D01*
X3789524Y-15504303D01*
X3808571Y-15475732D01*
X3818095Y-15437637D01*
X3818095Y-15361446D01*
X3808571Y-15342399D01*
X3799048Y-15332875D01*
X3780000Y-15323351D01*
X3741905Y-15323351D01*
X3722857Y-15332875D01*
X3713333Y-15342399D01*
X3703809Y-15361446D01*
X3703809Y-15409065D01*
X3713333Y-15428113D01*
X3722857Y-15437637D01*
X3741905Y-15447161D01*
X3780000Y-15447161D01*
X3799048Y-15437637D01*
X3808571Y-15428113D01*
X3818095Y-15409065D01*
X3913333Y-15523351D02*
X3951428Y-15523351D01*
X3970476Y-15513827D01*
X3980000Y-15504303D01*
X3999048Y-15475732D01*
X4008571Y-15437637D01*
X4008571Y-15361446D01*
X3999048Y-15342399D01*
X3989524Y-15332875D01*
X3970476Y-15323351D01*
X3932381Y-15323351D01*
X3913333Y-15332875D01*
X3903809Y-15342399D01*
X3894286Y-15361446D01*
X3894286Y-15409065D01*
X3903809Y-15428113D01*
X3913333Y-15437637D01*
X3932381Y-15447161D01*
X3970476Y-15447161D01*
X3989524Y-15437637D01*
X3999048Y-15428113D01*
X4008571Y-15409065D01*
X4199048Y-15523351D02*
X4084762Y-15523351D01*
X4141905Y-15523351D02*
X4141905Y-15323351D01*
X4122857Y-15351923D01*
X4103809Y-15370970D01*
X4084762Y-15380494D01*
X4284762Y-15523351D02*
X4284762Y-15390018D01*
X4284762Y-15409065D02*
X4294286Y-15399542D01*
X4313333Y-15390018D01*
X4341905Y-15390018D01*
X4360952Y-15399542D01*
X4370476Y-15418589D01*
X4370476Y-15523351D01*
X4370476Y-15418589D02*
X4380000Y-15399542D01*
X4399048Y-15390018D01*
X4427619Y-15390018D01*
X4446667Y-15399542D01*
X4456190Y-15418589D01*
X4456190Y-15523351D01*
X4551429Y-15523351D02*
X4551429Y-15390018D01*
X4551429Y-15409065D02*
X4560952Y-15399542D01*
X4580000Y-15390018D01*
X4608571Y-15390018D01*
X4627619Y-15399542D01*
X4637143Y-15418589D01*
X4637143Y-15523351D01*
X4637143Y-15418589D02*
X4646667Y-15399542D01*
X4665714Y-15390018D01*
X4694286Y-15390018D01*
X4713333Y-15399542D01*
X4722857Y-15418589D01*
X4722857Y-15523351D01*
X5113333Y-15313827D02*
X4941905Y-15570970D01*
X5370476Y-15323351D02*
X5389524Y-15323351D01*
X5408571Y-15332875D01*
X5418095Y-15342399D01*
X5427619Y-15361446D01*
X5437143Y-15399542D01*
X5437143Y-15447161D01*
X5427619Y-15485256D01*
X5418095Y-15504303D01*
X5408571Y-15513827D01*
X5389524Y-15523351D01*
X5370476Y-15523351D01*
X5351429Y-15513827D01*
X5341905Y-15504303D01*
X5332381Y-15485256D01*
X5322857Y-15447161D01*
X5322857Y-15399542D01*
X5332381Y-15361446D01*
X5341905Y-15342399D01*
X5351429Y-15332875D01*
X5370476Y-15323351D01*
X5522857Y-15504303D02*
X5532381Y-15513827D01*
X5522857Y-15523351D01*
X5513333Y-15513827D01*
X5522857Y-15504303D01*
X5522857Y-15523351D01*
X5656190Y-15323351D02*
X5675238Y-15323351D01*
X5694286Y-15332875D01*
X5703809Y-15342399D01*
X5713333Y-15361446D01*
X5722857Y-15399542D01*
X5722857Y-15447161D01*
X5713333Y-15485256D01*
X5703809Y-15504303D01*
X5694286Y-15513827D01*
X5675238Y-15523351D01*
X5656190Y-15523351D01*
X5637143Y-15513827D01*
X5627619Y-15504303D01*
X5618095Y-15485256D01*
X5608571Y-15447161D01*
X5608571Y-15399542D01*
X5618095Y-15361446D01*
X5627619Y-15342399D01*
X5637143Y-15332875D01*
X5656190Y-15323351D01*
X5789524Y-15323351D02*
X5913333Y-15323351D01*
X5846667Y-15399542D01*
X5875238Y-15399542D01*
X5894286Y-15409065D01*
X5903809Y-15418589D01*
X5913333Y-15437637D01*
X5913333Y-15485256D01*
X5903809Y-15504303D01*
X5894286Y-15513827D01*
X5875238Y-15523351D01*
X5818095Y-15523351D01*
X5799048Y-15513827D01*
X5789524Y-15504303D01*
X6008571Y-15523351D02*
X6046667Y-15523351D01*
X6065714Y-15513827D01*
X6075238Y-15504303D01*
X6094286Y-15475732D01*
X6103809Y-15437637D01*
X6103809Y-15361446D01*
X6094286Y-15342399D01*
X6084762Y-15332875D01*
X6065714Y-15323351D01*
X6027619Y-15323351D01*
X6008571Y-15332875D01*
X5999048Y-15342399D01*
X5989524Y-15361446D01*
X5989524Y-15409065D01*
X5999048Y-15428113D01*
X6008571Y-15437637D01*
X6027619Y-15447161D01*
X6065714Y-15447161D01*
X6084762Y-15437637D01*
X6094286Y-15428113D01*
X6103809Y-15409065D01*
X6227619Y-15323351D02*
X6246667Y-15323351D01*
X6265714Y-15332875D01*
X6275238Y-15342399D01*
X6284762Y-15361446D01*
X6294286Y-15399542D01*
X6294286Y-15447161D01*
X6284762Y-15485256D01*
X6275238Y-15504303D01*
X6265714Y-15513827D01*
X6246667Y-15523351D01*
X6227619Y-15523351D01*
X6208571Y-15513827D01*
X6199048Y-15504303D01*
X6189524Y-15485256D01*
X6180000Y-15447161D01*
X6180000Y-15399542D01*
X6189524Y-15361446D01*
X6199048Y-15342399D01*
X6208571Y-15332875D01*
X6227619Y-15323351D01*
X6370476Y-15323351D02*
X6370476Y-15361446D01*
X6446667Y-15323351D02*
X6446667Y-15361446D01*
X6741905Y-15599542D02*
X6732381Y-15590018D01*
X6713333Y-15561446D01*
X6703809Y-15542399D01*
X6694286Y-15513827D01*
X6684762Y-15466208D01*
X6684762Y-15428113D01*
X6694286Y-15380494D01*
X6703809Y-15351923D01*
X6713333Y-15332875D01*
X6732381Y-15304303D01*
X6741905Y-15294780D01*
X6922857Y-15523351D02*
X6808571Y-15523351D01*
X6865714Y-15523351D02*
X6865714Y-15323351D01*
X6846667Y-15351923D01*
X6827619Y-15370970D01*
X6808571Y-15380494D01*
X7037143Y-15409065D02*
X7018095Y-15399542D01*
X7008571Y-15390018D01*
X6999048Y-15370970D01*
X6999048Y-15361446D01*
X7008571Y-15342399D01*
X7018095Y-15332875D01*
X7037143Y-15323351D01*
X7075238Y-15323351D01*
X7094286Y-15332875D01*
X7103809Y-15342399D01*
X7113333Y-15361446D01*
X7113333Y-15370970D01*
X7103809Y-15390018D01*
X7094286Y-15399542D01*
X7075238Y-15409065D01*
X7037143Y-15409065D01*
X7018095Y-15418589D01*
X7008571Y-15428113D01*
X6999048Y-15447161D01*
X6999048Y-15485256D01*
X7008571Y-15504303D01*
X7018095Y-15513827D01*
X7037143Y-15523351D01*
X7075238Y-15523351D01*
X7094286Y-15513827D01*
X7103809Y-15504303D01*
X7113333Y-15485256D01*
X7113333Y-15447161D01*
X7103809Y-15428113D01*
X7094286Y-15418589D01*
X7075238Y-15409065D01*
X7351428Y-15523351D02*
X7351428Y-15323351D01*
X7437143Y-15523351D02*
X7437143Y-15418589D01*
X7427619Y-15399542D01*
X7408571Y-15390018D01*
X7380000Y-15390018D01*
X7360952Y-15399542D01*
X7351428Y-15409065D01*
X7560952Y-15523351D02*
X7541905Y-15513827D01*
X7532381Y-15504303D01*
X7522857Y-15485256D01*
X7522857Y-15428113D01*
X7532381Y-15409065D01*
X7541905Y-15399542D01*
X7560952Y-15390018D01*
X7589524Y-15390018D01*
X7608571Y-15399542D01*
X7618095Y-15409065D01*
X7627619Y-15428113D01*
X7627619Y-15485256D01*
X7618095Y-15504303D01*
X7608571Y-15513827D01*
X7589524Y-15523351D01*
X7560952Y-15523351D01*
X7741905Y-15523351D02*
X7722857Y-15513827D01*
X7713333Y-15494780D01*
X7713333Y-15323351D01*
X7894286Y-15513827D02*
X7875238Y-15523351D01*
X7837143Y-15523351D01*
X7818095Y-15513827D01*
X7808571Y-15494780D01*
X7808571Y-15418589D01*
X7818095Y-15399542D01*
X7837143Y-15390018D01*
X7875238Y-15390018D01*
X7894286Y-15399542D01*
X7903809Y-15418589D01*
X7903809Y-15437637D01*
X7808571Y-15456684D01*
X7980000Y-15513827D02*
X7999048Y-15523351D01*
X8037143Y-15523351D01*
X8056190Y-15513827D01*
X8065714Y-15494780D01*
X8065714Y-15485256D01*
X8056190Y-15466208D01*
X8037143Y-15456684D01*
X8008571Y-15456684D01*
X7989524Y-15447161D01*
X7980000Y-15428113D01*
X7980000Y-15418589D01*
X7989524Y-15399542D01*
X8008571Y-15390018D01*
X8037143Y-15390018D01*
X8056190Y-15399542D01*
X8132381Y-15599542D02*
X8141905Y-15590018D01*
X8160952Y-15561446D01*
X8170476Y-15542399D01*
X8180000Y-15513827D01*
X8189524Y-15466208D01*
X8189524Y-15428113D01*
X8180000Y-15380494D01*
X8170476Y-15351923D01*
X8160952Y-15332875D01*
X8141905Y-15304303D01*
X8132381Y-15294780D01*
D18*
X3060780Y-15642265D02*
X3170000Y-15751485D01*
X3170000Y-15642265D02*
X3060780Y-15751485D01*
X3170000Y-15696875D02*
G75*
G03*
X3170000Y-15696875I-54610J0D01*
G01*
D12*
X3532381Y-15787351D02*
X3418095Y-15787351D01*
X3475238Y-15787351D02*
X3475238Y-15587351D01*
X3456190Y-15615923D01*
X3437143Y-15634970D01*
X3418095Y-15644494D01*
X3618095Y-15768303D02*
X3627619Y-15777827D01*
X3618095Y-15787351D01*
X3608571Y-15777827D01*
X3618095Y-15768303D01*
X3618095Y-15787351D01*
X3751428Y-15587351D02*
X3770476Y-15587351D01*
X3789524Y-15596875D01*
X3799048Y-15606399D01*
X3808571Y-15625446D01*
X3818095Y-15663542D01*
X3818095Y-15711161D01*
X3808571Y-15749256D01*
X3799048Y-15768303D01*
X3789524Y-15777827D01*
X3770476Y-15787351D01*
X3751428Y-15787351D01*
X3732381Y-15777827D01*
X3722857Y-15768303D01*
X3713333Y-15749256D01*
X3703809Y-15711161D01*
X3703809Y-15663542D01*
X3713333Y-15625446D01*
X3722857Y-15606399D01*
X3732381Y-15596875D01*
X3751428Y-15587351D01*
X3913333Y-15787351D02*
X3951428Y-15787351D01*
X3970476Y-15777827D01*
X3980000Y-15768303D01*
X3999048Y-15739732D01*
X4008571Y-15701637D01*
X4008571Y-15625446D01*
X3999048Y-15606399D01*
X3989524Y-15596875D01*
X3970476Y-15587351D01*
X3932381Y-15587351D01*
X3913333Y-15596875D01*
X3903809Y-15606399D01*
X3894286Y-15625446D01*
X3894286Y-15673065D01*
X3903809Y-15692113D01*
X3913333Y-15701637D01*
X3932381Y-15711161D01*
X3970476Y-15711161D01*
X3989524Y-15701637D01*
X3999048Y-15692113D01*
X4008571Y-15673065D01*
X4084762Y-15606399D02*
X4094286Y-15596875D01*
X4113333Y-15587351D01*
X4160952Y-15587351D01*
X4180000Y-15596875D01*
X4189524Y-15606399D01*
X4199048Y-15625446D01*
X4199048Y-15644494D01*
X4189524Y-15673065D01*
X4075238Y-15787351D01*
X4199048Y-15787351D01*
X4284762Y-15787351D02*
X4284762Y-15654018D01*
X4284762Y-15673065D02*
X4294286Y-15663542D01*
X4313333Y-15654018D01*
X4341905Y-15654018D01*
X4360952Y-15663542D01*
X4370476Y-15682589D01*
X4370476Y-15787351D01*
X4370476Y-15682589D02*
X4380000Y-15663542D01*
X4399048Y-15654018D01*
X4427619Y-15654018D01*
X4446667Y-15663542D01*
X4456190Y-15682589D01*
X4456190Y-15787351D01*
X4551429Y-15787351D02*
X4551429Y-15654018D01*
X4551429Y-15673065D02*
X4560952Y-15663542D01*
X4580000Y-15654018D01*
X4608571Y-15654018D01*
X4627619Y-15663542D01*
X4637143Y-15682589D01*
X4637143Y-15787351D01*
X4637143Y-15682589D02*
X4646667Y-15663542D01*
X4665714Y-15654018D01*
X4694286Y-15654018D01*
X4713333Y-15663542D01*
X4722857Y-15682589D01*
X4722857Y-15787351D01*
X5113333Y-15577827D02*
X4941905Y-15834970D01*
X5370476Y-15587351D02*
X5389524Y-15587351D01*
X5408571Y-15596875D01*
X5418095Y-15606399D01*
X5427619Y-15625446D01*
X5437143Y-15663542D01*
X5437143Y-15711161D01*
X5427619Y-15749256D01*
X5418095Y-15768303D01*
X5408571Y-15777827D01*
X5389524Y-15787351D01*
X5370476Y-15787351D01*
X5351429Y-15777827D01*
X5341905Y-15768303D01*
X5332381Y-15749256D01*
X5322857Y-15711161D01*
X5322857Y-15663542D01*
X5332381Y-15625446D01*
X5341905Y-15606399D01*
X5351429Y-15596875D01*
X5370476Y-15587351D01*
X5522857Y-15768303D02*
X5532381Y-15777827D01*
X5522857Y-15787351D01*
X5513333Y-15777827D01*
X5522857Y-15768303D01*
X5522857Y-15787351D01*
X5656190Y-15587351D02*
X5675238Y-15587351D01*
X5694286Y-15596875D01*
X5703809Y-15606399D01*
X5713333Y-15625446D01*
X5722857Y-15663542D01*
X5722857Y-15711161D01*
X5713333Y-15749256D01*
X5703809Y-15768303D01*
X5694286Y-15777827D01*
X5675238Y-15787351D01*
X5656190Y-15787351D01*
X5637143Y-15777827D01*
X5627619Y-15768303D01*
X5618095Y-15749256D01*
X5608571Y-15711161D01*
X5608571Y-15663542D01*
X5618095Y-15625446D01*
X5627619Y-15606399D01*
X5637143Y-15596875D01*
X5656190Y-15587351D01*
X5894286Y-15654018D02*
X5894286Y-15787351D01*
X5846667Y-15577827D02*
X5799048Y-15720684D01*
X5922857Y-15720684D01*
X5980000Y-15587351D02*
X6103809Y-15587351D01*
X6037143Y-15663542D01*
X6065714Y-15663542D01*
X6084762Y-15673065D01*
X6094286Y-15682589D01*
X6103809Y-15701637D01*
X6103809Y-15749256D01*
X6094286Y-15768303D01*
X6084762Y-15777827D01*
X6065714Y-15787351D01*
X6008571Y-15787351D01*
X5989524Y-15777827D01*
X5980000Y-15768303D01*
X6227619Y-15587351D02*
X6246667Y-15587351D01*
X6265714Y-15596875D01*
X6275238Y-15606399D01*
X6284762Y-15625446D01*
X6294286Y-15663542D01*
X6294286Y-15711161D01*
X6284762Y-15749256D01*
X6275238Y-15768303D01*
X6265714Y-15777827D01*
X6246667Y-15787351D01*
X6227619Y-15787351D01*
X6208571Y-15777827D01*
X6199048Y-15768303D01*
X6189524Y-15749256D01*
X6180000Y-15711161D01*
X6180000Y-15663542D01*
X6189524Y-15625446D01*
X6199048Y-15606399D01*
X6208571Y-15596875D01*
X6227619Y-15587351D01*
X6370476Y-15587351D02*
X6370476Y-15625446D01*
X6446667Y-15587351D02*
X6446667Y-15625446D01*
X6741905Y-15863542D02*
X6732381Y-15854018D01*
X6713333Y-15825446D01*
X6703809Y-15806399D01*
X6694286Y-15777827D01*
X6684762Y-15730208D01*
X6684762Y-15692113D01*
X6694286Y-15644494D01*
X6703809Y-15615923D01*
X6713333Y-15596875D01*
X6732381Y-15568303D01*
X6741905Y-15558780D01*
X6808571Y-15606399D02*
X6818095Y-15596875D01*
X6837143Y-15587351D01*
X6884762Y-15587351D01*
X6903809Y-15596875D01*
X6913333Y-15606399D01*
X6922857Y-15625446D01*
X6922857Y-15644494D01*
X6913333Y-15673065D01*
X6799048Y-15787351D01*
X6922857Y-15787351D01*
X7094286Y-15654018D02*
X7094286Y-15787351D01*
X7046667Y-15577827D02*
X6999048Y-15720684D01*
X7122857Y-15720684D01*
X7351428Y-15787351D02*
X7351428Y-15587351D01*
X7437143Y-15787351D02*
X7437143Y-15682589D01*
X7427619Y-15663542D01*
X7408571Y-15654018D01*
X7380000Y-15654018D01*
X7360952Y-15663542D01*
X7351428Y-15673065D01*
X7560952Y-15787351D02*
X7541905Y-15777827D01*
X7532381Y-15768303D01*
X7522857Y-15749256D01*
X7522857Y-15692113D01*
X7532381Y-15673065D01*
X7541905Y-15663542D01*
X7560952Y-15654018D01*
X7589524Y-15654018D01*
X7608571Y-15663542D01*
X7618095Y-15673065D01*
X7627619Y-15692113D01*
X7627619Y-15749256D01*
X7618095Y-15768303D01*
X7608571Y-15777827D01*
X7589524Y-15787351D01*
X7560952Y-15787351D01*
X7741905Y-15787351D02*
X7722857Y-15777827D01*
X7713333Y-15758780D01*
X7713333Y-15587351D01*
X7894286Y-15777827D02*
X7875238Y-15787351D01*
X7837143Y-15787351D01*
X7818095Y-15777827D01*
X7808571Y-15758780D01*
X7808571Y-15682589D01*
X7818095Y-15663542D01*
X7837143Y-15654018D01*
X7875238Y-15654018D01*
X7894286Y-15663542D01*
X7903809Y-15682589D01*
X7903809Y-15701637D01*
X7808571Y-15720684D01*
X7980000Y-15777827D02*
X7999048Y-15787351D01*
X8037143Y-15787351D01*
X8056190Y-15777827D01*
X8065714Y-15758780D01*
X8065714Y-15749256D01*
X8056190Y-15730208D01*
X8037143Y-15720684D01*
X8008571Y-15720684D01*
X7989524Y-15711161D01*
X7980000Y-15692113D01*
X7980000Y-15682589D01*
X7989524Y-15663542D01*
X8008571Y-15654018D01*
X8037143Y-15654018D01*
X8056190Y-15663542D01*
X8132381Y-15863542D02*
X8141905Y-15854018D01*
X8160952Y-15825446D01*
X8170476Y-15806399D01*
X8180000Y-15777827D01*
X8189524Y-15730208D01*
X8189524Y-15692113D01*
X8180000Y-15644494D01*
X8170476Y-15615923D01*
X8160952Y-15596875D01*
X8141905Y-15568303D01*
X8132381Y-15558780D01*
M02*
