G04 #@! TF.GenerationSoftware,KiCad,Pcbnew,(6.0.7)*
G04 #@! TF.CreationDate,2022-09-23T02:39:01+09:00*
G04 #@! TF.ProjectId,xipher_kbd_nohot,78697068-6572-45f6-9b62-645f6e6f686f,rev?*
G04 #@! TF.SameCoordinates,Original*
G04 #@! TF.FileFunction,Paste,Bot*
G04 #@! TF.FilePolarity,Positive*
%FSLAX46Y46*%
G04 Gerber Fmt 4.6, Leading zero omitted, Abs format (unit mm)*
G04 Created by KiCad (PCBNEW (6.0.7)) date 2022-09-23 02:39:01*
%MOMM*%
%LPD*%
G01*
G04 APERTURE LIST*
%ADD10R,1.300000X1.400000*%
%ADD11R,1.400000X1.300000*%
%ADD12R,1.700000X1.000000*%
%ADD13R,1.600000X1.000000*%
%ADD14R,1.100000X1.600000*%
%ADD15R,1.000000X1.700000*%
G04 APERTURE END LIST*
D10*
X109512500Y-127187500D03*
X109512500Y-123637500D03*
D11*
X60137500Y-50800000D03*
X63687500Y-50800000D03*
D12*
X40112500Y-46925000D03*
X40112500Y-48325000D03*
X45612500Y-48325000D03*
X45612500Y-46925000D03*
D10*
X109512500Y-114487500D03*
X109512500Y-110937500D03*
D11*
X79187500Y-127000000D03*
X82737500Y-127000000D03*
X98237500Y-50800000D03*
X101787500Y-50800000D03*
D10*
X49212500Y-114487500D03*
X49212500Y-110937500D03*
D11*
X117287500Y-88900000D03*
X120837500Y-88900000D03*
D12*
X78212500Y-122925000D03*
X78212500Y-124325000D03*
X83712500Y-124325000D03*
X83712500Y-122925000D03*
D11*
X117287500Y-107950000D03*
X120837500Y-107950000D03*
D12*
X78212500Y-46925000D03*
X78212500Y-48325000D03*
X83712500Y-48325000D03*
X83712500Y-46925000D03*
X59162500Y-85025000D03*
X59162500Y-86425000D03*
X64662500Y-86425000D03*
X64662500Y-85025000D03*
X40112500Y-85025000D03*
X40112500Y-86425000D03*
X45612500Y-86425000D03*
X45612500Y-85025000D03*
D11*
X98237500Y-107950000D03*
X101787500Y-107950000D03*
X41087500Y-50800000D03*
X44637500Y-50800000D03*
D13*
X123462500Y-122812500D03*
X123462500Y-121312500D03*
X123462500Y-118312500D03*
X123462500Y-116812500D03*
D14*
X128262500Y-113762500D03*
D13*
X123462500Y-115312500D03*
D14*
X128262500Y-124362500D03*
D13*
X123462500Y-119812500D03*
D11*
X79187500Y-50800000D03*
X82737500Y-50800000D03*
X41087500Y-88900000D03*
X44637500Y-88900000D03*
D12*
X59162500Y-104075000D03*
X59162500Y-105475000D03*
X64662500Y-105475000D03*
X64662500Y-104075000D03*
D11*
X79187500Y-88900000D03*
X82737500Y-88900000D03*
D12*
X59162500Y-122925000D03*
X59162500Y-124325000D03*
X64662500Y-124325000D03*
X64662500Y-122925000D03*
X78212500Y-65975000D03*
X78212500Y-67375000D03*
X83712500Y-67375000D03*
X83712500Y-65975000D03*
D10*
X49212500Y-127187500D03*
X49212500Y-123637500D03*
D11*
X79187500Y-69850000D03*
X82737500Y-69850000D03*
D13*
X38437500Y-115312500D03*
X38437500Y-116812500D03*
X38437500Y-119812500D03*
X38437500Y-121312500D03*
D14*
X33637500Y-124362500D03*
D13*
X38437500Y-122812500D03*
D14*
X33637500Y-113762500D03*
D13*
X38437500Y-118312500D03*
D12*
X97262500Y-85025000D03*
X97262500Y-86425000D03*
X102762500Y-86425000D03*
X102762500Y-85025000D03*
D10*
X112687500Y-114487500D03*
X112687500Y-110937500D03*
D12*
X116312500Y-85025000D03*
X116312500Y-86425000D03*
X121812500Y-86425000D03*
X121812500Y-85025000D03*
X40112500Y-104075000D03*
X40112500Y-105475000D03*
X45612500Y-105475000D03*
X45612500Y-104075000D03*
D11*
X98237500Y-127000000D03*
X101787500Y-127000000D03*
X98237500Y-69850000D03*
X101787500Y-69850000D03*
X60137500Y-107950000D03*
X63687500Y-107950000D03*
D15*
X116750000Y-121812500D03*
X118150000Y-121812500D03*
X118150000Y-116312500D03*
X116750000Y-116312500D03*
D12*
X97262500Y-104075000D03*
X97262500Y-105475000D03*
X102762500Y-105475000D03*
X102762500Y-104075000D03*
X116312500Y-46925000D03*
X116312500Y-48325000D03*
X121812500Y-48325000D03*
X121812500Y-46925000D03*
X97631300Y-46925000D03*
X97631300Y-48325000D03*
X103131300Y-48325000D03*
X103131300Y-46925000D03*
X59162500Y-46925000D03*
X59162500Y-48325000D03*
X64662500Y-48325000D03*
X64662500Y-46925000D03*
D11*
X60137500Y-88900000D03*
X63687500Y-88900000D03*
X79187500Y-107950000D03*
X82737500Y-107950000D03*
X41087500Y-107950000D03*
X44637500Y-107950000D03*
X60137500Y-69850000D03*
X63687500Y-69850000D03*
D12*
X59162500Y-65975000D03*
X59162500Y-67375000D03*
X64662500Y-67375000D03*
X64662500Y-65975000D03*
X116312500Y-104075000D03*
X116312500Y-105475000D03*
X121812500Y-105475000D03*
X121812500Y-104075000D03*
D11*
X60137500Y-127000000D03*
X63687500Y-127000000D03*
X98237500Y-88900000D03*
X101787500Y-88900000D03*
D12*
X116312500Y-65975000D03*
X116312500Y-67375000D03*
X121812500Y-67375000D03*
X121812500Y-65975000D03*
D10*
X112687500Y-127187500D03*
X112687500Y-123637500D03*
D11*
X41087500Y-69850000D03*
X44637500Y-69850000D03*
X117287500Y-69850000D03*
X120837500Y-69850000D03*
D12*
X40112500Y-65975000D03*
X40112500Y-67375000D03*
X45612500Y-67375000D03*
X45612500Y-65975000D03*
D15*
X43750000Y-121812500D03*
X45150000Y-121812500D03*
X45150000Y-116312500D03*
X43750000Y-116312500D03*
D12*
X78212500Y-85025000D03*
X78212500Y-86425000D03*
X83712500Y-86425000D03*
X83712500Y-85025000D03*
X97262500Y-65975000D03*
X97262500Y-67375000D03*
X102762500Y-67375000D03*
X102762500Y-65975000D03*
X78212500Y-104075000D03*
X78212500Y-105475000D03*
X83712500Y-105475000D03*
X83712500Y-104075000D03*
X97262500Y-122925000D03*
X97262500Y-124325000D03*
X102762500Y-124325000D03*
X102762500Y-122925000D03*
D10*
X52387500Y-127187500D03*
X52387500Y-123637500D03*
X52387500Y-114487500D03*
X52387500Y-110937500D03*
D11*
X117287500Y-50800000D03*
X120837500Y-50800000D03*
M02*
