%TF.GenerationSoftware,KiCad,Pcbnew,(6.0.7)*%
%TF.CreationDate,2022-09-23T02:39:03+09:00*%
%TF.ProjectId,xipher_kbd_nohot,78697068-6572-45f6-9b62-645f6e6f686f,rev?*%
%TF.SameCoordinates,Original*%
%TF.FileFunction,Drillmap*%
%TF.FilePolarity,Positive*%
%FSLAX45Y45*%
G04 Gerber Fmt 4.5, Leading zero omitted, Abs format (unit mm)*
G04 Created by KiCad (PCBNEW (6.0.7)) date 2022-09-23 02:39:03*
%MOMM*%
%LPD*%
G01*
G04 APERTURE LIST*
%ADD10C,0.100000*%
%ADD11C,0.200000*%
%ADD12C,0.040000*%
%ADD13C,0.080000*%
%ADD14C,0.081280*%
%ADD15C,0.109220*%
%ADD16C,0.130000*%
%ADD17C,0.140000*%
%ADD18C,0.220000*%
%ADD19C,0.120000*%
%ADD20C,0.190000*%
%ADD21C,0.400000*%
G04 APERTURE END LIST*
D10*
X13017500Y-3492500D02*
X13017500Y-12700000D01*
X3175000Y-3492500D02*
X3175000Y-12700000D01*
X3492500Y-13017500D02*
X12700000Y-13017500D01*
X13017500Y-3492500D02*
G75*
G03*
X12700000Y-3175000I-317500J0D01*
G01*
X3175000Y-12700000D02*
G75*
G03*
X3492500Y-13017500I317500J0D01*
G01*
X3492500Y-3175000D02*
G75*
G03*
X3175000Y-3492500I0J-317500D01*
G01*
X12700000Y-13017500D02*
G75*
G03*
X13017500Y-12700000I0J317500D01*
G01*
X12700000Y-3175000D02*
X3492500Y-3175000D01*
D11*
D12*
X3759860Y-12729920D02*
X3799860Y-12769920D01*
X3799860Y-12729920D02*
X3759860Y-12769920D01*
X4016120Y-11628200D02*
X4056120Y-11668200D01*
X4056120Y-11628200D02*
X4016120Y-11668200D01*
X4056990Y-12221250D02*
X4096990Y-12261250D01*
X4096990Y-12221250D02*
X4056990Y-12261250D01*
X4405420Y-11460570D02*
X4445420Y-11500570D01*
X4445420Y-11460570D02*
X4405420Y-11500570D01*
X4725620Y-12855630D02*
X4765620Y-12895630D01*
X4765620Y-12855630D02*
X4725620Y-12895630D01*
X4819410Y-10364180D02*
X4859410Y-10404180D01*
X4859410Y-10364180D02*
X4819410Y-10404180D01*
X4819410Y-10573930D02*
X4859410Y-10613930D01*
X4859410Y-10573930D02*
X4819410Y-10613930D01*
X4855650Y-12521900D02*
X4895650Y-12561900D01*
X4895650Y-12521900D02*
X4855650Y-12561900D01*
X5595612Y-12659987D02*
X5635612Y-12699987D01*
X5635612Y-12659987D02*
X5595612Y-12699987D01*
X5731790Y-10323000D02*
X5771790Y-10363000D01*
X5771790Y-10323000D02*
X5731790Y-10363000D01*
X5747870Y-8581500D02*
X5787870Y-8621500D01*
X5787870Y-8581500D02*
X5747870Y-8621500D01*
X5836860Y-7302260D02*
X5876860Y-7342260D01*
X5876860Y-7302260D02*
X5836860Y-7342260D01*
X6117940Y-10677480D02*
X6157940Y-10717480D01*
X6157940Y-10677480D02*
X6117940Y-10717480D01*
X6148400Y-6926250D02*
X6188400Y-6966250D01*
X6188400Y-6926250D02*
X6148400Y-6966250D01*
X6354150Y-10998210D02*
X6394150Y-11038210D01*
X6394150Y-10998210D02*
X6354150Y-11038210D01*
X6379880Y-12120950D02*
X6419880Y-12160950D01*
X6419880Y-12120950D02*
X6379880Y-12160950D01*
X6421440Y-8232620D02*
X6461440Y-8272620D01*
X6461440Y-8232620D02*
X6421440Y-8272620D01*
X6469080Y-11012670D02*
X6509080Y-11052670D01*
X6509080Y-11012670D02*
X6469080Y-11052670D01*
X6622880Y-5647630D02*
X6662880Y-5687630D01*
X6662880Y-5647630D02*
X6622880Y-5687630D01*
X7817260Y-8353000D02*
X7857260Y-8393000D01*
X7857260Y-8353000D02*
X7817260Y-8393000D01*
X7821380Y-6833750D02*
X7861380Y-6873750D01*
X7861380Y-6833750D02*
X7821380Y-6873750D01*
X8269880Y-6414260D02*
X8309880Y-6454260D01*
X8309880Y-6414260D02*
X8269880Y-6454260D01*
X8318630Y-10240120D02*
X8358630Y-10280120D01*
X8358630Y-10240120D02*
X8318630Y-10280120D01*
X9323130Y-8835010D02*
X9363130Y-8875010D01*
X9363130Y-8835010D02*
X9323130Y-8875010D01*
X9421870Y-5108750D02*
X9461870Y-5148750D01*
X9461870Y-5108750D02*
X9421870Y-5148750D01*
X9553360Y-10520250D02*
X9593360Y-10560250D01*
X9593360Y-10520250D02*
X9553360Y-10560250D01*
X9560180Y-8598160D02*
X9600180Y-8638160D01*
X9600180Y-8598160D02*
X9560180Y-8638160D01*
X9592560Y-4672750D02*
X9632560Y-4712750D01*
X9632560Y-4672750D02*
X9592560Y-4712750D01*
X9735660Y-6388770D02*
X9775660Y-6428770D01*
X9775660Y-6388770D02*
X9735660Y-6428770D01*
X9981250Y-10750250D02*
X10021250Y-10790250D01*
X10021250Y-10750250D02*
X9981250Y-10790250D01*
X9983900Y-12873170D02*
X10023900Y-12913170D01*
X10023900Y-12873170D02*
X9983900Y-12913170D01*
X10943000Y-11811490D02*
X10983000Y-11851490D01*
X10983000Y-11811490D02*
X10943000Y-11851490D01*
X10989830Y-7302260D02*
X11029830Y-7342260D01*
X11029830Y-7302260D02*
X10989830Y-7342260D01*
X11197790Y-7181780D02*
X11237790Y-7221780D01*
X11237790Y-7181780D02*
X11197790Y-7221780D01*
X11220850Y-5259070D02*
X11260850Y-5299070D01*
X11260850Y-5259070D02*
X11220850Y-5299070D01*
X11361940Y-8932390D02*
X11401940Y-8972390D01*
X11401940Y-8932390D02*
X11361940Y-8972390D01*
X11463570Y-10281590D02*
X11503570Y-10321590D01*
X11503570Y-10281590D02*
X11463570Y-10321590D01*
X11511980Y-8364990D02*
X11551980Y-8404990D01*
X11551980Y-8364990D02*
X11511980Y-8404990D01*
X11648125Y-11410000D02*
X11688125Y-11450000D01*
X11688125Y-11410000D02*
X11648125Y-11450000D01*
X11780990Y-11053740D02*
X11820990Y-11093740D01*
X11820990Y-11053740D02*
X11780990Y-11093740D01*
X11908080Y-12261900D02*
X11948080Y-12301900D01*
X11948080Y-12261900D02*
X11908080Y-12301900D01*
X12016400Y-11648125D02*
X12056400Y-11688125D01*
X12056400Y-11648125D02*
X12016400Y-11688125D01*
X12066530Y-12210920D02*
X12106530Y-12250920D01*
X12106530Y-12210920D02*
X12066530Y-12250920D01*
D13*
X3945250Y-4032250D02*
G75*
G03*
X3945250Y-4032250I-40000J0D01*
G01*
D11*
X3885250Y-4072250D02*
X3925250Y-4072250D01*
X3885250Y-3992250D02*
X3925250Y-3992250D01*
X3925250Y-4072250D02*
G75*
G03*
X3925250Y-3992250I0J40000D01*
G01*
X3885250Y-3992250D02*
G75*
G03*
X3885250Y-4072250I0J-40000D01*
G01*
D13*
X3945250Y-5937250D02*
G75*
G03*
X3945250Y-5937250I-40000J0D01*
G01*
D11*
X3885250Y-5977250D02*
X3925250Y-5977250D01*
X3885250Y-5897250D02*
X3925250Y-5897250D01*
X3925250Y-5977250D02*
G75*
G03*
X3925250Y-5897250I0J40000D01*
G01*
X3885250Y-5897250D02*
G75*
G03*
X3885250Y-5977250I0J-40000D01*
G01*
D13*
X3945250Y-7842250D02*
G75*
G03*
X3945250Y-7842250I-40000J0D01*
G01*
D11*
X3885250Y-7882250D02*
X3925250Y-7882250D01*
X3885250Y-7802250D02*
X3925250Y-7802250D01*
X3925250Y-7882250D02*
G75*
G03*
X3925250Y-7802250I0J40000D01*
G01*
X3885250Y-7802250D02*
G75*
G03*
X3885250Y-7882250I0J-40000D01*
G01*
D13*
X3945250Y-9747250D02*
G75*
G03*
X3945250Y-9747250I-40000J0D01*
G01*
D11*
X3885250Y-9787250D02*
X3925250Y-9787250D01*
X3885250Y-9707250D02*
X3925250Y-9707250D01*
X3925250Y-9787250D02*
G75*
G03*
X3925250Y-9707250I0J40000D01*
G01*
X3885250Y-9707250D02*
G75*
G03*
X3885250Y-9787250I0J-40000D01*
G01*
D13*
X4580250Y-3778250D02*
G75*
G03*
X4580250Y-3778250I-40000J0D01*
G01*
D11*
X4520250Y-3818250D02*
X4560250Y-3818250D01*
X4520250Y-3738250D02*
X4560250Y-3738250D01*
X4560250Y-3818250D02*
G75*
G03*
X4560250Y-3738250I0J40000D01*
G01*
X4520250Y-3738250D02*
G75*
G03*
X4520250Y-3818250I0J-40000D01*
G01*
D13*
X4580250Y-5683250D02*
G75*
G03*
X4580250Y-5683250I-40000J0D01*
G01*
D11*
X4520250Y-5723250D02*
X4560250Y-5723250D01*
X4520250Y-5643250D02*
X4560250Y-5643250D01*
X4560250Y-5723250D02*
G75*
G03*
X4560250Y-5643250I0J40000D01*
G01*
X4520250Y-5643250D02*
G75*
G03*
X4520250Y-5723250I0J-40000D01*
G01*
D13*
X4580250Y-7588250D02*
G75*
G03*
X4580250Y-7588250I-40000J0D01*
G01*
D11*
X4520250Y-7628250D02*
X4560250Y-7628250D01*
X4520250Y-7548250D02*
X4560250Y-7548250D01*
X4560250Y-7628250D02*
G75*
G03*
X4560250Y-7548250I0J40000D01*
G01*
X4520250Y-7548250D02*
G75*
G03*
X4520250Y-7628250I0J-40000D01*
G01*
D13*
X4580250Y-9493250D02*
G75*
G03*
X4580250Y-9493250I-40000J0D01*
G01*
D11*
X4520250Y-9533250D02*
X4560250Y-9533250D01*
X4520250Y-9453250D02*
X4560250Y-9453250D01*
X4560250Y-9533250D02*
G75*
G03*
X4560250Y-9453250I0J40000D01*
G01*
X4520250Y-9453250D02*
G75*
G03*
X4520250Y-9533250I0J-40000D01*
G01*
D13*
X5847000Y-9747250D02*
G75*
G03*
X5847000Y-9747250I-40000J0D01*
G01*
D11*
X5787000Y-9787250D02*
X5827000Y-9787250D01*
X5787000Y-9707250D02*
X5827000Y-9707250D01*
X5827000Y-9787250D02*
G75*
G03*
X5827000Y-9707250I0J40000D01*
G01*
X5787000Y-9707250D02*
G75*
G03*
X5787000Y-9787250I0J-40000D01*
G01*
D13*
X5850140Y-11652250D02*
G75*
G03*
X5850140Y-11652250I-40000J0D01*
G01*
D11*
X5790140Y-11692250D02*
X5830140Y-11692250D01*
X5790140Y-11612250D02*
X5830140Y-11612250D01*
X5830140Y-11692250D02*
G75*
G03*
X5830140Y-11612250I0J40000D01*
G01*
X5790140Y-11612250D02*
G75*
G03*
X5790140Y-11692250I0J-40000D01*
G01*
D13*
X5850250Y-4032250D02*
G75*
G03*
X5850250Y-4032250I-40000J0D01*
G01*
D11*
X5790250Y-4072250D02*
X5830250Y-4072250D01*
X5790250Y-3992250D02*
X5830250Y-3992250D01*
X5830250Y-4072250D02*
G75*
G03*
X5830250Y-3992250I0J40000D01*
G01*
X5790250Y-3992250D02*
G75*
G03*
X5790250Y-4072250I0J-40000D01*
G01*
D13*
X5850250Y-5937250D02*
G75*
G03*
X5850250Y-5937250I-40000J0D01*
G01*
D11*
X5790250Y-5977250D02*
X5830250Y-5977250D01*
X5790250Y-5897250D02*
X5830250Y-5897250D01*
X5830250Y-5977250D02*
G75*
G03*
X5830250Y-5897250I0J40000D01*
G01*
X5790250Y-5897250D02*
G75*
G03*
X5790250Y-5977250I0J-40000D01*
G01*
D13*
X5850250Y-7842250D02*
G75*
G03*
X5850250Y-7842250I-40000J0D01*
G01*
D11*
X5790250Y-7882250D02*
X5830250Y-7882250D01*
X5790250Y-7802250D02*
X5830250Y-7802250D01*
X5830250Y-7882250D02*
G75*
G03*
X5830250Y-7802250I0J40000D01*
G01*
X5790250Y-7802250D02*
G75*
G03*
X5790250Y-7882250I0J-40000D01*
G01*
D13*
X6482000Y-9493250D02*
G75*
G03*
X6482000Y-9493250I-40000J0D01*
G01*
D11*
X6422000Y-9533250D02*
X6462000Y-9533250D01*
X6422000Y-9453250D02*
X6462000Y-9453250D01*
X6462000Y-9533250D02*
G75*
G03*
X6462000Y-9453250I0J40000D01*
G01*
X6422000Y-9453250D02*
G75*
G03*
X6422000Y-9533250I0J-40000D01*
G01*
D13*
X6485140Y-11398250D02*
G75*
G03*
X6485140Y-11398250I-40000J0D01*
G01*
D11*
X6425140Y-11438250D02*
X6465140Y-11438250D01*
X6425140Y-11358250D02*
X6465140Y-11358250D01*
X6465140Y-11438250D02*
G75*
G03*
X6465140Y-11358250I0J40000D01*
G01*
X6425140Y-11358250D02*
G75*
G03*
X6425140Y-11438250I0J-40000D01*
G01*
D13*
X6485250Y-3778250D02*
G75*
G03*
X6485250Y-3778250I-40000J0D01*
G01*
D11*
X6425250Y-3818250D02*
X6465250Y-3818250D01*
X6425250Y-3738250D02*
X6465250Y-3738250D01*
X6465250Y-3818250D02*
G75*
G03*
X6465250Y-3738250I0J40000D01*
G01*
X6425250Y-3738250D02*
G75*
G03*
X6425250Y-3818250I0J-40000D01*
G01*
D13*
X6485250Y-5683250D02*
G75*
G03*
X6485250Y-5683250I-40000J0D01*
G01*
D11*
X6425250Y-5723250D02*
X6465250Y-5723250D01*
X6425250Y-5643250D02*
X6465250Y-5643250D01*
X6465250Y-5723250D02*
G75*
G03*
X6465250Y-5643250I0J40000D01*
G01*
X6425250Y-5643250D02*
G75*
G03*
X6425250Y-5723250I0J-40000D01*
G01*
D13*
X6485250Y-7588250D02*
G75*
G03*
X6485250Y-7588250I-40000J0D01*
G01*
D11*
X6425250Y-7628250D02*
X6465250Y-7628250D01*
X6425250Y-7548250D02*
X6465250Y-7548250D01*
X6465250Y-7628250D02*
G75*
G03*
X6465250Y-7548250I0J40000D01*
G01*
X6425250Y-7548250D02*
G75*
G03*
X6425250Y-7628250I0J-40000D01*
G01*
D13*
X7755140Y-11652250D02*
G75*
G03*
X7755140Y-11652250I-40000J0D01*
G01*
D11*
X7695140Y-11692250D02*
X7735140Y-11692250D01*
X7695140Y-11612250D02*
X7735140Y-11612250D01*
X7735140Y-11692250D02*
G75*
G03*
X7735140Y-11612250I0J40000D01*
G01*
X7695140Y-11612250D02*
G75*
G03*
X7695140Y-11692250I0J-40000D01*
G01*
D13*
X7755250Y-4032250D02*
G75*
G03*
X7755250Y-4032250I-40000J0D01*
G01*
D11*
X7695250Y-4072250D02*
X7735250Y-4072250D01*
X7695250Y-3992250D02*
X7735250Y-3992250D01*
X7735250Y-4072250D02*
G75*
G03*
X7735250Y-3992250I0J40000D01*
G01*
X7695250Y-3992250D02*
G75*
G03*
X7695250Y-4072250I0J-40000D01*
G01*
D13*
X7755250Y-5937250D02*
G75*
G03*
X7755250Y-5937250I-40000J0D01*
G01*
D11*
X7695250Y-5977250D02*
X7735250Y-5977250D01*
X7695250Y-5897250D02*
X7735250Y-5897250D01*
X7735250Y-5977250D02*
G75*
G03*
X7735250Y-5897250I0J40000D01*
G01*
X7695250Y-5897250D02*
G75*
G03*
X7695250Y-5977250I0J-40000D01*
G01*
D13*
X7755250Y-7842250D02*
G75*
G03*
X7755250Y-7842250I-40000J0D01*
G01*
D11*
X7695250Y-7882250D02*
X7735250Y-7882250D01*
X7695250Y-7802250D02*
X7735250Y-7802250D01*
X7735250Y-7882250D02*
G75*
G03*
X7735250Y-7802250I0J40000D01*
G01*
X7695250Y-7802250D02*
G75*
G03*
X7695250Y-7882250I0J-40000D01*
G01*
D13*
X7755250Y-9747250D02*
G75*
G03*
X7755250Y-9747250I-40000J0D01*
G01*
D11*
X7695250Y-9787250D02*
X7735250Y-9787250D01*
X7695250Y-9707250D02*
X7735250Y-9707250D01*
X7735250Y-9787250D02*
G75*
G03*
X7735250Y-9707250I0J40000D01*
G01*
X7695250Y-9707250D02*
G75*
G03*
X7695250Y-9787250I0J-40000D01*
G01*
D13*
X8390140Y-11398250D02*
G75*
G03*
X8390140Y-11398250I-40000J0D01*
G01*
D11*
X8330140Y-11438250D02*
X8370140Y-11438250D01*
X8330140Y-11358250D02*
X8370140Y-11358250D01*
X8370140Y-11438250D02*
G75*
G03*
X8370140Y-11358250I0J40000D01*
G01*
X8330140Y-11358250D02*
G75*
G03*
X8330140Y-11438250I0J-40000D01*
G01*
D13*
X8390250Y-3778250D02*
G75*
G03*
X8390250Y-3778250I-40000J0D01*
G01*
D11*
X8330250Y-3818250D02*
X8370250Y-3818250D01*
X8330250Y-3738250D02*
X8370250Y-3738250D01*
X8370250Y-3818250D02*
G75*
G03*
X8370250Y-3738250I0J40000D01*
G01*
X8330250Y-3738250D02*
G75*
G03*
X8330250Y-3818250I0J-40000D01*
G01*
D13*
X8390250Y-5683250D02*
G75*
G03*
X8390250Y-5683250I-40000J0D01*
G01*
D11*
X8330250Y-5723250D02*
X8370250Y-5723250D01*
X8330250Y-5643250D02*
X8370250Y-5643250D01*
X8370250Y-5723250D02*
G75*
G03*
X8370250Y-5643250I0J40000D01*
G01*
X8330250Y-5643250D02*
G75*
G03*
X8330250Y-5723250I0J-40000D01*
G01*
D13*
X8390250Y-7588250D02*
G75*
G03*
X8390250Y-7588250I-40000J0D01*
G01*
D11*
X8330250Y-7628250D02*
X8370250Y-7628250D01*
X8330250Y-7548250D02*
X8370250Y-7548250D01*
X8370250Y-7628250D02*
G75*
G03*
X8370250Y-7548250I0J40000D01*
G01*
X8330250Y-7548250D02*
G75*
G03*
X8330250Y-7628250I0J-40000D01*
G01*
D13*
X8390250Y-9493250D02*
G75*
G03*
X8390250Y-9493250I-40000J0D01*
G01*
D11*
X8330250Y-9533250D02*
X8370250Y-9533250D01*
X8330250Y-9453250D02*
X8370250Y-9453250D01*
X8370250Y-9533250D02*
G75*
G03*
X8370250Y-9453250I0J40000D01*
G01*
X8330250Y-9453250D02*
G75*
G03*
X8330250Y-9533250I0J-40000D01*
G01*
D13*
X9660250Y-4032250D02*
G75*
G03*
X9660250Y-4032250I-40000J0D01*
G01*
D11*
X9600250Y-4072250D02*
X9640250Y-4072250D01*
X9600250Y-3992250D02*
X9640250Y-3992250D01*
X9640250Y-4072250D02*
G75*
G03*
X9640250Y-3992250I0J40000D01*
G01*
X9600250Y-3992250D02*
G75*
G03*
X9600250Y-4072250I0J-40000D01*
G01*
D13*
X9660250Y-5937250D02*
G75*
G03*
X9660250Y-5937250I-40000J0D01*
G01*
D11*
X9600250Y-5977250D02*
X9640250Y-5977250D01*
X9600250Y-5897250D02*
X9640250Y-5897250D01*
X9640250Y-5977250D02*
G75*
G03*
X9640250Y-5897250I0J40000D01*
G01*
X9600250Y-5897250D02*
G75*
G03*
X9600250Y-5977250I0J-40000D01*
G01*
D13*
X9660250Y-7842250D02*
G75*
G03*
X9660250Y-7842250I-40000J0D01*
G01*
D11*
X9600250Y-7882250D02*
X9640250Y-7882250D01*
X9600250Y-7802250D02*
X9640250Y-7802250D01*
X9640250Y-7882250D02*
G75*
G03*
X9640250Y-7802250I0J40000D01*
G01*
X9600250Y-7802250D02*
G75*
G03*
X9600250Y-7882250I0J-40000D01*
G01*
D13*
X9660250Y-9747250D02*
G75*
G03*
X9660250Y-9747250I-40000J0D01*
G01*
D11*
X9600250Y-9787250D02*
X9640250Y-9787250D01*
X9600250Y-9707250D02*
X9640250Y-9707250D01*
X9640250Y-9787250D02*
G75*
G03*
X9640250Y-9707250I0J40000D01*
G01*
X9600250Y-9707250D02*
G75*
G03*
X9600250Y-9787250I0J-40000D01*
G01*
D13*
X9660250Y-11652250D02*
G75*
G03*
X9660250Y-11652250I-40000J0D01*
G01*
D11*
X9600250Y-11692250D02*
X9640250Y-11692250D01*
X9600250Y-11612250D02*
X9640250Y-11612250D01*
X9640250Y-11692250D02*
G75*
G03*
X9640250Y-11612250I0J40000D01*
G01*
X9600250Y-11612250D02*
G75*
G03*
X9600250Y-11692250I0J-40000D01*
G01*
D13*
X10295250Y-3778250D02*
G75*
G03*
X10295250Y-3778250I-40000J0D01*
G01*
D11*
X10235250Y-3818250D02*
X10275250Y-3818250D01*
X10235250Y-3738250D02*
X10275250Y-3738250D01*
X10275250Y-3818250D02*
G75*
G03*
X10275250Y-3738250I0J40000D01*
G01*
X10235250Y-3738250D02*
G75*
G03*
X10235250Y-3818250I0J-40000D01*
G01*
D13*
X10295250Y-5683250D02*
G75*
G03*
X10295250Y-5683250I-40000J0D01*
G01*
D11*
X10235250Y-5723250D02*
X10275250Y-5723250D01*
X10235250Y-5643250D02*
X10275250Y-5643250D01*
X10275250Y-5723250D02*
G75*
G03*
X10275250Y-5643250I0J40000D01*
G01*
X10235250Y-5643250D02*
G75*
G03*
X10235250Y-5723250I0J-40000D01*
G01*
D13*
X10295250Y-7588250D02*
G75*
G03*
X10295250Y-7588250I-40000J0D01*
G01*
D11*
X10235250Y-7628250D02*
X10275250Y-7628250D01*
X10235250Y-7548250D02*
X10275250Y-7548250D01*
X10275250Y-7628250D02*
G75*
G03*
X10275250Y-7548250I0J40000D01*
G01*
X10235250Y-7548250D02*
G75*
G03*
X10235250Y-7628250I0J-40000D01*
G01*
D13*
X10295250Y-9493250D02*
G75*
G03*
X10295250Y-9493250I-40000J0D01*
G01*
D11*
X10235250Y-9533250D02*
X10275250Y-9533250D01*
X10235250Y-9453250D02*
X10275250Y-9453250D01*
X10275250Y-9533250D02*
G75*
G03*
X10275250Y-9453250I0J40000D01*
G01*
X10235250Y-9453250D02*
G75*
G03*
X10235250Y-9533250I0J-40000D01*
G01*
D13*
X10295250Y-11398250D02*
G75*
G03*
X10295250Y-11398250I-40000J0D01*
G01*
D11*
X10235250Y-11438250D02*
X10275250Y-11438250D01*
X10235250Y-11358250D02*
X10275250Y-11358250D01*
X10275250Y-11438250D02*
G75*
G03*
X10275250Y-11358250I0J40000D01*
G01*
X10235250Y-11358250D02*
G75*
G03*
X10235250Y-11438250I0J-40000D01*
G01*
D13*
X11565250Y-4032250D02*
G75*
G03*
X11565250Y-4032250I-40000J0D01*
G01*
D11*
X11505250Y-4072250D02*
X11545250Y-4072250D01*
X11505250Y-3992250D02*
X11545250Y-3992250D01*
X11545250Y-4072250D02*
G75*
G03*
X11545250Y-3992250I0J40000D01*
G01*
X11505250Y-3992250D02*
G75*
G03*
X11505250Y-4072250I0J-40000D01*
G01*
D13*
X11565250Y-5937250D02*
G75*
G03*
X11565250Y-5937250I-40000J0D01*
G01*
D11*
X11505250Y-5977250D02*
X11545250Y-5977250D01*
X11505250Y-5897250D02*
X11545250Y-5897250D01*
X11545250Y-5977250D02*
G75*
G03*
X11545250Y-5897250I0J40000D01*
G01*
X11505250Y-5897250D02*
G75*
G03*
X11505250Y-5977250I0J-40000D01*
G01*
D13*
X11565250Y-7842250D02*
G75*
G03*
X11565250Y-7842250I-40000J0D01*
G01*
D11*
X11505250Y-7882250D02*
X11545250Y-7882250D01*
X11505250Y-7802250D02*
X11545250Y-7802250D01*
X11545250Y-7882250D02*
G75*
G03*
X11545250Y-7802250I0J40000D01*
G01*
X11505250Y-7802250D02*
G75*
G03*
X11505250Y-7882250I0J-40000D01*
G01*
D13*
X11565250Y-9747250D02*
G75*
G03*
X11565250Y-9747250I-40000J0D01*
G01*
D11*
X11505250Y-9787250D02*
X11545250Y-9787250D01*
X11505250Y-9707250D02*
X11545250Y-9707250D01*
X11545250Y-9787250D02*
G75*
G03*
X11545250Y-9707250I0J40000D01*
G01*
X11505250Y-9707250D02*
G75*
G03*
X11505250Y-9787250I0J-40000D01*
G01*
D13*
X12200250Y-3778250D02*
G75*
G03*
X12200250Y-3778250I-40000J0D01*
G01*
D11*
X12140250Y-3818250D02*
X12180250Y-3818250D01*
X12140250Y-3738250D02*
X12180250Y-3738250D01*
X12180250Y-3818250D02*
G75*
G03*
X12180250Y-3738250I0J40000D01*
G01*
X12140250Y-3738250D02*
G75*
G03*
X12140250Y-3818250I0J-40000D01*
G01*
D13*
X12200250Y-5683250D02*
G75*
G03*
X12200250Y-5683250I-40000J0D01*
G01*
D11*
X12140250Y-5723250D02*
X12180250Y-5723250D01*
X12140250Y-5643250D02*
X12180250Y-5643250D01*
X12180250Y-5723250D02*
G75*
G03*
X12180250Y-5643250I0J40000D01*
G01*
X12140250Y-5643250D02*
G75*
G03*
X12140250Y-5723250I0J-40000D01*
G01*
D13*
X12200250Y-7588250D02*
G75*
G03*
X12200250Y-7588250I-40000J0D01*
G01*
D11*
X12140250Y-7628250D02*
X12180250Y-7628250D01*
X12140250Y-7548250D02*
X12180250Y-7548250D01*
X12180250Y-7628250D02*
G75*
G03*
X12180250Y-7548250I0J40000D01*
G01*
X12140250Y-7548250D02*
G75*
G03*
X12140250Y-7628250I0J-40000D01*
G01*
D13*
X12200250Y-9493250D02*
G75*
G03*
X12200250Y-9493250I-40000J0D01*
G01*
D11*
X12140250Y-9533250D02*
X12180250Y-9533250D01*
X12140250Y-9453250D02*
X12180250Y-9453250D01*
X12180250Y-9533250D02*
G75*
G03*
X12180250Y-9453250I0J40000D01*
G01*
X12140250Y-9453250D02*
G75*
G03*
X12140250Y-9533250I0J-40000D01*
G01*
D14*
X3986250Y-5039360D02*
X3986250Y-5120640D01*
X3945610Y-5080000D02*
X4026890Y-5080000D01*
X3986250Y-6944360D02*
X3986250Y-7025640D01*
X3945610Y-6985000D02*
X4026890Y-6985000D01*
X3986250Y-8849360D02*
X3986250Y-8930640D01*
X3945610Y-8890000D02*
X4026890Y-8890000D01*
X3986250Y-10754360D02*
X3986250Y-10835640D01*
X3945610Y-10795000D02*
X4026890Y-10795000D01*
X4586250Y-5039360D02*
X4586250Y-5120640D01*
X4545610Y-5080000D02*
X4626890Y-5080000D01*
X4586250Y-6944360D02*
X4586250Y-7025640D01*
X4545610Y-6985000D02*
X4626890Y-6985000D01*
X4586250Y-8849360D02*
X4586250Y-8930640D01*
X4545610Y-8890000D02*
X4626890Y-8890000D01*
X4586250Y-10754360D02*
X4586250Y-10835640D01*
X4545610Y-10795000D02*
X4626890Y-10795000D01*
X4921250Y-10930610D02*
X4921250Y-11011890D01*
X4880610Y-10971250D02*
X4961890Y-10971250D01*
X4921250Y-11530610D02*
X4921250Y-11611890D01*
X4880610Y-11571250D02*
X4961890Y-11571250D01*
X4921250Y-12200610D02*
X4921250Y-12281890D01*
X4880610Y-12241250D02*
X4961890Y-12241250D01*
X4921250Y-12800610D02*
X4921250Y-12881890D01*
X4880610Y-12841250D02*
X4961890Y-12841250D01*
X5238750Y-10930610D02*
X5238750Y-11011890D01*
X5198110Y-10971250D02*
X5279390Y-10971250D01*
X5238750Y-11530610D02*
X5238750Y-11611890D01*
X5198110Y-11571250D02*
X5279390Y-11571250D01*
X5238750Y-12200610D02*
X5238750Y-12281890D01*
X5198110Y-12241250D02*
X5279390Y-12241250D01*
X5238750Y-12800610D02*
X5238750Y-12881890D01*
X5198110Y-12841250D02*
X5279390Y-12841250D01*
X5891250Y-5039360D02*
X5891250Y-5120640D01*
X5850610Y-5080000D02*
X5931890Y-5080000D01*
X5891250Y-6944360D02*
X5891250Y-7025640D01*
X5850610Y-6985000D02*
X5931890Y-6985000D01*
X5891250Y-8849360D02*
X5891250Y-8930640D01*
X5850610Y-8890000D02*
X5931890Y-8890000D01*
X5891250Y-10754360D02*
X5891250Y-10835640D01*
X5850610Y-10795000D02*
X5931890Y-10795000D01*
X5891250Y-12659360D02*
X5891250Y-12740640D01*
X5850610Y-12700000D02*
X5931890Y-12700000D01*
X6491250Y-5039360D02*
X6491250Y-5120640D01*
X6450610Y-5080000D02*
X6531890Y-5080000D01*
X6491250Y-6944360D02*
X6491250Y-7025640D01*
X6450610Y-6985000D02*
X6531890Y-6985000D01*
X6491250Y-8849360D02*
X6491250Y-8930640D01*
X6450610Y-8890000D02*
X6531890Y-8890000D01*
X6491250Y-10754360D02*
X6491250Y-10835640D01*
X6450610Y-10795000D02*
X6531890Y-10795000D01*
X6491250Y-12659360D02*
X6491250Y-12740640D01*
X6450610Y-12700000D02*
X6531890Y-12700000D01*
X7796250Y-5039360D02*
X7796250Y-5120640D01*
X7755610Y-5080000D02*
X7836890Y-5080000D01*
X7796250Y-6944360D02*
X7796250Y-7025640D01*
X7755610Y-6985000D02*
X7836890Y-6985000D01*
X7796250Y-8849360D02*
X7796250Y-8930640D01*
X7755610Y-8890000D02*
X7836890Y-8890000D01*
X7796250Y-10754360D02*
X7796250Y-10835640D01*
X7755610Y-10795000D02*
X7836890Y-10795000D01*
X7796250Y-12659360D02*
X7796250Y-12740640D01*
X7755610Y-12700000D02*
X7836890Y-12700000D01*
X8396250Y-5039360D02*
X8396250Y-5120640D01*
X8355610Y-5080000D02*
X8436890Y-5080000D01*
X8396250Y-6944360D02*
X8396250Y-7025640D01*
X8355610Y-6985000D02*
X8436890Y-6985000D01*
X8396250Y-8849360D02*
X8396250Y-8930640D01*
X8355610Y-8890000D02*
X8436890Y-8890000D01*
X8396250Y-10754360D02*
X8396250Y-10835640D01*
X8355610Y-10795000D02*
X8436890Y-10795000D01*
X8396250Y-12659360D02*
X8396250Y-12740640D01*
X8355610Y-12700000D02*
X8436890Y-12700000D01*
X9701250Y-5039360D02*
X9701250Y-5120640D01*
X9660610Y-5080000D02*
X9741890Y-5080000D01*
X9701250Y-6944360D02*
X9701250Y-7025640D01*
X9660610Y-6985000D02*
X9741890Y-6985000D01*
X9701250Y-8849360D02*
X9701250Y-8930640D01*
X9660610Y-8890000D02*
X9741890Y-8890000D01*
X9701250Y-10754360D02*
X9701250Y-10835640D01*
X9660610Y-10795000D02*
X9741890Y-10795000D01*
X9701250Y-12659360D02*
X9701250Y-12740640D01*
X9660610Y-12700000D02*
X9741890Y-12700000D01*
X10301250Y-5039360D02*
X10301250Y-5120640D01*
X10260610Y-5080000D02*
X10341890Y-5080000D01*
X10301250Y-6944360D02*
X10301250Y-7025640D01*
X10260610Y-6985000D02*
X10341890Y-6985000D01*
X10301250Y-8849360D02*
X10301250Y-8930640D01*
X10260610Y-8890000D02*
X10341890Y-8890000D01*
X10301250Y-10754360D02*
X10301250Y-10835640D01*
X10260610Y-10795000D02*
X10341890Y-10795000D01*
X10301250Y-12659360D02*
X10301250Y-12740640D01*
X10260610Y-12700000D02*
X10341890Y-12700000D01*
X10951250Y-10930610D02*
X10951250Y-11011890D01*
X10910610Y-10971250D02*
X10991890Y-10971250D01*
X10951250Y-11530610D02*
X10951250Y-11611890D01*
X10910610Y-11571250D02*
X10991890Y-11571250D01*
X10951250Y-12200610D02*
X10951250Y-12281890D01*
X10910610Y-12241250D02*
X10991890Y-12241250D01*
X10951250Y-12800610D02*
X10951250Y-12881890D01*
X10910610Y-12841250D02*
X10991890Y-12841250D01*
X11268750Y-10930610D02*
X11268750Y-11011890D01*
X11228110Y-10971250D02*
X11309390Y-10971250D01*
X11268750Y-11530610D02*
X11268750Y-11611890D01*
X11228110Y-11571250D02*
X11309390Y-11571250D01*
X11268750Y-12200610D02*
X11268750Y-12281890D01*
X11228110Y-12241250D02*
X11309390Y-12241250D01*
X11268750Y-12800610D02*
X11268750Y-12881890D01*
X11228110Y-12841250D02*
X11309390Y-12841250D01*
X11606250Y-5039360D02*
X11606250Y-5120640D01*
X11565610Y-5080000D02*
X11646890Y-5080000D01*
X11606250Y-6944360D02*
X11606250Y-7025640D01*
X11565610Y-6985000D02*
X11646890Y-6985000D01*
X11606250Y-8849360D02*
X11606250Y-8930640D01*
X11565610Y-8890000D02*
X11646890Y-8890000D01*
X11606250Y-10754360D02*
X11606250Y-10835640D01*
X11565610Y-10795000D02*
X11646890Y-10795000D01*
X12206250Y-5039360D02*
X12206250Y-5120640D01*
X12165610Y-5080000D02*
X12246890Y-5080000D01*
X12206250Y-6944360D02*
X12206250Y-7025640D01*
X12165610Y-6985000D02*
X12246890Y-6985000D01*
X12206250Y-8849360D02*
X12206250Y-8930640D01*
X12165610Y-8890000D02*
X12246890Y-8890000D01*
X12206250Y-10754360D02*
X12206250Y-10835640D01*
X12165610Y-10795000D02*
X12246890Y-10795000D01*
D10*
X4071606Y-11241606D02*
X4071606Y-11170894D01*
X4000894Y-11170894D01*
X4000894Y-11241606D01*
X4071606Y-11241606D01*
X4071606Y-12691606D02*
X4071606Y-12620894D01*
X4000894Y-12620894D01*
X4000894Y-12691606D01*
X4071606Y-12691606D01*
X4321606Y-12691606D02*
X4321606Y-12620894D01*
X4250894Y-12620894D01*
X4250894Y-12691606D01*
X4321606Y-12691606D01*
X4571606Y-11241606D02*
X4571606Y-11170894D01*
X4500894Y-11170894D01*
X4500894Y-11241606D01*
X4571606Y-11241606D01*
X4571606Y-12691606D02*
X4571606Y-12620894D01*
X4500894Y-12620894D01*
X4500894Y-12691606D01*
X4571606Y-12691606D01*
X11689106Y-11241606D02*
X11689106Y-11170894D01*
X11618394Y-11170894D01*
X11618394Y-11241606D01*
X11689106Y-11241606D01*
X11689106Y-12691606D02*
X11689106Y-12620894D01*
X11618394Y-12620894D01*
X11618394Y-12691606D01*
X11689106Y-12691606D01*
X11939106Y-12691606D02*
X11939106Y-12620894D01*
X11868394Y-12620894D01*
X11868394Y-12691606D01*
X11939106Y-12691606D01*
X12189106Y-11241606D02*
X12189106Y-11170894D01*
X12118394Y-11170894D01*
X12118394Y-11241606D01*
X12189106Y-11241606D01*
X12189106Y-12691606D02*
X12189106Y-12620894D01*
X12118394Y-12620894D01*
X12118394Y-12691606D01*
X12189106Y-12691606D01*
D15*
X7311390Y-3777530D02*
X7366000Y-3722920D01*
X7311390Y-3668310D01*
X7256780Y-3722920D01*
X7311390Y-3777530D01*
X7311390Y-4285530D02*
X7366000Y-4230920D01*
X7311390Y-4176310D01*
X7256780Y-4230920D01*
X7311390Y-4285530D01*
X7311390Y-4793530D02*
X7366000Y-4738920D01*
X7311390Y-4684310D01*
X7256780Y-4738920D01*
X7311390Y-4793530D01*
X7311390Y-5301530D02*
X7366000Y-5246920D01*
X7311390Y-5192310D01*
X7256780Y-5246920D01*
X7311390Y-5301530D01*
X7311390Y-5809530D02*
X7366000Y-5754920D01*
X7311390Y-5700310D01*
X7256780Y-5754920D01*
X7311390Y-5809530D01*
X7311390Y-6317530D02*
X7366000Y-6262920D01*
X7311390Y-6208310D01*
X7256780Y-6262920D01*
X7311390Y-6317530D01*
X7357110Y-4031530D02*
X7411720Y-3976920D01*
X7357110Y-3922310D01*
X7302500Y-3976920D01*
X7357110Y-4031530D01*
X7357110Y-4539530D02*
X7411720Y-4484920D01*
X7357110Y-4430310D01*
X7302500Y-4484920D01*
X7357110Y-4539530D01*
X7357110Y-5047530D02*
X7411720Y-4992920D01*
X7357110Y-4938310D01*
X7302500Y-4992920D01*
X7357110Y-5047530D01*
X7357110Y-5555530D02*
X7411720Y-5500920D01*
X7357110Y-5446310D01*
X7302500Y-5500920D01*
X7357110Y-5555530D01*
X7357110Y-6063530D02*
X7411720Y-6008920D01*
X7357110Y-5954310D01*
X7302500Y-6008920D01*
X7357110Y-6063530D01*
X7357110Y-6571530D02*
X7411720Y-6516920D01*
X7357110Y-6462310D01*
X7302500Y-6516920D01*
X7357110Y-6571530D01*
X8835390Y-4031530D02*
X8890000Y-3976920D01*
X8835390Y-3922310D01*
X8780780Y-3976920D01*
X8835390Y-4031530D01*
X8835390Y-4539530D02*
X8890000Y-4484920D01*
X8835390Y-4430310D01*
X8780780Y-4484920D01*
X8835390Y-4539530D01*
X8835390Y-5047530D02*
X8890000Y-4992920D01*
X8835390Y-4938310D01*
X8780780Y-4992920D01*
X8835390Y-5047530D01*
X8835390Y-5555530D02*
X8890000Y-5500920D01*
X8835390Y-5446310D01*
X8780780Y-5500920D01*
X8835390Y-5555530D01*
X8835390Y-6063530D02*
X8890000Y-6008920D01*
X8835390Y-5954310D01*
X8780780Y-6008920D01*
X8835390Y-6063530D01*
X8835390Y-6571530D02*
X8890000Y-6516920D01*
X8835390Y-6462310D01*
X8780780Y-6516920D01*
X8835390Y-6571530D01*
X8881110Y-3777530D02*
X8935720Y-3722920D01*
X8881110Y-3668310D01*
X8826500Y-3722920D01*
X8881110Y-3777530D01*
X8881110Y-4285530D02*
X8935720Y-4230920D01*
X8881110Y-4176310D01*
X8826500Y-4230920D01*
X8881110Y-4285530D01*
X8881110Y-4793530D02*
X8935720Y-4738920D01*
X8881110Y-4684310D01*
X8826500Y-4738920D01*
X8881110Y-4793530D01*
X8881110Y-5301530D02*
X8935720Y-5246920D01*
X8881110Y-5192310D01*
X8826500Y-5246920D01*
X8881110Y-5301530D01*
X8881110Y-5809530D02*
X8935720Y-5754920D01*
X8881110Y-5700310D01*
X8826500Y-5754920D01*
X8881110Y-5809530D01*
X8881110Y-6317530D02*
X8935720Y-6262920D01*
X8881110Y-6208310D01*
X8826500Y-6262920D01*
X8881110Y-6317530D01*
D16*
X8983750Y-6991870D02*
X9113750Y-7121870D01*
X9113750Y-6991870D02*
X8983750Y-7121870D01*
X9113750Y-7056870D02*
G75*
G03*
X9113750Y-7056870I-65000J0D01*
G01*
X8983750Y-7641870D02*
X9113750Y-7771870D01*
X9113750Y-7641870D02*
X8983750Y-7771870D01*
X9113750Y-7706870D02*
G75*
G03*
X9113750Y-7706870I-65000J0D01*
G01*
D17*
X4776250Y-11836250D02*
X4916250Y-11976250D01*
X4916250Y-11836250D02*
X4776250Y-11976250D01*
X4846250Y-11836250D02*
X4846250Y-11976250D01*
X4776250Y-11906250D02*
X4916250Y-11906250D01*
D11*
X4916250Y-11976250D02*
X4916250Y-11836250D01*
X4776250Y-11976250D02*
X4776250Y-11836250D01*
X4916250Y-11836250D02*
G75*
G03*
X4776250Y-11836250I-70000J0D01*
G01*
X4776250Y-11976250D02*
G75*
G03*
X4916250Y-11976250I70000J0D01*
G01*
D17*
X11273750Y-11836250D02*
X11413750Y-11976250D01*
X11413750Y-11836250D02*
X11273750Y-11976250D01*
X11343750Y-11836250D02*
X11343750Y-11976250D01*
X11273750Y-11906250D02*
X11413750Y-11906250D01*
D11*
X11413750Y-11976250D02*
X11413750Y-11836250D01*
X11273750Y-11976250D02*
X11273750Y-11836250D01*
X11413750Y-11836250D02*
G75*
G03*
X11273750Y-11836250I-70000J0D01*
G01*
X11273750Y-11976250D02*
G75*
G03*
X11413750Y-11976250I70000J0D01*
G01*
D18*
X3382500Y-4970000D02*
X3602500Y-5190000D01*
X3602500Y-4970000D02*
X3382500Y-5190000D01*
X3570282Y-5157783D02*
X3570282Y-5002218D01*
X3414717Y-5002218D01*
X3414717Y-5157783D01*
X3570282Y-5157783D01*
X3382500Y-8938750D02*
X3602500Y-9158750D01*
X3602500Y-8938750D02*
X3382500Y-9158750D01*
X3570282Y-9126533D02*
X3570282Y-8970968D01*
X3414717Y-8970968D01*
X3414717Y-9126533D01*
X3570282Y-9126533D01*
X7033750Y-12590000D02*
X7253750Y-12810000D01*
X7253750Y-12590000D02*
X7033750Y-12810000D01*
X7221532Y-12777782D02*
X7221532Y-12622217D01*
X7065967Y-12622217D01*
X7065967Y-12777782D01*
X7221532Y-12777782D01*
X8938750Y-12590000D02*
X9158750Y-12810000D01*
X9158750Y-12590000D02*
X8938750Y-12810000D01*
X9126533Y-12777782D02*
X9126533Y-12622217D01*
X8970968Y-12622217D01*
X8970968Y-12777782D01*
X9126533Y-12777782D01*
X12590000Y-4970000D02*
X12810000Y-5190000D01*
X12810000Y-4970000D02*
X12590000Y-5190000D01*
X12777782Y-5157783D02*
X12777782Y-5002218D01*
X12622217Y-5002218D01*
X12622217Y-5157783D01*
X12777782Y-5157783D01*
X12590000Y-8938750D02*
X12810000Y-9158750D01*
X12810000Y-8938750D02*
X12590000Y-9158750D01*
X12777782Y-9126533D02*
X12777782Y-8970968D01*
X12622217Y-8970968D01*
X12622217Y-9126533D01*
X12777782Y-9126533D01*
D19*
X3213750Y-11846250D02*
X3333750Y-11966250D01*
X3333750Y-11846250D02*
X3213750Y-11966250D01*
X3273750Y-11966250D02*
X3333750Y-11906250D01*
X3273750Y-11846250D01*
X3213750Y-11906250D01*
X3273750Y-11966250D01*
X3613750Y-11846250D02*
X3733750Y-11966250D01*
X3733750Y-11846250D02*
X3613750Y-11966250D01*
X3673750Y-11966250D02*
X3733750Y-11906250D01*
X3673750Y-11846250D01*
X3613750Y-11906250D01*
X3673750Y-11966250D01*
X12456250Y-11846250D02*
X12576250Y-11966250D01*
X12576250Y-11846250D02*
X12456250Y-11966250D01*
X12516250Y-11966250D02*
X12576250Y-11906250D01*
X12516250Y-11846250D01*
X12456250Y-11906250D01*
X12516250Y-11966250D01*
X12856250Y-11846250D02*
X12976250Y-11966250D01*
X12976250Y-11846250D02*
X12856250Y-11966250D01*
X12916250Y-11966250D02*
X12976250Y-11906250D01*
X12916250Y-11846250D01*
X12856250Y-11906250D01*
X12916250Y-11966250D01*
D20*
X3778250Y-4191250D02*
X3778250Y-4381250D01*
X3683250Y-4286250D02*
X3873250Y-4286250D01*
X3873250Y-4286250D02*
G75*
G03*
X3873250Y-4286250I-95000J0D01*
G01*
X3778250Y-6096250D02*
X3778250Y-6286250D01*
X3683250Y-6191250D02*
X3873250Y-6191250D01*
X3873250Y-6191250D02*
G75*
G03*
X3873250Y-6191250I-95000J0D01*
G01*
X3778250Y-8001250D02*
X3778250Y-8191250D01*
X3683250Y-8096250D02*
X3873250Y-8096250D01*
X3873250Y-8096250D02*
G75*
G03*
X3873250Y-8096250I-95000J0D01*
G01*
X3778250Y-9906250D02*
X3778250Y-10096250D01*
X3683250Y-10001250D02*
X3873250Y-10001250D01*
X3873250Y-10001250D02*
G75*
G03*
X3873250Y-10001250I-95000J0D01*
G01*
X4794250Y-4191250D02*
X4794250Y-4381250D01*
X4699250Y-4286250D02*
X4889250Y-4286250D01*
X4889250Y-4286250D02*
G75*
G03*
X4889250Y-4286250I-95000J0D01*
G01*
X4794250Y-6096250D02*
X4794250Y-6286250D01*
X4699250Y-6191250D02*
X4889250Y-6191250D01*
X4889250Y-6191250D02*
G75*
G03*
X4889250Y-6191250I-95000J0D01*
G01*
X4794250Y-8001250D02*
X4794250Y-8191250D01*
X4699250Y-8096250D02*
X4889250Y-8096250D01*
X4889250Y-8096250D02*
G75*
G03*
X4889250Y-8096250I-95000J0D01*
G01*
X4794250Y-9906250D02*
X4794250Y-10096250D01*
X4699250Y-10001250D02*
X4889250Y-10001250D01*
X4889250Y-10001250D02*
G75*
G03*
X4889250Y-10001250I-95000J0D01*
G01*
X5680000Y-9906250D02*
X5680000Y-10096250D01*
X5585000Y-10001250D02*
X5775000Y-10001250D01*
X5775000Y-10001250D02*
G75*
G03*
X5775000Y-10001250I-95000J0D01*
G01*
X5683140Y-11811250D02*
X5683140Y-12001250D01*
X5588140Y-11906250D02*
X5778140Y-11906250D01*
X5778140Y-11906250D02*
G75*
G03*
X5778140Y-11906250I-95000J0D01*
G01*
X5683250Y-4191250D02*
X5683250Y-4381250D01*
X5588250Y-4286250D02*
X5778250Y-4286250D01*
X5778250Y-4286250D02*
G75*
G03*
X5778250Y-4286250I-95000J0D01*
G01*
X5683250Y-6096250D02*
X5683250Y-6286250D01*
X5588250Y-6191250D02*
X5778250Y-6191250D01*
X5778250Y-6191250D02*
G75*
G03*
X5778250Y-6191250I-95000J0D01*
G01*
X5683250Y-8001250D02*
X5683250Y-8191250D01*
X5588250Y-8096250D02*
X5778250Y-8096250D01*
X5778250Y-8096250D02*
G75*
G03*
X5778250Y-8096250I-95000J0D01*
G01*
X6696000Y-9906250D02*
X6696000Y-10096250D01*
X6601000Y-10001250D02*
X6791000Y-10001250D01*
X6791000Y-10001250D02*
G75*
G03*
X6791000Y-10001250I-95000J0D01*
G01*
X6699140Y-11811250D02*
X6699140Y-12001250D01*
X6604140Y-11906250D02*
X6794140Y-11906250D01*
X6794140Y-11906250D02*
G75*
G03*
X6794140Y-11906250I-95000J0D01*
G01*
X6699250Y-4191250D02*
X6699250Y-4381250D01*
X6604250Y-4286250D02*
X6794250Y-4286250D01*
X6794250Y-4286250D02*
G75*
G03*
X6794250Y-4286250I-95000J0D01*
G01*
X6699250Y-6096250D02*
X6699250Y-6286250D01*
X6604250Y-6191250D02*
X6794250Y-6191250D01*
X6794250Y-6191250D02*
G75*
G03*
X6794250Y-6191250I-95000J0D01*
G01*
X6699250Y-8001250D02*
X6699250Y-8191250D01*
X6604250Y-8096250D02*
X6794250Y-8096250D01*
X6794250Y-8096250D02*
G75*
G03*
X6794250Y-8096250I-95000J0D01*
G01*
X7588140Y-11811250D02*
X7588140Y-12001250D01*
X7493140Y-11906250D02*
X7683140Y-11906250D01*
X7683140Y-11906250D02*
G75*
G03*
X7683140Y-11906250I-95000J0D01*
G01*
X7588250Y-4191250D02*
X7588250Y-4381250D01*
X7493250Y-4286250D02*
X7683250Y-4286250D01*
X7683250Y-4286250D02*
G75*
G03*
X7683250Y-4286250I-95000J0D01*
G01*
X7588250Y-6096250D02*
X7588250Y-6286250D01*
X7493250Y-6191250D02*
X7683250Y-6191250D01*
X7683250Y-6191250D02*
G75*
G03*
X7683250Y-6191250I-95000J0D01*
G01*
X7588250Y-8001250D02*
X7588250Y-8191250D01*
X7493250Y-8096250D02*
X7683250Y-8096250D01*
X7683250Y-8096250D02*
G75*
G03*
X7683250Y-8096250I-95000J0D01*
G01*
X7588250Y-9906250D02*
X7588250Y-10096250D01*
X7493250Y-10001250D02*
X7683250Y-10001250D01*
X7683250Y-10001250D02*
G75*
G03*
X7683250Y-10001250I-95000J0D01*
G01*
X8604140Y-11811250D02*
X8604140Y-12001250D01*
X8509140Y-11906250D02*
X8699140Y-11906250D01*
X8699140Y-11906250D02*
G75*
G03*
X8699140Y-11906250I-95000J0D01*
G01*
X8604250Y-4191250D02*
X8604250Y-4381250D01*
X8509250Y-4286250D02*
X8699250Y-4286250D01*
X8699250Y-4286250D02*
G75*
G03*
X8699250Y-4286250I-95000J0D01*
G01*
X8604250Y-6096250D02*
X8604250Y-6286250D01*
X8509250Y-6191250D02*
X8699250Y-6191250D01*
X8699250Y-6191250D02*
G75*
G03*
X8699250Y-6191250I-95000J0D01*
G01*
X8604250Y-8001250D02*
X8604250Y-8191250D01*
X8509250Y-8096250D02*
X8699250Y-8096250D01*
X8699250Y-8096250D02*
G75*
G03*
X8699250Y-8096250I-95000J0D01*
G01*
X8604250Y-9906250D02*
X8604250Y-10096250D01*
X8509250Y-10001250D02*
X8699250Y-10001250D01*
X8699250Y-10001250D02*
G75*
G03*
X8699250Y-10001250I-95000J0D01*
G01*
X9493250Y-4191250D02*
X9493250Y-4381250D01*
X9398250Y-4286250D02*
X9588250Y-4286250D01*
X9588250Y-4286250D02*
G75*
G03*
X9588250Y-4286250I-95000J0D01*
G01*
X9493250Y-6096250D02*
X9493250Y-6286250D01*
X9398250Y-6191250D02*
X9588250Y-6191250D01*
X9588250Y-6191250D02*
G75*
G03*
X9588250Y-6191250I-95000J0D01*
G01*
X9493250Y-8001250D02*
X9493250Y-8191250D01*
X9398250Y-8096250D02*
X9588250Y-8096250D01*
X9588250Y-8096250D02*
G75*
G03*
X9588250Y-8096250I-95000J0D01*
G01*
X9493250Y-9906250D02*
X9493250Y-10096250D01*
X9398250Y-10001250D02*
X9588250Y-10001250D01*
X9588250Y-10001250D02*
G75*
G03*
X9588250Y-10001250I-95000J0D01*
G01*
X9493250Y-11811250D02*
X9493250Y-12001250D01*
X9398250Y-11906250D02*
X9588250Y-11906250D01*
X9588250Y-11906250D02*
G75*
G03*
X9588250Y-11906250I-95000J0D01*
G01*
X10509250Y-4191250D02*
X10509250Y-4381250D01*
X10414250Y-4286250D02*
X10604250Y-4286250D01*
X10604250Y-4286250D02*
G75*
G03*
X10604250Y-4286250I-95000J0D01*
G01*
X10509250Y-6096250D02*
X10509250Y-6286250D01*
X10414250Y-6191250D02*
X10604250Y-6191250D01*
X10604250Y-6191250D02*
G75*
G03*
X10604250Y-6191250I-95000J0D01*
G01*
X10509250Y-8001250D02*
X10509250Y-8191250D01*
X10414250Y-8096250D02*
X10604250Y-8096250D01*
X10604250Y-8096250D02*
G75*
G03*
X10604250Y-8096250I-95000J0D01*
G01*
X10509250Y-9906250D02*
X10509250Y-10096250D01*
X10414250Y-10001250D02*
X10604250Y-10001250D01*
X10604250Y-10001250D02*
G75*
G03*
X10604250Y-10001250I-95000J0D01*
G01*
X10509250Y-11811250D02*
X10509250Y-12001250D01*
X10414250Y-11906250D02*
X10604250Y-11906250D01*
X10604250Y-11906250D02*
G75*
G03*
X10604250Y-11906250I-95000J0D01*
G01*
X11398250Y-4191250D02*
X11398250Y-4381250D01*
X11303250Y-4286250D02*
X11493250Y-4286250D01*
X11493250Y-4286250D02*
G75*
G03*
X11493250Y-4286250I-95000J0D01*
G01*
X11398250Y-6096250D02*
X11398250Y-6286250D01*
X11303250Y-6191250D02*
X11493250Y-6191250D01*
X11493250Y-6191250D02*
G75*
G03*
X11493250Y-6191250I-95000J0D01*
G01*
X11398250Y-8001250D02*
X11398250Y-8191250D01*
X11303250Y-8096250D02*
X11493250Y-8096250D01*
X11493250Y-8096250D02*
G75*
G03*
X11493250Y-8096250I-95000J0D01*
G01*
X11398250Y-9906250D02*
X11398250Y-10096250D01*
X11303250Y-10001250D02*
X11493250Y-10001250D01*
X11493250Y-10001250D02*
G75*
G03*
X11493250Y-10001250I-95000J0D01*
G01*
X12414250Y-4191250D02*
X12414250Y-4381250D01*
X12319250Y-4286250D02*
X12509250Y-4286250D01*
X12509250Y-4286250D02*
G75*
G03*
X12509250Y-4286250I-95000J0D01*
G01*
X12414250Y-6096250D02*
X12414250Y-6286250D01*
X12319250Y-6191250D02*
X12509250Y-6191250D01*
X12509250Y-6191250D02*
G75*
G03*
X12509250Y-6191250I-95000J0D01*
G01*
X12414250Y-8001250D02*
X12414250Y-8191250D01*
X12319250Y-8096250D02*
X12509250Y-8096250D01*
X12509250Y-8096250D02*
G75*
G03*
X12509250Y-8096250I-95000J0D01*
G01*
X12414250Y-9906250D02*
X12414250Y-10096250D01*
X12319250Y-10001250D02*
X12509250Y-10001250D01*
X12509250Y-10001250D02*
G75*
G03*
X12509250Y-10001250I-95000J0D01*
G01*
D21*
X4427673Y-4427673D02*
X4427673Y-4144827D01*
X4144827Y-4144827D01*
X4144827Y-4427673D01*
X4427673Y-4427673D01*
X4486250Y-4286250D02*
G75*
G03*
X4486250Y-4286250I-200000J0D01*
G01*
X4427673Y-6332673D02*
X4427673Y-6049827D01*
X4144827Y-6049827D01*
X4144827Y-6332673D01*
X4427673Y-6332673D01*
X4486250Y-6191250D02*
G75*
G03*
X4486250Y-6191250I-200000J0D01*
G01*
X4427673Y-8237673D02*
X4427673Y-7954827D01*
X4144827Y-7954827D01*
X4144827Y-8237673D01*
X4427673Y-8237673D01*
X4486250Y-8096250D02*
G75*
G03*
X4486250Y-8096250I-200000J0D01*
G01*
X4427673Y-10142673D02*
X4427673Y-9859827D01*
X4144827Y-9859827D01*
X4144827Y-10142673D01*
X4427673Y-10142673D01*
X4486250Y-10001250D02*
G75*
G03*
X4486250Y-10001250I-200000J0D01*
G01*
X6329423Y-10142673D02*
X6329423Y-9859827D01*
X6046577Y-9859827D01*
X6046577Y-10142673D01*
X6329423Y-10142673D01*
X6388000Y-10001250D02*
G75*
G03*
X6388000Y-10001250I-200000J0D01*
G01*
X6332563Y-12047673D02*
X6332563Y-11764827D01*
X6049717Y-11764827D01*
X6049717Y-12047673D01*
X6332563Y-12047673D01*
X6391140Y-11906250D02*
G75*
G03*
X6391140Y-11906250I-200000J0D01*
G01*
X6332673Y-4427673D02*
X6332673Y-4144827D01*
X6049827Y-4144827D01*
X6049827Y-4427673D01*
X6332673Y-4427673D01*
X6391250Y-4286250D02*
G75*
G03*
X6391250Y-4286250I-200000J0D01*
G01*
X6332673Y-6332673D02*
X6332673Y-6049827D01*
X6049827Y-6049827D01*
X6049827Y-6332673D01*
X6332673Y-6332673D01*
X6391250Y-6191250D02*
G75*
G03*
X6391250Y-6191250I-200000J0D01*
G01*
X6332673Y-8237673D02*
X6332673Y-7954827D01*
X6049827Y-7954827D01*
X6049827Y-8237673D01*
X6332673Y-8237673D01*
X6391250Y-8096250D02*
G75*
G03*
X6391250Y-8096250I-200000J0D01*
G01*
X8237563Y-12047673D02*
X8237563Y-11764827D01*
X7954717Y-11764827D01*
X7954717Y-12047673D01*
X8237563Y-12047673D01*
X8296140Y-11906250D02*
G75*
G03*
X8296140Y-11906250I-200000J0D01*
G01*
X8237673Y-4427673D02*
X8237673Y-4144827D01*
X7954827Y-4144827D01*
X7954827Y-4427673D01*
X8237673Y-4427673D01*
X8296250Y-4286250D02*
G75*
G03*
X8296250Y-4286250I-200000J0D01*
G01*
X8237673Y-6332673D02*
X8237673Y-6049827D01*
X7954827Y-6049827D01*
X7954827Y-6332673D01*
X8237673Y-6332673D01*
X8296250Y-6191250D02*
G75*
G03*
X8296250Y-6191250I-200000J0D01*
G01*
X8237673Y-8237673D02*
X8237673Y-7954827D01*
X7954827Y-7954827D01*
X7954827Y-8237673D01*
X8237673Y-8237673D01*
X8296250Y-8096250D02*
G75*
G03*
X8296250Y-8096250I-200000J0D01*
G01*
X8237673Y-10142673D02*
X8237673Y-9859827D01*
X7954827Y-9859827D01*
X7954827Y-10142673D01*
X8237673Y-10142673D01*
X8296250Y-10001250D02*
G75*
G03*
X8296250Y-10001250I-200000J0D01*
G01*
X10142673Y-4427673D02*
X10142673Y-4144827D01*
X9859827Y-4144827D01*
X9859827Y-4427673D01*
X10142673Y-4427673D01*
X10201250Y-4286250D02*
G75*
G03*
X10201250Y-4286250I-200000J0D01*
G01*
X10142673Y-6332673D02*
X10142673Y-6049827D01*
X9859827Y-6049827D01*
X9859827Y-6332673D01*
X10142673Y-6332673D01*
X10201250Y-6191250D02*
G75*
G03*
X10201250Y-6191250I-200000J0D01*
G01*
X10142673Y-8237673D02*
X10142673Y-7954827D01*
X9859827Y-7954827D01*
X9859827Y-8237673D01*
X10142673Y-8237673D01*
X10201250Y-8096250D02*
G75*
G03*
X10201250Y-8096250I-200000J0D01*
G01*
X10142673Y-10142673D02*
X10142673Y-9859827D01*
X9859827Y-9859827D01*
X9859827Y-10142673D01*
X10142673Y-10142673D01*
X10201250Y-10001250D02*
G75*
G03*
X10201250Y-10001250I-200000J0D01*
G01*
X10142673Y-12047673D02*
X10142673Y-11764827D01*
X9859827Y-11764827D01*
X9859827Y-12047673D01*
X10142673Y-12047673D01*
X10201250Y-11906250D02*
G75*
G03*
X10201250Y-11906250I-200000J0D01*
G01*
X12047673Y-4427673D02*
X12047673Y-4144827D01*
X11764827Y-4144827D01*
X11764827Y-4427673D01*
X12047673Y-4427673D01*
X12106250Y-4286250D02*
G75*
G03*
X12106250Y-4286250I-200000J0D01*
G01*
X12047673Y-6332673D02*
X12047673Y-6049827D01*
X11764827Y-6049827D01*
X11764827Y-6332673D01*
X12047673Y-6332673D01*
X12106250Y-6191250D02*
G75*
G03*
X12106250Y-6191250I-200000J0D01*
G01*
X12047673Y-8237673D02*
X12047673Y-7954827D01*
X11764827Y-7954827D01*
X11764827Y-8237673D01*
X12047673Y-8237673D01*
X12106250Y-8096250D02*
G75*
G03*
X12106250Y-8096250I-200000J0D01*
G01*
X12047673Y-10142673D02*
X12047673Y-9859827D01*
X11764827Y-9859827D01*
X11764827Y-10142673D01*
X12047673Y-10142673D01*
X12106250Y-10001250D02*
G75*
G03*
X12106250Y-10001250I-200000J0D01*
G01*
D11*
X3427619Y-13332976D02*
X3427619Y-13132976D01*
X3475238Y-13132976D01*
X3503809Y-13142500D01*
X3522857Y-13161548D01*
X3532381Y-13180595D01*
X3541905Y-13218690D01*
X3541905Y-13247262D01*
X3532381Y-13285357D01*
X3522857Y-13304405D01*
X3503809Y-13323452D01*
X3475238Y-13332976D01*
X3427619Y-13332976D01*
X3627619Y-13332976D02*
X3627619Y-13199643D01*
X3627619Y-13237738D02*
X3637143Y-13218690D01*
X3646667Y-13209167D01*
X3665714Y-13199643D01*
X3684762Y-13199643D01*
X3751428Y-13332976D02*
X3751428Y-13199643D01*
X3751428Y-13132976D02*
X3741905Y-13142500D01*
X3751428Y-13152024D01*
X3760952Y-13142500D01*
X3751428Y-13132976D01*
X3751428Y-13152024D01*
X3875238Y-13332976D02*
X3856190Y-13323452D01*
X3846667Y-13304405D01*
X3846667Y-13132976D01*
X3980000Y-13332976D02*
X3960952Y-13323452D01*
X3951428Y-13304405D01*
X3951428Y-13132976D01*
X4208571Y-13332976D02*
X4208571Y-13132976D01*
X4275238Y-13275833D01*
X4341905Y-13132976D01*
X4341905Y-13332976D01*
X4522857Y-13332976D02*
X4522857Y-13228214D01*
X4513333Y-13209167D01*
X4494286Y-13199643D01*
X4456190Y-13199643D01*
X4437143Y-13209167D01*
X4522857Y-13323452D02*
X4503810Y-13332976D01*
X4456190Y-13332976D01*
X4437143Y-13323452D01*
X4427619Y-13304405D01*
X4427619Y-13285357D01*
X4437143Y-13266309D01*
X4456190Y-13256786D01*
X4503810Y-13256786D01*
X4522857Y-13247262D01*
X4618095Y-13199643D02*
X4618095Y-13399643D01*
X4618095Y-13209167D02*
X4637143Y-13199643D01*
X4675238Y-13199643D01*
X4694286Y-13209167D01*
X4703810Y-13218690D01*
X4713333Y-13237738D01*
X4713333Y-13294881D01*
X4703810Y-13313928D01*
X4694286Y-13323452D01*
X4675238Y-13332976D01*
X4637143Y-13332976D01*
X4618095Y-13323452D01*
X4799048Y-13313928D02*
X4808571Y-13323452D01*
X4799048Y-13332976D01*
X4789524Y-13323452D01*
X4799048Y-13313928D01*
X4799048Y-13332976D01*
X4799048Y-13209167D02*
X4808571Y-13218690D01*
X4799048Y-13228214D01*
X4789524Y-13218690D01*
X4799048Y-13209167D01*
X4799048Y-13228214D01*
D12*
X3130000Y-13642500D02*
X3170000Y-13682500D01*
X3170000Y-13642500D02*
X3130000Y-13682500D01*
D11*
X3465714Y-13552976D02*
X3484762Y-13552976D01*
X3503809Y-13562500D01*
X3513333Y-13572024D01*
X3522857Y-13591071D01*
X3532381Y-13629167D01*
X3532381Y-13676786D01*
X3522857Y-13714881D01*
X3513333Y-13733928D01*
X3503809Y-13743452D01*
X3484762Y-13752976D01*
X3465714Y-13752976D01*
X3446667Y-13743452D01*
X3437143Y-13733928D01*
X3427619Y-13714881D01*
X3418095Y-13676786D01*
X3418095Y-13629167D01*
X3427619Y-13591071D01*
X3437143Y-13572024D01*
X3446667Y-13562500D01*
X3465714Y-13552976D01*
X3618095Y-13733928D02*
X3627619Y-13743452D01*
X3618095Y-13752976D01*
X3608571Y-13743452D01*
X3618095Y-13733928D01*
X3618095Y-13752976D01*
X3799048Y-13619643D02*
X3799048Y-13752976D01*
X3751428Y-13543452D02*
X3703809Y-13686309D01*
X3827619Y-13686309D01*
X3941905Y-13552976D02*
X3960952Y-13552976D01*
X3980000Y-13562500D01*
X3989524Y-13572024D01*
X3999048Y-13591071D01*
X4008571Y-13629167D01*
X4008571Y-13676786D01*
X3999048Y-13714881D01*
X3989524Y-13733928D01*
X3980000Y-13743452D01*
X3960952Y-13752976D01*
X3941905Y-13752976D01*
X3922857Y-13743452D01*
X3913333Y-13733928D01*
X3903809Y-13714881D01*
X3894286Y-13676786D01*
X3894286Y-13629167D01*
X3903809Y-13591071D01*
X3913333Y-13572024D01*
X3922857Y-13562500D01*
X3941905Y-13552976D01*
X4132381Y-13552976D02*
X4151428Y-13552976D01*
X4170476Y-13562500D01*
X4180000Y-13572024D01*
X4189524Y-13591071D01*
X4199048Y-13629167D01*
X4199048Y-13676786D01*
X4189524Y-13714881D01*
X4180000Y-13733928D01*
X4170476Y-13743452D01*
X4151428Y-13752976D01*
X4132381Y-13752976D01*
X4113333Y-13743452D01*
X4103809Y-13733928D01*
X4094286Y-13714881D01*
X4084762Y-13676786D01*
X4084762Y-13629167D01*
X4094286Y-13591071D01*
X4103809Y-13572024D01*
X4113333Y-13562500D01*
X4132381Y-13552976D01*
X4284762Y-13752976D02*
X4284762Y-13619643D01*
X4284762Y-13638690D02*
X4294286Y-13629167D01*
X4313333Y-13619643D01*
X4341905Y-13619643D01*
X4360952Y-13629167D01*
X4370476Y-13648214D01*
X4370476Y-13752976D01*
X4370476Y-13648214D02*
X4380000Y-13629167D01*
X4399048Y-13619643D01*
X4427619Y-13619643D01*
X4446667Y-13629167D01*
X4456190Y-13648214D01*
X4456190Y-13752976D01*
X4551429Y-13752976D02*
X4551429Y-13619643D01*
X4551429Y-13638690D02*
X4560952Y-13629167D01*
X4580000Y-13619643D01*
X4608571Y-13619643D01*
X4627619Y-13629167D01*
X4637143Y-13648214D01*
X4637143Y-13752976D01*
X4637143Y-13648214D02*
X4646667Y-13629167D01*
X4665714Y-13619643D01*
X4694286Y-13619643D01*
X4713333Y-13629167D01*
X4722857Y-13648214D01*
X4722857Y-13752976D01*
X5113333Y-13543452D02*
X4941905Y-13800595D01*
X5370476Y-13552976D02*
X5389524Y-13552976D01*
X5408571Y-13562500D01*
X5418095Y-13572024D01*
X5427619Y-13591071D01*
X5437143Y-13629167D01*
X5437143Y-13676786D01*
X5427619Y-13714881D01*
X5418095Y-13733928D01*
X5408571Y-13743452D01*
X5389524Y-13752976D01*
X5370476Y-13752976D01*
X5351429Y-13743452D01*
X5341905Y-13733928D01*
X5332381Y-13714881D01*
X5322857Y-13676786D01*
X5322857Y-13629167D01*
X5332381Y-13591071D01*
X5341905Y-13572024D01*
X5351429Y-13562500D01*
X5370476Y-13552976D01*
X5522857Y-13733928D02*
X5532381Y-13743452D01*
X5522857Y-13752976D01*
X5513333Y-13743452D01*
X5522857Y-13733928D01*
X5522857Y-13752976D01*
X5656190Y-13552976D02*
X5675238Y-13552976D01*
X5694286Y-13562500D01*
X5703809Y-13572024D01*
X5713333Y-13591071D01*
X5722857Y-13629167D01*
X5722857Y-13676786D01*
X5713333Y-13714881D01*
X5703809Y-13733928D01*
X5694286Y-13743452D01*
X5675238Y-13752976D01*
X5656190Y-13752976D01*
X5637143Y-13743452D01*
X5627619Y-13733928D01*
X5618095Y-13714881D01*
X5608571Y-13676786D01*
X5608571Y-13629167D01*
X5618095Y-13591071D01*
X5627619Y-13572024D01*
X5637143Y-13562500D01*
X5656190Y-13552976D01*
X5913333Y-13752976D02*
X5799048Y-13752976D01*
X5856190Y-13752976D02*
X5856190Y-13552976D01*
X5837143Y-13581548D01*
X5818095Y-13600595D01*
X5799048Y-13610119D01*
X6094286Y-13552976D02*
X5999048Y-13552976D01*
X5989524Y-13648214D01*
X5999048Y-13638690D01*
X6018095Y-13629167D01*
X6065714Y-13629167D01*
X6084762Y-13638690D01*
X6094286Y-13648214D01*
X6103809Y-13667262D01*
X6103809Y-13714881D01*
X6094286Y-13733928D01*
X6084762Y-13743452D01*
X6065714Y-13752976D01*
X6018095Y-13752976D01*
X5999048Y-13743452D01*
X5989524Y-13733928D01*
X6170476Y-13552976D02*
X6303809Y-13552976D01*
X6218095Y-13752976D01*
X6370476Y-13552976D02*
X6370476Y-13591071D01*
X6446667Y-13552976D02*
X6446667Y-13591071D01*
X6741905Y-13829167D02*
X6732381Y-13819643D01*
X6713333Y-13791071D01*
X6703809Y-13772024D01*
X6694286Y-13743452D01*
X6684762Y-13695833D01*
X6684762Y-13657738D01*
X6694286Y-13610119D01*
X6703809Y-13581548D01*
X6713333Y-13562500D01*
X6732381Y-13533928D01*
X6741905Y-13524405D01*
X6903809Y-13619643D02*
X6903809Y-13752976D01*
X6856190Y-13543452D02*
X6808571Y-13686309D01*
X6932381Y-13686309D01*
X6989524Y-13552976D02*
X7113333Y-13552976D01*
X7046667Y-13629167D01*
X7075238Y-13629167D01*
X7094286Y-13638690D01*
X7103809Y-13648214D01*
X7113333Y-13667262D01*
X7113333Y-13714881D01*
X7103809Y-13733928D01*
X7094286Y-13743452D01*
X7075238Y-13752976D01*
X7018095Y-13752976D01*
X6999048Y-13743452D01*
X6989524Y-13733928D01*
X7351428Y-13752976D02*
X7351428Y-13552976D01*
X7437143Y-13752976D02*
X7437143Y-13648214D01*
X7427619Y-13629167D01*
X7408571Y-13619643D01*
X7380000Y-13619643D01*
X7360952Y-13629167D01*
X7351428Y-13638690D01*
X7560952Y-13752976D02*
X7541905Y-13743452D01*
X7532381Y-13733928D01*
X7522857Y-13714881D01*
X7522857Y-13657738D01*
X7532381Y-13638690D01*
X7541905Y-13629167D01*
X7560952Y-13619643D01*
X7589524Y-13619643D01*
X7608571Y-13629167D01*
X7618095Y-13638690D01*
X7627619Y-13657738D01*
X7627619Y-13714881D01*
X7618095Y-13733928D01*
X7608571Y-13743452D01*
X7589524Y-13752976D01*
X7560952Y-13752976D01*
X7741905Y-13752976D02*
X7722857Y-13743452D01*
X7713333Y-13724405D01*
X7713333Y-13552976D01*
X7894286Y-13743452D02*
X7875238Y-13752976D01*
X7837143Y-13752976D01*
X7818095Y-13743452D01*
X7808571Y-13724405D01*
X7808571Y-13648214D01*
X7818095Y-13629167D01*
X7837143Y-13619643D01*
X7875238Y-13619643D01*
X7894286Y-13629167D01*
X7903809Y-13648214D01*
X7903809Y-13667262D01*
X7808571Y-13686309D01*
X7980000Y-13743452D02*
X7999048Y-13752976D01*
X8037143Y-13752976D01*
X8056190Y-13743452D01*
X8065714Y-13724405D01*
X8065714Y-13714881D01*
X8056190Y-13695833D01*
X8037143Y-13686309D01*
X8008571Y-13686309D01*
X7989524Y-13676786D01*
X7980000Y-13657738D01*
X7980000Y-13648214D01*
X7989524Y-13629167D01*
X8008571Y-13619643D01*
X8037143Y-13619643D01*
X8056190Y-13629167D01*
X8132381Y-13829167D02*
X8141905Y-13819643D01*
X8160952Y-13791071D01*
X8170476Y-13772024D01*
X8180000Y-13743452D01*
X8189524Y-13695833D01*
X8189524Y-13657738D01*
X8180000Y-13610119D01*
X8170476Y-13581548D01*
X8160952Y-13562500D01*
X8141905Y-13533928D01*
X8132381Y-13524405D01*
D13*
X3170000Y-13926500D02*
G75*
G03*
X3170000Y-13926500I-40000J0D01*
G01*
D11*
X3465714Y-13816976D02*
X3484762Y-13816976D01*
X3503809Y-13826500D01*
X3513333Y-13836024D01*
X3522857Y-13855071D01*
X3532381Y-13893167D01*
X3532381Y-13940786D01*
X3522857Y-13978881D01*
X3513333Y-13997928D01*
X3503809Y-14007452D01*
X3484762Y-14016976D01*
X3465714Y-14016976D01*
X3446667Y-14007452D01*
X3437143Y-13997928D01*
X3427619Y-13978881D01*
X3418095Y-13940786D01*
X3418095Y-13893167D01*
X3427619Y-13855071D01*
X3437143Y-13836024D01*
X3446667Y-13826500D01*
X3465714Y-13816976D01*
X3618095Y-13997928D02*
X3627619Y-14007452D01*
X3618095Y-14016976D01*
X3608571Y-14007452D01*
X3618095Y-13997928D01*
X3618095Y-14016976D01*
X3741905Y-13902690D02*
X3722857Y-13893167D01*
X3713333Y-13883643D01*
X3703809Y-13864595D01*
X3703809Y-13855071D01*
X3713333Y-13836024D01*
X3722857Y-13826500D01*
X3741905Y-13816976D01*
X3780000Y-13816976D01*
X3799048Y-13826500D01*
X3808571Y-13836024D01*
X3818095Y-13855071D01*
X3818095Y-13864595D01*
X3808571Y-13883643D01*
X3799048Y-13893167D01*
X3780000Y-13902690D01*
X3741905Y-13902690D01*
X3722857Y-13912214D01*
X3713333Y-13921738D01*
X3703809Y-13940786D01*
X3703809Y-13978881D01*
X3713333Y-13997928D01*
X3722857Y-14007452D01*
X3741905Y-14016976D01*
X3780000Y-14016976D01*
X3799048Y-14007452D01*
X3808571Y-13997928D01*
X3818095Y-13978881D01*
X3818095Y-13940786D01*
X3808571Y-13921738D01*
X3799048Y-13912214D01*
X3780000Y-13902690D01*
X3941905Y-13816976D02*
X3960952Y-13816976D01*
X3980000Y-13826500D01*
X3989524Y-13836024D01*
X3999048Y-13855071D01*
X4008571Y-13893167D01*
X4008571Y-13940786D01*
X3999048Y-13978881D01*
X3989524Y-13997928D01*
X3980000Y-14007452D01*
X3960952Y-14016976D01*
X3941905Y-14016976D01*
X3922857Y-14007452D01*
X3913333Y-13997928D01*
X3903809Y-13978881D01*
X3894286Y-13940786D01*
X3894286Y-13893167D01*
X3903809Y-13855071D01*
X3913333Y-13836024D01*
X3922857Y-13826500D01*
X3941905Y-13816976D01*
X4132381Y-13816976D02*
X4151428Y-13816976D01*
X4170476Y-13826500D01*
X4180000Y-13836024D01*
X4189524Y-13855071D01*
X4199048Y-13893167D01*
X4199048Y-13940786D01*
X4189524Y-13978881D01*
X4180000Y-13997928D01*
X4170476Y-14007452D01*
X4151428Y-14016976D01*
X4132381Y-14016976D01*
X4113333Y-14007452D01*
X4103809Y-13997928D01*
X4094286Y-13978881D01*
X4084762Y-13940786D01*
X4084762Y-13893167D01*
X4094286Y-13855071D01*
X4103809Y-13836024D01*
X4113333Y-13826500D01*
X4132381Y-13816976D01*
X4284762Y-14016976D02*
X4284762Y-13883643D01*
X4284762Y-13902690D02*
X4294286Y-13893167D01*
X4313333Y-13883643D01*
X4341905Y-13883643D01*
X4360952Y-13893167D01*
X4370476Y-13912214D01*
X4370476Y-14016976D01*
X4370476Y-13912214D02*
X4380000Y-13893167D01*
X4399048Y-13883643D01*
X4427619Y-13883643D01*
X4446667Y-13893167D01*
X4456190Y-13912214D01*
X4456190Y-14016976D01*
X4551429Y-14016976D02*
X4551429Y-13883643D01*
X4551429Y-13902690D02*
X4560952Y-13893167D01*
X4580000Y-13883643D01*
X4608571Y-13883643D01*
X4627619Y-13893167D01*
X4637143Y-13912214D01*
X4637143Y-14016976D01*
X4637143Y-13912214D02*
X4646667Y-13893167D01*
X4665714Y-13883643D01*
X4694286Y-13883643D01*
X4713333Y-13893167D01*
X4722857Y-13912214D01*
X4722857Y-14016976D01*
X5113333Y-13807452D02*
X4941905Y-14064595D01*
X5370476Y-13816976D02*
X5389524Y-13816976D01*
X5408571Y-13826500D01*
X5418095Y-13836024D01*
X5427619Y-13855071D01*
X5437143Y-13893167D01*
X5437143Y-13940786D01*
X5427619Y-13978881D01*
X5418095Y-13997928D01*
X5408571Y-14007452D01*
X5389524Y-14016976D01*
X5370476Y-14016976D01*
X5351429Y-14007452D01*
X5341905Y-13997928D01*
X5332381Y-13978881D01*
X5322857Y-13940786D01*
X5322857Y-13893167D01*
X5332381Y-13855071D01*
X5341905Y-13836024D01*
X5351429Y-13826500D01*
X5370476Y-13816976D01*
X5522857Y-13997928D02*
X5532381Y-14007452D01*
X5522857Y-14016976D01*
X5513333Y-14007452D01*
X5522857Y-13997928D01*
X5522857Y-14016976D01*
X5656190Y-13816976D02*
X5675238Y-13816976D01*
X5694286Y-13826500D01*
X5703809Y-13836024D01*
X5713333Y-13855071D01*
X5722857Y-13893167D01*
X5722857Y-13940786D01*
X5713333Y-13978881D01*
X5703809Y-13997928D01*
X5694286Y-14007452D01*
X5675238Y-14016976D01*
X5656190Y-14016976D01*
X5637143Y-14007452D01*
X5627619Y-13997928D01*
X5618095Y-13978881D01*
X5608571Y-13940786D01*
X5608571Y-13893167D01*
X5618095Y-13855071D01*
X5627619Y-13836024D01*
X5637143Y-13826500D01*
X5656190Y-13816976D01*
X5789524Y-13816976D02*
X5913333Y-13816976D01*
X5846667Y-13893167D01*
X5875238Y-13893167D01*
X5894286Y-13902690D01*
X5903809Y-13912214D01*
X5913333Y-13931262D01*
X5913333Y-13978881D01*
X5903809Y-13997928D01*
X5894286Y-14007452D01*
X5875238Y-14016976D01*
X5818095Y-14016976D01*
X5799048Y-14007452D01*
X5789524Y-13997928D01*
X6103809Y-14016976D02*
X5989524Y-14016976D01*
X6046667Y-14016976D02*
X6046667Y-13816976D01*
X6027619Y-13845548D01*
X6008571Y-13864595D01*
X5989524Y-13874119D01*
X6284762Y-13816976D02*
X6189524Y-13816976D01*
X6180000Y-13912214D01*
X6189524Y-13902690D01*
X6208571Y-13893167D01*
X6256190Y-13893167D01*
X6275238Y-13902690D01*
X6284762Y-13912214D01*
X6294286Y-13931262D01*
X6294286Y-13978881D01*
X6284762Y-13997928D01*
X6275238Y-14007452D01*
X6256190Y-14016976D01*
X6208571Y-14016976D01*
X6189524Y-14007452D01*
X6180000Y-13997928D01*
X6370476Y-13816976D02*
X6370476Y-13855071D01*
X6446667Y-13816976D02*
X6446667Y-13855071D01*
X6741905Y-14093167D02*
X6732381Y-14083643D01*
X6713333Y-14055071D01*
X6703809Y-14036024D01*
X6694286Y-14007452D01*
X6684762Y-13959833D01*
X6684762Y-13921738D01*
X6694286Y-13874119D01*
X6703809Y-13845548D01*
X6713333Y-13826500D01*
X6732381Y-13797928D01*
X6741905Y-13788405D01*
X6856190Y-13816976D02*
X6875238Y-13816976D01*
X6894286Y-13826500D01*
X6903809Y-13836024D01*
X6913333Y-13855071D01*
X6922857Y-13893167D01*
X6922857Y-13940786D01*
X6913333Y-13978881D01*
X6903809Y-13997928D01*
X6894286Y-14007452D01*
X6875238Y-14016976D01*
X6856190Y-14016976D01*
X6837143Y-14007452D01*
X6827619Y-13997928D01*
X6818095Y-13978881D01*
X6808571Y-13940786D01*
X6808571Y-13893167D01*
X6818095Y-13855071D01*
X6827619Y-13836024D01*
X6837143Y-13826500D01*
X6856190Y-13816976D01*
X7160952Y-14016976D02*
X7160952Y-13816976D01*
X7246667Y-14016976D02*
X7246667Y-13912214D01*
X7237143Y-13893167D01*
X7218095Y-13883643D01*
X7189524Y-13883643D01*
X7170476Y-13893167D01*
X7160952Y-13902690D01*
X7370476Y-14016976D02*
X7351428Y-14007452D01*
X7341905Y-13997928D01*
X7332381Y-13978881D01*
X7332381Y-13921738D01*
X7341905Y-13902690D01*
X7351428Y-13893167D01*
X7370476Y-13883643D01*
X7399048Y-13883643D01*
X7418095Y-13893167D01*
X7427619Y-13902690D01*
X7437143Y-13921738D01*
X7437143Y-13978881D01*
X7427619Y-13997928D01*
X7418095Y-14007452D01*
X7399048Y-14016976D01*
X7370476Y-14016976D01*
X7551428Y-14016976D02*
X7532381Y-14007452D01*
X7522857Y-13988405D01*
X7522857Y-13816976D01*
X7703809Y-14007452D02*
X7684762Y-14016976D01*
X7646667Y-14016976D01*
X7627619Y-14007452D01*
X7618095Y-13988405D01*
X7618095Y-13912214D01*
X7627619Y-13893167D01*
X7646667Y-13883643D01*
X7684762Y-13883643D01*
X7703809Y-13893167D01*
X7713333Y-13912214D01*
X7713333Y-13931262D01*
X7618095Y-13950309D01*
X7789524Y-14007452D02*
X7808571Y-14016976D01*
X7846667Y-14016976D01*
X7865714Y-14007452D01*
X7875238Y-13988405D01*
X7875238Y-13978881D01*
X7865714Y-13959833D01*
X7846667Y-13950309D01*
X7818095Y-13950309D01*
X7799048Y-13940786D01*
X7789524Y-13921738D01*
X7789524Y-13912214D01*
X7799048Y-13893167D01*
X7818095Y-13883643D01*
X7846667Y-13883643D01*
X7865714Y-13893167D01*
X8113333Y-13940786D02*
X8265714Y-13940786D01*
X8189524Y-14016976D02*
X8189524Y-13864595D01*
X8599048Y-13883643D02*
X8599048Y-14016976D01*
X8551429Y-13807452D02*
X8503810Y-13950309D01*
X8627619Y-13950309D01*
X8789524Y-13816976D02*
X8751429Y-13816976D01*
X8732381Y-13826500D01*
X8722857Y-13836024D01*
X8703810Y-13864595D01*
X8694286Y-13902690D01*
X8694286Y-13978881D01*
X8703810Y-13997928D01*
X8713333Y-14007452D01*
X8732381Y-14016976D01*
X8770476Y-14016976D01*
X8789524Y-14007452D01*
X8799048Y-13997928D01*
X8808571Y-13978881D01*
X8808571Y-13931262D01*
X8799048Y-13912214D01*
X8789524Y-13902690D01*
X8770476Y-13893167D01*
X8732381Y-13893167D01*
X8713333Y-13902690D01*
X8703810Y-13912214D01*
X8694286Y-13931262D01*
X9037143Y-14007452D02*
X9056190Y-14016976D01*
X9094286Y-14016976D01*
X9113333Y-14007452D01*
X9122857Y-13988405D01*
X9122857Y-13978881D01*
X9113333Y-13959833D01*
X9094286Y-13950309D01*
X9065714Y-13950309D01*
X9046667Y-13940786D01*
X9037143Y-13921738D01*
X9037143Y-13912214D01*
X9046667Y-13893167D01*
X9065714Y-13883643D01*
X9094286Y-13883643D01*
X9113333Y-13893167D01*
X9237143Y-14016976D02*
X9218095Y-14007452D01*
X9208571Y-13988405D01*
X9208571Y-13816976D01*
X9341905Y-14016976D02*
X9322857Y-14007452D01*
X9313333Y-13997928D01*
X9303810Y-13978881D01*
X9303810Y-13921738D01*
X9313333Y-13902690D01*
X9322857Y-13893167D01*
X9341905Y-13883643D01*
X9370476Y-13883643D01*
X9389524Y-13893167D01*
X9399048Y-13902690D01*
X9408571Y-13921738D01*
X9408571Y-13978881D01*
X9399048Y-13997928D01*
X9389524Y-14007452D01*
X9370476Y-14016976D01*
X9341905Y-14016976D01*
X9465714Y-13883643D02*
X9541905Y-13883643D01*
X9494286Y-13816976D02*
X9494286Y-13988405D01*
X9503810Y-14007452D01*
X9522857Y-14016976D01*
X9541905Y-14016976D01*
X9599048Y-14007452D02*
X9618095Y-14016976D01*
X9656190Y-14016976D01*
X9675238Y-14007452D01*
X9684762Y-13988405D01*
X9684762Y-13978881D01*
X9675238Y-13959833D01*
X9656190Y-13950309D01*
X9627619Y-13950309D01*
X9608571Y-13940786D01*
X9599048Y-13921738D01*
X9599048Y-13912214D01*
X9608571Y-13893167D01*
X9627619Y-13883643D01*
X9656190Y-13883643D01*
X9675238Y-13893167D01*
X9751429Y-14093167D02*
X9760952Y-14083643D01*
X9780000Y-14055071D01*
X9789524Y-14036024D01*
X9799048Y-14007452D01*
X9808571Y-13959833D01*
X9808571Y-13921738D01*
X9799048Y-13874119D01*
X9789524Y-13845548D01*
X9780000Y-13826500D01*
X9760952Y-13797928D01*
X9751429Y-13788405D01*
D14*
X3129360Y-14149860D02*
X3129360Y-14231140D01*
X3088720Y-14190500D02*
X3170000Y-14190500D01*
D11*
X3465714Y-14080976D02*
X3484762Y-14080976D01*
X3503809Y-14090500D01*
X3513333Y-14100024D01*
X3522857Y-14119071D01*
X3532381Y-14157167D01*
X3532381Y-14204786D01*
X3522857Y-14242881D01*
X3513333Y-14261928D01*
X3503809Y-14271452D01*
X3484762Y-14280976D01*
X3465714Y-14280976D01*
X3446667Y-14271452D01*
X3437143Y-14261928D01*
X3427619Y-14242881D01*
X3418095Y-14204786D01*
X3418095Y-14157167D01*
X3427619Y-14119071D01*
X3437143Y-14100024D01*
X3446667Y-14090500D01*
X3465714Y-14080976D01*
X3618095Y-14261928D02*
X3627619Y-14271452D01*
X3618095Y-14280976D01*
X3608571Y-14271452D01*
X3618095Y-14261928D01*
X3618095Y-14280976D01*
X3741905Y-14166690D02*
X3722857Y-14157167D01*
X3713333Y-14147643D01*
X3703809Y-14128595D01*
X3703809Y-14119071D01*
X3713333Y-14100024D01*
X3722857Y-14090500D01*
X3741905Y-14080976D01*
X3780000Y-14080976D01*
X3799048Y-14090500D01*
X3808571Y-14100024D01*
X3818095Y-14119071D01*
X3818095Y-14128595D01*
X3808571Y-14147643D01*
X3799048Y-14157167D01*
X3780000Y-14166690D01*
X3741905Y-14166690D01*
X3722857Y-14176214D01*
X3713333Y-14185738D01*
X3703809Y-14204786D01*
X3703809Y-14242881D01*
X3713333Y-14261928D01*
X3722857Y-14271452D01*
X3741905Y-14280976D01*
X3780000Y-14280976D01*
X3799048Y-14271452D01*
X3808571Y-14261928D01*
X3818095Y-14242881D01*
X3818095Y-14204786D01*
X3808571Y-14185738D01*
X3799048Y-14176214D01*
X3780000Y-14166690D01*
X4008571Y-14280976D02*
X3894286Y-14280976D01*
X3951428Y-14280976D02*
X3951428Y-14080976D01*
X3932381Y-14109548D01*
X3913333Y-14128595D01*
X3894286Y-14138119D01*
X4075238Y-14080976D02*
X4199048Y-14080976D01*
X4132381Y-14157167D01*
X4160952Y-14157167D01*
X4180000Y-14166690D01*
X4189524Y-14176214D01*
X4199048Y-14195262D01*
X4199048Y-14242881D01*
X4189524Y-14261928D01*
X4180000Y-14271452D01*
X4160952Y-14280976D01*
X4103809Y-14280976D01*
X4084762Y-14271452D01*
X4075238Y-14261928D01*
X4284762Y-14280976D02*
X4284762Y-14147643D01*
X4284762Y-14166690D02*
X4294286Y-14157167D01*
X4313333Y-14147643D01*
X4341905Y-14147643D01*
X4360952Y-14157167D01*
X4370476Y-14176214D01*
X4370476Y-14280976D01*
X4370476Y-14176214D02*
X4380000Y-14157167D01*
X4399048Y-14147643D01*
X4427619Y-14147643D01*
X4446667Y-14157167D01*
X4456190Y-14176214D01*
X4456190Y-14280976D01*
X4551429Y-14280976D02*
X4551429Y-14147643D01*
X4551429Y-14166690D02*
X4560952Y-14157167D01*
X4580000Y-14147643D01*
X4608571Y-14147643D01*
X4627619Y-14157167D01*
X4637143Y-14176214D01*
X4637143Y-14280976D01*
X4637143Y-14176214D02*
X4646667Y-14157167D01*
X4665714Y-14147643D01*
X4694286Y-14147643D01*
X4713333Y-14157167D01*
X4722857Y-14176214D01*
X4722857Y-14280976D01*
X5113333Y-14071452D02*
X4941905Y-14328595D01*
X5370476Y-14080976D02*
X5389524Y-14080976D01*
X5408571Y-14090500D01*
X5418095Y-14100024D01*
X5427619Y-14119071D01*
X5437143Y-14157167D01*
X5437143Y-14204786D01*
X5427619Y-14242881D01*
X5418095Y-14261928D01*
X5408571Y-14271452D01*
X5389524Y-14280976D01*
X5370476Y-14280976D01*
X5351429Y-14271452D01*
X5341905Y-14261928D01*
X5332381Y-14242881D01*
X5322857Y-14204786D01*
X5322857Y-14157167D01*
X5332381Y-14119071D01*
X5341905Y-14100024D01*
X5351429Y-14090500D01*
X5370476Y-14080976D01*
X5522857Y-14261928D02*
X5532381Y-14271452D01*
X5522857Y-14280976D01*
X5513333Y-14271452D01*
X5522857Y-14261928D01*
X5522857Y-14280976D01*
X5656190Y-14080976D02*
X5675238Y-14080976D01*
X5694286Y-14090500D01*
X5703809Y-14100024D01*
X5713333Y-14119071D01*
X5722857Y-14157167D01*
X5722857Y-14204786D01*
X5713333Y-14242881D01*
X5703809Y-14261928D01*
X5694286Y-14271452D01*
X5675238Y-14280976D01*
X5656190Y-14280976D01*
X5637143Y-14271452D01*
X5627619Y-14261928D01*
X5618095Y-14242881D01*
X5608571Y-14204786D01*
X5608571Y-14157167D01*
X5618095Y-14119071D01*
X5627619Y-14100024D01*
X5637143Y-14090500D01*
X5656190Y-14080976D01*
X5789524Y-14080976D02*
X5913333Y-14080976D01*
X5846667Y-14157167D01*
X5875238Y-14157167D01*
X5894286Y-14166690D01*
X5903809Y-14176214D01*
X5913333Y-14195262D01*
X5913333Y-14242881D01*
X5903809Y-14261928D01*
X5894286Y-14271452D01*
X5875238Y-14280976D01*
X5818095Y-14280976D01*
X5799048Y-14271452D01*
X5789524Y-14261928D01*
X5989524Y-14100024D02*
X5999048Y-14090500D01*
X6018095Y-14080976D01*
X6065714Y-14080976D01*
X6084762Y-14090500D01*
X6094286Y-14100024D01*
X6103809Y-14119071D01*
X6103809Y-14138119D01*
X6094286Y-14166690D01*
X5980000Y-14280976D01*
X6103809Y-14280976D01*
X6227619Y-14080976D02*
X6246667Y-14080976D01*
X6265714Y-14090500D01*
X6275238Y-14100024D01*
X6284762Y-14119071D01*
X6294286Y-14157167D01*
X6294286Y-14204786D01*
X6284762Y-14242881D01*
X6275238Y-14261928D01*
X6265714Y-14271452D01*
X6246667Y-14280976D01*
X6227619Y-14280976D01*
X6208571Y-14271452D01*
X6199048Y-14261928D01*
X6189524Y-14242881D01*
X6180000Y-14204786D01*
X6180000Y-14157167D01*
X6189524Y-14119071D01*
X6199048Y-14100024D01*
X6208571Y-14090500D01*
X6227619Y-14080976D01*
X6370476Y-14080976D02*
X6370476Y-14119071D01*
X6446667Y-14080976D02*
X6446667Y-14119071D01*
X6741905Y-14357167D02*
X6732381Y-14347643D01*
X6713333Y-14319071D01*
X6703809Y-14300024D01*
X6694286Y-14271452D01*
X6684762Y-14223833D01*
X6684762Y-14185738D01*
X6694286Y-14138119D01*
X6703809Y-14109548D01*
X6713333Y-14090500D01*
X6732381Y-14061928D01*
X6741905Y-14052405D01*
X6903809Y-14080976D02*
X6865714Y-14080976D01*
X6846667Y-14090500D01*
X6837143Y-14100024D01*
X6818095Y-14128595D01*
X6808571Y-14166690D01*
X6808571Y-14242881D01*
X6818095Y-14261928D01*
X6827619Y-14271452D01*
X6846667Y-14280976D01*
X6884762Y-14280976D01*
X6903809Y-14271452D01*
X6913333Y-14261928D01*
X6922857Y-14242881D01*
X6922857Y-14195262D01*
X6913333Y-14176214D01*
X6903809Y-14166690D01*
X6884762Y-14157167D01*
X6846667Y-14157167D01*
X6827619Y-14166690D01*
X6818095Y-14176214D01*
X6808571Y-14195262D01*
X6999048Y-14100024D02*
X7008571Y-14090500D01*
X7027619Y-14080976D01*
X7075238Y-14080976D01*
X7094286Y-14090500D01*
X7103809Y-14100024D01*
X7113333Y-14119071D01*
X7113333Y-14138119D01*
X7103809Y-14166690D01*
X6989524Y-14280976D01*
X7113333Y-14280976D01*
X7351428Y-14280976D02*
X7351428Y-14080976D01*
X7437143Y-14280976D02*
X7437143Y-14176214D01*
X7427619Y-14157167D01*
X7408571Y-14147643D01*
X7380000Y-14147643D01*
X7360952Y-14157167D01*
X7351428Y-14166690D01*
X7560952Y-14280976D02*
X7541905Y-14271452D01*
X7532381Y-14261928D01*
X7522857Y-14242881D01*
X7522857Y-14185738D01*
X7532381Y-14166690D01*
X7541905Y-14157167D01*
X7560952Y-14147643D01*
X7589524Y-14147643D01*
X7608571Y-14157167D01*
X7618095Y-14166690D01*
X7627619Y-14185738D01*
X7627619Y-14242881D01*
X7618095Y-14261928D01*
X7608571Y-14271452D01*
X7589524Y-14280976D01*
X7560952Y-14280976D01*
X7741905Y-14280976D02*
X7722857Y-14271452D01*
X7713333Y-14252405D01*
X7713333Y-14080976D01*
X7894286Y-14271452D02*
X7875238Y-14280976D01*
X7837143Y-14280976D01*
X7818095Y-14271452D01*
X7808571Y-14252405D01*
X7808571Y-14176214D01*
X7818095Y-14157167D01*
X7837143Y-14147643D01*
X7875238Y-14147643D01*
X7894286Y-14157167D01*
X7903809Y-14176214D01*
X7903809Y-14195262D01*
X7808571Y-14214309D01*
X7980000Y-14271452D02*
X7999048Y-14280976D01*
X8037143Y-14280976D01*
X8056190Y-14271452D01*
X8065714Y-14252405D01*
X8065714Y-14242881D01*
X8056190Y-14223833D01*
X8037143Y-14214309D01*
X8008571Y-14214309D01*
X7989524Y-14204786D01*
X7980000Y-14185738D01*
X7980000Y-14176214D01*
X7989524Y-14157167D01*
X8008571Y-14147643D01*
X8037143Y-14147643D01*
X8056190Y-14157167D01*
X8132381Y-14357167D02*
X8141905Y-14347643D01*
X8160952Y-14319071D01*
X8170476Y-14300024D01*
X8180000Y-14271452D01*
X8189524Y-14223833D01*
X8189524Y-14185738D01*
X8180000Y-14138119D01*
X8170476Y-14109548D01*
X8160952Y-14090500D01*
X8141905Y-14061928D01*
X8132381Y-14052405D01*
D10*
X3155356Y-14489856D02*
X3155356Y-14419144D01*
X3084644Y-14419144D01*
X3084644Y-14489856D01*
X3155356Y-14489856D01*
D11*
X3532381Y-14544976D02*
X3418095Y-14544976D01*
X3475238Y-14544976D02*
X3475238Y-14344976D01*
X3456190Y-14373548D01*
X3437143Y-14392595D01*
X3418095Y-14402119D01*
X3618095Y-14525928D02*
X3627619Y-14535452D01*
X3618095Y-14544976D01*
X3608571Y-14535452D01*
X3618095Y-14525928D01*
X3618095Y-14544976D01*
X3751428Y-14344976D02*
X3770476Y-14344976D01*
X3789524Y-14354500D01*
X3799048Y-14364024D01*
X3808571Y-14383071D01*
X3818095Y-14421167D01*
X3818095Y-14468786D01*
X3808571Y-14506881D01*
X3799048Y-14525928D01*
X3789524Y-14535452D01*
X3770476Y-14544976D01*
X3751428Y-14544976D01*
X3732381Y-14535452D01*
X3722857Y-14525928D01*
X3713333Y-14506881D01*
X3703809Y-14468786D01*
X3703809Y-14421167D01*
X3713333Y-14383071D01*
X3722857Y-14364024D01*
X3732381Y-14354500D01*
X3751428Y-14344976D01*
X3941905Y-14344976D02*
X3960952Y-14344976D01*
X3980000Y-14354500D01*
X3989524Y-14364024D01*
X3999048Y-14383071D01*
X4008571Y-14421167D01*
X4008571Y-14468786D01*
X3999048Y-14506881D01*
X3989524Y-14525928D01*
X3980000Y-14535452D01*
X3960952Y-14544976D01*
X3941905Y-14544976D01*
X3922857Y-14535452D01*
X3913333Y-14525928D01*
X3903809Y-14506881D01*
X3894286Y-14468786D01*
X3894286Y-14421167D01*
X3903809Y-14383071D01*
X3913333Y-14364024D01*
X3922857Y-14354500D01*
X3941905Y-14344976D01*
X4132381Y-14344976D02*
X4151428Y-14344976D01*
X4170476Y-14354500D01*
X4180000Y-14364024D01*
X4189524Y-14383071D01*
X4199048Y-14421167D01*
X4199048Y-14468786D01*
X4189524Y-14506881D01*
X4180000Y-14525928D01*
X4170476Y-14535452D01*
X4151428Y-14544976D01*
X4132381Y-14544976D01*
X4113333Y-14535452D01*
X4103809Y-14525928D01*
X4094286Y-14506881D01*
X4084762Y-14468786D01*
X4084762Y-14421167D01*
X4094286Y-14383071D01*
X4103809Y-14364024D01*
X4113333Y-14354500D01*
X4132381Y-14344976D01*
X4284762Y-14544976D02*
X4284762Y-14411643D01*
X4284762Y-14430690D02*
X4294286Y-14421167D01*
X4313333Y-14411643D01*
X4341905Y-14411643D01*
X4360952Y-14421167D01*
X4370476Y-14440214D01*
X4370476Y-14544976D01*
X4370476Y-14440214D02*
X4380000Y-14421167D01*
X4399048Y-14411643D01*
X4427619Y-14411643D01*
X4446667Y-14421167D01*
X4456190Y-14440214D01*
X4456190Y-14544976D01*
X4551429Y-14544976D02*
X4551429Y-14411643D01*
X4551429Y-14430690D02*
X4560952Y-14421167D01*
X4580000Y-14411643D01*
X4608571Y-14411643D01*
X4627619Y-14421167D01*
X4637143Y-14440214D01*
X4637143Y-14544976D01*
X4637143Y-14440214D02*
X4646667Y-14421167D01*
X4665714Y-14411643D01*
X4694286Y-14411643D01*
X4713333Y-14421167D01*
X4722857Y-14440214D01*
X4722857Y-14544976D01*
X5113333Y-14335452D02*
X4941905Y-14592595D01*
X5370476Y-14344976D02*
X5389524Y-14344976D01*
X5408571Y-14354500D01*
X5418095Y-14364024D01*
X5427619Y-14383071D01*
X5437143Y-14421167D01*
X5437143Y-14468786D01*
X5427619Y-14506881D01*
X5418095Y-14525928D01*
X5408571Y-14535452D01*
X5389524Y-14544976D01*
X5370476Y-14544976D01*
X5351429Y-14535452D01*
X5341905Y-14525928D01*
X5332381Y-14506881D01*
X5322857Y-14468786D01*
X5322857Y-14421167D01*
X5332381Y-14383071D01*
X5341905Y-14364024D01*
X5351429Y-14354500D01*
X5370476Y-14344976D01*
X5522857Y-14525928D02*
X5532381Y-14535452D01*
X5522857Y-14544976D01*
X5513333Y-14535452D01*
X5522857Y-14525928D01*
X5522857Y-14544976D01*
X5656190Y-14344976D02*
X5675238Y-14344976D01*
X5694286Y-14354500D01*
X5703809Y-14364024D01*
X5713333Y-14383071D01*
X5722857Y-14421167D01*
X5722857Y-14468786D01*
X5713333Y-14506881D01*
X5703809Y-14525928D01*
X5694286Y-14535452D01*
X5675238Y-14544976D01*
X5656190Y-14544976D01*
X5637143Y-14535452D01*
X5627619Y-14525928D01*
X5618095Y-14506881D01*
X5608571Y-14468786D01*
X5608571Y-14421167D01*
X5618095Y-14383071D01*
X5627619Y-14364024D01*
X5637143Y-14354500D01*
X5656190Y-14344976D01*
X5789524Y-14344976D02*
X5913333Y-14344976D01*
X5846667Y-14421167D01*
X5875238Y-14421167D01*
X5894286Y-14430690D01*
X5903809Y-14440214D01*
X5913333Y-14459262D01*
X5913333Y-14506881D01*
X5903809Y-14525928D01*
X5894286Y-14535452D01*
X5875238Y-14544976D01*
X5818095Y-14544976D01*
X5799048Y-14535452D01*
X5789524Y-14525928D01*
X6008571Y-14544976D02*
X6046667Y-14544976D01*
X6065714Y-14535452D01*
X6075238Y-14525928D01*
X6094286Y-14497357D01*
X6103809Y-14459262D01*
X6103809Y-14383071D01*
X6094286Y-14364024D01*
X6084762Y-14354500D01*
X6065714Y-14344976D01*
X6027619Y-14344976D01*
X6008571Y-14354500D01*
X5999048Y-14364024D01*
X5989524Y-14383071D01*
X5989524Y-14430690D01*
X5999048Y-14449738D01*
X6008571Y-14459262D01*
X6027619Y-14468786D01*
X6065714Y-14468786D01*
X6084762Y-14459262D01*
X6094286Y-14449738D01*
X6103809Y-14430690D01*
X6275238Y-14411643D02*
X6275238Y-14544976D01*
X6227619Y-14335452D02*
X6180000Y-14478309D01*
X6303809Y-14478309D01*
X6370476Y-14344976D02*
X6370476Y-14383071D01*
X6446667Y-14344976D02*
X6446667Y-14383071D01*
X6741905Y-14621167D02*
X6732381Y-14611643D01*
X6713333Y-14583071D01*
X6703809Y-14564024D01*
X6694286Y-14535452D01*
X6684762Y-14487833D01*
X6684762Y-14449738D01*
X6694286Y-14402119D01*
X6703809Y-14373548D01*
X6713333Y-14354500D01*
X6732381Y-14325928D01*
X6741905Y-14316405D01*
X6922857Y-14544976D02*
X6808571Y-14544976D01*
X6865714Y-14544976D02*
X6865714Y-14344976D01*
X6846667Y-14373548D01*
X6827619Y-14392595D01*
X6808571Y-14402119D01*
X7046667Y-14344976D02*
X7065714Y-14344976D01*
X7084762Y-14354500D01*
X7094286Y-14364024D01*
X7103809Y-14383071D01*
X7113333Y-14421167D01*
X7113333Y-14468786D01*
X7103809Y-14506881D01*
X7094286Y-14525928D01*
X7084762Y-14535452D01*
X7065714Y-14544976D01*
X7046667Y-14544976D01*
X7027619Y-14535452D01*
X7018095Y-14525928D01*
X7008571Y-14506881D01*
X6999048Y-14468786D01*
X6999048Y-14421167D01*
X7008571Y-14383071D01*
X7018095Y-14364024D01*
X7027619Y-14354500D01*
X7046667Y-14344976D01*
X7351428Y-14544976D02*
X7351428Y-14344976D01*
X7437143Y-14544976D02*
X7437143Y-14440214D01*
X7427619Y-14421167D01*
X7408571Y-14411643D01*
X7380000Y-14411643D01*
X7360952Y-14421167D01*
X7351428Y-14430690D01*
X7560952Y-14544976D02*
X7541905Y-14535452D01*
X7532381Y-14525928D01*
X7522857Y-14506881D01*
X7522857Y-14449738D01*
X7532381Y-14430690D01*
X7541905Y-14421167D01*
X7560952Y-14411643D01*
X7589524Y-14411643D01*
X7608571Y-14421167D01*
X7618095Y-14430690D01*
X7627619Y-14449738D01*
X7627619Y-14506881D01*
X7618095Y-14525928D01*
X7608571Y-14535452D01*
X7589524Y-14544976D01*
X7560952Y-14544976D01*
X7741905Y-14544976D02*
X7722857Y-14535452D01*
X7713333Y-14516405D01*
X7713333Y-14344976D01*
X7894286Y-14535452D02*
X7875238Y-14544976D01*
X7837143Y-14544976D01*
X7818095Y-14535452D01*
X7808571Y-14516405D01*
X7808571Y-14440214D01*
X7818095Y-14421167D01*
X7837143Y-14411643D01*
X7875238Y-14411643D01*
X7894286Y-14421167D01*
X7903809Y-14440214D01*
X7903809Y-14459262D01*
X7808571Y-14478309D01*
X7980000Y-14535452D02*
X7999048Y-14544976D01*
X8037143Y-14544976D01*
X8056190Y-14535452D01*
X8065714Y-14516405D01*
X8065714Y-14506881D01*
X8056190Y-14487833D01*
X8037143Y-14478309D01*
X8008571Y-14478309D01*
X7989524Y-14468786D01*
X7980000Y-14449738D01*
X7980000Y-14440214D01*
X7989524Y-14421167D01*
X8008571Y-14411643D01*
X8037143Y-14411643D01*
X8056190Y-14421167D01*
X8132381Y-14621167D02*
X8141905Y-14611643D01*
X8160952Y-14583071D01*
X8170476Y-14564024D01*
X8180000Y-14535452D01*
X8189524Y-14487833D01*
X8189524Y-14449738D01*
X8180000Y-14402119D01*
X8170476Y-14373548D01*
X8160952Y-14354500D01*
X8141905Y-14325928D01*
X8132381Y-14316405D01*
D15*
X3115390Y-14773110D02*
X3170000Y-14718500D01*
X3115390Y-14663890D01*
X3060780Y-14718500D01*
X3115390Y-14773110D01*
D11*
X3532381Y-14808976D02*
X3418095Y-14808976D01*
X3475238Y-14808976D02*
X3475238Y-14608976D01*
X3456190Y-14637548D01*
X3437143Y-14656595D01*
X3418095Y-14666119D01*
X3618095Y-14789928D02*
X3627619Y-14799452D01*
X3618095Y-14808976D01*
X3608571Y-14799452D01*
X3618095Y-14789928D01*
X3618095Y-14808976D01*
X3751428Y-14608976D02*
X3770476Y-14608976D01*
X3789524Y-14618500D01*
X3799048Y-14628024D01*
X3808571Y-14647071D01*
X3818095Y-14685167D01*
X3818095Y-14732786D01*
X3808571Y-14770881D01*
X3799048Y-14789928D01*
X3789524Y-14799452D01*
X3770476Y-14808976D01*
X3751428Y-14808976D01*
X3732381Y-14799452D01*
X3722857Y-14789928D01*
X3713333Y-14770881D01*
X3703809Y-14732786D01*
X3703809Y-14685167D01*
X3713333Y-14647071D01*
X3722857Y-14628024D01*
X3732381Y-14618500D01*
X3751428Y-14608976D01*
X3913333Y-14808976D02*
X3951428Y-14808976D01*
X3970476Y-14799452D01*
X3980000Y-14789928D01*
X3999048Y-14761357D01*
X4008571Y-14723262D01*
X4008571Y-14647071D01*
X3999048Y-14628024D01*
X3989524Y-14618500D01*
X3970476Y-14608976D01*
X3932381Y-14608976D01*
X3913333Y-14618500D01*
X3903809Y-14628024D01*
X3894286Y-14647071D01*
X3894286Y-14694690D01*
X3903809Y-14713738D01*
X3913333Y-14723262D01*
X3932381Y-14732786D01*
X3970476Y-14732786D01*
X3989524Y-14723262D01*
X3999048Y-14713738D01*
X4008571Y-14694690D01*
X4084762Y-14628024D02*
X4094286Y-14618500D01*
X4113333Y-14608976D01*
X4160952Y-14608976D01*
X4180000Y-14618500D01*
X4189524Y-14628024D01*
X4199048Y-14647071D01*
X4199048Y-14666119D01*
X4189524Y-14694690D01*
X4075238Y-14808976D01*
X4199048Y-14808976D01*
X4284762Y-14808976D02*
X4284762Y-14675643D01*
X4284762Y-14694690D02*
X4294286Y-14685167D01*
X4313333Y-14675643D01*
X4341905Y-14675643D01*
X4360952Y-14685167D01*
X4370476Y-14704214D01*
X4370476Y-14808976D01*
X4370476Y-14704214D02*
X4380000Y-14685167D01*
X4399048Y-14675643D01*
X4427619Y-14675643D01*
X4446667Y-14685167D01*
X4456190Y-14704214D01*
X4456190Y-14808976D01*
X4551429Y-14808976D02*
X4551429Y-14675643D01*
X4551429Y-14694690D02*
X4560952Y-14685167D01*
X4580000Y-14675643D01*
X4608571Y-14675643D01*
X4627619Y-14685167D01*
X4637143Y-14704214D01*
X4637143Y-14808976D01*
X4637143Y-14704214D02*
X4646667Y-14685167D01*
X4665714Y-14675643D01*
X4694286Y-14675643D01*
X4713333Y-14685167D01*
X4722857Y-14704214D01*
X4722857Y-14808976D01*
X5113333Y-14599452D02*
X4941905Y-14856595D01*
X5370476Y-14608976D02*
X5389524Y-14608976D01*
X5408571Y-14618500D01*
X5418095Y-14628024D01*
X5427619Y-14647071D01*
X5437143Y-14685167D01*
X5437143Y-14732786D01*
X5427619Y-14770881D01*
X5418095Y-14789928D01*
X5408571Y-14799452D01*
X5389524Y-14808976D01*
X5370476Y-14808976D01*
X5351429Y-14799452D01*
X5341905Y-14789928D01*
X5332381Y-14770881D01*
X5322857Y-14732786D01*
X5322857Y-14685167D01*
X5332381Y-14647071D01*
X5341905Y-14628024D01*
X5351429Y-14618500D01*
X5370476Y-14608976D01*
X5522857Y-14789928D02*
X5532381Y-14799452D01*
X5522857Y-14808976D01*
X5513333Y-14799452D01*
X5522857Y-14789928D01*
X5522857Y-14808976D01*
X5656190Y-14608976D02*
X5675238Y-14608976D01*
X5694286Y-14618500D01*
X5703809Y-14628024D01*
X5713333Y-14647071D01*
X5722857Y-14685167D01*
X5722857Y-14732786D01*
X5713333Y-14770881D01*
X5703809Y-14789928D01*
X5694286Y-14799452D01*
X5675238Y-14808976D01*
X5656190Y-14808976D01*
X5637143Y-14799452D01*
X5627619Y-14789928D01*
X5618095Y-14770881D01*
X5608571Y-14732786D01*
X5608571Y-14685167D01*
X5618095Y-14647071D01*
X5627619Y-14628024D01*
X5637143Y-14618500D01*
X5656190Y-14608976D01*
X5894286Y-14675643D02*
X5894286Y-14808976D01*
X5846667Y-14599452D02*
X5799048Y-14742309D01*
X5922857Y-14742309D01*
X5980000Y-14608976D02*
X6103809Y-14608976D01*
X6037143Y-14685167D01*
X6065714Y-14685167D01*
X6084762Y-14694690D01*
X6094286Y-14704214D01*
X6103809Y-14723262D01*
X6103809Y-14770881D01*
X6094286Y-14789928D01*
X6084762Y-14799452D01*
X6065714Y-14808976D01*
X6008571Y-14808976D01*
X5989524Y-14799452D01*
X5980000Y-14789928D01*
X6227619Y-14608976D02*
X6246667Y-14608976D01*
X6265714Y-14618500D01*
X6275238Y-14628024D01*
X6284762Y-14647071D01*
X6294286Y-14685167D01*
X6294286Y-14732786D01*
X6284762Y-14770881D01*
X6275238Y-14789928D01*
X6265714Y-14799452D01*
X6246667Y-14808976D01*
X6227619Y-14808976D01*
X6208571Y-14799452D01*
X6199048Y-14789928D01*
X6189524Y-14770881D01*
X6180000Y-14732786D01*
X6180000Y-14685167D01*
X6189524Y-14647071D01*
X6199048Y-14628024D01*
X6208571Y-14618500D01*
X6227619Y-14608976D01*
X6370476Y-14608976D02*
X6370476Y-14647071D01*
X6446667Y-14608976D02*
X6446667Y-14647071D01*
X6741905Y-14885167D02*
X6732381Y-14875643D01*
X6713333Y-14847071D01*
X6703809Y-14828024D01*
X6694286Y-14799452D01*
X6684762Y-14751833D01*
X6684762Y-14713738D01*
X6694286Y-14666119D01*
X6703809Y-14637548D01*
X6713333Y-14618500D01*
X6732381Y-14589928D01*
X6741905Y-14580405D01*
X6808571Y-14628024D02*
X6818095Y-14618500D01*
X6837143Y-14608976D01*
X6884762Y-14608976D01*
X6903809Y-14618500D01*
X6913333Y-14628024D01*
X6922857Y-14647071D01*
X6922857Y-14666119D01*
X6913333Y-14694690D01*
X6799048Y-14808976D01*
X6922857Y-14808976D01*
X7094286Y-14675643D02*
X7094286Y-14808976D01*
X7046667Y-14599452D02*
X6999048Y-14742309D01*
X7122857Y-14742309D01*
X7351428Y-14808976D02*
X7351428Y-14608976D01*
X7437143Y-14808976D02*
X7437143Y-14704214D01*
X7427619Y-14685167D01*
X7408571Y-14675643D01*
X7380000Y-14675643D01*
X7360952Y-14685167D01*
X7351428Y-14694690D01*
X7560952Y-14808976D02*
X7541905Y-14799452D01*
X7532381Y-14789928D01*
X7522857Y-14770881D01*
X7522857Y-14713738D01*
X7532381Y-14694690D01*
X7541905Y-14685167D01*
X7560952Y-14675643D01*
X7589524Y-14675643D01*
X7608571Y-14685167D01*
X7618095Y-14694690D01*
X7627619Y-14713738D01*
X7627619Y-14770881D01*
X7618095Y-14789928D01*
X7608571Y-14799452D01*
X7589524Y-14808976D01*
X7560952Y-14808976D01*
X7741905Y-14808976D02*
X7722857Y-14799452D01*
X7713333Y-14780405D01*
X7713333Y-14608976D01*
X7894286Y-14799452D02*
X7875238Y-14808976D01*
X7837143Y-14808976D01*
X7818095Y-14799452D01*
X7808571Y-14780405D01*
X7808571Y-14704214D01*
X7818095Y-14685167D01*
X7837143Y-14675643D01*
X7875238Y-14675643D01*
X7894286Y-14685167D01*
X7903809Y-14704214D01*
X7903809Y-14723262D01*
X7808571Y-14742309D01*
X7980000Y-14799452D02*
X7999048Y-14808976D01*
X8037143Y-14808976D01*
X8056190Y-14799452D01*
X8065714Y-14780405D01*
X8065714Y-14770881D01*
X8056190Y-14751833D01*
X8037143Y-14742309D01*
X8008571Y-14742309D01*
X7989524Y-14732786D01*
X7980000Y-14713738D01*
X7980000Y-14704214D01*
X7989524Y-14685167D01*
X8008571Y-14675643D01*
X8037143Y-14675643D01*
X8056190Y-14685167D01*
X8132381Y-14885167D02*
X8141905Y-14875643D01*
X8160952Y-14847071D01*
X8170476Y-14828024D01*
X8180000Y-14799452D01*
X8189524Y-14751833D01*
X8189524Y-14713738D01*
X8180000Y-14666119D01*
X8170476Y-14637548D01*
X8160952Y-14618500D01*
X8141905Y-14589928D01*
X8132381Y-14580405D01*
D16*
X3040000Y-14917500D02*
X3170000Y-15047500D01*
X3170000Y-14917500D02*
X3040000Y-15047500D01*
X3170000Y-14982500D02*
G75*
G03*
X3170000Y-14982500I-65000J0D01*
G01*
D11*
X3532381Y-15072976D02*
X3418095Y-15072976D01*
X3475238Y-15072976D02*
X3475238Y-14872976D01*
X3456190Y-14901548D01*
X3437143Y-14920595D01*
X3418095Y-14930119D01*
X3618095Y-15053928D02*
X3627619Y-15063452D01*
X3618095Y-15072976D01*
X3608571Y-15063452D01*
X3618095Y-15053928D01*
X3618095Y-15072976D01*
X3694286Y-14872976D02*
X3818095Y-14872976D01*
X3751428Y-14949167D01*
X3780000Y-14949167D01*
X3799048Y-14958690D01*
X3808571Y-14968214D01*
X3818095Y-14987262D01*
X3818095Y-15034881D01*
X3808571Y-15053928D01*
X3799048Y-15063452D01*
X3780000Y-15072976D01*
X3722857Y-15072976D01*
X3703809Y-15063452D01*
X3694286Y-15053928D01*
X3941905Y-14872976D02*
X3960952Y-14872976D01*
X3980000Y-14882500D01*
X3989524Y-14892024D01*
X3999048Y-14911071D01*
X4008571Y-14949167D01*
X4008571Y-14996786D01*
X3999048Y-15034881D01*
X3989524Y-15053928D01*
X3980000Y-15063452D01*
X3960952Y-15072976D01*
X3941905Y-15072976D01*
X3922857Y-15063452D01*
X3913333Y-15053928D01*
X3903809Y-15034881D01*
X3894286Y-14996786D01*
X3894286Y-14949167D01*
X3903809Y-14911071D01*
X3913333Y-14892024D01*
X3922857Y-14882500D01*
X3941905Y-14872976D01*
X4132381Y-14872976D02*
X4151428Y-14872976D01*
X4170476Y-14882500D01*
X4180000Y-14892024D01*
X4189524Y-14911071D01*
X4199048Y-14949167D01*
X4199048Y-14996786D01*
X4189524Y-15034881D01*
X4180000Y-15053928D01*
X4170476Y-15063452D01*
X4151428Y-15072976D01*
X4132381Y-15072976D01*
X4113333Y-15063452D01*
X4103809Y-15053928D01*
X4094286Y-15034881D01*
X4084762Y-14996786D01*
X4084762Y-14949167D01*
X4094286Y-14911071D01*
X4103809Y-14892024D01*
X4113333Y-14882500D01*
X4132381Y-14872976D01*
X4284762Y-15072976D02*
X4284762Y-14939643D01*
X4284762Y-14958690D02*
X4294286Y-14949167D01*
X4313333Y-14939643D01*
X4341905Y-14939643D01*
X4360952Y-14949167D01*
X4370476Y-14968214D01*
X4370476Y-15072976D01*
X4370476Y-14968214D02*
X4380000Y-14949167D01*
X4399048Y-14939643D01*
X4427619Y-14939643D01*
X4446667Y-14949167D01*
X4456190Y-14968214D01*
X4456190Y-15072976D01*
X4551429Y-15072976D02*
X4551429Y-14939643D01*
X4551429Y-14958690D02*
X4560952Y-14949167D01*
X4580000Y-14939643D01*
X4608571Y-14939643D01*
X4627619Y-14949167D01*
X4637143Y-14968214D01*
X4637143Y-15072976D01*
X4637143Y-14968214D02*
X4646667Y-14949167D01*
X4665714Y-14939643D01*
X4694286Y-14939643D01*
X4713333Y-14949167D01*
X4722857Y-14968214D01*
X4722857Y-15072976D01*
X5113333Y-14863452D02*
X4941905Y-15120595D01*
X5370476Y-14872976D02*
X5389524Y-14872976D01*
X5408571Y-14882500D01*
X5418095Y-14892024D01*
X5427619Y-14911071D01*
X5437143Y-14949167D01*
X5437143Y-14996786D01*
X5427619Y-15034881D01*
X5418095Y-15053928D01*
X5408571Y-15063452D01*
X5389524Y-15072976D01*
X5370476Y-15072976D01*
X5351429Y-15063452D01*
X5341905Y-15053928D01*
X5332381Y-15034881D01*
X5322857Y-14996786D01*
X5322857Y-14949167D01*
X5332381Y-14911071D01*
X5341905Y-14892024D01*
X5351429Y-14882500D01*
X5370476Y-14872976D01*
X5522857Y-15053928D02*
X5532381Y-15063452D01*
X5522857Y-15072976D01*
X5513333Y-15063452D01*
X5522857Y-15053928D01*
X5522857Y-15072976D01*
X5656190Y-14872976D02*
X5675238Y-14872976D01*
X5694286Y-14882500D01*
X5703809Y-14892024D01*
X5713333Y-14911071D01*
X5722857Y-14949167D01*
X5722857Y-14996786D01*
X5713333Y-15034881D01*
X5703809Y-15053928D01*
X5694286Y-15063452D01*
X5675238Y-15072976D01*
X5656190Y-15072976D01*
X5637143Y-15063452D01*
X5627619Y-15053928D01*
X5618095Y-15034881D01*
X5608571Y-14996786D01*
X5608571Y-14949167D01*
X5618095Y-14911071D01*
X5627619Y-14892024D01*
X5637143Y-14882500D01*
X5656190Y-14872976D01*
X5903809Y-14872976D02*
X5808571Y-14872976D01*
X5799048Y-14968214D01*
X5808571Y-14958690D01*
X5827619Y-14949167D01*
X5875238Y-14949167D01*
X5894286Y-14958690D01*
X5903809Y-14968214D01*
X5913333Y-14987262D01*
X5913333Y-15034881D01*
X5903809Y-15053928D01*
X5894286Y-15063452D01*
X5875238Y-15072976D01*
X5827619Y-15072976D01*
X5808571Y-15063452D01*
X5799048Y-15053928D01*
X6103809Y-15072976D02*
X5989524Y-15072976D01*
X6046667Y-15072976D02*
X6046667Y-14872976D01*
X6027619Y-14901548D01*
X6008571Y-14920595D01*
X5989524Y-14930119D01*
X6180000Y-14892024D02*
X6189524Y-14882500D01*
X6208571Y-14872976D01*
X6256190Y-14872976D01*
X6275238Y-14882500D01*
X6284762Y-14892024D01*
X6294286Y-14911071D01*
X6294286Y-14930119D01*
X6284762Y-14958690D01*
X6170476Y-15072976D01*
X6294286Y-15072976D01*
X6370476Y-14872976D02*
X6370476Y-14911071D01*
X6446667Y-14872976D02*
X6446667Y-14911071D01*
X6741905Y-15149167D02*
X6732381Y-15139643D01*
X6713333Y-15111071D01*
X6703809Y-15092024D01*
X6694286Y-15063452D01*
X6684762Y-15015833D01*
X6684762Y-14977738D01*
X6694286Y-14930119D01*
X6703809Y-14901548D01*
X6713333Y-14882500D01*
X6732381Y-14853928D01*
X6741905Y-14844405D01*
X6808571Y-14892024D02*
X6818095Y-14882500D01*
X6837143Y-14872976D01*
X6884762Y-14872976D01*
X6903809Y-14882500D01*
X6913333Y-14892024D01*
X6922857Y-14911071D01*
X6922857Y-14930119D01*
X6913333Y-14958690D01*
X6799048Y-15072976D01*
X6922857Y-15072976D01*
X7160952Y-15072976D02*
X7160952Y-14872976D01*
X7246667Y-15072976D02*
X7246667Y-14968214D01*
X7237143Y-14949167D01*
X7218095Y-14939643D01*
X7189524Y-14939643D01*
X7170476Y-14949167D01*
X7160952Y-14958690D01*
X7370476Y-15072976D02*
X7351428Y-15063452D01*
X7341905Y-15053928D01*
X7332381Y-15034881D01*
X7332381Y-14977738D01*
X7341905Y-14958690D01*
X7351428Y-14949167D01*
X7370476Y-14939643D01*
X7399048Y-14939643D01*
X7418095Y-14949167D01*
X7427619Y-14958690D01*
X7437143Y-14977738D01*
X7437143Y-15034881D01*
X7427619Y-15053928D01*
X7418095Y-15063452D01*
X7399048Y-15072976D01*
X7370476Y-15072976D01*
X7551428Y-15072976D02*
X7532381Y-15063452D01*
X7522857Y-15044405D01*
X7522857Y-14872976D01*
X7703809Y-15063452D02*
X7684762Y-15072976D01*
X7646667Y-15072976D01*
X7627619Y-15063452D01*
X7618095Y-15044405D01*
X7618095Y-14968214D01*
X7627619Y-14949167D01*
X7646667Y-14939643D01*
X7684762Y-14939643D01*
X7703809Y-14949167D01*
X7713333Y-14968214D01*
X7713333Y-14987262D01*
X7618095Y-15006309D01*
X7789524Y-15063452D02*
X7808571Y-15072976D01*
X7846667Y-15072976D01*
X7865714Y-15063452D01*
X7875238Y-15044405D01*
X7875238Y-15034881D01*
X7865714Y-15015833D01*
X7846667Y-15006309D01*
X7818095Y-15006309D01*
X7799048Y-14996786D01*
X7789524Y-14977738D01*
X7789524Y-14968214D01*
X7799048Y-14949167D01*
X7818095Y-14939643D01*
X7846667Y-14939643D01*
X7865714Y-14949167D01*
X7941905Y-15149167D02*
X7951428Y-15139643D01*
X7970476Y-15111071D01*
X7980000Y-15092024D01*
X7989524Y-15063452D01*
X7999048Y-15015833D01*
X7999048Y-14977738D01*
X7989524Y-14930119D01*
X7980000Y-14901548D01*
X7970476Y-14882500D01*
X7951428Y-14853928D01*
X7941905Y-14844405D01*
D17*
X3030000Y-15176500D02*
X3170000Y-15316500D01*
X3170000Y-15176500D02*
X3030000Y-15316500D01*
X3100000Y-15176500D02*
X3100000Y-15316500D01*
X3030000Y-15246500D02*
X3170000Y-15246500D01*
D11*
X3532381Y-15336976D02*
X3418095Y-15336976D01*
X3475238Y-15336976D02*
X3475238Y-15136976D01*
X3456190Y-15165548D01*
X3437143Y-15184595D01*
X3418095Y-15194119D01*
X3618095Y-15317928D02*
X3627619Y-15327452D01*
X3618095Y-15336976D01*
X3608571Y-15327452D01*
X3618095Y-15317928D01*
X3618095Y-15336976D01*
X3799048Y-15203643D02*
X3799048Y-15336976D01*
X3751428Y-15127452D02*
X3703809Y-15270309D01*
X3827619Y-15270309D01*
X3941905Y-15136976D02*
X3960952Y-15136976D01*
X3980000Y-15146500D01*
X3989524Y-15156024D01*
X3999048Y-15175071D01*
X4008571Y-15213167D01*
X4008571Y-15260786D01*
X3999048Y-15298881D01*
X3989524Y-15317928D01*
X3980000Y-15327452D01*
X3960952Y-15336976D01*
X3941905Y-15336976D01*
X3922857Y-15327452D01*
X3913333Y-15317928D01*
X3903809Y-15298881D01*
X3894286Y-15260786D01*
X3894286Y-15213167D01*
X3903809Y-15175071D01*
X3913333Y-15156024D01*
X3922857Y-15146500D01*
X3941905Y-15136976D01*
X4132381Y-15136976D02*
X4151428Y-15136976D01*
X4170476Y-15146500D01*
X4180000Y-15156024D01*
X4189524Y-15175071D01*
X4199048Y-15213167D01*
X4199048Y-15260786D01*
X4189524Y-15298881D01*
X4180000Y-15317928D01*
X4170476Y-15327452D01*
X4151428Y-15336976D01*
X4132381Y-15336976D01*
X4113333Y-15327452D01*
X4103809Y-15317928D01*
X4094286Y-15298881D01*
X4084762Y-15260786D01*
X4084762Y-15213167D01*
X4094286Y-15175071D01*
X4103809Y-15156024D01*
X4113333Y-15146500D01*
X4132381Y-15136976D01*
X4284762Y-15336976D02*
X4284762Y-15203643D01*
X4284762Y-15222690D02*
X4294286Y-15213167D01*
X4313333Y-15203643D01*
X4341905Y-15203643D01*
X4360952Y-15213167D01*
X4370476Y-15232214D01*
X4370476Y-15336976D01*
X4370476Y-15232214D02*
X4380000Y-15213167D01*
X4399048Y-15203643D01*
X4427619Y-15203643D01*
X4446667Y-15213167D01*
X4456190Y-15232214D01*
X4456190Y-15336976D01*
X4551429Y-15336976D02*
X4551429Y-15203643D01*
X4551429Y-15222690D02*
X4560952Y-15213167D01*
X4580000Y-15203643D01*
X4608571Y-15203643D01*
X4627619Y-15213167D01*
X4637143Y-15232214D01*
X4637143Y-15336976D01*
X4637143Y-15232214D02*
X4646667Y-15213167D01*
X4665714Y-15203643D01*
X4694286Y-15203643D01*
X4713333Y-15213167D01*
X4722857Y-15232214D01*
X4722857Y-15336976D01*
X5113333Y-15127452D02*
X4941905Y-15384595D01*
X5370476Y-15136976D02*
X5389524Y-15136976D01*
X5408571Y-15146500D01*
X5418095Y-15156024D01*
X5427619Y-15175071D01*
X5437143Y-15213167D01*
X5437143Y-15260786D01*
X5427619Y-15298881D01*
X5418095Y-15317928D01*
X5408571Y-15327452D01*
X5389524Y-15336976D01*
X5370476Y-15336976D01*
X5351429Y-15327452D01*
X5341905Y-15317928D01*
X5332381Y-15298881D01*
X5322857Y-15260786D01*
X5322857Y-15213167D01*
X5332381Y-15175071D01*
X5341905Y-15156024D01*
X5351429Y-15146500D01*
X5370476Y-15136976D01*
X5522857Y-15317928D02*
X5532381Y-15327452D01*
X5522857Y-15336976D01*
X5513333Y-15327452D01*
X5522857Y-15317928D01*
X5522857Y-15336976D01*
X5656190Y-15136976D02*
X5675238Y-15136976D01*
X5694286Y-15146500D01*
X5703809Y-15156024D01*
X5713333Y-15175071D01*
X5722857Y-15213167D01*
X5722857Y-15260786D01*
X5713333Y-15298881D01*
X5703809Y-15317928D01*
X5694286Y-15327452D01*
X5675238Y-15336976D01*
X5656190Y-15336976D01*
X5637143Y-15327452D01*
X5627619Y-15317928D01*
X5618095Y-15298881D01*
X5608571Y-15260786D01*
X5608571Y-15213167D01*
X5618095Y-15175071D01*
X5627619Y-15156024D01*
X5637143Y-15146500D01*
X5656190Y-15136976D01*
X5903809Y-15136976D02*
X5808571Y-15136976D01*
X5799048Y-15232214D01*
X5808571Y-15222690D01*
X5827619Y-15213167D01*
X5875238Y-15213167D01*
X5894286Y-15222690D01*
X5903809Y-15232214D01*
X5913333Y-15251262D01*
X5913333Y-15298881D01*
X5903809Y-15317928D01*
X5894286Y-15327452D01*
X5875238Y-15336976D01*
X5827619Y-15336976D01*
X5808571Y-15327452D01*
X5799048Y-15317928D01*
X6094286Y-15136976D02*
X5999048Y-15136976D01*
X5989524Y-15232214D01*
X5999048Y-15222690D01*
X6018095Y-15213167D01*
X6065714Y-15213167D01*
X6084762Y-15222690D01*
X6094286Y-15232214D01*
X6103809Y-15251262D01*
X6103809Y-15298881D01*
X6094286Y-15317928D01*
X6084762Y-15327452D01*
X6065714Y-15336976D01*
X6018095Y-15336976D01*
X5999048Y-15327452D01*
X5989524Y-15317928D01*
X6294286Y-15336976D02*
X6180000Y-15336976D01*
X6237143Y-15336976D02*
X6237143Y-15136976D01*
X6218095Y-15165548D01*
X6199048Y-15184595D01*
X6180000Y-15194119D01*
X6370476Y-15136976D02*
X6370476Y-15175071D01*
X6446667Y-15136976D02*
X6446667Y-15175071D01*
X6741905Y-15413167D02*
X6732381Y-15403643D01*
X6713333Y-15375071D01*
X6703809Y-15356024D01*
X6694286Y-15327452D01*
X6684762Y-15279833D01*
X6684762Y-15241738D01*
X6694286Y-15194119D01*
X6703809Y-15165548D01*
X6713333Y-15146500D01*
X6732381Y-15117928D01*
X6741905Y-15108405D01*
X6856190Y-15136976D02*
X6875238Y-15136976D01*
X6894286Y-15146500D01*
X6903809Y-15156024D01*
X6913333Y-15175071D01*
X6922857Y-15213167D01*
X6922857Y-15260786D01*
X6913333Y-15298881D01*
X6903809Y-15317928D01*
X6894286Y-15327452D01*
X6875238Y-15336976D01*
X6856190Y-15336976D01*
X6837143Y-15327452D01*
X6827619Y-15317928D01*
X6818095Y-15298881D01*
X6808571Y-15260786D01*
X6808571Y-15213167D01*
X6818095Y-15175071D01*
X6827619Y-15156024D01*
X6837143Y-15146500D01*
X6856190Y-15136976D01*
X7160952Y-15336976D02*
X7160952Y-15136976D01*
X7246667Y-15336976D02*
X7246667Y-15232214D01*
X7237143Y-15213167D01*
X7218095Y-15203643D01*
X7189524Y-15203643D01*
X7170476Y-15213167D01*
X7160952Y-15222690D01*
X7370476Y-15336976D02*
X7351428Y-15327452D01*
X7341905Y-15317928D01*
X7332381Y-15298881D01*
X7332381Y-15241738D01*
X7341905Y-15222690D01*
X7351428Y-15213167D01*
X7370476Y-15203643D01*
X7399048Y-15203643D01*
X7418095Y-15213167D01*
X7427619Y-15222690D01*
X7437143Y-15241738D01*
X7437143Y-15298881D01*
X7427619Y-15317928D01*
X7418095Y-15327452D01*
X7399048Y-15336976D01*
X7370476Y-15336976D01*
X7551428Y-15336976D02*
X7532381Y-15327452D01*
X7522857Y-15308405D01*
X7522857Y-15136976D01*
X7703809Y-15327452D02*
X7684762Y-15336976D01*
X7646667Y-15336976D01*
X7627619Y-15327452D01*
X7618095Y-15308405D01*
X7618095Y-15232214D01*
X7627619Y-15213167D01*
X7646667Y-15203643D01*
X7684762Y-15203643D01*
X7703809Y-15213167D01*
X7713333Y-15232214D01*
X7713333Y-15251262D01*
X7618095Y-15270309D01*
X7789524Y-15327452D02*
X7808571Y-15336976D01*
X7846667Y-15336976D01*
X7865714Y-15327452D01*
X7875238Y-15308405D01*
X7875238Y-15298881D01*
X7865714Y-15279833D01*
X7846667Y-15270309D01*
X7818095Y-15270309D01*
X7799048Y-15260786D01*
X7789524Y-15241738D01*
X7789524Y-15232214D01*
X7799048Y-15213167D01*
X7818095Y-15203643D01*
X7846667Y-15203643D01*
X7865714Y-15213167D01*
X8113333Y-15260786D02*
X8265714Y-15260786D01*
X8189524Y-15336976D02*
X8189524Y-15184595D01*
X8503810Y-15156024D02*
X8513333Y-15146500D01*
X8532381Y-15136976D01*
X8580000Y-15136976D01*
X8599048Y-15146500D01*
X8608571Y-15156024D01*
X8618095Y-15175071D01*
X8618095Y-15194119D01*
X8608571Y-15222690D01*
X8494286Y-15336976D01*
X8618095Y-15336976D01*
X8846667Y-15327452D02*
X8865714Y-15336976D01*
X8903810Y-15336976D01*
X8922857Y-15327452D01*
X8932381Y-15308405D01*
X8932381Y-15298881D01*
X8922857Y-15279833D01*
X8903810Y-15270309D01*
X8875238Y-15270309D01*
X8856190Y-15260786D01*
X8846667Y-15241738D01*
X8846667Y-15232214D01*
X8856190Y-15213167D01*
X8875238Y-15203643D01*
X8903810Y-15203643D01*
X8922857Y-15213167D01*
X9046667Y-15336976D02*
X9027619Y-15327452D01*
X9018095Y-15308405D01*
X9018095Y-15136976D01*
X9151429Y-15336976D02*
X9132381Y-15327452D01*
X9122857Y-15317928D01*
X9113333Y-15298881D01*
X9113333Y-15241738D01*
X9122857Y-15222690D01*
X9132381Y-15213167D01*
X9151429Y-15203643D01*
X9180000Y-15203643D01*
X9199048Y-15213167D01*
X9208571Y-15222690D01*
X9218095Y-15241738D01*
X9218095Y-15298881D01*
X9208571Y-15317928D01*
X9199048Y-15327452D01*
X9180000Y-15336976D01*
X9151429Y-15336976D01*
X9275238Y-15203643D02*
X9351429Y-15203643D01*
X9303810Y-15136976D02*
X9303810Y-15308405D01*
X9313333Y-15327452D01*
X9332381Y-15336976D01*
X9351429Y-15336976D01*
X9408571Y-15327452D02*
X9427619Y-15336976D01*
X9465714Y-15336976D01*
X9484762Y-15327452D01*
X9494286Y-15308405D01*
X9494286Y-15298881D01*
X9484762Y-15279833D01*
X9465714Y-15270309D01*
X9437143Y-15270309D01*
X9418095Y-15260786D01*
X9408571Y-15241738D01*
X9408571Y-15232214D01*
X9418095Y-15213167D01*
X9437143Y-15203643D01*
X9465714Y-15203643D01*
X9484762Y-15213167D01*
X9560952Y-15413167D02*
X9570476Y-15403643D01*
X9589524Y-15375071D01*
X9599048Y-15356024D01*
X9608571Y-15327452D01*
X9618095Y-15279833D01*
X9618095Y-15241738D01*
X9608571Y-15194119D01*
X9599048Y-15165548D01*
X9589524Y-15146500D01*
X9570476Y-15117928D01*
X9560952Y-15108405D01*
X2970000Y-15410500D02*
X3170000Y-15610500D01*
X3170000Y-15410500D02*
X2970000Y-15610500D01*
X3140711Y-15581211D02*
X3140711Y-15439789D01*
X2999289Y-15439789D01*
X2999289Y-15581211D01*
X3140711Y-15581211D01*
X3418095Y-15420024D02*
X3427619Y-15410500D01*
X3446667Y-15400976D01*
X3494286Y-15400976D01*
X3513333Y-15410500D01*
X3522857Y-15420024D01*
X3532381Y-15439071D01*
X3532381Y-15458119D01*
X3522857Y-15486690D01*
X3408571Y-15600976D01*
X3532381Y-15600976D01*
X3618095Y-15581928D02*
X3627619Y-15591452D01*
X3618095Y-15600976D01*
X3608571Y-15591452D01*
X3618095Y-15581928D01*
X3618095Y-15600976D01*
X3703809Y-15420024D02*
X3713333Y-15410500D01*
X3732381Y-15400976D01*
X3780000Y-15400976D01*
X3799048Y-15410500D01*
X3808571Y-15420024D01*
X3818095Y-15439071D01*
X3818095Y-15458119D01*
X3808571Y-15486690D01*
X3694286Y-15600976D01*
X3818095Y-15600976D01*
X3941905Y-15400976D02*
X3960952Y-15400976D01*
X3980000Y-15410500D01*
X3989524Y-15420024D01*
X3999048Y-15439071D01*
X4008571Y-15477167D01*
X4008571Y-15524786D01*
X3999048Y-15562881D01*
X3989524Y-15581928D01*
X3980000Y-15591452D01*
X3960952Y-15600976D01*
X3941905Y-15600976D01*
X3922857Y-15591452D01*
X3913333Y-15581928D01*
X3903809Y-15562881D01*
X3894286Y-15524786D01*
X3894286Y-15477167D01*
X3903809Y-15439071D01*
X3913333Y-15420024D01*
X3922857Y-15410500D01*
X3941905Y-15400976D01*
X4132381Y-15400976D02*
X4151428Y-15400976D01*
X4170476Y-15410500D01*
X4180000Y-15420024D01*
X4189524Y-15439071D01*
X4199048Y-15477167D01*
X4199048Y-15524786D01*
X4189524Y-15562881D01*
X4180000Y-15581928D01*
X4170476Y-15591452D01*
X4151428Y-15600976D01*
X4132381Y-15600976D01*
X4113333Y-15591452D01*
X4103809Y-15581928D01*
X4094286Y-15562881D01*
X4084762Y-15524786D01*
X4084762Y-15477167D01*
X4094286Y-15439071D01*
X4103809Y-15420024D01*
X4113333Y-15410500D01*
X4132381Y-15400976D01*
X4284762Y-15600976D02*
X4284762Y-15467643D01*
X4284762Y-15486690D02*
X4294286Y-15477167D01*
X4313333Y-15467643D01*
X4341905Y-15467643D01*
X4360952Y-15477167D01*
X4370476Y-15496214D01*
X4370476Y-15600976D01*
X4370476Y-15496214D02*
X4380000Y-15477167D01*
X4399048Y-15467643D01*
X4427619Y-15467643D01*
X4446667Y-15477167D01*
X4456190Y-15496214D01*
X4456190Y-15600976D01*
X4551429Y-15600976D02*
X4551429Y-15467643D01*
X4551429Y-15486690D02*
X4560952Y-15477167D01*
X4580000Y-15467643D01*
X4608571Y-15467643D01*
X4627619Y-15477167D01*
X4637143Y-15496214D01*
X4637143Y-15600976D01*
X4637143Y-15496214D02*
X4646667Y-15477167D01*
X4665714Y-15467643D01*
X4694286Y-15467643D01*
X4713333Y-15477167D01*
X4722857Y-15496214D01*
X4722857Y-15600976D01*
X5113333Y-15391452D02*
X4941905Y-15648595D01*
X5370476Y-15400976D02*
X5389524Y-15400976D01*
X5408571Y-15410500D01*
X5418095Y-15420024D01*
X5427619Y-15439071D01*
X5437143Y-15477167D01*
X5437143Y-15524786D01*
X5427619Y-15562881D01*
X5418095Y-15581928D01*
X5408571Y-15591452D01*
X5389524Y-15600976D01*
X5370476Y-15600976D01*
X5351429Y-15591452D01*
X5341905Y-15581928D01*
X5332381Y-15562881D01*
X5322857Y-15524786D01*
X5322857Y-15477167D01*
X5332381Y-15439071D01*
X5341905Y-15420024D01*
X5351429Y-15410500D01*
X5370476Y-15400976D01*
X5522857Y-15581928D02*
X5532381Y-15591452D01*
X5522857Y-15600976D01*
X5513333Y-15591452D01*
X5522857Y-15581928D01*
X5522857Y-15600976D01*
X5656190Y-15400976D02*
X5675238Y-15400976D01*
X5694286Y-15410500D01*
X5703809Y-15420024D01*
X5713333Y-15439071D01*
X5722857Y-15477167D01*
X5722857Y-15524786D01*
X5713333Y-15562881D01*
X5703809Y-15581928D01*
X5694286Y-15591452D01*
X5675238Y-15600976D01*
X5656190Y-15600976D01*
X5637143Y-15591452D01*
X5627619Y-15581928D01*
X5618095Y-15562881D01*
X5608571Y-15524786D01*
X5608571Y-15477167D01*
X5618095Y-15439071D01*
X5627619Y-15420024D01*
X5637143Y-15410500D01*
X5656190Y-15400976D01*
X5837143Y-15486690D02*
X5818095Y-15477167D01*
X5808571Y-15467643D01*
X5799048Y-15448595D01*
X5799048Y-15439071D01*
X5808571Y-15420024D01*
X5818095Y-15410500D01*
X5837143Y-15400976D01*
X5875238Y-15400976D01*
X5894286Y-15410500D01*
X5903809Y-15420024D01*
X5913333Y-15439071D01*
X5913333Y-15448595D01*
X5903809Y-15467643D01*
X5894286Y-15477167D01*
X5875238Y-15486690D01*
X5837143Y-15486690D01*
X5818095Y-15496214D01*
X5808571Y-15505738D01*
X5799048Y-15524786D01*
X5799048Y-15562881D01*
X5808571Y-15581928D01*
X5818095Y-15591452D01*
X5837143Y-15600976D01*
X5875238Y-15600976D01*
X5894286Y-15591452D01*
X5903809Y-15581928D01*
X5913333Y-15562881D01*
X5913333Y-15524786D01*
X5903809Y-15505738D01*
X5894286Y-15496214D01*
X5875238Y-15486690D01*
X6084762Y-15400976D02*
X6046667Y-15400976D01*
X6027619Y-15410500D01*
X6018095Y-15420024D01*
X5999048Y-15448595D01*
X5989524Y-15486690D01*
X5989524Y-15562881D01*
X5999048Y-15581928D01*
X6008571Y-15591452D01*
X6027619Y-15600976D01*
X6065714Y-15600976D01*
X6084762Y-15591452D01*
X6094286Y-15581928D01*
X6103809Y-15562881D01*
X6103809Y-15515262D01*
X6094286Y-15496214D01*
X6084762Y-15486690D01*
X6065714Y-15477167D01*
X6027619Y-15477167D01*
X6008571Y-15486690D01*
X5999048Y-15496214D01*
X5989524Y-15515262D01*
X6275238Y-15400976D02*
X6237143Y-15400976D01*
X6218095Y-15410500D01*
X6208571Y-15420024D01*
X6189524Y-15448595D01*
X6180000Y-15486690D01*
X6180000Y-15562881D01*
X6189524Y-15581928D01*
X6199048Y-15591452D01*
X6218095Y-15600976D01*
X6256190Y-15600976D01*
X6275238Y-15591452D01*
X6284762Y-15581928D01*
X6294286Y-15562881D01*
X6294286Y-15515262D01*
X6284762Y-15496214D01*
X6275238Y-15486690D01*
X6256190Y-15477167D01*
X6218095Y-15477167D01*
X6199048Y-15486690D01*
X6189524Y-15496214D01*
X6180000Y-15515262D01*
X6370476Y-15400976D02*
X6370476Y-15439071D01*
X6446667Y-15400976D02*
X6446667Y-15439071D01*
X6741905Y-15677167D02*
X6732381Y-15667643D01*
X6713333Y-15639071D01*
X6703809Y-15620024D01*
X6694286Y-15591452D01*
X6684762Y-15543833D01*
X6684762Y-15505738D01*
X6694286Y-15458119D01*
X6703809Y-15429548D01*
X6713333Y-15410500D01*
X6732381Y-15381928D01*
X6741905Y-15372405D01*
X6903809Y-15400976D02*
X6865714Y-15400976D01*
X6846667Y-15410500D01*
X6837143Y-15420024D01*
X6818095Y-15448595D01*
X6808571Y-15486690D01*
X6808571Y-15562881D01*
X6818095Y-15581928D01*
X6827619Y-15591452D01*
X6846667Y-15600976D01*
X6884762Y-15600976D01*
X6903809Y-15591452D01*
X6913333Y-15581928D01*
X6922857Y-15562881D01*
X6922857Y-15515262D01*
X6913333Y-15496214D01*
X6903809Y-15486690D01*
X6884762Y-15477167D01*
X6846667Y-15477167D01*
X6827619Y-15486690D01*
X6818095Y-15496214D01*
X6808571Y-15515262D01*
X7160952Y-15600976D02*
X7160952Y-15400976D01*
X7246667Y-15600976D02*
X7246667Y-15496214D01*
X7237143Y-15477167D01*
X7218095Y-15467643D01*
X7189524Y-15467643D01*
X7170476Y-15477167D01*
X7160952Y-15486690D01*
X7370476Y-15600976D02*
X7351428Y-15591452D01*
X7341905Y-15581928D01*
X7332381Y-15562881D01*
X7332381Y-15505738D01*
X7341905Y-15486690D01*
X7351428Y-15477167D01*
X7370476Y-15467643D01*
X7399048Y-15467643D01*
X7418095Y-15477167D01*
X7427619Y-15486690D01*
X7437143Y-15505738D01*
X7437143Y-15562881D01*
X7427619Y-15581928D01*
X7418095Y-15591452D01*
X7399048Y-15600976D01*
X7370476Y-15600976D01*
X7551428Y-15600976D02*
X7532381Y-15591452D01*
X7522857Y-15572405D01*
X7522857Y-15400976D01*
X7703809Y-15591452D02*
X7684762Y-15600976D01*
X7646667Y-15600976D01*
X7627619Y-15591452D01*
X7618095Y-15572405D01*
X7618095Y-15496214D01*
X7627619Y-15477167D01*
X7646667Y-15467643D01*
X7684762Y-15467643D01*
X7703809Y-15477167D01*
X7713333Y-15496214D01*
X7713333Y-15515262D01*
X7618095Y-15534309D01*
X7789524Y-15591452D02*
X7808571Y-15600976D01*
X7846667Y-15600976D01*
X7865714Y-15591452D01*
X7875238Y-15572405D01*
X7875238Y-15562881D01*
X7865714Y-15543833D01*
X7846667Y-15534309D01*
X7818095Y-15534309D01*
X7799048Y-15524786D01*
X7789524Y-15505738D01*
X7789524Y-15496214D01*
X7799048Y-15477167D01*
X7818095Y-15467643D01*
X7846667Y-15467643D01*
X7865714Y-15477167D01*
X7941905Y-15677167D02*
X7951428Y-15667643D01*
X7970476Y-15639071D01*
X7980000Y-15620024D01*
X7989524Y-15591452D01*
X7999048Y-15543833D01*
X7999048Y-15505738D01*
X7989524Y-15458119D01*
X7980000Y-15429548D01*
X7970476Y-15410500D01*
X7951428Y-15381928D01*
X7941905Y-15372405D01*
D19*
X3050000Y-15770500D02*
X3170000Y-15890500D01*
X3170000Y-15770500D02*
X3050000Y-15890500D01*
X3110000Y-15890500D02*
X3170000Y-15830500D01*
X3110000Y-15770500D01*
X3050000Y-15830500D01*
X3110000Y-15890500D01*
D11*
X3532381Y-15920976D02*
X3418095Y-15920976D01*
X3475238Y-15920976D02*
X3475238Y-15720976D01*
X3456190Y-15749548D01*
X3437143Y-15768595D01*
X3418095Y-15778119D01*
X3618095Y-15901928D02*
X3627619Y-15911452D01*
X3618095Y-15920976D01*
X3608571Y-15911452D01*
X3618095Y-15901928D01*
X3618095Y-15920976D01*
X3703809Y-15740024D02*
X3713333Y-15730500D01*
X3732381Y-15720976D01*
X3780000Y-15720976D01*
X3799048Y-15730500D01*
X3808571Y-15740024D01*
X3818095Y-15759071D01*
X3818095Y-15778119D01*
X3808571Y-15806690D01*
X3694286Y-15920976D01*
X3818095Y-15920976D01*
X3941905Y-15720976D02*
X3960952Y-15720976D01*
X3980000Y-15730500D01*
X3989524Y-15740024D01*
X3999048Y-15759071D01*
X4008571Y-15797167D01*
X4008571Y-15844786D01*
X3999048Y-15882881D01*
X3989524Y-15901928D01*
X3980000Y-15911452D01*
X3960952Y-15920976D01*
X3941905Y-15920976D01*
X3922857Y-15911452D01*
X3913333Y-15901928D01*
X3903809Y-15882881D01*
X3894286Y-15844786D01*
X3894286Y-15797167D01*
X3903809Y-15759071D01*
X3913333Y-15740024D01*
X3922857Y-15730500D01*
X3941905Y-15720976D01*
X4132381Y-15720976D02*
X4151428Y-15720976D01*
X4170476Y-15730500D01*
X4180000Y-15740024D01*
X4189524Y-15759071D01*
X4199048Y-15797167D01*
X4199048Y-15844786D01*
X4189524Y-15882881D01*
X4180000Y-15901928D01*
X4170476Y-15911452D01*
X4151428Y-15920976D01*
X4132381Y-15920976D01*
X4113333Y-15911452D01*
X4103809Y-15901928D01*
X4094286Y-15882881D01*
X4084762Y-15844786D01*
X4084762Y-15797167D01*
X4094286Y-15759071D01*
X4103809Y-15740024D01*
X4113333Y-15730500D01*
X4132381Y-15720976D01*
X4284762Y-15920976D02*
X4284762Y-15787643D01*
X4284762Y-15806690D02*
X4294286Y-15797167D01*
X4313333Y-15787643D01*
X4341905Y-15787643D01*
X4360952Y-15797167D01*
X4370476Y-15816214D01*
X4370476Y-15920976D01*
X4370476Y-15816214D02*
X4380000Y-15797167D01*
X4399048Y-15787643D01*
X4427619Y-15787643D01*
X4446667Y-15797167D01*
X4456190Y-15816214D01*
X4456190Y-15920976D01*
X4551429Y-15920976D02*
X4551429Y-15787643D01*
X4551429Y-15806690D02*
X4560952Y-15797167D01*
X4580000Y-15787643D01*
X4608571Y-15787643D01*
X4627619Y-15797167D01*
X4637143Y-15816214D01*
X4637143Y-15920976D01*
X4637143Y-15816214D02*
X4646667Y-15797167D01*
X4665714Y-15787643D01*
X4694286Y-15787643D01*
X4713333Y-15797167D01*
X4722857Y-15816214D01*
X4722857Y-15920976D01*
X5113333Y-15711452D02*
X4941905Y-15968595D01*
X5370476Y-15720976D02*
X5389524Y-15720976D01*
X5408571Y-15730500D01*
X5418095Y-15740024D01*
X5427619Y-15759071D01*
X5437143Y-15797167D01*
X5437143Y-15844786D01*
X5427619Y-15882881D01*
X5418095Y-15901928D01*
X5408571Y-15911452D01*
X5389524Y-15920976D01*
X5370476Y-15920976D01*
X5351429Y-15911452D01*
X5341905Y-15901928D01*
X5332381Y-15882881D01*
X5322857Y-15844786D01*
X5322857Y-15797167D01*
X5332381Y-15759071D01*
X5341905Y-15740024D01*
X5351429Y-15730500D01*
X5370476Y-15720976D01*
X5522857Y-15901928D02*
X5532381Y-15911452D01*
X5522857Y-15920976D01*
X5513333Y-15911452D01*
X5522857Y-15901928D01*
X5522857Y-15920976D01*
X5656190Y-15720976D02*
X5675238Y-15720976D01*
X5694286Y-15730500D01*
X5703809Y-15740024D01*
X5713333Y-15759071D01*
X5722857Y-15797167D01*
X5722857Y-15844786D01*
X5713333Y-15882881D01*
X5703809Y-15901928D01*
X5694286Y-15911452D01*
X5675238Y-15920976D01*
X5656190Y-15920976D01*
X5637143Y-15911452D01*
X5627619Y-15901928D01*
X5618095Y-15882881D01*
X5608571Y-15844786D01*
X5608571Y-15797167D01*
X5618095Y-15759071D01*
X5627619Y-15740024D01*
X5637143Y-15730500D01*
X5656190Y-15720976D01*
X5894286Y-15787643D02*
X5894286Y-15920976D01*
X5846667Y-15711452D02*
X5799048Y-15854309D01*
X5922857Y-15854309D01*
X5980000Y-15720976D02*
X6113333Y-15720976D01*
X6027619Y-15920976D01*
X6180000Y-15740024D02*
X6189524Y-15730500D01*
X6208571Y-15720976D01*
X6256190Y-15720976D01*
X6275238Y-15730500D01*
X6284762Y-15740024D01*
X6294286Y-15759071D01*
X6294286Y-15778119D01*
X6284762Y-15806690D01*
X6170476Y-15920976D01*
X6294286Y-15920976D01*
X6370476Y-15720976D02*
X6370476Y-15759071D01*
X6446667Y-15720976D02*
X6446667Y-15759071D01*
X6741905Y-15997167D02*
X6732381Y-15987643D01*
X6713333Y-15959071D01*
X6703809Y-15940024D01*
X6694286Y-15911452D01*
X6684762Y-15863833D01*
X6684762Y-15825738D01*
X6694286Y-15778119D01*
X6703809Y-15749548D01*
X6713333Y-15730500D01*
X6732381Y-15701928D01*
X6741905Y-15692405D01*
X6903809Y-15787643D02*
X6903809Y-15920976D01*
X6856190Y-15711452D02*
X6808571Y-15854309D01*
X6932381Y-15854309D01*
X7160952Y-15920976D02*
X7160952Y-15720976D01*
X7246667Y-15920976D02*
X7246667Y-15816214D01*
X7237143Y-15797167D01*
X7218095Y-15787643D01*
X7189524Y-15787643D01*
X7170476Y-15797167D01*
X7160952Y-15806690D01*
X7370476Y-15920976D02*
X7351428Y-15911452D01*
X7341905Y-15901928D01*
X7332381Y-15882881D01*
X7332381Y-15825738D01*
X7341905Y-15806690D01*
X7351428Y-15797167D01*
X7370476Y-15787643D01*
X7399048Y-15787643D01*
X7418095Y-15797167D01*
X7427619Y-15806690D01*
X7437143Y-15825738D01*
X7437143Y-15882881D01*
X7427619Y-15901928D01*
X7418095Y-15911452D01*
X7399048Y-15920976D01*
X7370476Y-15920976D01*
X7551428Y-15920976D02*
X7532381Y-15911452D01*
X7522857Y-15892405D01*
X7522857Y-15720976D01*
X7703809Y-15911452D02*
X7684762Y-15920976D01*
X7646667Y-15920976D01*
X7627619Y-15911452D01*
X7618095Y-15892405D01*
X7618095Y-15816214D01*
X7627619Y-15797167D01*
X7646667Y-15787643D01*
X7684762Y-15787643D01*
X7703809Y-15797167D01*
X7713333Y-15816214D01*
X7713333Y-15835262D01*
X7618095Y-15854309D01*
X7789524Y-15911452D02*
X7808571Y-15920976D01*
X7846667Y-15920976D01*
X7865714Y-15911452D01*
X7875238Y-15892405D01*
X7875238Y-15882881D01*
X7865714Y-15863833D01*
X7846667Y-15854309D01*
X7818095Y-15854309D01*
X7799048Y-15844786D01*
X7789524Y-15825738D01*
X7789524Y-15816214D01*
X7799048Y-15797167D01*
X7818095Y-15787643D01*
X7846667Y-15787643D01*
X7865714Y-15797167D01*
X7941905Y-15997167D02*
X7951428Y-15987643D01*
X7970476Y-15959071D01*
X7980000Y-15940024D01*
X7989524Y-15911452D01*
X7999048Y-15863833D01*
X7999048Y-15825738D01*
X7989524Y-15778119D01*
X7980000Y-15749548D01*
X7970476Y-15730500D01*
X7951428Y-15701928D01*
X7941905Y-15692405D01*
X8303809Y-15997167D02*
X8294286Y-15987643D01*
X8275238Y-15959071D01*
X8265714Y-15940024D01*
X8256190Y-15911452D01*
X8246667Y-15863833D01*
X8246667Y-15825738D01*
X8256190Y-15778119D01*
X8265714Y-15749548D01*
X8275238Y-15730500D01*
X8294286Y-15701928D01*
X8303809Y-15692405D01*
X8380000Y-15787643D02*
X8380000Y-15920976D01*
X8380000Y-15806690D02*
X8389524Y-15797167D01*
X8408571Y-15787643D01*
X8437143Y-15787643D01*
X8456190Y-15797167D01*
X8465714Y-15816214D01*
X8465714Y-15920976D01*
X8589524Y-15920976D02*
X8570476Y-15911452D01*
X8560952Y-15901928D01*
X8551429Y-15882881D01*
X8551429Y-15825738D01*
X8560952Y-15806690D01*
X8570476Y-15797167D01*
X8589524Y-15787643D01*
X8618095Y-15787643D01*
X8637143Y-15797167D01*
X8646667Y-15806690D01*
X8656190Y-15825738D01*
X8656190Y-15882881D01*
X8646667Y-15901928D01*
X8637143Y-15911452D01*
X8618095Y-15920976D01*
X8589524Y-15920976D01*
X8713333Y-15787643D02*
X8789524Y-15787643D01*
X8741905Y-15720976D02*
X8741905Y-15892405D01*
X8751429Y-15911452D01*
X8770476Y-15920976D01*
X8789524Y-15920976D01*
X9008571Y-15787643D02*
X9008571Y-15987643D01*
X9008571Y-15797167D02*
X9027619Y-15787643D01*
X9065714Y-15787643D01*
X9084762Y-15797167D01*
X9094286Y-15806690D01*
X9103810Y-15825738D01*
X9103810Y-15882881D01*
X9094286Y-15901928D01*
X9084762Y-15911452D01*
X9065714Y-15920976D01*
X9027619Y-15920976D01*
X9008571Y-15911452D01*
X9218095Y-15920976D02*
X9199048Y-15911452D01*
X9189524Y-15892405D01*
X9189524Y-15720976D01*
X9380000Y-15920976D02*
X9380000Y-15816214D01*
X9370476Y-15797167D01*
X9351429Y-15787643D01*
X9313333Y-15787643D01*
X9294286Y-15797167D01*
X9380000Y-15911452D02*
X9360952Y-15920976D01*
X9313333Y-15920976D01*
X9294286Y-15911452D01*
X9284762Y-15892405D01*
X9284762Y-15873357D01*
X9294286Y-15854309D01*
X9313333Y-15844786D01*
X9360952Y-15844786D01*
X9380000Y-15835262D01*
X9446667Y-15787643D02*
X9522857Y-15787643D01*
X9475238Y-15720976D02*
X9475238Y-15892405D01*
X9484762Y-15911452D01*
X9503810Y-15920976D01*
X9522857Y-15920976D01*
X9665714Y-15911452D02*
X9646667Y-15920976D01*
X9608571Y-15920976D01*
X9589524Y-15911452D01*
X9580000Y-15892405D01*
X9580000Y-15816214D01*
X9589524Y-15797167D01*
X9608571Y-15787643D01*
X9646667Y-15787643D01*
X9665714Y-15797167D01*
X9675238Y-15816214D01*
X9675238Y-15835262D01*
X9580000Y-15854309D01*
X9846667Y-15920976D02*
X9846667Y-15720976D01*
X9846667Y-15911452D02*
X9827619Y-15920976D01*
X9789524Y-15920976D01*
X9770476Y-15911452D01*
X9760952Y-15901928D01*
X9751429Y-15882881D01*
X9751429Y-15825738D01*
X9760952Y-15806690D01*
X9770476Y-15797167D01*
X9789524Y-15787643D01*
X9827619Y-15787643D01*
X9846667Y-15797167D01*
X9922857Y-15997167D02*
X9932381Y-15987643D01*
X9951429Y-15959071D01*
X9960952Y-15940024D01*
X9970476Y-15911452D01*
X9980000Y-15863833D01*
X9980000Y-15825738D01*
X9970476Y-15778119D01*
X9960952Y-15749548D01*
X9951429Y-15730500D01*
X9932381Y-15701928D01*
X9922857Y-15692405D01*
D20*
X3075000Y-15999500D02*
X3075000Y-16189500D01*
X2980000Y-16094500D02*
X3170000Y-16094500D01*
X3170000Y-16094500D02*
G75*
G03*
X3170000Y-16094500I-95000J0D01*
G01*
D11*
X3532381Y-16184976D02*
X3418095Y-16184976D01*
X3475238Y-16184976D02*
X3475238Y-15984976D01*
X3456190Y-16013548D01*
X3437143Y-16032595D01*
X3418095Y-16042119D01*
X3618095Y-16165928D02*
X3627619Y-16175452D01*
X3618095Y-16184976D01*
X3608571Y-16175452D01*
X3618095Y-16165928D01*
X3618095Y-16184976D01*
X3722857Y-16184976D02*
X3760952Y-16184976D01*
X3780000Y-16175452D01*
X3789524Y-16165928D01*
X3808571Y-16137357D01*
X3818095Y-16099262D01*
X3818095Y-16023071D01*
X3808571Y-16004024D01*
X3799048Y-15994500D01*
X3780000Y-15984976D01*
X3741905Y-15984976D01*
X3722857Y-15994500D01*
X3713333Y-16004024D01*
X3703809Y-16023071D01*
X3703809Y-16070690D01*
X3713333Y-16089738D01*
X3722857Y-16099262D01*
X3741905Y-16108786D01*
X3780000Y-16108786D01*
X3799048Y-16099262D01*
X3808571Y-16089738D01*
X3818095Y-16070690D01*
X3941905Y-15984976D02*
X3960952Y-15984976D01*
X3980000Y-15994500D01*
X3989524Y-16004024D01*
X3999048Y-16023071D01*
X4008571Y-16061167D01*
X4008571Y-16108786D01*
X3999048Y-16146881D01*
X3989524Y-16165928D01*
X3980000Y-16175452D01*
X3960952Y-16184976D01*
X3941905Y-16184976D01*
X3922857Y-16175452D01*
X3913333Y-16165928D01*
X3903809Y-16146881D01*
X3894286Y-16108786D01*
X3894286Y-16061167D01*
X3903809Y-16023071D01*
X3913333Y-16004024D01*
X3922857Y-15994500D01*
X3941905Y-15984976D01*
X4132381Y-15984976D02*
X4151428Y-15984976D01*
X4170476Y-15994500D01*
X4180000Y-16004024D01*
X4189524Y-16023071D01*
X4199048Y-16061167D01*
X4199048Y-16108786D01*
X4189524Y-16146881D01*
X4180000Y-16165928D01*
X4170476Y-16175452D01*
X4151428Y-16184976D01*
X4132381Y-16184976D01*
X4113333Y-16175452D01*
X4103809Y-16165928D01*
X4094286Y-16146881D01*
X4084762Y-16108786D01*
X4084762Y-16061167D01*
X4094286Y-16023071D01*
X4103809Y-16004024D01*
X4113333Y-15994500D01*
X4132381Y-15984976D01*
X4284762Y-16184976D02*
X4284762Y-16051643D01*
X4284762Y-16070690D02*
X4294286Y-16061167D01*
X4313333Y-16051643D01*
X4341905Y-16051643D01*
X4360952Y-16061167D01*
X4370476Y-16080214D01*
X4370476Y-16184976D01*
X4370476Y-16080214D02*
X4380000Y-16061167D01*
X4399048Y-16051643D01*
X4427619Y-16051643D01*
X4446667Y-16061167D01*
X4456190Y-16080214D01*
X4456190Y-16184976D01*
X4551429Y-16184976D02*
X4551429Y-16051643D01*
X4551429Y-16070690D02*
X4560952Y-16061167D01*
X4580000Y-16051643D01*
X4608571Y-16051643D01*
X4627619Y-16061167D01*
X4637143Y-16080214D01*
X4637143Y-16184976D01*
X4637143Y-16080214D02*
X4646667Y-16061167D01*
X4665714Y-16051643D01*
X4694286Y-16051643D01*
X4713333Y-16061167D01*
X4722857Y-16080214D01*
X4722857Y-16184976D01*
X5113333Y-15975452D02*
X4941905Y-16232595D01*
X5370476Y-15984976D02*
X5389524Y-15984976D01*
X5408571Y-15994500D01*
X5418095Y-16004024D01*
X5427619Y-16023071D01*
X5437143Y-16061167D01*
X5437143Y-16108786D01*
X5427619Y-16146881D01*
X5418095Y-16165928D01*
X5408571Y-16175452D01*
X5389524Y-16184976D01*
X5370476Y-16184976D01*
X5351429Y-16175452D01*
X5341905Y-16165928D01*
X5332381Y-16146881D01*
X5322857Y-16108786D01*
X5322857Y-16061167D01*
X5332381Y-16023071D01*
X5341905Y-16004024D01*
X5351429Y-15994500D01*
X5370476Y-15984976D01*
X5522857Y-16165928D02*
X5532381Y-16175452D01*
X5522857Y-16184976D01*
X5513333Y-16175452D01*
X5522857Y-16165928D01*
X5522857Y-16184976D01*
X5656190Y-15984976D02*
X5675238Y-15984976D01*
X5694286Y-15994500D01*
X5703809Y-16004024D01*
X5713333Y-16023071D01*
X5722857Y-16061167D01*
X5722857Y-16108786D01*
X5713333Y-16146881D01*
X5703809Y-16165928D01*
X5694286Y-16175452D01*
X5675238Y-16184976D01*
X5656190Y-16184976D01*
X5637143Y-16175452D01*
X5627619Y-16165928D01*
X5618095Y-16146881D01*
X5608571Y-16108786D01*
X5608571Y-16061167D01*
X5618095Y-16023071D01*
X5627619Y-16004024D01*
X5637143Y-15994500D01*
X5656190Y-15984976D01*
X5789524Y-15984976D02*
X5922857Y-15984976D01*
X5837143Y-16184976D01*
X6084762Y-16051643D02*
X6084762Y-16184976D01*
X6037143Y-15975452D02*
X5989524Y-16118309D01*
X6113333Y-16118309D01*
X6218095Y-16070690D02*
X6199048Y-16061167D01*
X6189524Y-16051643D01*
X6180000Y-16032595D01*
X6180000Y-16023071D01*
X6189524Y-16004024D01*
X6199048Y-15994500D01*
X6218095Y-15984976D01*
X6256190Y-15984976D01*
X6275238Y-15994500D01*
X6284762Y-16004024D01*
X6294286Y-16023071D01*
X6294286Y-16032595D01*
X6284762Y-16051643D01*
X6275238Y-16061167D01*
X6256190Y-16070690D01*
X6218095Y-16070690D01*
X6199048Y-16080214D01*
X6189524Y-16089738D01*
X6180000Y-16108786D01*
X6180000Y-16146881D01*
X6189524Y-16165928D01*
X6199048Y-16175452D01*
X6218095Y-16184976D01*
X6256190Y-16184976D01*
X6275238Y-16175452D01*
X6284762Y-16165928D01*
X6294286Y-16146881D01*
X6294286Y-16108786D01*
X6284762Y-16089738D01*
X6275238Y-16080214D01*
X6256190Y-16070690D01*
X6370476Y-15984976D02*
X6370476Y-16023071D01*
X6446667Y-15984976D02*
X6446667Y-16023071D01*
X6741905Y-16261167D02*
X6732381Y-16251643D01*
X6713333Y-16223071D01*
X6703809Y-16204024D01*
X6694286Y-16175452D01*
X6684762Y-16127833D01*
X6684762Y-16089738D01*
X6694286Y-16042119D01*
X6703809Y-16013548D01*
X6713333Y-15994500D01*
X6732381Y-15965928D01*
X6741905Y-15956405D01*
X6903809Y-16051643D02*
X6903809Y-16184976D01*
X6856190Y-15975452D02*
X6808571Y-16118309D01*
X6932381Y-16118309D01*
X7094286Y-15984976D02*
X7056190Y-15984976D01*
X7037143Y-15994500D01*
X7027619Y-16004024D01*
X7008571Y-16032595D01*
X6999048Y-16070690D01*
X6999048Y-16146881D01*
X7008571Y-16165928D01*
X7018095Y-16175452D01*
X7037143Y-16184976D01*
X7075238Y-16184976D01*
X7094286Y-16175452D01*
X7103809Y-16165928D01*
X7113333Y-16146881D01*
X7113333Y-16099262D01*
X7103809Y-16080214D01*
X7094286Y-16070690D01*
X7075238Y-16061167D01*
X7037143Y-16061167D01*
X7018095Y-16070690D01*
X7008571Y-16080214D01*
X6999048Y-16099262D01*
X7351428Y-16184976D02*
X7351428Y-15984976D01*
X7437143Y-16184976D02*
X7437143Y-16080214D01*
X7427619Y-16061167D01*
X7408571Y-16051643D01*
X7380000Y-16051643D01*
X7360952Y-16061167D01*
X7351428Y-16070690D01*
X7560952Y-16184976D02*
X7541905Y-16175452D01*
X7532381Y-16165928D01*
X7522857Y-16146881D01*
X7522857Y-16089738D01*
X7532381Y-16070690D01*
X7541905Y-16061167D01*
X7560952Y-16051643D01*
X7589524Y-16051643D01*
X7608571Y-16061167D01*
X7618095Y-16070690D01*
X7627619Y-16089738D01*
X7627619Y-16146881D01*
X7618095Y-16165928D01*
X7608571Y-16175452D01*
X7589524Y-16184976D01*
X7560952Y-16184976D01*
X7741905Y-16184976D02*
X7722857Y-16175452D01*
X7713333Y-16156405D01*
X7713333Y-15984976D01*
X7894286Y-16175452D02*
X7875238Y-16184976D01*
X7837143Y-16184976D01*
X7818095Y-16175452D01*
X7808571Y-16156405D01*
X7808571Y-16080214D01*
X7818095Y-16061167D01*
X7837143Y-16051643D01*
X7875238Y-16051643D01*
X7894286Y-16061167D01*
X7903809Y-16080214D01*
X7903809Y-16099262D01*
X7808571Y-16118309D01*
X7980000Y-16175452D02*
X7999048Y-16184976D01*
X8037143Y-16184976D01*
X8056190Y-16175452D01*
X8065714Y-16156405D01*
X8065714Y-16146881D01*
X8056190Y-16127833D01*
X8037143Y-16118309D01*
X8008571Y-16118309D01*
X7989524Y-16108786D01*
X7980000Y-16089738D01*
X7980000Y-16080214D01*
X7989524Y-16061167D01*
X8008571Y-16051643D01*
X8037143Y-16051643D01*
X8056190Y-16061167D01*
X8132381Y-16261167D02*
X8141905Y-16251643D01*
X8160952Y-16223071D01*
X8170476Y-16204024D01*
X8180000Y-16175452D01*
X8189524Y-16127833D01*
X8189524Y-16089738D01*
X8180000Y-16042119D01*
X8170476Y-16013548D01*
X8160952Y-15994500D01*
X8141905Y-15965928D01*
X8132381Y-15956405D01*
X8494286Y-16261167D02*
X8484762Y-16251643D01*
X8465714Y-16223071D01*
X8456190Y-16204024D01*
X8446667Y-16175452D01*
X8437143Y-16127833D01*
X8437143Y-16089738D01*
X8446667Y-16042119D01*
X8456190Y-16013548D01*
X8465714Y-15994500D01*
X8484762Y-15965928D01*
X8494286Y-15956405D01*
X8570476Y-16051643D02*
X8570476Y-16184976D01*
X8570476Y-16070690D02*
X8580000Y-16061167D01*
X8599048Y-16051643D01*
X8627619Y-16051643D01*
X8646667Y-16061167D01*
X8656190Y-16080214D01*
X8656190Y-16184976D01*
X8780000Y-16184976D02*
X8760952Y-16175452D01*
X8751429Y-16165928D01*
X8741905Y-16146881D01*
X8741905Y-16089738D01*
X8751429Y-16070690D01*
X8760952Y-16061167D01*
X8780000Y-16051643D01*
X8808571Y-16051643D01*
X8827619Y-16061167D01*
X8837143Y-16070690D01*
X8846667Y-16089738D01*
X8846667Y-16146881D01*
X8837143Y-16165928D01*
X8827619Y-16175452D01*
X8808571Y-16184976D01*
X8780000Y-16184976D01*
X8903810Y-16051643D02*
X8980000Y-16051643D01*
X8932381Y-15984976D02*
X8932381Y-16156405D01*
X8941905Y-16175452D01*
X8960952Y-16184976D01*
X8980000Y-16184976D01*
X9199048Y-16051643D02*
X9199048Y-16251643D01*
X9199048Y-16061167D02*
X9218095Y-16051643D01*
X9256190Y-16051643D01*
X9275238Y-16061167D01*
X9284762Y-16070690D01*
X9294286Y-16089738D01*
X9294286Y-16146881D01*
X9284762Y-16165928D01*
X9275238Y-16175452D01*
X9256190Y-16184976D01*
X9218095Y-16184976D01*
X9199048Y-16175452D01*
X9408571Y-16184976D02*
X9389524Y-16175452D01*
X9380000Y-16156405D01*
X9380000Y-15984976D01*
X9570476Y-16184976D02*
X9570476Y-16080214D01*
X9560952Y-16061167D01*
X9541905Y-16051643D01*
X9503810Y-16051643D01*
X9484762Y-16061167D01*
X9570476Y-16175452D02*
X9551429Y-16184976D01*
X9503810Y-16184976D01*
X9484762Y-16175452D01*
X9475238Y-16156405D01*
X9475238Y-16137357D01*
X9484762Y-16118309D01*
X9503810Y-16108786D01*
X9551429Y-16108786D01*
X9570476Y-16099262D01*
X9637143Y-16051643D02*
X9713333Y-16051643D01*
X9665714Y-15984976D02*
X9665714Y-16156405D01*
X9675238Y-16175452D01*
X9694286Y-16184976D01*
X9713333Y-16184976D01*
X9856190Y-16175452D02*
X9837143Y-16184976D01*
X9799048Y-16184976D01*
X9780000Y-16175452D01*
X9770476Y-16156405D01*
X9770476Y-16080214D01*
X9780000Y-16061167D01*
X9799048Y-16051643D01*
X9837143Y-16051643D01*
X9856190Y-16061167D01*
X9865714Y-16080214D01*
X9865714Y-16099262D01*
X9770476Y-16118309D01*
X10037143Y-16184976D02*
X10037143Y-15984976D01*
X10037143Y-16175452D02*
X10018095Y-16184976D01*
X9980000Y-16184976D01*
X9960952Y-16175452D01*
X9951429Y-16165928D01*
X9941905Y-16146881D01*
X9941905Y-16089738D01*
X9951429Y-16070690D01*
X9960952Y-16061167D01*
X9980000Y-16051643D01*
X10018095Y-16051643D01*
X10037143Y-16061167D01*
X10113333Y-16261167D02*
X10122857Y-16251643D01*
X10141905Y-16223071D01*
X10151429Y-16204024D01*
X10160952Y-16175452D01*
X10170476Y-16127833D01*
X10170476Y-16089738D01*
X10160952Y-16042119D01*
X10151429Y-16013548D01*
X10141905Y-15994500D01*
X10122857Y-15965928D01*
X10113333Y-15956405D01*
X3140711Y-16475211D02*
X3140711Y-16333789D01*
X2999289Y-16333789D01*
X2999289Y-16475211D01*
X3140711Y-16475211D01*
X3170000Y-16404500D02*
G75*
G03*
X3170000Y-16404500I-100000J0D01*
G01*
X3513333Y-16361643D02*
X3513333Y-16494976D01*
X3465714Y-16285452D02*
X3418095Y-16428309D01*
X3541905Y-16428309D01*
X3618095Y-16475928D02*
X3627619Y-16485452D01*
X3618095Y-16494976D01*
X3608571Y-16485452D01*
X3618095Y-16475928D01*
X3618095Y-16494976D01*
X3751428Y-16294976D02*
X3770476Y-16294976D01*
X3789524Y-16304500D01*
X3799048Y-16314024D01*
X3808571Y-16333071D01*
X3818095Y-16371167D01*
X3818095Y-16418786D01*
X3808571Y-16456881D01*
X3799048Y-16475928D01*
X3789524Y-16485452D01*
X3770476Y-16494976D01*
X3751428Y-16494976D01*
X3732381Y-16485452D01*
X3722857Y-16475928D01*
X3713333Y-16456881D01*
X3703809Y-16418786D01*
X3703809Y-16371167D01*
X3713333Y-16333071D01*
X3722857Y-16314024D01*
X3732381Y-16304500D01*
X3751428Y-16294976D01*
X3941905Y-16294976D02*
X3960952Y-16294976D01*
X3980000Y-16304500D01*
X3989524Y-16314024D01*
X3999048Y-16333071D01*
X4008571Y-16371167D01*
X4008571Y-16418786D01*
X3999048Y-16456881D01*
X3989524Y-16475928D01*
X3980000Y-16485452D01*
X3960952Y-16494976D01*
X3941905Y-16494976D01*
X3922857Y-16485452D01*
X3913333Y-16475928D01*
X3903809Y-16456881D01*
X3894286Y-16418786D01*
X3894286Y-16371167D01*
X3903809Y-16333071D01*
X3913333Y-16314024D01*
X3922857Y-16304500D01*
X3941905Y-16294976D01*
X4132381Y-16294976D02*
X4151428Y-16294976D01*
X4170476Y-16304500D01*
X4180000Y-16314024D01*
X4189524Y-16333071D01*
X4199048Y-16371167D01*
X4199048Y-16418786D01*
X4189524Y-16456881D01*
X4180000Y-16475928D01*
X4170476Y-16485452D01*
X4151428Y-16494976D01*
X4132381Y-16494976D01*
X4113333Y-16485452D01*
X4103809Y-16475928D01*
X4094286Y-16456881D01*
X4084762Y-16418786D01*
X4084762Y-16371167D01*
X4094286Y-16333071D01*
X4103809Y-16314024D01*
X4113333Y-16304500D01*
X4132381Y-16294976D01*
X4284762Y-16494976D02*
X4284762Y-16361643D01*
X4284762Y-16380690D02*
X4294286Y-16371167D01*
X4313333Y-16361643D01*
X4341905Y-16361643D01*
X4360952Y-16371167D01*
X4370476Y-16390214D01*
X4370476Y-16494976D01*
X4370476Y-16390214D02*
X4380000Y-16371167D01*
X4399048Y-16361643D01*
X4427619Y-16361643D01*
X4446667Y-16371167D01*
X4456190Y-16390214D01*
X4456190Y-16494976D01*
X4551429Y-16494976D02*
X4551429Y-16361643D01*
X4551429Y-16380690D02*
X4560952Y-16371167D01*
X4580000Y-16361643D01*
X4608571Y-16361643D01*
X4627619Y-16371167D01*
X4637143Y-16390214D01*
X4637143Y-16494976D01*
X4637143Y-16390214D02*
X4646667Y-16371167D01*
X4665714Y-16361643D01*
X4694286Y-16361643D01*
X4713333Y-16371167D01*
X4722857Y-16390214D01*
X4722857Y-16494976D01*
X5113333Y-16285452D02*
X4941905Y-16542595D01*
X5370476Y-16294976D02*
X5389524Y-16294976D01*
X5408571Y-16304500D01*
X5418095Y-16314024D01*
X5427619Y-16333071D01*
X5437143Y-16371167D01*
X5437143Y-16418786D01*
X5427619Y-16456881D01*
X5418095Y-16475928D01*
X5408571Y-16485452D01*
X5389524Y-16494976D01*
X5370476Y-16494976D01*
X5351429Y-16485452D01*
X5341905Y-16475928D01*
X5332381Y-16456881D01*
X5322857Y-16418786D01*
X5322857Y-16371167D01*
X5332381Y-16333071D01*
X5341905Y-16314024D01*
X5351429Y-16304500D01*
X5370476Y-16294976D01*
X5522857Y-16475928D02*
X5532381Y-16485452D01*
X5522857Y-16494976D01*
X5513333Y-16485452D01*
X5522857Y-16475928D01*
X5522857Y-16494976D01*
X5722857Y-16494976D02*
X5608571Y-16494976D01*
X5665714Y-16494976D02*
X5665714Y-16294976D01*
X5646667Y-16323548D01*
X5627619Y-16342595D01*
X5608571Y-16352119D01*
X5903809Y-16294976D02*
X5808571Y-16294976D01*
X5799048Y-16390214D01*
X5808571Y-16380690D01*
X5827619Y-16371167D01*
X5875238Y-16371167D01*
X5894286Y-16380690D01*
X5903809Y-16390214D01*
X5913333Y-16409262D01*
X5913333Y-16456881D01*
X5903809Y-16475928D01*
X5894286Y-16485452D01*
X5875238Y-16494976D01*
X5827619Y-16494976D01*
X5808571Y-16485452D01*
X5799048Y-16475928D01*
X5980000Y-16294976D02*
X6113333Y-16294976D01*
X6027619Y-16494976D01*
X6284762Y-16294976D02*
X6189524Y-16294976D01*
X6180000Y-16390214D01*
X6189524Y-16380690D01*
X6208571Y-16371167D01*
X6256190Y-16371167D01*
X6275238Y-16380690D01*
X6284762Y-16390214D01*
X6294286Y-16409262D01*
X6294286Y-16456881D01*
X6284762Y-16475928D01*
X6275238Y-16485452D01*
X6256190Y-16494976D01*
X6208571Y-16494976D01*
X6189524Y-16485452D01*
X6180000Y-16475928D01*
X6370476Y-16294976D02*
X6370476Y-16333071D01*
X6446667Y-16294976D02*
X6446667Y-16333071D01*
X6741905Y-16571167D02*
X6732381Y-16561643D01*
X6713333Y-16533071D01*
X6703809Y-16514024D01*
X6694286Y-16485452D01*
X6684762Y-16437833D01*
X6684762Y-16399738D01*
X6694286Y-16352119D01*
X6703809Y-16323548D01*
X6713333Y-16304500D01*
X6732381Y-16275928D01*
X6741905Y-16266405D01*
X6808571Y-16314024D02*
X6818095Y-16304500D01*
X6837143Y-16294976D01*
X6884762Y-16294976D01*
X6903809Y-16304500D01*
X6913333Y-16314024D01*
X6922857Y-16333071D01*
X6922857Y-16352119D01*
X6913333Y-16380690D01*
X6799048Y-16494976D01*
X6922857Y-16494976D01*
X6989524Y-16294976D02*
X7113333Y-16294976D01*
X7046667Y-16371167D01*
X7075238Y-16371167D01*
X7094286Y-16380690D01*
X7103809Y-16390214D01*
X7113333Y-16409262D01*
X7113333Y-16456881D01*
X7103809Y-16475928D01*
X7094286Y-16485452D01*
X7075238Y-16494976D01*
X7018095Y-16494976D01*
X6999048Y-16485452D01*
X6989524Y-16475928D01*
X7351428Y-16494976D02*
X7351428Y-16294976D01*
X7437143Y-16494976D02*
X7437143Y-16390214D01*
X7427619Y-16371167D01*
X7408571Y-16361643D01*
X7380000Y-16361643D01*
X7360952Y-16371167D01*
X7351428Y-16380690D01*
X7560952Y-16494976D02*
X7541905Y-16485452D01*
X7532381Y-16475928D01*
X7522857Y-16456881D01*
X7522857Y-16399738D01*
X7532381Y-16380690D01*
X7541905Y-16371167D01*
X7560952Y-16361643D01*
X7589524Y-16361643D01*
X7608571Y-16371167D01*
X7618095Y-16380690D01*
X7627619Y-16399738D01*
X7627619Y-16456881D01*
X7618095Y-16475928D01*
X7608571Y-16485452D01*
X7589524Y-16494976D01*
X7560952Y-16494976D01*
X7741905Y-16494976D02*
X7722857Y-16485452D01*
X7713333Y-16466405D01*
X7713333Y-16294976D01*
X7894286Y-16485452D02*
X7875238Y-16494976D01*
X7837143Y-16494976D01*
X7818095Y-16485452D01*
X7808571Y-16466405D01*
X7808571Y-16390214D01*
X7818095Y-16371167D01*
X7837143Y-16361643D01*
X7875238Y-16361643D01*
X7894286Y-16371167D01*
X7903809Y-16390214D01*
X7903809Y-16409262D01*
X7808571Y-16428309D01*
X7980000Y-16485452D02*
X7999048Y-16494976D01*
X8037143Y-16494976D01*
X8056190Y-16485452D01*
X8065714Y-16466405D01*
X8065714Y-16456881D01*
X8056190Y-16437833D01*
X8037143Y-16428309D01*
X8008571Y-16428309D01*
X7989524Y-16418786D01*
X7980000Y-16399738D01*
X7980000Y-16390214D01*
X7989524Y-16371167D01*
X8008571Y-16361643D01*
X8037143Y-16361643D01*
X8056190Y-16371167D01*
X8132381Y-16571167D02*
X8141905Y-16561643D01*
X8160952Y-16533071D01*
X8170476Y-16514024D01*
X8180000Y-16485452D01*
X8189524Y-16437833D01*
X8189524Y-16399738D01*
X8180000Y-16352119D01*
X8170476Y-16323548D01*
X8160952Y-16304500D01*
X8141905Y-16275928D01*
X8132381Y-16266405D01*
X8494286Y-16571167D02*
X8484762Y-16561643D01*
X8465714Y-16533071D01*
X8456190Y-16514024D01*
X8446667Y-16485452D01*
X8437143Y-16437833D01*
X8437143Y-16399738D01*
X8446667Y-16352119D01*
X8456190Y-16323548D01*
X8465714Y-16304500D01*
X8484762Y-16275928D01*
X8494286Y-16266405D01*
X8570476Y-16361643D02*
X8570476Y-16494976D01*
X8570476Y-16380690D02*
X8580000Y-16371167D01*
X8599048Y-16361643D01*
X8627619Y-16361643D01*
X8646667Y-16371167D01*
X8656190Y-16390214D01*
X8656190Y-16494976D01*
X8780000Y-16494976D02*
X8760952Y-16485452D01*
X8751429Y-16475928D01*
X8741905Y-16456881D01*
X8741905Y-16399738D01*
X8751429Y-16380690D01*
X8760952Y-16371167D01*
X8780000Y-16361643D01*
X8808571Y-16361643D01*
X8827619Y-16371167D01*
X8837143Y-16380690D01*
X8846667Y-16399738D01*
X8846667Y-16456881D01*
X8837143Y-16475928D01*
X8827619Y-16485452D01*
X8808571Y-16494976D01*
X8780000Y-16494976D01*
X8903810Y-16361643D02*
X8980000Y-16361643D01*
X8932381Y-16294976D02*
X8932381Y-16466405D01*
X8941905Y-16485452D01*
X8960952Y-16494976D01*
X8980000Y-16494976D01*
X9199048Y-16361643D02*
X9199048Y-16561643D01*
X9199048Y-16371167D02*
X9218095Y-16361643D01*
X9256190Y-16361643D01*
X9275238Y-16371167D01*
X9284762Y-16380690D01*
X9294286Y-16399738D01*
X9294286Y-16456881D01*
X9284762Y-16475928D01*
X9275238Y-16485452D01*
X9256190Y-16494976D01*
X9218095Y-16494976D01*
X9199048Y-16485452D01*
X9408571Y-16494976D02*
X9389524Y-16485452D01*
X9380000Y-16466405D01*
X9380000Y-16294976D01*
X9570476Y-16494976D02*
X9570476Y-16390214D01*
X9560952Y-16371167D01*
X9541905Y-16361643D01*
X9503810Y-16361643D01*
X9484762Y-16371167D01*
X9570476Y-16485452D02*
X9551429Y-16494976D01*
X9503810Y-16494976D01*
X9484762Y-16485452D01*
X9475238Y-16466405D01*
X9475238Y-16447357D01*
X9484762Y-16428309D01*
X9503810Y-16418786D01*
X9551429Y-16418786D01*
X9570476Y-16409262D01*
X9637143Y-16361643D02*
X9713333Y-16361643D01*
X9665714Y-16294976D02*
X9665714Y-16466405D01*
X9675238Y-16485452D01*
X9694286Y-16494976D01*
X9713333Y-16494976D01*
X9856190Y-16485452D02*
X9837143Y-16494976D01*
X9799048Y-16494976D01*
X9780000Y-16485452D01*
X9770476Y-16466405D01*
X9770476Y-16390214D01*
X9780000Y-16371167D01*
X9799048Y-16361643D01*
X9837143Y-16361643D01*
X9856190Y-16371167D01*
X9865714Y-16390214D01*
X9865714Y-16409262D01*
X9770476Y-16428309D01*
X10037143Y-16494976D02*
X10037143Y-16294976D01*
X10037143Y-16485452D02*
X10018095Y-16494976D01*
X9980000Y-16494976D01*
X9960952Y-16485452D01*
X9951429Y-16475928D01*
X9941905Y-16456881D01*
X9941905Y-16399738D01*
X9951429Y-16380690D01*
X9960952Y-16371167D01*
X9980000Y-16361643D01*
X10018095Y-16361643D01*
X10037143Y-16371167D01*
X10113333Y-16571167D02*
X10122857Y-16561643D01*
X10141905Y-16533071D01*
X10151429Y-16514024D01*
X10160952Y-16485452D01*
X10170476Y-16437833D01*
X10170476Y-16399738D01*
X10160952Y-16352119D01*
X10151429Y-16323548D01*
X10141905Y-16304500D01*
X10122857Y-16275928D01*
X10113333Y-16266405D01*
M02*
