G04 #@! TF.GenerationSoftware,KiCad,Pcbnew,(6.0.7)*
G04 #@! TF.CreationDate,2022-09-23T02:39:01+09:00*
G04 #@! TF.ProjectId,xipher_kbd_nohot,78697068-6572-45f6-9b62-645f6e6f686f,rev?*
G04 #@! TF.SameCoordinates,Original*
G04 #@! TF.FileFunction,Legend,Bot*
G04 #@! TF.FilePolarity,Positive*
%FSLAX46Y46*%
G04 Gerber Fmt 4.6, Leading zero omitted, Abs format (unit mm)*
G04 Created by KiCad (PCBNEW (6.0.7)) date 2022-09-23 02:39:01*
%MOMM*%
%LPD*%
G01*
G04 APERTURE LIST*
%ADD10C,0.150000*%
%ADD11C,0.254000*%
%ADD12C,0.381000*%
%ADD13C,0.120000*%
%ADD14C,0.200000*%
%ADD15R,1.752600X1.752600*%
%ADD16C,1.752600*%
%ADD17C,2.000000*%
%ADD18C,1.900000*%
%ADD19C,4.000000*%
%ADD20O,2.500000X2.000000*%
%ADD21C,3.800000*%
%ADD22R,2.000000X2.000000*%
%ADD23O,2.000000X3.400000*%
%ADD24R,1.300000X1.400000*%
%ADD25R,1.400000X1.300000*%
%ADD26R,1.700000X1.000000*%
%ADD27C,1.200000*%
%ADD28R,1.600000X1.000000*%
%ADD29R,1.100000X1.600000*%
%ADD30R,1.000000X1.700000*%
G04 APERTURE END LIST*
D10*
X86690166Y-47332057D02*
X86956833Y-47332057D01*
X86956833Y-47751104D02*
X86956833Y-46951104D01*
X86575880Y-46951104D01*
X85928261Y-47217771D02*
X85928261Y-47751104D01*
X86118738Y-46913009D02*
X86309214Y-47484438D01*
X85813976Y-47484438D01*
X87033023Y-39369200D02*
X87109214Y-39331104D01*
X87223500Y-39331104D01*
X87337785Y-39369200D01*
X87413976Y-39445390D01*
X87452071Y-39521580D01*
X87490166Y-39673961D01*
X87490166Y-39788247D01*
X87452071Y-39940628D01*
X87413976Y-40016819D01*
X87337785Y-40093009D01*
X87223500Y-40131104D01*
X87147309Y-40131104D01*
X87033023Y-40093009D01*
X86994928Y-40054914D01*
X86994928Y-39788247D01*
X87147309Y-39788247D01*
X86652071Y-40131104D02*
X86652071Y-39331104D01*
X86194928Y-40131104D01*
X86194928Y-39331104D01*
X85813976Y-40131104D02*
X85813976Y-39331104D01*
X85623500Y-39331104D01*
X85509214Y-39369200D01*
X85433023Y-39445390D01*
X85394928Y-39521580D01*
X85356833Y-39673961D01*
X85356833Y-39788247D01*
X85394928Y-39940628D01*
X85433023Y-40016819D01*
X85509214Y-40093009D01*
X85623500Y-40131104D01*
X85813976Y-40131104D01*
X87490166Y-44411104D02*
X87223500Y-45211104D01*
X86956833Y-44411104D01*
X86233023Y-45134914D02*
X86271119Y-45173009D01*
X86385404Y-45211104D01*
X86461595Y-45211104D01*
X86575880Y-45173009D01*
X86652071Y-45096819D01*
X86690166Y-45020628D01*
X86728261Y-44868247D01*
X86728261Y-44753961D01*
X86690166Y-44601580D01*
X86652071Y-44525390D01*
X86575880Y-44449200D01*
X86461595Y-44411104D01*
X86385404Y-44411104D01*
X86271119Y-44449200D01*
X86233023Y-44487295D01*
X85433023Y-45134914D02*
X85471119Y-45173009D01*
X85585404Y-45211104D01*
X85661595Y-45211104D01*
X85775880Y-45173009D01*
X85852071Y-45096819D01*
X85890166Y-45020628D01*
X85928261Y-44868247D01*
X85928261Y-44753961D01*
X85890166Y-44601580D01*
X85852071Y-44525390D01*
X85775880Y-44449200D01*
X85661595Y-44411104D01*
X85585404Y-44411104D01*
X85471119Y-44449200D01*
X85433023Y-44487295D01*
X86975880Y-37591104D02*
X87242547Y-37210152D01*
X87433023Y-37591104D02*
X87433023Y-36791104D01*
X87128261Y-36791104D01*
X87052071Y-36829200D01*
X87013976Y-36867295D01*
X86975880Y-36943485D01*
X86975880Y-37057771D01*
X87013976Y-37133961D01*
X87052071Y-37172057D01*
X87128261Y-37210152D01*
X87433023Y-37210152D01*
X86671119Y-37362533D02*
X86290166Y-37362533D01*
X86747309Y-37591104D02*
X86480642Y-36791104D01*
X86213976Y-37591104D01*
X86023500Y-36791104D02*
X85833023Y-37591104D01*
X85680642Y-37019676D01*
X85528261Y-37591104D01*
X85337785Y-36791104D01*
X76091976Y-52831104D02*
X76091976Y-52031104D01*
X75901500Y-52031104D01*
X75787214Y-52069200D01*
X75711023Y-52145390D01*
X75672928Y-52221580D01*
X75634833Y-52373961D01*
X75634833Y-52488247D01*
X75672928Y-52640628D01*
X75711023Y-52716819D01*
X75787214Y-52793009D01*
X75901500Y-52831104D01*
X76091976Y-52831104D01*
X74949119Y-52297771D02*
X74949119Y-52831104D01*
X75139595Y-51993009D02*
X75330071Y-52564438D01*
X74834833Y-52564438D01*
X75825309Y-65112057D02*
X75711023Y-65150152D01*
X75672928Y-65188247D01*
X75634833Y-65264438D01*
X75634833Y-65378723D01*
X75672928Y-65454914D01*
X75711023Y-65493009D01*
X75787214Y-65531104D01*
X76091976Y-65531104D01*
X76091976Y-64731104D01*
X75825309Y-64731104D01*
X75749119Y-64769200D01*
X75711023Y-64807295D01*
X75672928Y-64883485D01*
X75672928Y-64959676D01*
X75711023Y-65035866D01*
X75749119Y-65073961D01*
X75825309Y-65112057D01*
X76091976Y-65112057D01*
X74911023Y-64731104D02*
X75291976Y-64731104D01*
X75330071Y-65112057D01*
X75291976Y-65073961D01*
X75215785Y-65035866D01*
X75025309Y-65035866D01*
X74949119Y-65073961D01*
X74911023Y-65112057D01*
X74872928Y-65188247D01*
X74872928Y-65378723D01*
X74911023Y-65454914D01*
X74949119Y-65493009D01*
X75025309Y-65531104D01*
X75215785Y-65531104D01*
X75291976Y-65493009D01*
X75330071Y-65454914D01*
X76091976Y-40131104D02*
X76091976Y-39331104D01*
X75901500Y-39331104D01*
X75787214Y-39369200D01*
X75711023Y-39445390D01*
X75672928Y-39521580D01*
X75634833Y-39673961D01*
X75634833Y-39788247D01*
X75672928Y-39940628D01*
X75711023Y-40016819D01*
X75787214Y-40093009D01*
X75901500Y-40131104D01*
X76091976Y-40131104D01*
X75330071Y-39407295D02*
X75291976Y-39369200D01*
X75215785Y-39331104D01*
X75025309Y-39331104D01*
X74949119Y-39369200D01*
X74911023Y-39407295D01*
X74872928Y-39483485D01*
X74872928Y-39559676D01*
X74911023Y-39673961D01*
X75368166Y-40131104D01*
X74872928Y-40131104D01*
X76091976Y-50291104D02*
X76091976Y-49491104D01*
X75901500Y-49491104D01*
X75787214Y-49529200D01*
X75711023Y-49605390D01*
X75672928Y-49681580D01*
X75634833Y-49833961D01*
X75634833Y-49948247D01*
X75672928Y-50100628D01*
X75711023Y-50176819D01*
X75787214Y-50253009D01*
X75901500Y-50291104D01*
X76091976Y-50291104D01*
X75139595Y-49491104D02*
X75063404Y-49491104D01*
X74987214Y-49529200D01*
X74949119Y-49567295D01*
X74911023Y-49643485D01*
X74872928Y-49795866D01*
X74872928Y-49986342D01*
X74911023Y-50138723D01*
X74949119Y-50214914D01*
X74987214Y-50253009D01*
X75063404Y-50291104D01*
X75139595Y-50291104D01*
X75215785Y-50253009D01*
X75253880Y-50214914D01*
X75291976Y-50138723D01*
X75330071Y-49986342D01*
X75330071Y-49795866D01*
X75291976Y-49643485D01*
X75253880Y-49567295D01*
X75215785Y-49529200D01*
X75139595Y-49491104D01*
X86535833Y-42613009D02*
X86421547Y-42651104D01*
X86231071Y-42651104D01*
X86154880Y-42613009D01*
X86116785Y-42574914D01*
X86078690Y-42498723D01*
X86078690Y-42422533D01*
X86116785Y-42346342D01*
X86154880Y-42308247D01*
X86231071Y-42270152D01*
X86383452Y-42232057D01*
X86459642Y-42193961D01*
X86497738Y-42155866D01*
X86535833Y-42079676D01*
X86535833Y-42003485D01*
X86497738Y-41927295D01*
X86459642Y-41889200D01*
X86383452Y-41851104D01*
X86192976Y-41851104D01*
X86078690Y-41889200D01*
X85850119Y-41851104D02*
X85392976Y-41851104D01*
X85621547Y-42651104D02*
X85621547Y-41851104D01*
X86690166Y-54952057D02*
X86956833Y-54952057D01*
X86956833Y-55371104D02*
X86956833Y-54571104D01*
X86575880Y-54571104D01*
X86347309Y-54571104D02*
X85813976Y-54571104D01*
X86156833Y-55371104D01*
X86690166Y-49872057D02*
X86956833Y-49872057D01*
X86956833Y-50291104D02*
X86956833Y-49491104D01*
X86575880Y-49491104D01*
X85890166Y-49491104D02*
X86271119Y-49491104D01*
X86309214Y-49872057D01*
X86271119Y-49833961D01*
X86194928Y-49795866D01*
X86004452Y-49795866D01*
X85928261Y-49833961D01*
X85890166Y-49872057D01*
X85852071Y-49948247D01*
X85852071Y-50138723D01*
X85890166Y-50214914D01*
X85928261Y-50253009D01*
X86004452Y-50291104D01*
X86194928Y-50291104D01*
X86271119Y-50253009D01*
X86309214Y-50214914D01*
X86747309Y-62572057D02*
X86633023Y-62610152D01*
X86594928Y-62648247D01*
X86556833Y-62724438D01*
X86556833Y-62838723D01*
X86594928Y-62914914D01*
X86633023Y-62953009D01*
X86709214Y-62991104D01*
X87013976Y-62991104D01*
X87013976Y-62191104D01*
X86747309Y-62191104D01*
X86671119Y-62229200D01*
X86633023Y-62267295D01*
X86594928Y-62343485D01*
X86594928Y-62419676D01*
X86633023Y-62495866D01*
X86671119Y-62533961D01*
X86747309Y-62572057D01*
X87013976Y-62572057D01*
X86252071Y-62267295D02*
X86213976Y-62229200D01*
X86137785Y-62191104D01*
X85947309Y-62191104D01*
X85871119Y-62229200D01*
X85833023Y-62267295D01*
X85794928Y-62343485D01*
X85794928Y-62419676D01*
X85833023Y-62533961D01*
X86290166Y-62991104D01*
X85794928Y-62991104D01*
X86747309Y-57492057D02*
X86633023Y-57530152D01*
X86594928Y-57568247D01*
X86556833Y-57644438D01*
X86556833Y-57758723D01*
X86594928Y-57834914D01*
X86633023Y-57873009D01*
X86709214Y-57911104D01*
X87013976Y-57911104D01*
X87013976Y-57111104D01*
X86747309Y-57111104D01*
X86671119Y-57149200D01*
X86633023Y-57187295D01*
X86594928Y-57263485D01*
X86594928Y-57339676D01*
X86633023Y-57415866D01*
X86671119Y-57453961D01*
X86747309Y-57492057D01*
X87013976Y-57492057D01*
X85794928Y-57911104D02*
X86252071Y-57911104D01*
X86023500Y-57911104D02*
X86023500Y-57111104D01*
X86099690Y-57225390D01*
X86175880Y-57301580D01*
X86252071Y-57339676D01*
X79581104Y-36791104D02*
X79123961Y-36791104D01*
X79352532Y-37591104D02*
X79352532Y-36791104D01*
X78933485Y-36791104D02*
X78400151Y-37591104D01*
X78400151Y-36791104D02*
X78933485Y-37591104D01*
X77943008Y-36791104D02*
X77866818Y-36791104D01*
X77790628Y-36829200D01*
X77752532Y-36867295D01*
X77714437Y-36943485D01*
X77676342Y-37095866D01*
X77676342Y-37286342D01*
X77714437Y-37438723D01*
X77752532Y-37514914D01*
X77790628Y-37553009D01*
X77866818Y-37591104D01*
X77943008Y-37591104D01*
X78019199Y-37553009D01*
X78057294Y-37514914D01*
X78095389Y-37438723D01*
X78133485Y-37286342D01*
X78133485Y-37095866D01*
X78095389Y-36943485D01*
X78057294Y-36867295D01*
X78019199Y-36829200D01*
X77943008Y-36791104D01*
X76762056Y-36753009D02*
X77447770Y-37781580D01*
X76495389Y-37591104D02*
X76495389Y-36791104D01*
X76304913Y-36791104D01*
X76190628Y-36829200D01*
X76114437Y-36905390D01*
X76076342Y-36981580D01*
X76038247Y-37133961D01*
X76038247Y-37248247D01*
X76076342Y-37400628D01*
X76114437Y-37476819D01*
X76190628Y-37553009D01*
X76304913Y-37591104D01*
X76495389Y-37591104D01*
X75771580Y-36791104D02*
X75276342Y-36791104D01*
X75543008Y-37095866D01*
X75428723Y-37095866D01*
X75352532Y-37133961D01*
X75314437Y-37172057D01*
X75276342Y-37248247D01*
X75276342Y-37438723D01*
X75314437Y-37514914D01*
X75352532Y-37553009D01*
X75428723Y-37591104D01*
X75657294Y-37591104D01*
X75733485Y-37553009D01*
X75771580Y-37514914D01*
X76053880Y-60032057D02*
X75787214Y-60032057D01*
X75672928Y-60451104D02*
X76053880Y-60451104D01*
X76053880Y-59651104D01*
X75672928Y-59651104D01*
X74987214Y-59651104D02*
X75139595Y-59651104D01*
X75215785Y-59689200D01*
X75253880Y-59727295D01*
X75330071Y-59841580D01*
X75368166Y-59993961D01*
X75368166Y-60298723D01*
X75330071Y-60374914D01*
X75291976Y-60413009D01*
X75215785Y-60451104D01*
X75063404Y-60451104D01*
X74987214Y-60413009D01*
X74949119Y-60374914D01*
X74911023Y-60298723D01*
X74911023Y-60108247D01*
X74949119Y-60032057D01*
X74987214Y-59993961D01*
X75063404Y-59955866D01*
X75215785Y-59955866D01*
X75291976Y-59993961D01*
X75330071Y-60032057D01*
X75368166Y-60108247D01*
X86690166Y-52412057D02*
X86956833Y-52412057D01*
X86956833Y-52831104D02*
X86956833Y-52031104D01*
X86575880Y-52031104D01*
X85928261Y-52031104D02*
X86080642Y-52031104D01*
X86156833Y-52069200D01*
X86194928Y-52107295D01*
X86271119Y-52221580D01*
X86309214Y-52373961D01*
X86309214Y-52678723D01*
X86271119Y-52754914D01*
X86233023Y-52793009D01*
X86156833Y-52831104D01*
X86004452Y-52831104D01*
X85928261Y-52793009D01*
X85890166Y-52754914D01*
X85852071Y-52678723D01*
X85852071Y-52488247D01*
X85890166Y-52412057D01*
X85928261Y-52373961D01*
X86004452Y-52335866D01*
X86156833Y-52335866D01*
X86233023Y-52373961D01*
X86271119Y-52412057D01*
X86309214Y-52488247D01*
X76091976Y-47751104D02*
X76091976Y-46951104D01*
X75901500Y-46951104D01*
X75787214Y-46989200D01*
X75711023Y-47065390D01*
X75672928Y-47141580D01*
X75634833Y-47293961D01*
X75634833Y-47408247D01*
X75672928Y-47560628D01*
X75711023Y-47636819D01*
X75787214Y-47713009D01*
X75901500Y-47751104D01*
X76091976Y-47751104D01*
X74872928Y-47751104D02*
X75330071Y-47751104D01*
X75101500Y-47751104D02*
X75101500Y-46951104D01*
X75177690Y-47065390D01*
X75253880Y-47141580D01*
X75330071Y-47179676D01*
X86747309Y-60032057D02*
X86633023Y-60070152D01*
X86594928Y-60108247D01*
X86556833Y-60184438D01*
X86556833Y-60298723D01*
X86594928Y-60374914D01*
X86633023Y-60413009D01*
X86709214Y-60451104D01*
X87013976Y-60451104D01*
X87013976Y-59651104D01*
X86747309Y-59651104D01*
X86671119Y-59689200D01*
X86633023Y-59727295D01*
X86594928Y-59803485D01*
X86594928Y-59879676D01*
X86633023Y-59955866D01*
X86671119Y-59993961D01*
X86747309Y-60032057D01*
X87013976Y-60032057D01*
X86290166Y-59651104D02*
X85794928Y-59651104D01*
X86061595Y-59955866D01*
X85947309Y-59955866D01*
X85871119Y-59993961D01*
X85833023Y-60032057D01*
X85794928Y-60108247D01*
X85794928Y-60298723D01*
X85833023Y-60374914D01*
X85871119Y-60413009D01*
X85947309Y-60451104D01*
X86175880Y-60451104D01*
X86252071Y-60413009D01*
X86290166Y-60374914D01*
X76111023Y-41909200D02*
X76187214Y-41871104D01*
X76301500Y-41871104D01*
X76415785Y-41909200D01*
X76491976Y-41985390D01*
X76530071Y-42061580D01*
X76568166Y-42213961D01*
X76568166Y-42328247D01*
X76530071Y-42480628D01*
X76491976Y-42556819D01*
X76415785Y-42633009D01*
X76301500Y-42671104D01*
X76225309Y-42671104D01*
X76111023Y-42633009D01*
X76072928Y-42594914D01*
X76072928Y-42328247D01*
X76225309Y-42328247D01*
X75730071Y-42671104D02*
X75730071Y-41871104D01*
X75272928Y-42671104D01*
X75272928Y-41871104D01*
X74891976Y-42671104D02*
X74891976Y-41871104D01*
X74701500Y-41871104D01*
X74587214Y-41909200D01*
X74511023Y-41985390D01*
X74472928Y-42061580D01*
X74434833Y-42213961D01*
X74434833Y-42328247D01*
X74472928Y-42480628D01*
X74511023Y-42556819D01*
X74587214Y-42633009D01*
X74701500Y-42671104D01*
X74891976Y-42671104D01*
X75634833Y-55294914D02*
X75672928Y-55333009D01*
X75787214Y-55371104D01*
X75863404Y-55371104D01*
X75977690Y-55333009D01*
X76053880Y-55256819D01*
X76091976Y-55180628D01*
X76130071Y-55028247D01*
X76130071Y-54913961D01*
X76091976Y-54761580D01*
X76053880Y-54685390D01*
X75977690Y-54609200D01*
X75863404Y-54571104D01*
X75787214Y-54571104D01*
X75672928Y-54609200D01*
X75634833Y-54647295D01*
X74949119Y-54571104D02*
X75101500Y-54571104D01*
X75177690Y-54609200D01*
X75215785Y-54647295D01*
X75291976Y-54761580D01*
X75330071Y-54913961D01*
X75330071Y-55218723D01*
X75291976Y-55294914D01*
X75253880Y-55333009D01*
X75177690Y-55371104D01*
X75025309Y-55371104D01*
X74949119Y-55333009D01*
X74911023Y-55294914D01*
X74872928Y-55218723D01*
X74872928Y-55028247D01*
X74911023Y-54952057D01*
X74949119Y-54913961D01*
X75025309Y-54875866D01*
X75177690Y-54875866D01*
X75253880Y-54913961D01*
X75291976Y-54952057D01*
X75330071Y-55028247D01*
X86747309Y-65112057D02*
X86633023Y-65150152D01*
X86594928Y-65188247D01*
X86556833Y-65264438D01*
X86556833Y-65378723D01*
X86594928Y-65454914D01*
X86633023Y-65493009D01*
X86709214Y-65531104D01*
X87013976Y-65531104D01*
X87013976Y-64731104D01*
X86747309Y-64731104D01*
X86671119Y-64769200D01*
X86633023Y-64807295D01*
X86594928Y-64883485D01*
X86594928Y-64959676D01*
X86633023Y-65035866D01*
X86671119Y-65073961D01*
X86747309Y-65112057D01*
X87013976Y-65112057D01*
X85871119Y-64731104D02*
X86023500Y-64731104D01*
X86099690Y-64769200D01*
X86137785Y-64807295D01*
X86213976Y-64921580D01*
X86252071Y-65073961D01*
X86252071Y-65378723D01*
X86213976Y-65454914D01*
X86175880Y-65493009D01*
X86099690Y-65531104D01*
X85947309Y-65531104D01*
X85871119Y-65493009D01*
X85833023Y-65454914D01*
X85794928Y-65378723D01*
X85794928Y-65188247D01*
X85833023Y-65112057D01*
X85871119Y-65073961D01*
X85947309Y-65035866D01*
X86099690Y-65035866D01*
X86175880Y-65073961D01*
X86213976Y-65112057D01*
X86252071Y-65188247D01*
X76111023Y-44449200D02*
X76187214Y-44411104D01*
X76301500Y-44411104D01*
X76415785Y-44449200D01*
X76491976Y-44525390D01*
X76530071Y-44601580D01*
X76568166Y-44753961D01*
X76568166Y-44868247D01*
X76530071Y-45020628D01*
X76491976Y-45096819D01*
X76415785Y-45173009D01*
X76301500Y-45211104D01*
X76225309Y-45211104D01*
X76111023Y-45173009D01*
X76072928Y-45134914D01*
X76072928Y-44868247D01*
X76225309Y-44868247D01*
X75730071Y-45211104D02*
X75730071Y-44411104D01*
X75272928Y-45211104D01*
X75272928Y-44411104D01*
X74891976Y-45211104D02*
X74891976Y-44411104D01*
X74701500Y-44411104D01*
X74587214Y-44449200D01*
X74511023Y-44525390D01*
X74472928Y-44601580D01*
X74434833Y-44753961D01*
X74434833Y-44868247D01*
X74472928Y-45020628D01*
X74511023Y-45096819D01*
X74587214Y-45173009D01*
X74701500Y-45211104D01*
X74891976Y-45211104D01*
X76091976Y-57911104D02*
X76091976Y-57111104D01*
X75901500Y-57111104D01*
X75787214Y-57149200D01*
X75711023Y-57225390D01*
X75672928Y-57301580D01*
X75634833Y-57453961D01*
X75634833Y-57568247D01*
X75672928Y-57720628D01*
X75711023Y-57796819D01*
X75787214Y-57873009D01*
X75901500Y-57911104D01*
X76091976Y-57911104D01*
X75368166Y-57111104D02*
X74834833Y-57111104D01*
X75177690Y-57911104D01*
X75825309Y-62572057D02*
X75711023Y-62610152D01*
X75672928Y-62648247D01*
X75634833Y-62724438D01*
X75634833Y-62838723D01*
X75672928Y-62914914D01*
X75711023Y-62953009D01*
X75787214Y-62991104D01*
X76091976Y-62991104D01*
X76091976Y-62191104D01*
X75825309Y-62191104D01*
X75749119Y-62229200D01*
X75711023Y-62267295D01*
X75672928Y-62343485D01*
X75672928Y-62419676D01*
X75711023Y-62495866D01*
X75749119Y-62533961D01*
X75825309Y-62572057D01*
X76091976Y-62572057D01*
X74949119Y-62457771D02*
X74949119Y-62991104D01*
X75139595Y-62153009D02*
X75330071Y-62724438D01*
X74834833Y-62724438D01*
X43981547Y-53157380D02*
X44457738Y-53157380D01*
X44457738Y-52157380D01*
X43648214Y-52633571D02*
X43314880Y-52633571D01*
X43172023Y-53157380D02*
X43648214Y-53157380D01*
X43648214Y-52157380D01*
X43172023Y-52157380D01*
X42743452Y-53157380D02*
X42743452Y-52157380D01*
X42505357Y-52157380D01*
X42362500Y-52205000D01*
X42267261Y-52300238D01*
X42219642Y-52395476D01*
X42172023Y-52585952D01*
X42172023Y-52728809D01*
X42219642Y-52919285D01*
X42267261Y-53014523D01*
X42362500Y-53109761D01*
X42505357Y-53157380D01*
X42743452Y-53157380D01*
X41219642Y-53157380D02*
X41791071Y-53157380D01*
X41505357Y-53157380D02*
X41505357Y-52157380D01*
X41600595Y-52300238D01*
X41695833Y-52395476D01*
X41791071Y-52443095D01*
X90939880Y-72366319D02*
X90463690Y-72032985D01*
X90939880Y-71794890D02*
X89939880Y-71794890D01*
X89939880Y-72175842D01*
X89987500Y-72271080D01*
X90035119Y-72318700D01*
X90130357Y-72366319D01*
X90273214Y-72366319D01*
X90368452Y-72318700D01*
X90416071Y-72271080D01*
X90463690Y-72175842D01*
X90463690Y-71794890D01*
X90416071Y-72794890D02*
X90416071Y-73128223D01*
X90939880Y-73271080D02*
X90939880Y-72794890D01*
X89939880Y-72794890D01*
X89939880Y-73271080D01*
X90892261Y-73652033D02*
X90939880Y-73794890D01*
X90939880Y-74032985D01*
X90892261Y-74128223D01*
X90844642Y-74175842D01*
X90749404Y-74223461D01*
X90654166Y-74223461D01*
X90558928Y-74175842D01*
X90511309Y-74128223D01*
X90463690Y-74032985D01*
X90416071Y-73842509D01*
X90368452Y-73747271D01*
X90320833Y-73699652D01*
X90225595Y-73652033D01*
X90130357Y-73652033D01*
X90035119Y-73699652D01*
X89987500Y-73747271D01*
X89939880Y-73842509D01*
X89939880Y-74080604D01*
X89987500Y-74223461D01*
X90416071Y-74652033D02*
X90416071Y-74985366D01*
X90939880Y-75128223D02*
X90939880Y-74652033D01*
X89939880Y-74652033D01*
X89939880Y-75128223D01*
X89939880Y-75413938D02*
X89939880Y-75985366D01*
X90939880Y-75699652D02*
X89939880Y-75699652D01*
X82557738Y-129157380D02*
X83033928Y-129157380D01*
X83033928Y-128157380D01*
X82224404Y-128633571D02*
X81891071Y-128633571D01*
X81748214Y-129157380D02*
X82224404Y-129157380D01*
X82224404Y-128157380D01*
X81748214Y-128157380D01*
X81319642Y-129157380D02*
X81319642Y-128157380D01*
X81081547Y-128157380D01*
X80938690Y-128205000D01*
X80843452Y-128300238D01*
X80795833Y-128395476D01*
X80748214Y-128585952D01*
X80748214Y-128728809D01*
X80795833Y-128919285D01*
X80843452Y-129014523D01*
X80938690Y-129109761D01*
X81081547Y-129157380D01*
X81319642Y-129157380D01*
X80367261Y-128252619D02*
X80319642Y-128205000D01*
X80224404Y-128157380D01*
X79986309Y-128157380D01*
X79891071Y-128205000D01*
X79843452Y-128252619D01*
X79795833Y-128347857D01*
X79795833Y-128443095D01*
X79843452Y-128585952D01*
X80414880Y-129157380D01*
X79795833Y-129157380D01*
X79462500Y-128157380D02*
X78843452Y-128157380D01*
X79176785Y-128538333D01*
X79033928Y-128538333D01*
X78938690Y-128585952D01*
X78891071Y-128633571D01*
X78843452Y-128728809D01*
X78843452Y-128966904D01*
X78891071Y-129062142D01*
X78938690Y-129109761D01*
X79033928Y-129157380D01*
X79319642Y-129157380D01*
X79414880Y-129109761D01*
X79462500Y-129062142D01*
X82081547Y-53157380D02*
X82557738Y-53157380D01*
X82557738Y-52157380D01*
X81748214Y-52633571D02*
X81414880Y-52633571D01*
X81272023Y-53157380D02*
X81748214Y-53157380D01*
X81748214Y-52157380D01*
X81272023Y-52157380D01*
X80843452Y-53157380D02*
X80843452Y-52157380D01*
X80605357Y-52157380D01*
X80462500Y-52205000D01*
X80367261Y-52300238D01*
X80319642Y-52395476D01*
X80272023Y-52585952D01*
X80272023Y-52728809D01*
X80319642Y-52919285D01*
X80367261Y-53014523D01*
X80462500Y-53109761D01*
X80605357Y-53157380D01*
X80843452Y-53157380D01*
X79938690Y-52157380D02*
X79319642Y-52157380D01*
X79652976Y-52538333D01*
X79510119Y-52538333D01*
X79414880Y-52585952D01*
X79367261Y-52633571D01*
X79319642Y-52728809D01*
X79319642Y-52966904D01*
X79367261Y-53062142D01*
X79414880Y-53109761D01*
X79510119Y-53157380D01*
X79795833Y-53157380D01*
X79891071Y-53109761D01*
X79938690Y-53062142D01*
X63507738Y-91257380D02*
X63983928Y-91257380D01*
X63983928Y-90257380D01*
X63174404Y-90733571D02*
X62841071Y-90733571D01*
X62698214Y-91257380D02*
X63174404Y-91257380D01*
X63174404Y-90257380D01*
X62698214Y-90257380D01*
X62269642Y-91257380D02*
X62269642Y-90257380D01*
X62031547Y-90257380D01*
X61888690Y-90305000D01*
X61793452Y-90400238D01*
X61745833Y-90495476D01*
X61698214Y-90685952D01*
X61698214Y-90828809D01*
X61745833Y-91019285D01*
X61793452Y-91114523D01*
X61888690Y-91209761D01*
X62031547Y-91257380D01*
X62269642Y-91257380D01*
X60745833Y-91257380D02*
X61317261Y-91257380D01*
X61031547Y-91257380D02*
X61031547Y-90257380D01*
X61126785Y-90400238D01*
X61222023Y-90495476D01*
X61317261Y-90543095D01*
X60364880Y-90352619D02*
X60317261Y-90305000D01*
X60222023Y-90257380D01*
X59983928Y-90257380D01*
X59888690Y-90305000D01*
X59841071Y-90352619D01*
X59793452Y-90447857D01*
X59793452Y-90543095D01*
X59841071Y-90685952D01*
X60412500Y-91257380D01*
X59793452Y-91257380D01*
X44457738Y-91257380D02*
X44933928Y-91257380D01*
X44933928Y-90257380D01*
X44124404Y-90733571D02*
X43791071Y-90733571D01*
X43648214Y-91257380D02*
X44124404Y-91257380D01*
X44124404Y-90257380D01*
X43648214Y-90257380D01*
X43219642Y-91257380D02*
X43219642Y-90257380D01*
X42981547Y-90257380D01*
X42838690Y-90305000D01*
X42743452Y-90400238D01*
X42695833Y-90495476D01*
X42648214Y-90685952D01*
X42648214Y-90828809D01*
X42695833Y-91019285D01*
X42743452Y-91114523D01*
X42838690Y-91209761D01*
X42981547Y-91257380D01*
X43219642Y-91257380D01*
X41695833Y-91257380D02*
X42267261Y-91257380D01*
X41981547Y-91257380D02*
X41981547Y-90257380D01*
X42076785Y-90400238D01*
X42172023Y-90495476D01*
X42267261Y-90543095D01*
X40743452Y-91257380D02*
X41314880Y-91257380D01*
X41029166Y-91257380D02*
X41029166Y-90257380D01*
X41124404Y-90400238D01*
X41219642Y-90495476D01*
X41314880Y-90543095D01*
D11*
X129076547Y-118094880D02*
X129137023Y-118276309D01*
X129137023Y-118578690D01*
X129076547Y-118699642D01*
X129016071Y-118760119D01*
X128895119Y-118820595D01*
X128774166Y-118820595D01*
X128653214Y-118760119D01*
X128592738Y-118699642D01*
X128532261Y-118578690D01*
X128471785Y-118336785D01*
X128411309Y-118215833D01*
X128350833Y-118155357D01*
X128229880Y-118094880D01*
X128108928Y-118094880D01*
X127987976Y-118155357D01*
X127927500Y-118215833D01*
X127867023Y-118336785D01*
X127867023Y-118639166D01*
X127927500Y-118820595D01*
X129137023Y-120030119D02*
X129137023Y-119304404D01*
X129137023Y-119667261D02*
X127867023Y-119667261D01*
X128048452Y-119546309D01*
X128169404Y-119425357D01*
X128229880Y-119304404D01*
D10*
X63507738Y-110307380D02*
X63983928Y-110307380D01*
X63983928Y-109307380D01*
X63174404Y-109783571D02*
X62841071Y-109783571D01*
X62698214Y-110307380D02*
X63174404Y-110307380D01*
X63174404Y-109307380D01*
X62698214Y-109307380D01*
X62269642Y-110307380D02*
X62269642Y-109307380D01*
X62031547Y-109307380D01*
X61888690Y-109355000D01*
X61793452Y-109450238D01*
X61745833Y-109545476D01*
X61698214Y-109735952D01*
X61698214Y-109878809D01*
X61745833Y-110069285D01*
X61793452Y-110164523D01*
X61888690Y-110259761D01*
X62031547Y-110307380D01*
X62269642Y-110307380D01*
X60745833Y-110307380D02*
X61317261Y-110307380D01*
X61031547Y-110307380D02*
X61031547Y-109307380D01*
X61126785Y-109450238D01*
X61222023Y-109545476D01*
X61317261Y-109593095D01*
X60412500Y-109307380D02*
X59745833Y-109307380D01*
X60174404Y-110307380D01*
X63507738Y-129157380D02*
X63983928Y-129157380D01*
X63983928Y-128157380D01*
X63174404Y-128633571D02*
X62841071Y-128633571D01*
X62698214Y-129157380D02*
X63174404Y-129157380D01*
X63174404Y-128157380D01*
X62698214Y-128157380D01*
X62269642Y-129157380D02*
X62269642Y-128157380D01*
X62031547Y-128157380D01*
X61888690Y-128205000D01*
X61793452Y-128300238D01*
X61745833Y-128395476D01*
X61698214Y-128585952D01*
X61698214Y-128728809D01*
X61745833Y-128919285D01*
X61793452Y-129014523D01*
X61888690Y-129109761D01*
X62031547Y-129157380D01*
X62269642Y-129157380D01*
X61317261Y-128252619D02*
X61269642Y-128205000D01*
X61174404Y-128157380D01*
X60936309Y-128157380D01*
X60841071Y-128205000D01*
X60793452Y-128252619D01*
X60745833Y-128347857D01*
X60745833Y-128443095D01*
X60793452Y-128585952D01*
X61364880Y-129157380D01*
X60745833Y-129157380D01*
X60364880Y-128252619D02*
X60317261Y-128205000D01*
X60222023Y-128157380D01*
X59983928Y-128157380D01*
X59888690Y-128205000D01*
X59841071Y-128252619D01*
X59793452Y-128347857D01*
X59793452Y-128443095D01*
X59841071Y-128585952D01*
X60412500Y-129157380D01*
X59793452Y-129157380D01*
X82081547Y-72207380D02*
X82557738Y-72207380D01*
X82557738Y-71207380D01*
X81748214Y-71683571D02*
X81414880Y-71683571D01*
X81272023Y-72207380D02*
X81748214Y-72207380D01*
X81748214Y-71207380D01*
X81272023Y-71207380D01*
X80843452Y-72207380D02*
X80843452Y-71207380D01*
X80605357Y-71207380D01*
X80462500Y-71255000D01*
X80367261Y-71350238D01*
X80319642Y-71445476D01*
X80272023Y-71635952D01*
X80272023Y-71778809D01*
X80319642Y-71969285D01*
X80367261Y-72064523D01*
X80462500Y-72159761D01*
X80605357Y-72207380D01*
X80843452Y-72207380D01*
X79700595Y-71635952D02*
X79795833Y-71588333D01*
X79843452Y-71540714D01*
X79891071Y-71445476D01*
X79891071Y-71397857D01*
X79843452Y-71302619D01*
X79795833Y-71255000D01*
X79700595Y-71207380D01*
X79510119Y-71207380D01*
X79414880Y-71255000D01*
X79367261Y-71302619D01*
X79319642Y-71397857D01*
X79319642Y-71445476D01*
X79367261Y-71540714D01*
X79414880Y-71588333D01*
X79510119Y-71635952D01*
X79700595Y-71635952D01*
X79795833Y-71683571D01*
X79843452Y-71731190D01*
X79891071Y-71826428D01*
X79891071Y-72016904D01*
X79843452Y-72112142D01*
X79795833Y-72159761D01*
X79700595Y-72207380D01*
X79510119Y-72207380D01*
X79414880Y-72159761D01*
X79367261Y-72112142D01*
X79319642Y-72016904D01*
X79319642Y-71826428D01*
X79367261Y-71731190D01*
X79414880Y-71683571D01*
X79510119Y-71635952D01*
D11*
X33851547Y-118094880D02*
X33912023Y-118276309D01*
X33912023Y-118578690D01*
X33851547Y-118699642D01*
X33791071Y-118760119D01*
X33670119Y-118820595D01*
X33549166Y-118820595D01*
X33428214Y-118760119D01*
X33367738Y-118699642D01*
X33307261Y-118578690D01*
X33246785Y-118336785D01*
X33186309Y-118215833D01*
X33125833Y-118155357D01*
X33004880Y-118094880D01*
X32883928Y-118094880D01*
X32762976Y-118155357D01*
X32702500Y-118215833D01*
X32642023Y-118336785D01*
X32642023Y-118639166D01*
X32702500Y-118820595D01*
X32762976Y-119304404D02*
X32702500Y-119364880D01*
X32642023Y-119485833D01*
X32642023Y-119788214D01*
X32702500Y-119909166D01*
X32762976Y-119969642D01*
X32883928Y-120030119D01*
X33004880Y-120030119D01*
X33186309Y-119969642D01*
X33912023Y-119243928D01*
X33912023Y-120030119D01*
D10*
X101607738Y-91257380D02*
X102083928Y-91257380D01*
X102083928Y-90257380D01*
X101274404Y-90733571D02*
X100941071Y-90733571D01*
X100798214Y-91257380D02*
X101274404Y-91257380D01*
X101274404Y-90257380D01*
X100798214Y-90257380D01*
X100369642Y-91257380D02*
X100369642Y-90257380D01*
X100131547Y-90257380D01*
X99988690Y-90305000D01*
X99893452Y-90400238D01*
X99845833Y-90495476D01*
X99798214Y-90685952D01*
X99798214Y-90828809D01*
X99845833Y-91019285D01*
X99893452Y-91114523D01*
X99988690Y-91209761D01*
X100131547Y-91257380D01*
X100369642Y-91257380D01*
X98845833Y-91257380D02*
X99417261Y-91257380D01*
X99131547Y-91257380D02*
X99131547Y-90257380D01*
X99226785Y-90400238D01*
X99322023Y-90495476D01*
X99417261Y-90543095D01*
X97988690Y-90590714D02*
X97988690Y-91257380D01*
X98226785Y-90209761D02*
X98464880Y-90924047D01*
X97845833Y-90924047D01*
X120657738Y-91257380D02*
X121133928Y-91257380D01*
X121133928Y-90257380D01*
X120324404Y-90733571D02*
X119991071Y-90733571D01*
X119848214Y-91257380D02*
X120324404Y-91257380D01*
X120324404Y-90257380D01*
X119848214Y-90257380D01*
X119419642Y-91257380D02*
X119419642Y-90257380D01*
X119181547Y-90257380D01*
X119038690Y-90305000D01*
X118943452Y-90400238D01*
X118895833Y-90495476D01*
X118848214Y-90685952D01*
X118848214Y-90828809D01*
X118895833Y-91019285D01*
X118943452Y-91114523D01*
X119038690Y-91209761D01*
X119181547Y-91257380D01*
X119419642Y-91257380D01*
X117895833Y-91257380D02*
X118467261Y-91257380D01*
X118181547Y-91257380D02*
X118181547Y-90257380D01*
X118276785Y-90400238D01*
X118372023Y-90495476D01*
X118467261Y-90543095D01*
X116991071Y-90257380D02*
X117467261Y-90257380D01*
X117514880Y-90733571D01*
X117467261Y-90685952D01*
X117372023Y-90638333D01*
X117133928Y-90638333D01*
X117038690Y-90685952D01*
X116991071Y-90733571D01*
X116943452Y-90828809D01*
X116943452Y-91066904D01*
X116991071Y-91162142D01*
X117038690Y-91209761D01*
X117133928Y-91257380D01*
X117372023Y-91257380D01*
X117467261Y-91209761D01*
X117514880Y-91162142D01*
X44457738Y-110307380D02*
X44933928Y-110307380D01*
X44933928Y-109307380D01*
X44124404Y-109783571D02*
X43791071Y-109783571D01*
X43648214Y-110307380D02*
X44124404Y-110307380D01*
X44124404Y-109307380D01*
X43648214Y-109307380D01*
X43219642Y-110307380D02*
X43219642Y-109307380D01*
X42981547Y-109307380D01*
X42838690Y-109355000D01*
X42743452Y-109450238D01*
X42695833Y-109545476D01*
X42648214Y-109735952D01*
X42648214Y-109878809D01*
X42695833Y-110069285D01*
X42743452Y-110164523D01*
X42838690Y-110259761D01*
X42981547Y-110307380D01*
X43219642Y-110307380D01*
X41695833Y-110307380D02*
X42267261Y-110307380D01*
X41981547Y-110307380D02*
X41981547Y-109307380D01*
X42076785Y-109450238D01*
X42172023Y-109545476D01*
X42267261Y-109593095D01*
X40838690Y-109307380D02*
X41029166Y-109307380D01*
X41124404Y-109355000D01*
X41172023Y-109402619D01*
X41267261Y-109545476D01*
X41314880Y-109735952D01*
X41314880Y-110116904D01*
X41267261Y-110212142D01*
X41219642Y-110259761D01*
X41124404Y-110307380D01*
X40933928Y-110307380D01*
X40838690Y-110259761D01*
X40791071Y-110212142D01*
X40743452Y-110116904D01*
X40743452Y-109878809D01*
X40791071Y-109783571D01*
X40838690Y-109735952D01*
X40933928Y-109688333D01*
X41124404Y-109688333D01*
X41219642Y-109735952D01*
X41267261Y-109783571D01*
X41314880Y-109878809D01*
X122982380Y-117467261D02*
X122982380Y-116991071D01*
X121982380Y-116991071D01*
X122458571Y-117800595D02*
X122458571Y-118133928D01*
X122982380Y-118276785D02*
X122982380Y-117800595D01*
X121982380Y-117800595D01*
X121982380Y-118276785D01*
X122982380Y-118705357D02*
X121982380Y-118705357D01*
X121982380Y-118943452D01*
X122030000Y-119086309D01*
X122125238Y-119181547D01*
X122220476Y-119229166D01*
X122410952Y-119276785D01*
X122553809Y-119276785D01*
X122744285Y-119229166D01*
X122839523Y-119181547D01*
X122934761Y-119086309D01*
X122982380Y-118943452D01*
X122982380Y-118705357D01*
X122077619Y-119657738D02*
X122030000Y-119705357D01*
X121982380Y-119800595D01*
X121982380Y-120038690D01*
X122030000Y-120133928D01*
X122077619Y-120181547D01*
X122172857Y-120229166D01*
X122268095Y-120229166D01*
X122410952Y-120181547D01*
X122982380Y-119610119D01*
X122982380Y-120229166D01*
X121982380Y-121133928D02*
X121982380Y-120657738D01*
X122458571Y-120610119D01*
X122410952Y-120657738D01*
X122363333Y-120752976D01*
X122363333Y-120991071D01*
X122410952Y-121086309D01*
X122458571Y-121133928D01*
X122553809Y-121181547D01*
X122791904Y-121181547D01*
X122887142Y-121133928D01*
X122934761Y-121086309D01*
X122982380Y-120991071D01*
X122982380Y-120752976D01*
X122934761Y-120657738D01*
X122887142Y-120610119D01*
X101607738Y-110307380D02*
X102083928Y-110307380D01*
X102083928Y-109307380D01*
X101274404Y-109783571D02*
X100941071Y-109783571D01*
X100798214Y-110307380D02*
X101274404Y-110307380D01*
X101274404Y-109307380D01*
X100798214Y-109307380D01*
X100369642Y-110307380D02*
X100369642Y-109307380D01*
X100131547Y-109307380D01*
X99988690Y-109355000D01*
X99893452Y-109450238D01*
X99845833Y-109545476D01*
X99798214Y-109735952D01*
X99798214Y-109878809D01*
X99845833Y-110069285D01*
X99893452Y-110164523D01*
X99988690Y-110259761D01*
X100131547Y-110307380D01*
X100369642Y-110307380D01*
X98845833Y-110307380D02*
X99417261Y-110307380D01*
X99131547Y-110307380D02*
X99131547Y-109307380D01*
X99226785Y-109450238D01*
X99322023Y-109545476D01*
X99417261Y-109593095D01*
X98369642Y-110307380D02*
X98179166Y-110307380D01*
X98083928Y-110259761D01*
X98036309Y-110212142D01*
X97941071Y-110069285D01*
X97893452Y-109878809D01*
X97893452Y-109497857D01*
X97941071Y-109402619D01*
X97988690Y-109355000D01*
X98083928Y-109307380D01*
X98274404Y-109307380D01*
X98369642Y-109355000D01*
X98417261Y-109402619D01*
X98464880Y-109497857D01*
X98464880Y-109735952D01*
X98417261Y-109831190D01*
X98369642Y-109878809D01*
X98274404Y-109926428D01*
X98083928Y-109926428D01*
X97988690Y-109878809D01*
X97941071Y-109831190D01*
X97893452Y-109735952D01*
X120181547Y-53157380D02*
X120657738Y-53157380D01*
X120657738Y-52157380D01*
X119848214Y-52633571D02*
X119514880Y-52633571D01*
X119372023Y-53157380D02*
X119848214Y-53157380D01*
X119848214Y-52157380D01*
X119372023Y-52157380D01*
X118943452Y-53157380D02*
X118943452Y-52157380D01*
X118705357Y-52157380D01*
X118562500Y-52205000D01*
X118467261Y-52300238D01*
X118419642Y-52395476D01*
X118372023Y-52585952D01*
X118372023Y-52728809D01*
X118419642Y-52919285D01*
X118467261Y-53014523D01*
X118562500Y-53109761D01*
X118705357Y-53157380D01*
X118943452Y-53157380D01*
X117467261Y-52157380D02*
X117943452Y-52157380D01*
X117991071Y-52633571D01*
X117943452Y-52585952D01*
X117848214Y-52538333D01*
X117610119Y-52538333D01*
X117514880Y-52585952D01*
X117467261Y-52633571D01*
X117419642Y-52728809D01*
X117419642Y-52966904D01*
X117467261Y-53062142D01*
X117514880Y-53109761D01*
X117610119Y-53157380D01*
X117848214Y-53157380D01*
X117943452Y-53109761D01*
X117991071Y-53062142D01*
X101500347Y-53157380D02*
X101976538Y-53157380D01*
X101976538Y-52157380D01*
X101167014Y-52633571D02*
X100833680Y-52633571D01*
X100690823Y-53157380D02*
X101167014Y-53157380D01*
X101167014Y-52157380D01*
X100690823Y-52157380D01*
X100262252Y-53157380D02*
X100262252Y-52157380D01*
X100024157Y-52157380D01*
X99881300Y-52205000D01*
X99786061Y-52300238D01*
X99738442Y-52395476D01*
X99690823Y-52585952D01*
X99690823Y-52728809D01*
X99738442Y-52919285D01*
X99786061Y-53014523D01*
X99881300Y-53109761D01*
X100024157Y-53157380D01*
X100262252Y-53157380D01*
X98833680Y-52490714D02*
X98833680Y-53157380D01*
X99071776Y-52109761D02*
X99309871Y-52824047D01*
X98690823Y-52824047D01*
X63031547Y-53157380D02*
X63507738Y-53157380D01*
X63507738Y-52157380D01*
X62698214Y-52633571D02*
X62364880Y-52633571D01*
X62222023Y-53157380D02*
X62698214Y-53157380D01*
X62698214Y-52157380D01*
X62222023Y-52157380D01*
X61793452Y-53157380D02*
X61793452Y-52157380D01*
X61555357Y-52157380D01*
X61412500Y-52205000D01*
X61317261Y-52300238D01*
X61269642Y-52395476D01*
X61222023Y-52585952D01*
X61222023Y-52728809D01*
X61269642Y-52919285D01*
X61317261Y-53014523D01*
X61412500Y-53109761D01*
X61555357Y-53157380D01*
X61793452Y-53157380D01*
X60841071Y-52252619D02*
X60793452Y-52205000D01*
X60698214Y-52157380D01*
X60460119Y-52157380D01*
X60364880Y-52205000D01*
X60317261Y-52252619D01*
X60269642Y-52347857D01*
X60269642Y-52443095D01*
X60317261Y-52585952D01*
X60888690Y-53157380D01*
X60269642Y-53157380D01*
X63031547Y-72207380D02*
X63507738Y-72207380D01*
X63507738Y-71207380D01*
X62698214Y-71683571D02*
X62364880Y-71683571D01*
X62222023Y-72207380D02*
X62698214Y-72207380D01*
X62698214Y-71207380D01*
X62222023Y-71207380D01*
X61793452Y-72207380D02*
X61793452Y-71207380D01*
X61555357Y-71207380D01*
X61412500Y-71255000D01*
X61317261Y-71350238D01*
X61269642Y-71445476D01*
X61222023Y-71635952D01*
X61222023Y-71778809D01*
X61269642Y-71969285D01*
X61317261Y-72064523D01*
X61412500Y-72159761D01*
X61555357Y-72207380D01*
X61793452Y-72207380D01*
X60888690Y-71207380D02*
X60222023Y-71207380D01*
X60650595Y-72207380D01*
X120657738Y-110307380D02*
X121133928Y-110307380D01*
X121133928Y-109307380D01*
X120324404Y-109783571D02*
X119991071Y-109783571D01*
X119848214Y-110307380D02*
X120324404Y-110307380D01*
X120324404Y-109307380D01*
X119848214Y-109307380D01*
X119419642Y-110307380D02*
X119419642Y-109307380D01*
X119181547Y-109307380D01*
X119038690Y-109355000D01*
X118943452Y-109450238D01*
X118895833Y-109545476D01*
X118848214Y-109735952D01*
X118848214Y-109878809D01*
X118895833Y-110069285D01*
X118943452Y-110164523D01*
X119038690Y-110259761D01*
X119181547Y-110307380D01*
X119419642Y-110307380D01*
X118467261Y-109402619D02*
X118419642Y-109355000D01*
X118324404Y-109307380D01*
X118086309Y-109307380D01*
X117991071Y-109355000D01*
X117943452Y-109402619D01*
X117895833Y-109497857D01*
X117895833Y-109593095D01*
X117943452Y-109735952D01*
X118514880Y-110307380D01*
X117895833Y-110307380D01*
X117276785Y-109307380D02*
X117181547Y-109307380D01*
X117086309Y-109355000D01*
X117038690Y-109402619D01*
X116991071Y-109497857D01*
X116943452Y-109688333D01*
X116943452Y-109926428D01*
X116991071Y-110116904D01*
X117038690Y-110212142D01*
X117086309Y-110259761D01*
X117181547Y-110307380D01*
X117276785Y-110307380D01*
X117372023Y-110259761D01*
X117419642Y-110212142D01*
X117467261Y-110116904D01*
X117514880Y-109926428D01*
X117514880Y-109688333D01*
X117467261Y-109497857D01*
X117419642Y-109402619D01*
X117372023Y-109355000D01*
X117276785Y-109307380D01*
X120657738Y-72207380D02*
X121133928Y-72207380D01*
X121133928Y-71207380D01*
X120324404Y-71683571D02*
X119991071Y-71683571D01*
X119848214Y-72207380D02*
X120324404Y-72207380D01*
X120324404Y-71207380D01*
X119848214Y-71207380D01*
X119419642Y-72207380D02*
X119419642Y-71207380D01*
X119181547Y-71207380D01*
X119038690Y-71255000D01*
X118943452Y-71350238D01*
X118895833Y-71445476D01*
X118848214Y-71635952D01*
X118848214Y-71778809D01*
X118895833Y-71969285D01*
X118943452Y-72064523D01*
X119038690Y-72159761D01*
X119181547Y-72207380D01*
X119419642Y-72207380D01*
X117895833Y-72207380D02*
X118467261Y-72207380D01*
X118181547Y-72207380D02*
X118181547Y-71207380D01*
X118276785Y-71350238D01*
X118372023Y-71445476D01*
X118467261Y-71493095D01*
X117276785Y-71207380D02*
X117181547Y-71207380D01*
X117086309Y-71255000D01*
X117038690Y-71302619D01*
X116991071Y-71397857D01*
X116943452Y-71588333D01*
X116943452Y-71826428D01*
X116991071Y-72016904D01*
X117038690Y-72112142D01*
X117086309Y-72159761D01*
X117181547Y-72207380D01*
X117276785Y-72207380D01*
X117372023Y-72159761D01*
X117419642Y-72112142D01*
X117467261Y-72016904D01*
X117514880Y-71826428D01*
X117514880Y-71588333D01*
X117467261Y-71397857D01*
X117419642Y-71302619D01*
X117372023Y-71255000D01*
X117276785Y-71207380D01*
X43981547Y-72207380D02*
X44457738Y-72207380D01*
X44457738Y-71207380D01*
X43648214Y-71683571D02*
X43314880Y-71683571D01*
X43172023Y-72207380D02*
X43648214Y-72207380D01*
X43648214Y-71207380D01*
X43172023Y-71207380D01*
X42743452Y-72207380D02*
X42743452Y-71207380D01*
X42505357Y-71207380D01*
X42362500Y-71255000D01*
X42267261Y-71350238D01*
X42219642Y-71445476D01*
X42172023Y-71635952D01*
X42172023Y-71778809D01*
X42219642Y-71969285D01*
X42267261Y-72064523D01*
X42362500Y-72159761D01*
X42505357Y-72207380D01*
X42743452Y-72207380D01*
X41314880Y-71207380D02*
X41505357Y-71207380D01*
X41600595Y-71255000D01*
X41648214Y-71302619D01*
X41743452Y-71445476D01*
X41791071Y-71635952D01*
X41791071Y-72016904D01*
X41743452Y-72112142D01*
X41695833Y-72159761D01*
X41600595Y-72207380D01*
X41410119Y-72207380D01*
X41314880Y-72159761D01*
X41267261Y-72112142D01*
X41219642Y-72016904D01*
X41219642Y-71778809D01*
X41267261Y-71683571D01*
X41314880Y-71635952D01*
X41410119Y-71588333D01*
X41600595Y-71588333D01*
X41695833Y-71635952D01*
X41743452Y-71683571D01*
X41791071Y-71778809D01*
X49982380Y-117467261D02*
X49982380Y-116991071D01*
X48982380Y-116991071D01*
X49458571Y-117800595D02*
X49458571Y-118133928D01*
X49982380Y-118276785D02*
X49982380Y-117800595D01*
X48982380Y-117800595D01*
X48982380Y-118276785D01*
X49982380Y-118705357D02*
X48982380Y-118705357D01*
X48982380Y-118943452D01*
X49030000Y-119086309D01*
X49125238Y-119181547D01*
X49220476Y-119229166D01*
X49410952Y-119276785D01*
X49553809Y-119276785D01*
X49744285Y-119229166D01*
X49839523Y-119181547D01*
X49934761Y-119086309D01*
X49982380Y-118943452D01*
X49982380Y-118705357D01*
X49077619Y-119657738D02*
X49030000Y-119705357D01*
X48982380Y-119800595D01*
X48982380Y-120038690D01*
X49030000Y-120133928D01*
X49077619Y-120181547D01*
X49172857Y-120229166D01*
X49268095Y-120229166D01*
X49410952Y-120181547D01*
X49982380Y-119610119D01*
X49982380Y-120229166D01*
X49982380Y-121181547D02*
X49982380Y-120610119D01*
X49982380Y-120895833D02*
X48982380Y-120895833D01*
X49125238Y-120800595D01*
X49220476Y-120705357D01*
X49268095Y-120610119D01*
X82557738Y-91257380D02*
X83033928Y-91257380D01*
X83033928Y-90257380D01*
X82224404Y-90733571D02*
X81891071Y-90733571D01*
X81748214Y-91257380D02*
X82224404Y-91257380D01*
X82224404Y-90257380D01*
X81748214Y-90257380D01*
X81319642Y-91257380D02*
X81319642Y-90257380D01*
X81081547Y-90257380D01*
X80938690Y-90305000D01*
X80843452Y-90400238D01*
X80795833Y-90495476D01*
X80748214Y-90685952D01*
X80748214Y-90828809D01*
X80795833Y-91019285D01*
X80843452Y-91114523D01*
X80938690Y-91209761D01*
X81081547Y-91257380D01*
X81319642Y-91257380D01*
X79795833Y-91257380D02*
X80367261Y-91257380D01*
X80081547Y-91257380D02*
X80081547Y-90257380D01*
X80176785Y-90400238D01*
X80272023Y-90495476D01*
X80367261Y-90543095D01*
X79462500Y-90257380D02*
X78843452Y-90257380D01*
X79176785Y-90638333D01*
X79033928Y-90638333D01*
X78938690Y-90685952D01*
X78891071Y-90733571D01*
X78843452Y-90828809D01*
X78843452Y-91066904D01*
X78891071Y-91162142D01*
X78938690Y-91209761D01*
X79033928Y-91257380D01*
X79319642Y-91257380D01*
X79414880Y-91209761D01*
X79462500Y-91162142D01*
X101131547Y-72207380D02*
X101607738Y-72207380D01*
X101607738Y-71207380D01*
X100798214Y-71683571D02*
X100464880Y-71683571D01*
X100322023Y-72207380D02*
X100798214Y-72207380D01*
X100798214Y-71207380D01*
X100322023Y-71207380D01*
X99893452Y-72207380D02*
X99893452Y-71207380D01*
X99655357Y-71207380D01*
X99512500Y-71255000D01*
X99417261Y-71350238D01*
X99369642Y-71445476D01*
X99322023Y-71635952D01*
X99322023Y-71778809D01*
X99369642Y-71969285D01*
X99417261Y-72064523D01*
X99512500Y-72159761D01*
X99655357Y-72207380D01*
X99893452Y-72207380D01*
X98845833Y-72207380D02*
X98655357Y-72207380D01*
X98560119Y-72159761D01*
X98512500Y-72112142D01*
X98417261Y-71969285D01*
X98369642Y-71778809D01*
X98369642Y-71397857D01*
X98417261Y-71302619D01*
X98464880Y-71255000D01*
X98560119Y-71207380D01*
X98750595Y-71207380D01*
X98845833Y-71255000D01*
X98893452Y-71302619D01*
X98941071Y-71397857D01*
X98941071Y-71635952D01*
X98893452Y-71731190D01*
X98845833Y-71778809D01*
X98750595Y-71826428D01*
X98560119Y-71826428D01*
X98464880Y-71778809D01*
X98417261Y-71731190D01*
X98369642Y-71635952D01*
X82557738Y-110307380D02*
X83033928Y-110307380D01*
X83033928Y-109307380D01*
X82224404Y-109783571D02*
X81891071Y-109783571D01*
X81748214Y-110307380D02*
X82224404Y-110307380D01*
X82224404Y-109307380D01*
X81748214Y-109307380D01*
X81319642Y-110307380D02*
X81319642Y-109307380D01*
X81081547Y-109307380D01*
X80938690Y-109355000D01*
X80843452Y-109450238D01*
X80795833Y-109545476D01*
X80748214Y-109735952D01*
X80748214Y-109878809D01*
X80795833Y-110069285D01*
X80843452Y-110164523D01*
X80938690Y-110259761D01*
X81081547Y-110307380D01*
X81319642Y-110307380D01*
X79795833Y-110307380D02*
X80367261Y-110307380D01*
X80081547Y-110307380D02*
X80081547Y-109307380D01*
X80176785Y-109450238D01*
X80272023Y-109545476D01*
X80367261Y-109593095D01*
X79224404Y-109735952D02*
X79319642Y-109688333D01*
X79367261Y-109640714D01*
X79414880Y-109545476D01*
X79414880Y-109497857D01*
X79367261Y-109402619D01*
X79319642Y-109355000D01*
X79224404Y-109307380D01*
X79033928Y-109307380D01*
X78938690Y-109355000D01*
X78891071Y-109402619D01*
X78843452Y-109497857D01*
X78843452Y-109545476D01*
X78891071Y-109640714D01*
X78938690Y-109688333D01*
X79033928Y-109735952D01*
X79224404Y-109735952D01*
X79319642Y-109783571D01*
X79367261Y-109831190D01*
X79414880Y-109926428D01*
X79414880Y-110116904D01*
X79367261Y-110212142D01*
X79319642Y-110259761D01*
X79224404Y-110307380D01*
X79033928Y-110307380D01*
X78938690Y-110259761D01*
X78891071Y-110212142D01*
X78843452Y-110116904D01*
X78843452Y-109926428D01*
X78891071Y-109831190D01*
X78938690Y-109783571D01*
X79033928Y-109735952D01*
X101607738Y-129157380D02*
X102083928Y-129157380D01*
X102083928Y-128157380D01*
X101274404Y-128633571D02*
X100941071Y-128633571D01*
X100798214Y-129157380D02*
X101274404Y-129157380D01*
X101274404Y-128157380D01*
X100798214Y-128157380D01*
X100369642Y-129157380D02*
X100369642Y-128157380D01*
X100131547Y-128157380D01*
X99988690Y-128205000D01*
X99893452Y-128300238D01*
X99845833Y-128395476D01*
X99798214Y-128585952D01*
X99798214Y-128728809D01*
X99845833Y-128919285D01*
X99893452Y-129014523D01*
X99988690Y-129109761D01*
X100131547Y-129157380D01*
X100369642Y-129157380D01*
X99417261Y-128252619D02*
X99369642Y-128205000D01*
X99274404Y-128157380D01*
X99036309Y-128157380D01*
X98941071Y-128205000D01*
X98893452Y-128252619D01*
X98845833Y-128347857D01*
X98845833Y-128443095D01*
X98893452Y-128585952D01*
X99464880Y-129157380D01*
X98845833Y-129157380D01*
X97988690Y-128490714D02*
X97988690Y-129157380D01*
X98226785Y-128109761D02*
X98464880Y-128824047D01*
X97845833Y-128824047D01*
D12*
X74612500Y-38499200D02*
X72072500Y-38499200D01*
X89852500Y-66439200D02*
X89852500Y-33419200D01*
X74612500Y-35959200D02*
X72072500Y-35959200D01*
X89852500Y-33419200D02*
X72072500Y-33419200D01*
X72072500Y-33419200D02*
X72072500Y-66439200D01*
X74612500Y-35959200D02*
X74612500Y-38499200D01*
X72072500Y-66439200D02*
X89852500Y-66439200D01*
G36*
X86907135Y-42648230D02*
G01*
X86807135Y-42648230D01*
X86807135Y-42448230D01*
X86907135Y-42448230D01*
X86907135Y-42648230D01*
G37*
D10*
X86907135Y-42648230D02*
X86807135Y-42648230D01*
X86807135Y-42448230D01*
X86907135Y-42448230D01*
X86907135Y-42648230D01*
G36*
X87107135Y-42348230D02*
G01*
X87007135Y-42348230D01*
X87007135Y-42248230D01*
X87107135Y-42248230D01*
X87107135Y-42348230D01*
G37*
X87107135Y-42348230D02*
X87007135Y-42348230D01*
X87007135Y-42248230D01*
X87107135Y-42248230D01*
X87107135Y-42348230D01*
G36*
X87307135Y-42648230D02*
G01*
X87207135Y-42648230D01*
X87207135Y-41848230D01*
X87307135Y-41848230D01*
X87307135Y-42648230D01*
G37*
X87307135Y-42648230D02*
X87207135Y-42648230D01*
X87207135Y-41848230D01*
X87307135Y-41848230D01*
X87307135Y-42648230D01*
G36*
X87307135Y-41948230D02*
G01*
X86807135Y-41948230D01*
X86807135Y-41848230D01*
X87307135Y-41848230D01*
X87307135Y-41948230D01*
G37*
X87307135Y-41948230D02*
X86807135Y-41948230D01*
X86807135Y-41848230D01*
X87307135Y-41848230D01*
X87307135Y-41948230D01*
G36*
X86907135Y-42148230D02*
G01*
X86807135Y-42148230D01*
X86807135Y-41848230D01*
X86907135Y-41848230D01*
X86907135Y-42148230D01*
G37*
X86907135Y-42148230D02*
X86807135Y-42148230D01*
X86807135Y-41848230D01*
X86907135Y-41848230D01*
X86907135Y-42148230D01*
X109012500Y-124912500D02*
X109512500Y-125812500D01*
X109512500Y-125812500D02*
X110012500Y-124912500D01*
X110012500Y-124912500D02*
X109012500Y-124912500D01*
X110012500Y-125912500D02*
X109012500Y-125912500D01*
X62412500Y-51300000D02*
X62412500Y-50300000D01*
X62412500Y-50300000D02*
X61512500Y-50800000D01*
X61412500Y-51300000D02*
X61412500Y-50300000D01*
X61512500Y-50800000D02*
X62412500Y-51300000D01*
D13*
X46762500Y-49475000D02*
X38962500Y-49475000D01*
X46762500Y-47875000D02*
X46762500Y-49475000D01*
X38962500Y-45775000D02*
X46762500Y-45775000D01*
D10*
X109012500Y-112212500D02*
X109512500Y-113112500D01*
X110012500Y-113212500D02*
X109012500Y-113212500D01*
X109512500Y-113112500D02*
X110012500Y-112212500D01*
X110012500Y-112212500D02*
X109012500Y-112212500D01*
X92237500Y-76818700D02*
X92237500Y-70818700D01*
X92237500Y-76818700D02*
X91987500Y-76818700D01*
X88737500Y-70818700D02*
X88987500Y-70818700D01*
X88737500Y-76818700D02*
X88737500Y-70818700D01*
X88737500Y-76818700D02*
X88987500Y-76818700D01*
X92237500Y-70818700D02*
X91987500Y-70818700D01*
X81462500Y-126500000D02*
X80562500Y-127000000D01*
X81462500Y-127500000D02*
X81462500Y-126500000D01*
X80562500Y-127000000D02*
X81462500Y-127500000D01*
X80462500Y-127500000D02*
X80462500Y-126500000D01*
X99512500Y-51300000D02*
X99512500Y-50300000D01*
X99612500Y-50800000D02*
X100512500Y-51300000D01*
X100512500Y-50300000D02*
X99612500Y-50800000D01*
X100512500Y-51300000D02*
X100512500Y-50300000D01*
X49712500Y-113212500D02*
X48712500Y-113212500D01*
X49712500Y-112212500D02*
X48712500Y-112212500D01*
X48712500Y-112212500D02*
X49212500Y-113112500D01*
X49212500Y-113112500D02*
X49712500Y-112212500D01*
X118562500Y-89400000D02*
X118562500Y-88400000D01*
X119562500Y-89400000D02*
X119562500Y-88400000D01*
X118662500Y-88900000D02*
X119562500Y-89400000D01*
X119562500Y-88400000D02*
X118662500Y-88900000D01*
D13*
X84862500Y-123875000D02*
X84862500Y-125475000D01*
X77062500Y-121775000D02*
X84862500Y-121775000D01*
X84862500Y-125475000D02*
X77062500Y-125475000D01*
D10*
X119562500Y-108450000D02*
X119562500Y-107450000D01*
X118662500Y-107950000D02*
X119562500Y-108450000D01*
X119562500Y-107450000D02*
X118662500Y-107950000D01*
X118562500Y-108450000D02*
X118562500Y-107450000D01*
D13*
X84862500Y-47875000D02*
X84862500Y-49475000D01*
X84862500Y-49475000D02*
X77062500Y-49475000D01*
X77062500Y-45775000D02*
X84862500Y-45775000D01*
X58012500Y-83875000D02*
X65812500Y-83875000D01*
X65812500Y-87575000D02*
X58012500Y-87575000D01*
X65812500Y-85975000D02*
X65812500Y-87575000D01*
X38962500Y-83875000D02*
X46762500Y-83875000D01*
X46762500Y-85975000D02*
X46762500Y-87575000D01*
X46762500Y-87575000D02*
X38962500Y-87575000D01*
D10*
X99612500Y-107950000D02*
X100512500Y-108450000D01*
X99512500Y-108450000D02*
X99512500Y-107450000D01*
X100512500Y-107450000D02*
X99612500Y-107950000D01*
X100512500Y-108450000D02*
X100512500Y-107450000D01*
X42362500Y-51300000D02*
X42362500Y-50300000D01*
X43362500Y-50300000D02*
X42462500Y-50800000D01*
X42462500Y-50800000D02*
X43362500Y-51300000D01*
X43362500Y-51300000D02*
X43362500Y-50300000D01*
D14*
X122862500Y-111887500D02*
X127962500Y-111887500D01*
X122112500Y-122812500D02*
X122112500Y-122812500D01*
X127962500Y-114862500D02*
X127962500Y-123262500D01*
X127962500Y-125462500D02*
X127962500Y-126237500D01*
X127962500Y-126237500D02*
X122862500Y-126237500D01*
X122012500Y-122812500D02*
X122112500Y-122812500D01*
X127962500Y-111887500D02*
X127962500Y-112662500D01*
X122862500Y-114462500D02*
X122862500Y-111887500D01*
X122012500Y-122812500D02*
X122012500Y-122812500D01*
X122862500Y-126237500D02*
X122862500Y-123662500D01*
X122112500Y-122812500D02*
G75*
G03*
X122012500Y-122812500I-50000J0D01*
G01*
X122012500Y-122812500D02*
G75*
G03*
X122112500Y-122812500I50000J0D01*
G01*
D10*
X81462500Y-51300000D02*
X81462500Y-50300000D01*
X80562500Y-50800000D02*
X81462500Y-51300000D01*
X80462500Y-51300000D02*
X80462500Y-50300000D01*
X81462500Y-50300000D02*
X80562500Y-50800000D01*
X42362500Y-89400000D02*
X42362500Y-88400000D01*
X43362500Y-89400000D02*
X43362500Y-88400000D01*
X43362500Y-88400000D02*
X42462500Y-88900000D01*
X42462500Y-88900000D02*
X43362500Y-89400000D01*
D13*
X65812500Y-105025000D02*
X65812500Y-106625000D01*
X58012500Y-102925000D02*
X65812500Y-102925000D01*
X65812500Y-106625000D02*
X58012500Y-106625000D01*
D10*
X80562500Y-88900000D02*
X81462500Y-89400000D01*
X80462500Y-89400000D02*
X80462500Y-88400000D01*
X81462500Y-88400000D02*
X80562500Y-88900000D01*
X81462500Y-89400000D02*
X81462500Y-88400000D01*
D13*
X65812500Y-125475000D02*
X58012500Y-125475000D01*
X58012500Y-121775000D02*
X65812500Y-121775000D01*
X65812500Y-123875000D02*
X65812500Y-125475000D01*
X84862500Y-68525000D02*
X77062500Y-68525000D01*
X77062500Y-64825000D02*
X84862500Y-64825000D01*
X84862500Y-66925000D02*
X84862500Y-68525000D01*
D10*
X49712500Y-124912500D02*
X48712500Y-124912500D01*
X48712500Y-124912500D02*
X49212500Y-125812500D01*
X49212500Y-125812500D02*
X49712500Y-124912500D01*
X49712500Y-125912500D02*
X48712500Y-125912500D01*
X80562500Y-69850000D02*
X81462500Y-70350000D01*
X80462500Y-70350000D02*
X80462500Y-69350000D01*
X81462500Y-69350000D02*
X80562500Y-69850000D01*
X81462500Y-70350000D02*
X81462500Y-69350000D01*
D14*
X33937500Y-123262500D02*
X33937500Y-114862500D01*
X39887500Y-115312500D02*
X39787500Y-115312500D01*
X39787500Y-115312500D02*
X39787500Y-115312500D01*
X39037500Y-126237500D02*
X33937500Y-126237500D01*
X39037500Y-111887500D02*
X39037500Y-114462500D01*
X33937500Y-126237500D02*
X33937500Y-125462500D01*
X39037500Y-123662500D02*
X39037500Y-126237500D01*
X33937500Y-112662500D02*
X33937500Y-111887500D01*
X39887500Y-115312500D02*
X39887500Y-115312500D01*
X33937500Y-111887500D02*
X39037500Y-111887500D01*
X39887500Y-115312500D02*
G75*
G03*
X39787500Y-115312500I-50000J0D01*
G01*
X39787500Y-115312500D02*
G75*
G03*
X39887500Y-115312500I50000J0D01*
G01*
D13*
X96112500Y-83875000D02*
X103912500Y-83875000D01*
X103912500Y-87575000D02*
X96112500Y-87575000D01*
X103912500Y-85975000D02*
X103912500Y-87575000D01*
D10*
X113187500Y-112212500D02*
X112187500Y-112212500D01*
X112687500Y-113112500D02*
X113187500Y-112212500D01*
X113187500Y-113212500D02*
X112187500Y-113212500D01*
X112187500Y-112212500D02*
X112687500Y-113112500D01*
D13*
X115162500Y-83875000D02*
X122962500Y-83875000D01*
X122962500Y-87575000D02*
X115162500Y-87575000D01*
X122962500Y-85975000D02*
X122962500Y-87575000D01*
X46762500Y-106625000D02*
X38962500Y-106625000D01*
X38962500Y-102925000D02*
X46762500Y-102925000D01*
X46762500Y-105025000D02*
X46762500Y-106625000D01*
D10*
X100512500Y-127500000D02*
X100512500Y-126500000D01*
X99612500Y-127000000D02*
X100512500Y-127500000D01*
X99512500Y-127500000D02*
X99512500Y-126500000D01*
X100512500Y-126500000D02*
X99612500Y-127000000D01*
X100512500Y-69350000D02*
X99612500Y-69850000D01*
X99612500Y-69850000D02*
X100512500Y-70350000D01*
X100512500Y-70350000D02*
X100512500Y-69350000D01*
X99512500Y-70350000D02*
X99512500Y-69350000D01*
X62412500Y-107450000D02*
X61512500Y-107950000D01*
X62412500Y-108450000D02*
X62412500Y-107450000D01*
X61512500Y-107950000D02*
X62412500Y-108450000D01*
X61412500Y-108450000D02*
X61412500Y-107450000D01*
D13*
X117700000Y-115162500D02*
X119300000Y-115162500D01*
X115600000Y-122962500D02*
X115600000Y-115162500D01*
X119300000Y-115162500D02*
X119300000Y-122962500D01*
X103912500Y-106625000D02*
X96112500Y-106625000D01*
X103912500Y-105025000D02*
X103912500Y-106625000D01*
X96112500Y-102925000D02*
X103912500Y-102925000D01*
X122962500Y-49475000D02*
X115162500Y-49475000D01*
X115162500Y-45775000D02*
X122962500Y-45775000D01*
X122962500Y-47875000D02*
X122962500Y-49475000D01*
X104281300Y-49475000D02*
X96481300Y-49475000D01*
X96481300Y-45775000D02*
X104281300Y-45775000D01*
X104281300Y-47875000D02*
X104281300Y-49475000D01*
X65812500Y-49475000D02*
X58012500Y-49475000D01*
X58012500Y-45775000D02*
X65812500Y-45775000D01*
X65812500Y-47875000D02*
X65812500Y-49475000D01*
D10*
X61512500Y-88900000D02*
X62412500Y-89400000D01*
X62412500Y-89400000D02*
X62412500Y-88400000D01*
X61412500Y-89400000D02*
X61412500Y-88400000D01*
X62412500Y-88400000D02*
X61512500Y-88900000D01*
X81462500Y-107450000D02*
X80562500Y-107950000D01*
X80462500Y-108450000D02*
X80462500Y-107450000D01*
X81462500Y-108450000D02*
X81462500Y-107450000D01*
X80562500Y-107950000D02*
X81462500Y-108450000D01*
X43362500Y-107450000D02*
X42462500Y-107950000D01*
X42362500Y-108450000D02*
X42362500Y-107450000D01*
X42462500Y-107950000D02*
X43362500Y-108450000D01*
X43362500Y-108450000D02*
X43362500Y-107450000D01*
X61512500Y-69850000D02*
X62412500Y-70350000D01*
X62412500Y-70350000D02*
X62412500Y-69350000D01*
X61412500Y-70350000D02*
X61412500Y-69350000D01*
X62412500Y-69350000D02*
X61512500Y-69850000D01*
D13*
X58012500Y-64825000D02*
X65812500Y-64825000D01*
X65812500Y-66925000D02*
X65812500Y-68525000D01*
X65812500Y-68525000D02*
X58012500Y-68525000D01*
X122962500Y-105025000D02*
X122962500Y-106625000D01*
X122962500Y-106625000D02*
X115162500Y-106625000D01*
X115162500Y-102925000D02*
X122962500Y-102925000D01*
D10*
X61412500Y-127500000D02*
X61412500Y-126500000D01*
X61512500Y-127000000D02*
X62412500Y-127500000D01*
X62412500Y-127500000D02*
X62412500Y-126500000D01*
X62412500Y-126500000D02*
X61512500Y-127000000D01*
X100512500Y-88400000D02*
X99612500Y-88900000D01*
X99512500Y-89400000D02*
X99512500Y-88400000D01*
X100512500Y-89400000D02*
X100512500Y-88400000D01*
X99612500Y-88900000D02*
X100512500Y-89400000D01*
D13*
X122962500Y-66925000D02*
X122962500Y-68525000D01*
X122962500Y-68525000D02*
X115162500Y-68525000D01*
X115162500Y-64825000D02*
X122962500Y-64825000D01*
D10*
X112687500Y-125812500D02*
X113187500Y-124912500D01*
X113187500Y-125912500D02*
X112187500Y-125912500D01*
X112187500Y-124912500D02*
X112687500Y-125812500D01*
X113187500Y-124912500D02*
X112187500Y-124912500D01*
X42362500Y-70350000D02*
X42362500Y-69350000D01*
X43362500Y-69350000D02*
X42462500Y-69850000D01*
X43362500Y-70350000D02*
X43362500Y-69350000D01*
X42462500Y-69850000D02*
X43362500Y-70350000D01*
X119562500Y-69350000D02*
X118662500Y-69850000D01*
X118562500Y-70350000D02*
X118562500Y-69350000D01*
X118662500Y-69850000D02*
X119562500Y-70350000D01*
X119562500Y-70350000D02*
X119562500Y-69350000D01*
D13*
X46762500Y-68525000D02*
X38962500Y-68525000D01*
X38962500Y-64825000D02*
X46762500Y-64825000D01*
X46762500Y-66925000D02*
X46762500Y-68525000D01*
X42600000Y-122962500D02*
X42600000Y-115162500D01*
X46300000Y-115162500D02*
X46300000Y-122962500D01*
X44700000Y-115162500D02*
X46300000Y-115162500D01*
X84862500Y-85975000D02*
X84862500Y-87575000D01*
X84862500Y-87575000D02*
X77062500Y-87575000D01*
X77062500Y-83875000D02*
X84862500Y-83875000D01*
X96112500Y-64825000D02*
X103912500Y-64825000D01*
X103912500Y-66925000D02*
X103912500Y-68525000D01*
X103912500Y-68525000D02*
X96112500Y-68525000D01*
X77062500Y-102925000D02*
X84862500Y-102925000D01*
X84862500Y-105025000D02*
X84862500Y-106625000D01*
X84862500Y-106625000D02*
X77062500Y-106625000D01*
X103912500Y-125475000D02*
X96112500Y-125475000D01*
X96112500Y-121775000D02*
X103912500Y-121775000D01*
X103912500Y-123875000D02*
X103912500Y-125475000D01*
D10*
X51887500Y-124912500D02*
X52387500Y-125812500D01*
X52887500Y-125912500D02*
X51887500Y-125912500D01*
X52387500Y-125812500D02*
X52887500Y-124912500D01*
X52887500Y-124912500D02*
X51887500Y-124912500D01*
X52387500Y-113112500D02*
X52887500Y-112212500D01*
X52887500Y-112212500D02*
X51887500Y-112212500D01*
X52887500Y-113212500D02*
X51887500Y-113212500D01*
X51887500Y-112212500D02*
X52387500Y-113112500D01*
X118562500Y-51300000D02*
X118562500Y-50300000D01*
X119562500Y-50300000D02*
X118662500Y-50800000D01*
X118662500Y-50800000D02*
X119562500Y-51300000D01*
X119562500Y-51300000D02*
X119562500Y-50300000D01*
D15*
X73113900Y-37229200D03*
D16*
X73571100Y-39769200D03*
X73113900Y-42309200D03*
X73571100Y-44849200D03*
X73113900Y-47389200D03*
X73571100Y-49929200D03*
X73113900Y-52469200D03*
X73571100Y-55009200D03*
X73113900Y-57549200D03*
X73571100Y-60089200D03*
X73113900Y-62629200D03*
X73571100Y-65169200D03*
X88353900Y-65169200D03*
X88811100Y-62629200D03*
X88353900Y-60089200D03*
X88811100Y-57549200D03*
X88353900Y-55009200D03*
X88811100Y-52469200D03*
X88353900Y-49929200D03*
X88811100Y-47389200D03*
X88353900Y-44849200D03*
X88811100Y-42309200D03*
X88353900Y-39769200D03*
X88811100Y-37229200D03*
D17*
X90487500Y-70568700D03*
X90487500Y-77068700D03*
%LPC*%
D15*
X73113900Y-37229200D03*
D16*
X73571100Y-39769200D03*
X73113900Y-42309200D03*
X73571100Y-44849200D03*
X73113900Y-47389200D03*
X73571100Y-49929200D03*
X73113900Y-52469200D03*
X73571100Y-55009200D03*
X73113900Y-57549200D03*
X73571100Y-60089200D03*
X73113900Y-62629200D03*
X73571100Y-65169200D03*
X88353900Y-65169200D03*
X88811100Y-62629200D03*
X88353900Y-60089200D03*
X88811100Y-57549200D03*
X88353900Y-55009200D03*
X88811100Y-52469200D03*
X88353900Y-49929200D03*
X88811100Y-47389200D03*
X88353900Y-44849200D03*
X88811100Y-42309200D03*
X88353900Y-39769200D03*
X88811100Y-37229200D03*
D18*
X86042500Y-100012500D03*
X75882500Y-100012500D03*
D19*
X80962500Y-100012500D03*
D20*
X77152500Y-97472500D03*
X83502500Y-94932500D03*
D18*
X37782500Y-61912500D03*
D19*
X42862500Y-61912500D03*
D18*
X47942500Y-61912500D03*
D20*
X39052500Y-59372500D03*
X45402500Y-56832500D03*
D21*
X127000000Y-90487500D03*
D18*
X124142500Y-42862500D03*
D19*
X119062500Y-42862500D03*
D18*
X113982500Y-42862500D03*
D20*
X115252500Y-40322500D03*
X121602500Y-37782500D03*
D21*
X127000000Y-50800000D03*
X34925000Y-50800000D03*
D18*
X47942500Y-42862500D03*
X37782500Y-42862500D03*
D19*
X42862500Y-42862500D03*
D20*
X39052500Y-40322500D03*
X45402500Y-37782500D03*
D19*
X119062500Y-61912500D03*
D18*
X113982500Y-61912500D03*
X124142500Y-61912500D03*
D20*
X115252500Y-59372500D03*
X121602500Y-56832500D03*
D19*
X100012500Y-61912500D03*
D18*
X94932500Y-61912500D03*
X105092500Y-61912500D03*
D20*
X96202500Y-59372500D03*
X102552500Y-56832500D03*
D18*
X94932500Y-80962500D03*
X105092500Y-80962500D03*
D19*
X100012500Y-80962500D03*
D20*
X96202500Y-78422500D03*
X102552500Y-75882500D03*
D21*
X71437500Y-127000000D03*
D18*
X94932500Y-42862500D03*
X105092500Y-42862500D03*
D19*
X100012500Y-42862500D03*
D20*
X96202500Y-40322500D03*
X102552500Y-37782500D03*
D19*
X61880000Y-100012500D03*
D18*
X66960000Y-100012500D03*
X56800000Y-100012500D03*
D20*
X58070000Y-97472500D03*
X64420000Y-94932500D03*
D21*
X90487500Y-127000000D03*
D19*
X80961400Y-119062500D03*
D18*
X75881400Y-119062500D03*
X86041400Y-119062500D03*
D20*
X77151400Y-116522500D03*
X83501400Y-113982500D03*
D18*
X105092500Y-119062500D03*
X94932500Y-119062500D03*
D19*
X100012500Y-119062500D03*
D20*
X96202500Y-116522500D03*
X102552500Y-113982500D03*
D18*
X75882500Y-42862500D03*
D19*
X80962500Y-42862500D03*
D18*
X86042500Y-42862500D03*
D20*
X77152500Y-40322500D03*
X83502500Y-37782500D03*
D18*
X94932500Y-100012500D03*
D19*
X100012500Y-100012500D03*
D18*
X105092500Y-100012500D03*
D20*
X96202500Y-97472500D03*
X102552500Y-94932500D03*
D19*
X61912500Y-61912500D03*
D18*
X66992500Y-61912500D03*
X56832500Y-61912500D03*
D20*
X58102500Y-59372500D03*
X64452500Y-56832500D03*
D22*
X116537500Y-126562500D03*
D17*
X121537500Y-126562500D03*
X119037500Y-126562500D03*
D23*
X113437500Y-119062500D03*
D17*
X121537500Y-112062500D03*
X116537500Y-112062500D03*
D18*
X37782500Y-80962500D03*
D19*
X42862500Y-80962500D03*
D18*
X47942500Y-80962500D03*
D20*
X39052500Y-78422500D03*
X45402500Y-75882500D03*
D18*
X124142500Y-100012500D03*
X113982500Y-100012500D03*
D19*
X119062500Y-100012500D03*
D20*
X115252500Y-97472500D03*
X121602500Y-94932500D03*
D19*
X61912500Y-80962500D03*
D18*
X66992500Y-80962500D03*
X56832500Y-80962500D03*
D20*
X58102500Y-78422500D03*
X64452500Y-75882500D03*
D21*
X34925000Y-90487500D03*
D18*
X66991400Y-119062500D03*
X56831400Y-119062500D03*
D19*
X61911400Y-119062500D03*
D20*
X58101400Y-116522500D03*
X64451400Y-113982500D03*
D19*
X61912500Y-42862500D03*
D18*
X66992500Y-42862500D03*
X56832500Y-42862500D03*
D20*
X58102500Y-40322500D03*
X64452500Y-37782500D03*
D18*
X47942500Y-100012500D03*
X37782500Y-100012500D03*
D19*
X42862500Y-100012500D03*
D20*
X39052500Y-97472500D03*
X45402500Y-94932500D03*
D18*
X75882500Y-80962500D03*
X86042500Y-80962500D03*
D19*
X80962500Y-80962500D03*
D20*
X77152500Y-78422500D03*
X83502500Y-75882500D03*
D19*
X80962500Y-61912500D03*
D18*
X75882500Y-61912500D03*
X86042500Y-61912500D03*
D20*
X77152500Y-59372500D03*
X83502500Y-56832500D03*
D19*
X119062500Y-80962500D03*
D18*
X113982500Y-80962500D03*
X124142500Y-80962500D03*
D20*
X115252500Y-78422500D03*
X121602500Y-75882500D03*
D22*
X40362500Y-126562500D03*
D17*
X45362500Y-126562500D03*
X42862500Y-126562500D03*
D23*
X48462500Y-119062500D03*
D17*
X45362500Y-112062500D03*
X40362500Y-112062500D03*
D24*
X109512500Y-127187500D03*
X109512500Y-123637500D03*
D25*
X60137500Y-50800000D03*
X63687500Y-50800000D03*
D26*
X40112500Y-46925000D03*
X40112500Y-48325000D03*
X45612500Y-48325000D03*
X45612500Y-46925000D03*
D24*
X109512500Y-114487500D03*
X109512500Y-110937500D03*
D17*
X90487500Y-70568700D03*
X90487500Y-77068700D03*
D25*
X79187500Y-127000000D03*
X82737500Y-127000000D03*
X98237500Y-50800000D03*
X101787500Y-50800000D03*
D24*
X49212500Y-114487500D03*
X49212500Y-110937500D03*
D25*
X117287500Y-88900000D03*
X120837500Y-88900000D03*
D26*
X78212500Y-122925000D03*
X78212500Y-124325000D03*
X83712500Y-124325000D03*
X83712500Y-122925000D03*
D25*
X117287500Y-107950000D03*
X120837500Y-107950000D03*
D26*
X78212500Y-46925000D03*
X78212500Y-48325000D03*
X83712500Y-48325000D03*
X83712500Y-46925000D03*
X59162500Y-85025000D03*
X59162500Y-86425000D03*
X64662500Y-86425000D03*
X64662500Y-85025000D03*
X40112500Y-85025000D03*
X40112500Y-86425000D03*
X45612500Y-86425000D03*
X45612500Y-85025000D03*
D25*
X98237500Y-107950000D03*
X101787500Y-107950000D03*
X41087500Y-50800000D03*
X44637500Y-50800000D03*
D27*
X129162500Y-119062500D03*
X125162500Y-119062500D03*
D28*
X123462500Y-122812500D03*
X123462500Y-121312500D03*
X123462500Y-118312500D03*
X123462500Y-116812500D03*
D29*
X128262500Y-113762500D03*
D28*
X123462500Y-115312500D03*
D29*
X128262500Y-124362500D03*
D28*
X123462500Y-119812500D03*
D25*
X79187500Y-50800000D03*
X82737500Y-50800000D03*
X41087500Y-88900000D03*
X44637500Y-88900000D03*
D26*
X59162500Y-104075000D03*
X59162500Y-105475000D03*
X64662500Y-105475000D03*
X64662500Y-104075000D03*
D25*
X79187500Y-88900000D03*
X82737500Y-88900000D03*
D26*
X59162500Y-122925000D03*
X59162500Y-124325000D03*
X64662500Y-124325000D03*
X64662500Y-122925000D03*
X78212500Y-65975000D03*
X78212500Y-67375000D03*
X83712500Y-67375000D03*
X83712500Y-65975000D03*
D24*
X49212500Y-127187500D03*
X49212500Y-123637500D03*
D25*
X79187500Y-69850000D03*
X82737500Y-69850000D03*
D27*
X32737500Y-119062500D03*
X36737500Y-119062500D03*
D28*
X38437500Y-115312500D03*
X38437500Y-116812500D03*
X38437500Y-119812500D03*
X38437500Y-121312500D03*
D29*
X33637500Y-124362500D03*
D28*
X38437500Y-122812500D03*
D29*
X33637500Y-113762500D03*
D28*
X38437500Y-118312500D03*
D26*
X97262500Y-85025000D03*
X97262500Y-86425000D03*
X102762500Y-86425000D03*
X102762500Y-85025000D03*
D24*
X112687500Y-114487500D03*
X112687500Y-110937500D03*
D26*
X116312500Y-85025000D03*
X116312500Y-86425000D03*
X121812500Y-86425000D03*
X121812500Y-85025000D03*
X40112500Y-104075000D03*
X40112500Y-105475000D03*
X45612500Y-105475000D03*
X45612500Y-104075000D03*
D25*
X98237500Y-127000000D03*
X101787500Y-127000000D03*
X98237500Y-69850000D03*
X101787500Y-69850000D03*
X60137500Y-107950000D03*
X63687500Y-107950000D03*
D30*
X116750000Y-121812500D03*
X118150000Y-121812500D03*
X118150000Y-116312500D03*
X116750000Y-116312500D03*
D26*
X97262500Y-104075000D03*
X97262500Y-105475000D03*
X102762500Y-105475000D03*
X102762500Y-104075000D03*
X116312500Y-46925000D03*
X116312500Y-48325000D03*
X121812500Y-48325000D03*
X121812500Y-46925000D03*
X97631300Y-46925000D03*
X97631300Y-48325000D03*
X103131300Y-48325000D03*
X103131300Y-46925000D03*
X59162500Y-46925000D03*
X59162500Y-48325000D03*
X64662500Y-48325000D03*
X64662500Y-46925000D03*
D25*
X60137500Y-88900000D03*
X63687500Y-88900000D03*
X79187500Y-107950000D03*
X82737500Y-107950000D03*
X41087500Y-107950000D03*
X44637500Y-107950000D03*
X60137500Y-69850000D03*
X63687500Y-69850000D03*
D26*
X59162500Y-65975000D03*
X59162500Y-67375000D03*
X64662500Y-67375000D03*
X64662500Y-65975000D03*
X116312500Y-104075000D03*
X116312500Y-105475000D03*
X121812500Y-105475000D03*
X121812500Y-104075000D03*
D25*
X60137500Y-127000000D03*
X63687500Y-127000000D03*
X98237500Y-88900000D03*
X101787500Y-88900000D03*
D26*
X116312500Y-65975000D03*
X116312500Y-67375000D03*
X121812500Y-67375000D03*
X121812500Y-65975000D03*
D24*
X112687500Y-127187500D03*
X112687500Y-123637500D03*
D25*
X41087500Y-69850000D03*
X44637500Y-69850000D03*
X117287500Y-69850000D03*
X120837500Y-69850000D03*
D26*
X40112500Y-65975000D03*
X40112500Y-67375000D03*
X45612500Y-67375000D03*
X45612500Y-65975000D03*
D30*
X43750000Y-121812500D03*
X45150000Y-121812500D03*
X45150000Y-116312500D03*
X43750000Y-116312500D03*
D26*
X78212500Y-85025000D03*
X78212500Y-86425000D03*
X83712500Y-86425000D03*
X83712500Y-85025000D03*
X97262500Y-65975000D03*
X97262500Y-67375000D03*
X102762500Y-67375000D03*
X102762500Y-65975000D03*
X78212500Y-104075000D03*
X78212500Y-105475000D03*
X83712500Y-105475000D03*
X83712500Y-104075000D03*
X97262500Y-122925000D03*
X97262500Y-124325000D03*
X102762500Y-124325000D03*
X102762500Y-122925000D03*
D24*
X52387500Y-127187500D03*
X52387500Y-123637500D03*
X52387500Y-114487500D03*
X52387500Y-110937500D03*
D25*
X117287500Y-50800000D03*
X120837500Y-50800000D03*
M02*
