M48
; DRILL file {KiCad (6.0.7)} date Fri Sep 23 02:39:02 2022
; FORMAT={-:-/ absolute / inch / decimal}
; #@! TF.CreationDate,2022-09-23T02:39:02+09:00
; #@! TF.GenerationSoftware,Kicad,Pcbnew,(6.0.7)
; #@! TF.FileFunction,MixedPlating,1,2
FMAT,2
INCH
; #@! TA.AperFunction,Plated,PTH,ViaDrill
T1C0.0157
; #@! TA.AperFunction,Plated,PTH,ComponentDrill
T2C0.0315
; #@! TA.AperFunction,Plated,PTH,ComponentDrill
T3C0.0320
; #@! TA.AperFunction,Plated,PTH,ComponentDrill
T4C0.0394
; #@! TA.AperFunction,Plated,PTH,ComponentDrill
T5C0.0430
; #@! TA.AperFunction,Plated,PTH,ComponentDrill
T6C0.0512
; #@! TA.AperFunction,Plated,PTH,ComponentDrill
T7C0.0551
; #@! TA.AperFunction,Plated,PTH,ComponentDrill
T8C0.0866
; #@! TA.AperFunction,NonPlated,NPTH,ComponentDrill
T9C0.0472
; #@! TA.AperFunction,NonPlated,NPTH,ComponentDrill
T10C0.0748
; #@! TA.AperFunction,NonPlated,NPTH,ComponentDrill
T11C0.1575
%
G90
G05
T1
X1.4881Y-5.0197
X1.589Y-4.5859
X1.6051Y-4.8194
X1.7423Y-4.5199
X1.8684Y-5.0691
X1.9053Y-4.0883
X1.9053Y-4.1708
X1.9195Y-4.9378
X2.2109Y-4.9921
X2.2645Y-4.072
X2.2708Y-3.3864
X2.3059Y-2.8828
X2.4165Y-4.2116
X2.4285Y-2.7347
X2.5095Y-4.3379
X2.5196Y-4.7799
X2.536Y-3.2491
X2.5548Y-4.3436
X2.6153Y-2.2314
X3.0855Y-3.2965
X3.0872Y-2.6983
X3.2637Y-2.5332
X3.2829Y-4.0394
X3.6784Y-3.4862
X3.7173Y-2.0192
X3.769Y-4.1497
X3.7717Y-3.393
X3.7845Y-1.8475
X3.8408Y-2.5231
X3.9375Y-4.2403
X3.9385Y-5.0761
X4.3161Y-4.6581
X4.3346Y-2.8828
X4.4165Y-2.8353
X4.4255Y-2.0784
X4.4811Y-3.5246
X4.5211Y-4.0557
X4.5401Y-3.3012
X4.5938Y-4.5
X4.6461Y-4.3597
X4.6961Y-4.8354
X4.7387Y-4.5938
X4.7585Y-4.8153
T3
X1.5694Y-2.0
X1.5694Y-2.75
X1.5694Y-3.5
X1.5694Y-4.25
X1.8056Y-2.0
X1.8056Y-2.75
X1.8056Y-3.5
X1.8056Y-4.25
X1.9375Y-4.3194
X1.9375Y-4.5556
X1.9375Y-4.8194
X1.9375Y-5.0556
X2.0625Y-4.3194
X2.0625Y-4.5556
X2.0625Y-4.8194
X2.0625Y-5.0556
X2.3194Y-2.0
X2.3194Y-2.75
X2.3194Y-3.5
X2.3194Y-4.25
X2.3194Y-5.0
X2.5556Y-2.0
X2.5556Y-2.75
X2.5556Y-3.5
X2.5556Y-4.25
X2.5556Y-5.0
X3.0694Y-2.0
X3.0694Y-2.75
X3.0694Y-3.5
X3.0694Y-4.25
X3.0694Y-5.0
X3.3056Y-2.0
X3.3056Y-2.75
X3.3056Y-3.5
X3.3056Y-4.25
X3.3056Y-5.0
X3.8194Y-2.0
X3.8194Y-2.75
X3.8194Y-3.5
X3.8194Y-4.25
X3.8194Y-5.0
X4.0556Y-2.0
X4.0556Y-2.75
X4.0556Y-3.5
X4.0556Y-4.25
X4.0556Y-5.0
X4.3115Y-4.3194
X4.3115Y-4.5556
X4.3115Y-4.8194
X4.3115Y-5.0556
X4.4365Y-4.3194
X4.4365Y-4.5556
X4.4365Y-4.8194
X4.4365Y-5.0556
X4.5694Y-2.0
X4.5694Y-2.75
X4.5694Y-3.5
X4.5694Y-4.25
X4.8056Y-2.0
X4.8056Y-2.75
X4.8056Y-3.5
X4.8056Y-4.25
T4
X1.5891Y-4.4119
X1.5891Y-4.9828
X1.6875Y-4.9828
X1.7859Y-4.4119
X1.7859Y-4.9828
X4.5881Y-4.4119
X4.5881Y-4.9828
X4.6865Y-4.9828
X4.7849Y-4.4119
X4.7849Y-4.9828
T5
X2.8785Y-1.4657
X2.8785Y-1.6657
X2.8785Y-1.8657
X2.8785Y-2.0657
X2.8785Y-2.2657
X2.8785Y-2.4657
X2.8965Y-1.5657
X2.8965Y-1.7657
X2.8965Y-1.9657
X2.8965Y-2.1657
X2.8965Y-2.3657
X2.8965Y-2.5657
X3.4785Y-1.5657
X3.4785Y-1.7657
X3.4785Y-1.9657
X3.4785Y-2.1657
X3.4785Y-2.3657
X3.4785Y-2.5657
X3.4965Y-1.4657
X3.4965Y-1.6657
X3.4965Y-1.8657
X3.4965Y-2.0657
X3.4965Y-2.2657
X3.4965Y-2.4657
T6
X3.5625Y-2.7783
X3.5625Y-3.0342
T8
X1.375Y-2.0
X1.375Y-3.5625
X2.8125Y-5.0
X3.5625Y-5.0
X5.0Y-2.0
X5.0Y-3.5625
T9
X1.2889Y-4.6875
X1.4464Y-4.6875
X4.9277Y-4.6875
X5.0851Y-4.6875
T10
X1.4875Y-1.6875
X1.4875Y-2.4375
X1.4875Y-3.1875
X1.4875Y-3.9375
X1.8875Y-1.6875
X1.8875Y-2.4375
X1.8875Y-3.1875
X1.8875Y-3.9375
X2.2362Y-3.9375
X2.2375Y-4.6875
X2.2375Y-1.6875
X2.2375Y-2.4375
X2.2375Y-3.1875
X2.6362Y-3.9375
X2.6375Y-4.6875
X2.6375Y-1.6875
X2.6375Y-2.4375
X2.6375Y-3.1875
X2.9875Y-4.6875
X2.9875Y-1.6875
X2.9875Y-2.4375
X2.9875Y-3.1875
X2.9875Y-3.9375
X3.3875Y-4.6875
X3.3875Y-1.6875
X3.3875Y-2.4375
X3.3875Y-3.1875
X3.3875Y-3.9375
X3.7375Y-1.6875
X3.7375Y-2.4375
X3.7375Y-3.1875
X3.7375Y-3.9375
X3.7375Y-4.6875
X4.1375Y-1.6875
X4.1375Y-2.4375
X4.1375Y-3.1875
X4.1375Y-3.9375
X4.1375Y-4.6875
X4.4875Y-1.6875
X4.4875Y-2.4375
X4.4875Y-3.1875
X4.4875Y-3.9375
X4.8875Y-1.6875
X4.8875Y-2.4375
X4.8875Y-3.1875
X4.8875Y-3.9375
T11
X1.6875Y-1.6875
X1.6875Y-2.4375
X1.6875Y-3.1875
X1.6875Y-3.9375
X2.4362Y-3.9375
X2.4375Y-4.6875
X2.4375Y-1.6875
X2.4375Y-2.4375
X2.4375Y-3.1875
X3.1875Y-4.6875
X3.1875Y-1.6875
X3.1875Y-2.4375
X3.1875Y-3.1875
X3.1875Y-3.9375
X3.9375Y-1.6875
X3.9375Y-2.4375
X3.9375Y-3.1875
X3.9375Y-3.9375
X3.9375Y-4.6875
X4.6875Y-1.6875
X4.6875Y-2.4375
X4.6875Y-3.1875
X4.6875Y-3.9375
T2
G00X1.5296Y-1.5875
M15
G01X1.5454Y-1.5875
M16
G05
G00X1.5296Y-2.3375
M15
G01X1.5454Y-2.3375
M16
G05
G00X1.5296Y-3.0875
M15
G01X1.5454Y-3.0875
M16
G05
G00X1.5296Y-3.8375
M15
G01X1.5454Y-3.8375
M16
G05
G00X1.7796Y-1.4875
M15
G01X1.7954Y-1.4875
M16
G05
G00X1.7796Y-2.2375
M15
G01X1.7954Y-2.2375
M16
G05
G00X1.7796Y-2.9875
M15
G01X1.7954Y-2.9875
M16
G05
G00X1.7796Y-3.7375
M15
G01X1.7954Y-3.7375
M16
G05
G00X2.2783Y-3.8375
M15
G01X2.2941Y-3.8375
M16
G05
G00X2.2796Y-4.5875
M15
G01X2.2953Y-4.5875
M16
G05
G00X2.2796Y-1.5875
M15
G01X2.2954Y-1.5875
M16
G05
G00X2.2796Y-2.3375
M15
G01X2.2954Y-2.3375
M16
G05
G00X2.2796Y-3.0875
M15
G01X2.2954Y-3.0875
M16
G05
G00X2.5283Y-3.7375
M15
G01X2.5441Y-3.7375
M16
G05
G00X2.5296Y-4.4875
M15
G01X2.5453Y-4.4875
M16
G05
G00X2.5296Y-1.4875
M15
G01X2.5454Y-1.4875
M16
G05
G00X2.5296Y-2.2375
M15
G01X2.5454Y-2.2375
M16
G05
G00X2.5296Y-2.9875
M15
G01X2.5454Y-2.9875
M16
G05
G00X3.0296Y-4.5875
M15
G01X3.0453Y-4.5875
M16
G05
G00X3.0296Y-1.5875
M15
G01X3.0454Y-1.5875
M16
G05
G00X3.0296Y-2.3375
M15
G01X3.0454Y-2.3375
M16
G05
G00X3.0296Y-3.0875
M15
G01X3.0454Y-3.0875
M16
G05
G00X3.0296Y-3.8375
M15
G01X3.0454Y-3.8375
M16
G05
G00X3.2796Y-4.4875
M15
G01X3.2953Y-4.4875
M16
G05
G00X3.2796Y-1.4875
M15
G01X3.2954Y-1.4875
M16
G05
G00X3.2796Y-2.2375
M15
G01X3.2954Y-2.2375
M16
G05
G00X3.2796Y-2.9875
M15
G01X3.2954Y-2.9875
M16
G05
G00X3.2796Y-3.7375
M15
G01X3.2954Y-3.7375
M16
G05
G00X3.7796Y-1.5875
M15
G01X3.7954Y-1.5875
M16
G05
G00X3.7796Y-2.3375
M15
G01X3.7954Y-2.3375
M16
G05
G00X3.7796Y-3.0875
M15
G01X3.7954Y-3.0875
M16
G05
G00X3.7796Y-3.8375
M15
G01X3.7954Y-3.8375
M16
G05
G00X3.7796Y-4.5875
M15
G01X3.7954Y-4.5875
M16
G05
G00X4.0296Y-1.4875
M15
G01X4.0454Y-1.4875
M16
G05
G00X4.0296Y-2.2375
M15
G01X4.0454Y-2.2375
M16
G05
G00X4.0296Y-2.9875
M15
G01X4.0454Y-2.9875
M16
G05
G00X4.0296Y-3.7375
M15
G01X4.0454Y-3.7375
M16
G05
G00X4.0296Y-4.4875
M15
G01X4.0454Y-4.4875
M16
G05
G00X4.5296Y-1.5875
M15
G01X4.5454Y-1.5875
M16
G05
G00X4.5296Y-2.3375
M15
G01X4.5454Y-2.3375
M16
G05
G00X4.5296Y-3.0875
M15
G01X4.5454Y-3.0875
M16
G05
G00X4.5296Y-3.8375
M15
G01X4.5454Y-3.8375
M16
G05
G00X4.7796Y-1.4875
M15
G01X4.7954Y-1.4875
M16
G05
G00X4.7796Y-2.2375
M15
G01X4.7954Y-2.2375
M16
G05
G00X4.7796Y-2.9875
M15
G01X4.7954Y-2.9875
M16
G05
G00X4.7796Y-3.7375
M15
G01X4.7954Y-3.7375
M16
G05
T7
G00X1.908Y-4.7151
M15
G01X1.908Y-4.6599
M16
G05
G00X4.466Y-4.7151
M15
G01X4.466Y-4.6599
M16
G05
T0
M30
