G04 #@! TF.GenerationSoftware,KiCad,Pcbnew,(6.0.7)*
G04 #@! TF.CreationDate,2022-09-23T02:39:01+09:00*
G04 #@! TF.ProjectId,xipher_kbd_nohot,78697068-6572-45f6-9b62-645f6e6f686f,rev?*
G04 #@! TF.SameCoordinates,Original*
G04 #@! TF.FileFunction,Soldermask,Top*
G04 #@! TF.FilePolarity,Negative*
%FSLAX46Y46*%
G04 Gerber Fmt 4.6, Leading zero omitted, Abs format (unit mm)*
G04 Created by KiCad (PCBNEW (6.0.7)) date 2022-09-23 02:39:01*
%MOMM*%
%LPD*%
G01*
G04 APERTURE LIST*
%ADD10R,1.752600X1.752600*%
%ADD11C,1.752600*%
%ADD12C,1.900000*%
%ADD13C,4.000000*%
%ADD14C,3.800000*%
%ADD15R,2.000000X2.000000*%
%ADD16C,2.000000*%
%ADD17O,2.000000X3.400000*%
%ADD18R,1.300000X1.778000*%
%ADD19O,1.300000X1.778000*%
%ADD20R,1.778000X1.300000*%
%ADD21O,1.778000X1.300000*%
%ADD22C,1.200000*%
G04 APERTURE END LIST*
D10*
X73113900Y-37229200D03*
D11*
X73571100Y-39769200D03*
X73113900Y-42309200D03*
X73571100Y-44849200D03*
X73113900Y-47389200D03*
X73571100Y-49929200D03*
X73113900Y-52469200D03*
X73571100Y-55009200D03*
X73113900Y-57549200D03*
X73571100Y-60089200D03*
X73113900Y-62629200D03*
X73571100Y-65169200D03*
X88353900Y-65169200D03*
X88811100Y-62629200D03*
X88353900Y-60089200D03*
X88811100Y-57549200D03*
X88353900Y-55009200D03*
X88811100Y-52469200D03*
X88353900Y-49929200D03*
X88811100Y-47389200D03*
X88353900Y-44849200D03*
X88811100Y-42309200D03*
X88353900Y-39769200D03*
X88811100Y-37229200D03*
D12*
X86042500Y-100012500D03*
X75882500Y-100012500D03*
D13*
X80962500Y-100012500D03*
D12*
X37782500Y-61912500D03*
D13*
X42862500Y-61912500D03*
D12*
X47942500Y-61912500D03*
D14*
X127000000Y-90487500D03*
D12*
X124142500Y-42862500D03*
D13*
X119062500Y-42862500D03*
D12*
X113982500Y-42862500D03*
D14*
X127000000Y-50800000D03*
X34925000Y-50800000D03*
D12*
X47942500Y-42862500D03*
X37782500Y-42862500D03*
D13*
X42862500Y-42862500D03*
X119062500Y-61912500D03*
D12*
X113982500Y-61912500D03*
X124142500Y-61912500D03*
D13*
X100012500Y-61912500D03*
D12*
X94932500Y-61912500D03*
X105092500Y-61912500D03*
X94932500Y-80962500D03*
X105092500Y-80962500D03*
D13*
X100012500Y-80962500D03*
D14*
X71437500Y-127000000D03*
D12*
X94932500Y-42862500D03*
X105092500Y-42862500D03*
D13*
X100012500Y-42862500D03*
X61880000Y-100012500D03*
D12*
X66960000Y-100012500D03*
X56800000Y-100012500D03*
D14*
X90487500Y-127000000D03*
D13*
X80961400Y-119062500D03*
D12*
X75881400Y-119062500D03*
X86041400Y-119062500D03*
X105092500Y-119062500D03*
X94932500Y-119062500D03*
D13*
X100012500Y-119062500D03*
D12*
X75882500Y-42862500D03*
D13*
X80962500Y-42862500D03*
D12*
X86042500Y-42862500D03*
X94932500Y-100012500D03*
D13*
X100012500Y-100012500D03*
D12*
X105092500Y-100012500D03*
D13*
X61912500Y-61912500D03*
D12*
X66992500Y-61912500D03*
X56832500Y-61912500D03*
D15*
X116537500Y-126562500D03*
D16*
X121537500Y-126562500D03*
X119037500Y-126562500D03*
D17*
X113437500Y-119062500D03*
D16*
X121537500Y-112062500D03*
X116537500Y-112062500D03*
D12*
X37782500Y-80962500D03*
D13*
X42862500Y-80962500D03*
D12*
X47942500Y-80962500D03*
X124142500Y-100012500D03*
X113982500Y-100012500D03*
D13*
X119062500Y-100012500D03*
X61912500Y-80962500D03*
D12*
X66992500Y-80962500D03*
X56832500Y-80962500D03*
D14*
X34925000Y-90487500D03*
D12*
X66991400Y-119062500D03*
X56831400Y-119062500D03*
D13*
X61911400Y-119062500D03*
X61912500Y-42862500D03*
D12*
X66992500Y-42862500D03*
X56832500Y-42862500D03*
X47942500Y-100012500D03*
X37782500Y-100012500D03*
D13*
X42862500Y-100012500D03*
D12*
X75882500Y-80962500D03*
X86042500Y-80962500D03*
D13*
X80962500Y-80962500D03*
X80962500Y-61912500D03*
D12*
X75882500Y-61912500D03*
X86042500Y-61912500D03*
D13*
X119062500Y-80962500D03*
D12*
X113982500Y-80962500D03*
X124142500Y-80962500D03*
D15*
X40362500Y-126562500D03*
D16*
X45362500Y-126562500D03*
X42862500Y-126562500D03*
D17*
X48462500Y-119062500D03*
D16*
X45362500Y-112062500D03*
X40362500Y-112062500D03*
D18*
X109512500Y-128412500D03*
D19*
X109512500Y-122412500D03*
D20*
X58912500Y-50800000D03*
D21*
X64912500Y-50800000D03*
D18*
X109512500Y-115712500D03*
D19*
X109512500Y-109712500D03*
D16*
X90487500Y-70568700D03*
X90487500Y-77068700D03*
D20*
X77962500Y-127000000D03*
D21*
X83962500Y-127000000D03*
D20*
X97012500Y-50800000D03*
D21*
X103012500Y-50800000D03*
D18*
X49212500Y-115712500D03*
D19*
X49212500Y-109712500D03*
D20*
X116062500Y-88900000D03*
D21*
X122062500Y-88900000D03*
D20*
X116062500Y-107950000D03*
D21*
X122062500Y-107950000D03*
D20*
X97012500Y-107950000D03*
D21*
X103012500Y-107950000D03*
D20*
X39862500Y-50800000D03*
D21*
X45862500Y-50800000D03*
D22*
X129162500Y-119062500D03*
X125162500Y-119062500D03*
D20*
X77962500Y-50800000D03*
D21*
X83962500Y-50800000D03*
D20*
X39862500Y-88900000D03*
D21*
X45862500Y-88900000D03*
D20*
X77962500Y-88900000D03*
D21*
X83962500Y-88900000D03*
D18*
X49212500Y-128412500D03*
D19*
X49212500Y-122412500D03*
D20*
X77962500Y-69850000D03*
D21*
X83962500Y-69850000D03*
D22*
X32737500Y-119062500D03*
X36737500Y-119062500D03*
D18*
X112687500Y-115712500D03*
D19*
X112687500Y-109712500D03*
D20*
X97012500Y-127000000D03*
D21*
X103012500Y-127000000D03*
D20*
X97012500Y-69850000D03*
D21*
X103012500Y-69850000D03*
D20*
X58912500Y-107950000D03*
D21*
X64912500Y-107950000D03*
D20*
X58912500Y-88900000D03*
D21*
X64912500Y-88900000D03*
D20*
X77962500Y-107950000D03*
D21*
X83962500Y-107950000D03*
D20*
X39862500Y-107950000D03*
D21*
X45862500Y-107950000D03*
D20*
X58912500Y-69850000D03*
D21*
X64912500Y-69850000D03*
D20*
X58912500Y-127000000D03*
D21*
X64912500Y-127000000D03*
D20*
X97012500Y-88900000D03*
D21*
X103012500Y-88900000D03*
D18*
X112687500Y-128412500D03*
D19*
X112687500Y-122412500D03*
D20*
X39862500Y-69850000D03*
D21*
X45862500Y-69850000D03*
D20*
X116062500Y-69850000D03*
D21*
X122062500Y-69850000D03*
D18*
X52387500Y-128412500D03*
D19*
X52387500Y-122412500D03*
D18*
X52387500Y-115712500D03*
D19*
X52387500Y-109712500D03*
D20*
X116062500Y-50800000D03*
D21*
X122062500Y-50800000D03*
M02*
