G04 #@! TF.GenerationSoftware,KiCad,Pcbnew,(6.0.7)*
G04 #@! TF.CreationDate,2022-09-23T02:39:01+09:00*
G04 #@! TF.ProjectId,xipher_kbd_nohot,78697068-6572-45f6-9b62-645f6e6f686f,rev?*
G04 #@! TF.SameCoordinates,Original*
G04 #@! TF.FileFunction,Soldermask,Bot*
G04 #@! TF.FilePolarity,Negative*
%FSLAX46Y46*%
G04 Gerber Fmt 4.6, Leading zero omitted, Abs format (unit mm)*
G04 Created by KiCad (PCBNEW (6.0.7)) date 2022-09-23 02:39:01*
%MOMM*%
%LPD*%
G01*
G04 APERTURE LIST*
%ADD10R,1.752600X1.752600*%
%ADD11C,1.752600*%
%ADD12C,1.900000*%
%ADD13C,4.000000*%
%ADD14O,2.500000X2.000000*%
%ADD15C,3.800000*%
%ADD16R,2.000000X2.000000*%
%ADD17C,2.000000*%
%ADD18O,2.000000X3.400000*%
%ADD19R,1.300000X1.400000*%
%ADD20R,1.400000X1.300000*%
%ADD21R,1.700000X1.000000*%
%ADD22C,1.200000*%
%ADD23R,1.600000X1.000000*%
%ADD24R,1.100000X1.600000*%
%ADD25R,1.000000X1.700000*%
G04 APERTURE END LIST*
D10*
X73113900Y-37229200D03*
D11*
X73571100Y-39769200D03*
X73113900Y-42309200D03*
X73571100Y-44849200D03*
X73113900Y-47389200D03*
X73571100Y-49929200D03*
X73113900Y-52469200D03*
X73571100Y-55009200D03*
X73113900Y-57549200D03*
X73571100Y-60089200D03*
X73113900Y-62629200D03*
X73571100Y-65169200D03*
X88353900Y-65169200D03*
X88811100Y-62629200D03*
X88353900Y-60089200D03*
X88811100Y-57549200D03*
X88353900Y-55009200D03*
X88811100Y-52469200D03*
X88353900Y-49929200D03*
X88811100Y-47389200D03*
X88353900Y-44849200D03*
X88811100Y-42309200D03*
X88353900Y-39769200D03*
X88811100Y-37229200D03*
D12*
X86042500Y-100012500D03*
X75882500Y-100012500D03*
D13*
X80962500Y-100012500D03*
D14*
X77152500Y-97472500D03*
X83502500Y-94932500D03*
D12*
X37782500Y-61912500D03*
D13*
X42862500Y-61912500D03*
D12*
X47942500Y-61912500D03*
D14*
X39052500Y-59372500D03*
X45402500Y-56832500D03*
D15*
X127000000Y-90487500D03*
D12*
X124142500Y-42862500D03*
D13*
X119062500Y-42862500D03*
D12*
X113982500Y-42862500D03*
D14*
X115252500Y-40322500D03*
X121602500Y-37782500D03*
D15*
X127000000Y-50800000D03*
X34925000Y-50800000D03*
D12*
X47942500Y-42862500D03*
X37782500Y-42862500D03*
D13*
X42862500Y-42862500D03*
D14*
X39052500Y-40322500D03*
X45402500Y-37782500D03*
D13*
X119062500Y-61912500D03*
D12*
X113982500Y-61912500D03*
X124142500Y-61912500D03*
D14*
X115252500Y-59372500D03*
X121602500Y-56832500D03*
D13*
X100012500Y-61912500D03*
D12*
X94932500Y-61912500D03*
X105092500Y-61912500D03*
D14*
X96202500Y-59372500D03*
X102552500Y-56832500D03*
D12*
X94932500Y-80962500D03*
X105092500Y-80962500D03*
D13*
X100012500Y-80962500D03*
D14*
X96202500Y-78422500D03*
X102552500Y-75882500D03*
D15*
X71437500Y-127000000D03*
D12*
X94932500Y-42862500D03*
X105092500Y-42862500D03*
D13*
X100012500Y-42862500D03*
D14*
X96202500Y-40322500D03*
X102552500Y-37782500D03*
D13*
X61880000Y-100012500D03*
D12*
X66960000Y-100012500D03*
X56800000Y-100012500D03*
D14*
X58070000Y-97472500D03*
X64420000Y-94932500D03*
D15*
X90487500Y-127000000D03*
D13*
X80961400Y-119062500D03*
D12*
X75881400Y-119062500D03*
X86041400Y-119062500D03*
D14*
X77151400Y-116522500D03*
X83501400Y-113982500D03*
D12*
X105092500Y-119062500D03*
X94932500Y-119062500D03*
D13*
X100012500Y-119062500D03*
D14*
X96202500Y-116522500D03*
X102552500Y-113982500D03*
D12*
X75882500Y-42862500D03*
D13*
X80962500Y-42862500D03*
D12*
X86042500Y-42862500D03*
D14*
X77152500Y-40322500D03*
X83502500Y-37782500D03*
D12*
X94932500Y-100012500D03*
D13*
X100012500Y-100012500D03*
D12*
X105092500Y-100012500D03*
D14*
X96202500Y-97472500D03*
X102552500Y-94932500D03*
D13*
X61912500Y-61912500D03*
D12*
X66992500Y-61912500D03*
X56832500Y-61912500D03*
D14*
X58102500Y-59372500D03*
X64452500Y-56832500D03*
D16*
X116537500Y-126562500D03*
D17*
X121537500Y-126562500D03*
X119037500Y-126562500D03*
D18*
X113437500Y-119062500D03*
D17*
X121537500Y-112062500D03*
X116537500Y-112062500D03*
D12*
X37782500Y-80962500D03*
D13*
X42862500Y-80962500D03*
D12*
X47942500Y-80962500D03*
D14*
X39052500Y-78422500D03*
X45402500Y-75882500D03*
D12*
X124142500Y-100012500D03*
X113982500Y-100012500D03*
D13*
X119062500Y-100012500D03*
D14*
X115252500Y-97472500D03*
X121602500Y-94932500D03*
D13*
X61912500Y-80962500D03*
D12*
X66992500Y-80962500D03*
X56832500Y-80962500D03*
D14*
X58102500Y-78422500D03*
X64452500Y-75882500D03*
D15*
X34925000Y-90487500D03*
D12*
X66991400Y-119062500D03*
X56831400Y-119062500D03*
D13*
X61911400Y-119062500D03*
D14*
X58101400Y-116522500D03*
X64451400Y-113982500D03*
D13*
X61912500Y-42862500D03*
D12*
X66992500Y-42862500D03*
X56832500Y-42862500D03*
D14*
X58102500Y-40322500D03*
X64452500Y-37782500D03*
D12*
X47942500Y-100012500D03*
X37782500Y-100012500D03*
D13*
X42862500Y-100012500D03*
D14*
X39052500Y-97472500D03*
X45402500Y-94932500D03*
D12*
X75882500Y-80962500D03*
X86042500Y-80962500D03*
D13*
X80962500Y-80962500D03*
D14*
X77152500Y-78422500D03*
X83502500Y-75882500D03*
D13*
X80962500Y-61912500D03*
D12*
X75882500Y-61912500D03*
X86042500Y-61912500D03*
D14*
X77152500Y-59372500D03*
X83502500Y-56832500D03*
D13*
X119062500Y-80962500D03*
D12*
X113982500Y-80962500D03*
X124142500Y-80962500D03*
D14*
X115252500Y-78422500D03*
X121602500Y-75882500D03*
D16*
X40362500Y-126562500D03*
D17*
X45362500Y-126562500D03*
X42862500Y-126562500D03*
D18*
X48462500Y-119062500D03*
D17*
X45362500Y-112062500D03*
X40362500Y-112062500D03*
D19*
X109512500Y-127187500D03*
X109512500Y-123637500D03*
D20*
X60137500Y-50800000D03*
X63687500Y-50800000D03*
D21*
X40112500Y-46925000D03*
X40112500Y-48325000D03*
X45612500Y-48325000D03*
X45612500Y-46925000D03*
D19*
X109512500Y-114487500D03*
X109512500Y-110937500D03*
D17*
X90487500Y-70568700D03*
X90487500Y-77068700D03*
D20*
X79187500Y-127000000D03*
X82737500Y-127000000D03*
X98237500Y-50800000D03*
X101787500Y-50800000D03*
D19*
X49212500Y-114487500D03*
X49212500Y-110937500D03*
D20*
X117287500Y-88900000D03*
X120837500Y-88900000D03*
D21*
X78212500Y-122925000D03*
X78212500Y-124325000D03*
X83712500Y-124325000D03*
X83712500Y-122925000D03*
D20*
X117287500Y-107950000D03*
X120837500Y-107950000D03*
D21*
X78212500Y-46925000D03*
X78212500Y-48325000D03*
X83712500Y-48325000D03*
X83712500Y-46925000D03*
X59162500Y-85025000D03*
X59162500Y-86425000D03*
X64662500Y-86425000D03*
X64662500Y-85025000D03*
X40112500Y-85025000D03*
X40112500Y-86425000D03*
X45612500Y-86425000D03*
X45612500Y-85025000D03*
D20*
X98237500Y-107950000D03*
X101787500Y-107950000D03*
X41087500Y-50800000D03*
X44637500Y-50800000D03*
D22*
X129162500Y-119062500D03*
X125162500Y-119062500D03*
D23*
X123462500Y-122812500D03*
X123462500Y-121312500D03*
X123462500Y-118312500D03*
X123462500Y-116812500D03*
D24*
X128262500Y-113762500D03*
D23*
X123462500Y-115312500D03*
D24*
X128262500Y-124362500D03*
D23*
X123462500Y-119812500D03*
D20*
X79187500Y-50800000D03*
X82737500Y-50800000D03*
X41087500Y-88900000D03*
X44637500Y-88900000D03*
D21*
X59162500Y-104075000D03*
X59162500Y-105475000D03*
X64662500Y-105475000D03*
X64662500Y-104075000D03*
D20*
X79187500Y-88900000D03*
X82737500Y-88900000D03*
D21*
X59162500Y-122925000D03*
X59162500Y-124325000D03*
X64662500Y-124325000D03*
X64662500Y-122925000D03*
X78212500Y-65975000D03*
X78212500Y-67375000D03*
X83712500Y-67375000D03*
X83712500Y-65975000D03*
D19*
X49212500Y-127187500D03*
X49212500Y-123637500D03*
D20*
X79187500Y-69850000D03*
X82737500Y-69850000D03*
D22*
X32737500Y-119062500D03*
X36737500Y-119062500D03*
D23*
X38437500Y-115312500D03*
X38437500Y-116812500D03*
X38437500Y-119812500D03*
X38437500Y-121312500D03*
D24*
X33637500Y-124362500D03*
D23*
X38437500Y-122812500D03*
D24*
X33637500Y-113762500D03*
D23*
X38437500Y-118312500D03*
D21*
X97262500Y-85025000D03*
X97262500Y-86425000D03*
X102762500Y-86425000D03*
X102762500Y-85025000D03*
D19*
X112687500Y-114487500D03*
X112687500Y-110937500D03*
D21*
X116312500Y-85025000D03*
X116312500Y-86425000D03*
X121812500Y-86425000D03*
X121812500Y-85025000D03*
X40112500Y-104075000D03*
X40112500Y-105475000D03*
X45612500Y-105475000D03*
X45612500Y-104075000D03*
D20*
X98237500Y-127000000D03*
X101787500Y-127000000D03*
X98237500Y-69850000D03*
X101787500Y-69850000D03*
X60137500Y-107950000D03*
X63687500Y-107950000D03*
D25*
X116750000Y-121812500D03*
X118150000Y-121812500D03*
X118150000Y-116312500D03*
X116750000Y-116312500D03*
D21*
X97262500Y-104075000D03*
X97262500Y-105475000D03*
X102762500Y-105475000D03*
X102762500Y-104075000D03*
X116312500Y-46925000D03*
X116312500Y-48325000D03*
X121812500Y-48325000D03*
X121812500Y-46925000D03*
X97631300Y-46925000D03*
X97631300Y-48325000D03*
X103131300Y-48325000D03*
X103131300Y-46925000D03*
X59162500Y-46925000D03*
X59162500Y-48325000D03*
X64662500Y-48325000D03*
X64662500Y-46925000D03*
D20*
X60137500Y-88900000D03*
X63687500Y-88900000D03*
X79187500Y-107950000D03*
X82737500Y-107950000D03*
X41087500Y-107950000D03*
X44637500Y-107950000D03*
X60137500Y-69850000D03*
X63687500Y-69850000D03*
D21*
X59162500Y-65975000D03*
X59162500Y-67375000D03*
X64662500Y-67375000D03*
X64662500Y-65975000D03*
X116312500Y-104075000D03*
X116312500Y-105475000D03*
X121812500Y-105475000D03*
X121812500Y-104075000D03*
D20*
X60137500Y-127000000D03*
X63687500Y-127000000D03*
X98237500Y-88900000D03*
X101787500Y-88900000D03*
D21*
X116312500Y-65975000D03*
X116312500Y-67375000D03*
X121812500Y-67375000D03*
X121812500Y-65975000D03*
D19*
X112687500Y-127187500D03*
X112687500Y-123637500D03*
D20*
X41087500Y-69850000D03*
X44637500Y-69850000D03*
X117287500Y-69850000D03*
X120837500Y-69850000D03*
D21*
X40112500Y-65975000D03*
X40112500Y-67375000D03*
X45612500Y-67375000D03*
X45612500Y-65975000D03*
D25*
X43750000Y-121812500D03*
X45150000Y-121812500D03*
X45150000Y-116312500D03*
X43750000Y-116312500D03*
D21*
X78212500Y-85025000D03*
X78212500Y-86425000D03*
X83712500Y-86425000D03*
X83712500Y-85025000D03*
X97262500Y-65975000D03*
X97262500Y-67375000D03*
X102762500Y-67375000D03*
X102762500Y-65975000D03*
X78212500Y-104075000D03*
X78212500Y-105475000D03*
X83712500Y-105475000D03*
X83712500Y-104075000D03*
X97262500Y-122925000D03*
X97262500Y-124325000D03*
X102762500Y-124325000D03*
X102762500Y-122925000D03*
D19*
X52387500Y-127187500D03*
X52387500Y-123637500D03*
X52387500Y-114487500D03*
X52387500Y-110937500D03*
D20*
X117287500Y-50800000D03*
X120837500Y-50800000D03*
M02*
